<?xml version="1.0" encoding="utf-8"?>
<svg xmlns="http://www.w3.org/2000/svg" xmlns:xlink="http://www.w3.org/1999/xlink" width="600" height="400" viewBox="0 0 2400 1600">
<defs>
  <clipPath id="clip210">
    <rect x="0" y="0" width="2400" height="1600"/>
  </clipPath>
</defs>
<path clip-path="url(#clip210)" d="M0 1600 L2400 1600 L2400 0 L0 0  Z" fill="#ffffff" fill-rule="evenodd" fill-opacity="1"/>
<defs>
  <clipPath id="clip211">
    <rect x="480" y="0" width="1681" height="1600"/>
  </clipPath>
</defs>
<path clip-path="url(#clip210)" d="M216.436 1423.18 L1182.67 1423.18 L1182.67 47.2441 L216.436 47.2441  Z" fill="#ffffff" fill-rule="evenodd" fill-opacity="1"/>
<defs>
  <clipPath id="clip212">
    <rect x="216" y="47" width="967" height="1377"/>
  </clipPath>
</defs>
<polyline clip-path="url(#clip212)" style="stroke:#000000; stroke-linecap:round; stroke-linejoin:round; stroke-width:2; stroke-opacity:0.1; fill:none" points="229.08,1423.18 229.08,47.2441 "/>
<polyline clip-path="url(#clip212)" style="stroke:#000000; stroke-linecap:round; stroke-linejoin:round; stroke-width:2; stroke-opacity:0.1; fill:none" points="376.103,1423.18 376.103,47.2441 "/>
<polyline clip-path="url(#clip212)" style="stroke:#000000; stroke-linecap:round; stroke-linejoin:round; stroke-width:2; stroke-opacity:0.1; fill:none" points="523.127,1423.18 523.127,47.2441 "/>
<polyline clip-path="url(#clip212)" style="stroke:#000000; stroke-linecap:round; stroke-linejoin:round; stroke-width:2; stroke-opacity:0.1; fill:none" points="670.151,1423.18 670.151,47.2441 "/>
<polyline clip-path="url(#clip212)" style="stroke:#000000; stroke-linecap:round; stroke-linejoin:round; stroke-width:2; stroke-opacity:0.1; fill:none" points="817.174,1423.18 817.174,47.2441 "/>
<polyline clip-path="url(#clip212)" style="stroke:#000000; stroke-linecap:round; stroke-linejoin:round; stroke-width:2; stroke-opacity:0.1; fill:none" points="964.198,1423.18 964.198,47.2441 "/>
<polyline clip-path="url(#clip212)" style="stroke:#000000; stroke-linecap:round; stroke-linejoin:round; stroke-width:2; stroke-opacity:0.1; fill:none" points="1111.22,1423.18 1111.22,47.2441 "/>
<polyline clip-path="url(#clip212)" style="stroke:#000000; stroke-linecap:round; stroke-linejoin:round; stroke-width:2; stroke-opacity:0.1; fill:none" points="216.436,1228.3 1182.67,1228.3 "/>
<polyline clip-path="url(#clip212)" style="stroke:#000000; stroke-linecap:round; stroke-linejoin:round; stroke-width:2; stroke-opacity:0.1; fill:none" points="216.436,1013.48 1182.67,1013.48 "/>
<polyline clip-path="url(#clip212)" style="stroke:#000000; stroke-linecap:round; stroke-linejoin:round; stroke-width:2; stroke-opacity:0.1; fill:none" points="216.436,798.659 1182.67,798.659 "/>
<polyline clip-path="url(#clip212)" style="stroke:#000000; stroke-linecap:round; stroke-linejoin:round; stroke-width:2; stroke-opacity:0.1; fill:none" points="216.436,583.839 1182.67,583.839 "/>
<polyline clip-path="url(#clip212)" style="stroke:#000000; stroke-linecap:round; stroke-linejoin:round; stroke-width:2; stroke-opacity:0.1; fill:none" points="216.436,369.02 1182.67,369.02 "/>
<polyline clip-path="url(#clip212)" style="stroke:#000000; stroke-linecap:round; stroke-linejoin:round; stroke-width:2; stroke-opacity:0.1; fill:none" points="216.436,154.2 1182.67,154.2 "/>
<polyline clip-path="url(#clip210)" style="stroke:#000000; stroke-linecap:round; stroke-linejoin:round; stroke-width:4; stroke-opacity:1; fill:none" points="216.436,1423.18 1182.67,1423.18 "/>
<polyline clip-path="url(#clip210)" style="stroke:#000000; stroke-linecap:round; stroke-linejoin:round; stroke-width:4; stroke-opacity:1; fill:none" points="229.08,1423.18 229.08,1404.28 "/>
<polyline clip-path="url(#clip210)" style="stroke:#000000; stroke-linecap:round; stroke-linejoin:round; stroke-width:4; stroke-opacity:1; fill:none" points="376.103,1423.18 376.103,1404.28 "/>
<polyline clip-path="url(#clip210)" style="stroke:#000000; stroke-linecap:round; stroke-linejoin:round; stroke-width:4; stroke-opacity:1; fill:none" points="523.127,1423.18 523.127,1404.28 "/>
<polyline clip-path="url(#clip210)" style="stroke:#000000; stroke-linecap:round; stroke-linejoin:round; stroke-width:4; stroke-opacity:1; fill:none" points="670.151,1423.18 670.151,1404.28 "/>
<polyline clip-path="url(#clip210)" style="stroke:#000000; stroke-linecap:round; stroke-linejoin:round; stroke-width:4; stroke-opacity:1; fill:none" points="817.174,1423.18 817.174,1404.28 "/>
<polyline clip-path="url(#clip210)" style="stroke:#000000; stroke-linecap:round; stroke-linejoin:round; stroke-width:4; stroke-opacity:1; fill:none" points="964.198,1423.18 964.198,1404.28 "/>
<polyline clip-path="url(#clip210)" style="stroke:#000000; stroke-linecap:round; stroke-linejoin:round; stroke-width:4; stroke-opacity:1; fill:none" points="1111.22,1423.18 1111.22,1404.28 "/>
<path clip-path="url(#clip210)" d="M229.08 1454.1 Q225.469 1454.1 223.64 1457.66 Q221.835 1461.2 221.835 1468.33 Q221.835 1475.44 223.64 1479.01 Q225.469 1482.55 229.08 1482.55 Q232.714 1482.55 234.52 1479.01 Q236.348 1475.44 236.348 1468.33 Q236.348 1461.2 234.52 1457.66 Q232.714 1454.1 229.08 1454.1 M229.08 1450.39 Q234.89 1450.39 237.946 1455 Q241.024 1459.58 241.024 1468.33 Q241.024 1477.06 237.946 1481.67 Q234.89 1486.25 229.08 1486.25 Q223.27 1486.25 220.191 1481.67 Q217.136 1477.06 217.136 1468.33 Q217.136 1459.58 220.191 1455 Q223.27 1450.39 229.08 1450.39 Z" fill="#000000" fill-rule="nonzero" fill-opacity="1" /><path clip-path="url(#clip210)" d="M350.791 1481.64 L358.43 1481.64 L358.43 1455.28 L350.12 1456.95 L350.12 1452.69 L358.384 1451.02 L363.06 1451.02 L363.06 1481.64 L370.698 1481.64 L370.698 1485.58 L350.791 1485.58 L350.791 1481.64 Z" fill="#000000" fill-rule="nonzero" fill-opacity="1" /><path clip-path="url(#clip210)" d="M390.143 1454.1 Q386.532 1454.1 384.703 1457.66 Q382.897 1461.2 382.897 1468.33 Q382.897 1475.44 384.703 1479.01 Q386.532 1482.55 390.143 1482.55 Q393.777 1482.55 395.583 1479.01 Q397.411 1475.44 397.411 1468.33 Q397.411 1461.2 395.583 1457.66 Q393.777 1454.1 390.143 1454.1 M390.143 1450.39 Q395.953 1450.39 399.008 1455 Q402.087 1459.58 402.087 1468.33 Q402.087 1477.06 399.008 1481.67 Q395.953 1486.25 390.143 1486.25 Q384.333 1486.25 381.254 1481.67 Q378.198 1477.06 378.198 1468.33 Q378.198 1459.58 381.254 1455 Q384.333 1450.39 390.143 1450.39 Z" fill="#000000" fill-rule="nonzero" fill-opacity="1" /><path clip-path="url(#clip210)" d="M501.9 1481.64 L518.22 1481.64 L518.22 1485.58 L496.275 1485.58 L496.275 1481.64 Q498.937 1478.89 503.521 1474.26 Q508.127 1469.61 509.308 1468.27 Q511.553 1465.74 512.433 1464.01 Q513.335 1462.25 513.335 1460.56 Q513.335 1457.8 511.391 1456.07 Q509.47 1454.33 506.368 1454.33 Q504.169 1454.33 501.715 1455.09 Q499.285 1455.86 496.507 1457.41 L496.507 1452.69 Q499.331 1451.55 501.785 1450.97 Q504.238 1450.39 506.275 1450.39 Q511.646 1450.39 514.84 1453.08 Q518.034 1455.77 518.034 1460.26 Q518.034 1462.39 517.224 1464.31 Q516.437 1466.2 514.331 1468.8 Q513.752 1469.47 510.65 1472.69 Q507.548 1475.88 501.9 1481.64 Z" fill="#000000" fill-rule="nonzero" fill-opacity="1" /><path clip-path="url(#clip210)" d="M538.034 1454.1 Q534.423 1454.1 532.595 1457.66 Q530.789 1461.2 530.789 1468.33 Q530.789 1475.44 532.595 1479.01 Q534.423 1482.55 538.034 1482.55 Q541.669 1482.55 543.474 1479.01 Q545.303 1475.44 545.303 1468.33 Q545.303 1461.2 543.474 1457.66 Q541.669 1454.1 538.034 1454.1 M538.034 1450.39 Q543.845 1450.39 546.9 1455 Q549.979 1459.58 549.979 1468.33 Q549.979 1477.06 546.9 1481.67 Q543.845 1486.25 538.034 1486.25 Q532.224 1486.25 529.146 1481.67 Q526.09 1477.06 526.09 1468.33 Q526.09 1459.58 529.146 1455 Q532.224 1450.39 538.034 1450.39 Z" fill="#000000" fill-rule="nonzero" fill-opacity="1" /><path clip-path="url(#clip210)" d="M658.993 1466.95 Q662.35 1467.66 664.225 1469.93 Q666.123 1472.2 666.123 1475.53 Q666.123 1480.65 662.604 1483.45 Q659.086 1486.25 652.604 1486.25 Q650.428 1486.25 648.114 1485.81 Q645.822 1485.39 643.368 1484.54 L643.368 1480.02 Q645.313 1481.16 647.628 1481.74 Q649.942 1482.32 652.465 1482.32 Q656.864 1482.32 659.155 1480.58 Q661.47 1478.84 661.47 1475.53 Q661.47 1472.48 659.317 1470.77 Q657.188 1469.03 653.368 1469.03 L649.341 1469.03 L649.341 1465.19 L653.553 1465.19 Q657.003 1465.19 658.831 1463.82 Q660.66 1462.43 660.66 1459.84 Q660.66 1457.18 658.762 1455.77 Q656.887 1454.33 653.368 1454.33 Q651.447 1454.33 649.248 1454.75 Q647.049 1455.16 644.41 1456.04 L644.41 1451.88 Q647.072 1451.14 649.387 1450.77 Q651.725 1450.39 653.785 1450.39 Q659.109 1450.39 662.211 1452.83 Q665.313 1455.23 665.313 1459.35 Q665.313 1462.22 663.669 1464.21 Q662.026 1466.18 658.993 1466.95 Z" fill="#000000" fill-rule="nonzero" fill-opacity="1" /><path clip-path="url(#clip210)" d="M684.988 1454.1 Q681.377 1454.1 679.549 1457.66 Q677.743 1461.2 677.743 1468.33 Q677.743 1475.44 679.549 1479.01 Q681.377 1482.55 684.988 1482.55 Q688.623 1482.55 690.428 1479.01 Q692.257 1475.44 692.257 1468.33 Q692.257 1461.2 690.428 1457.66 Q688.623 1454.1 684.988 1454.1 M684.988 1450.39 Q690.799 1450.39 693.854 1455 Q696.933 1459.58 696.933 1468.33 Q696.933 1477.06 693.854 1481.67 Q690.799 1486.25 684.988 1486.25 Q679.178 1486.25 676.1 1481.67 Q673.044 1477.06 673.044 1468.33 Q673.044 1459.58 676.1 1455 Q679.178 1450.39 684.988 1450.39 Z" fill="#000000" fill-rule="nonzero" fill-opacity="1" /><path clip-path="url(#clip210)" d="M805.346 1455.09 L793.54 1473.54 L805.346 1473.54 L805.346 1455.09 M804.119 1451.02 L809.998 1451.02 L809.998 1473.54 L814.929 1473.54 L814.929 1477.43 L809.998 1477.43 L809.998 1485.58 L805.346 1485.58 L805.346 1477.43 L789.744 1477.43 L789.744 1472.92 L804.119 1451.02 Z" fill="#000000" fill-rule="nonzero" fill-opacity="1" /><path clip-path="url(#clip210)" d="M832.66 1454.1 Q829.049 1454.1 827.22 1457.66 Q825.415 1461.2 825.415 1468.33 Q825.415 1475.44 827.22 1479.01 Q829.049 1482.55 832.66 1482.55 Q836.294 1482.55 838.1 1479.01 Q839.929 1475.44 839.929 1468.33 Q839.929 1461.2 838.1 1457.66 Q836.294 1454.1 832.66 1454.1 M832.66 1450.39 Q838.47 1450.39 841.526 1455 Q844.605 1459.58 844.605 1468.33 Q844.605 1477.06 841.526 1481.67 Q838.47 1486.25 832.66 1486.25 Q826.85 1486.25 823.771 1481.67 Q820.716 1477.06 820.716 1468.33 Q820.716 1459.58 823.771 1455 Q826.85 1450.39 832.66 1450.39 Z" fill="#000000" fill-rule="nonzero" fill-opacity="1" /><path clip-path="url(#clip210)" d="M938.897 1451.02 L957.253 1451.02 L957.253 1454.96 L943.179 1454.96 L943.179 1463.43 Q944.198 1463.08 945.216 1462.92 Q946.235 1462.73 947.253 1462.73 Q953.04 1462.73 956.42 1465.9 Q959.8 1469.08 959.8 1474.49 Q959.8 1480.07 956.327 1483.17 Q952.855 1486.25 946.536 1486.25 Q944.36 1486.25 942.091 1485.88 Q939.846 1485.51 937.439 1484.77 L937.439 1480.07 Q939.522 1481.2 941.744 1481.76 Q943.966 1482.32 946.443 1482.32 Q950.448 1482.32 952.786 1480.21 Q955.124 1478.1 955.124 1474.49 Q955.124 1470.88 952.786 1468.77 Q950.448 1466.67 946.443 1466.67 Q944.568 1466.67 942.693 1467.08 Q940.841 1467.5 938.897 1468.38 L938.897 1451.02 Z" fill="#000000" fill-rule="nonzero" fill-opacity="1" /><path clip-path="url(#clip210)" d="M979.012 1454.1 Q975.401 1454.1 973.573 1457.66 Q971.767 1461.2 971.767 1468.33 Q971.767 1475.44 973.573 1479.01 Q975.401 1482.55 979.012 1482.55 Q982.647 1482.55 984.452 1479.01 Q986.281 1475.44 986.281 1468.33 Q986.281 1461.2 984.452 1457.66 Q982.647 1454.1 979.012 1454.1 M979.012 1450.39 Q984.823 1450.39 987.878 1455 Q990.957 1459.58 990.957 1468.33 Q990.957 1477.06 987.878 1481.67 Q984.823 1486.25 979.012 1486.25 Q973.202 1486.25 970.124 1481.67 Q967.068 1477.06 967.068 1468.33 Q967.068 1459.58 970.124 1455 Q973.202 1450.39 979.012 1450.39 Z" fill="#000000" fill-rule="nonzero" fill-opacity="1" /><path clip-path="url(#clip210)" d="M1096.63 1466.44 Q1093.48 1466.44 1091.63 1468.59 Q1089.8 1470.74 1089.8 1474.49 Q1089.8 1478.22 1091.63 1480.39 Q1093.48 1482.55 1096.63 1482.55 Q1099.77 1482.55 1101.6 1480.39 Q1103.46 1478.22 1103.46 1474.49 Q1103.46 1470.74 1101.6 1468.59 Q1099.77 1466.44 1096.63 1466.44 M1105.91 1451.78 L1105.91 1456.04 Q1104.15 1455.21 1102.34 1454.77 Q1100.56 1454.33 1098.8 1454.33 Q1094.17 1454.33 1091.72 1457.45 Q1089.29 1460.58 1088.94 1466.9 Q1090.31 1464.89 1092.37 1463.82 Q1094.43 1462.73 1096.9 1462.73 Q1102.11 1462.73 1105.12 1465.9 Q1108.15 1469.05 1108.15 1474.49 Q1108.15 1479.82 1105.01 1483.03 Q1101.86 1486.25 1096.63 1486.25 Q1090.63 1486.25 1087.46 1481.67 Q1084.29 1477.06 1084.29 1468.33 Q1084.29 1460.14 1088.18 1455.28 Q1092.07 1450.39 1098.62 1450.39 Q1100.38 1450.39 1102.16 1450.74 Q1103.96 1451.09 1105.91 1451.78 Z" fill="#000000" fill-rule="nonzero" fill-opacity="1" /><path clip-path="url(#clip210)" d="M1126.21 1454.1 Q1122.6 1454.1 1120.77 1457.66 Q1118.96 1461.2 1118.96 1468.33 Q1118.96 1475.44 1120.77 1479.01 Q1122.6 1482.55 1126.21 1482.55 Q1129.84 1482.55 1131.65 1479.01 Q1133.48 1475.44 1133.48 1468.33 Q1133.48 1461.2 1131.65 1457.66 Q1129.84 1454.1 1126.21 1454.1 M1126.21 1450.39 Q1132.02 1450.39 1135.08 1455 Q1138.15 1459.58 1138.15 1468.33 Q1138.15 1477.06 1135.08 1481.67 Q1132.02 1486.25 1126.21 1486.25 Q1120.4 1486.25 1117.32 1481.67 Q1114.27 1477.06 1114.27 1468.33 Q1114.27 1459.58 1117.32 1455 Q1120.4 1450.39 1126.21 1450.39 Z" fill="#000000" fill-rule="nonzero" fill-opacity="1" /><path clip-path="url(#clip210)" d="M514.886 1522.08 L514.886 1528.35 Q511.226 1526.6 507.979 1525.74 Q504.733 1524.88 501.709 1524.88 Q496.457 1524.88 493.593 1526.92 Q490.76 1528.96 490.76 1532.71 Q490.76 1535.87 492.638 1537.49 Q494.548 1539.08 499.831 1540.07 L503.714 1540.86 Q510.908 1542.23 514.313 1545.7 Q517.751 1549.14 517.751 1554.93 Q517.751 1561.84 513.104 1565.4 Q508.489 1568.97 499.545 1568.97 Q496.171 1568.97 492.352 1568.2 Q488.564 1567.44 484.49 1565.94 L484.49 1559.32 Q488.405 1561.52 492.161 1562.63 Q495.916 1563.75 499.545 1563.75 Q505.051 1563.75 508.043 1561.58 Q511.035 1559.42 511.035 1555.41 Q511.035 1551.91 508.871 1549.93 Q506.738 1547.96 501.836 1546.97 L497.922 1546.21 Q490.728 1544.78 487.514 1541.72 Q484.299 1538.67 484.299 1533.22 Q484.299 1526.92 488.723 1523.29 Q493.179 1519.66 500.977 1519.66 Q504.319 1519.66 507.788 1520.27 Q511.258 1520.87 514.886 1522.08 Z" fill="#000000" fill-rule="nonzero" fill-opacity="1" /><path clip-path="url(#clip210)" d="M527.777 1520.52 L537.357 1520.52 L549.484 1552.86 L561.674 1520.52 L571.254 1520.52 L571.254 1568.04 L564.984 1568.04 L564.984 1526.32 L552.73 1558.91 L546.269 1558.91 L534.015 1526.32 L534.015 1568.04 L527.777 1568.04 L527.777 1520.52 Z" fill="#000000" fill-rule="nonzero" fill-opacity="1" /><path clip-path="url(#clip210)" d="M619.602 1524.18 L619.602 1530.96 Q616.356 1527.94 612.663 1526.44 Q609.003 1524.95 604.865 1524.95 Q596.717 1524.95 592.389 1529.95 Q588.06 1534.91 588.06 1544.33 Q588.06 1553.72 592.389 1558.72 Q596.717 1563.68 604.865 1563.68 Q609.003 1563.68 612.663 1562.19 Q616.356 1560.69 619.602 1557.67 L619.602 1564.38 Q616.228 1566.68 612.441 1567.82 Q608.685 1568.97 604.483 1568.97 Q593.694 1568.97 587.487 1562.38 Q581.28 1555.76 581.28 1544.33 Q581.28 1532.87 587.487 1526.28 Q593.694 1519.66 604.483 1519.66 Q608.748 1519.66 612.504 1520.81 Q616.292 1521.92 619.602 1524.18 Z" fill="#000000" fill-rule="nonzero" fill-opacity="1" /><path clip-path="url(#clip210)" d="M650.253 1520.52 L656.682 1520.52 L656.682 1568.04 L650.253 1568.04 L650.253 1520.52 Z" fill="#000000" fill-rule="nonzero" fill-opacity="1" /><path clip-path="url(#clip210)" d="M675.016 1522.27 L675.016 1532.4 L687.079 1532.4 L687.079 1536.95 L675.016 1536.95 L675.016 1556.3 Q675.016 1560.66 676.193 1561.9 Q677.403 1563.14 681.063 1563.14 L687.079 1563.14 L687.079 1568.04 L681.063 1568.04 Q674.283 1568.04 671.705 1565.53 Q669.127 1562.98 669.127 1556.3 L669.127 1536.95 L664.83 1536.95 L664.83 1532.4 L669.127 1532.4 L669.127 1522.27 L675.016 1522.27 Z" fill="#000000" fill-rule="nonzero" fill-opacity="1" /><path clip-path="url(#clip210)" d="M725.273 1548.76 L725.273 1551.62 L698.346 1551.62 Q698.728 1557.67 701.974 1560.85 Q705.253 1564 711.077 1564 Q714.451 1564 717.602 1563.17 Q720.785 1562.35 723.904 1560.69 L723.904 1566.23 Q720.753 1567.57 717.443 1568.27 Q714.133 1568.97 710.727 1568.97 Q702.197 1568.97 697.2 1564 Q692.235 1559.04 692.235 1550.57 Q692.235 1541.82 696.945 1536.69 Q701.688 1531.54 709.709 1531.54 Q716.902 1531.54 721.071 1536.18 Q725.273 1540.8 725.273 1548.76 M719.416 1547.04 Q719.353 1542.23 716.711 1539.37 Q714.101 1536.5 709.772 1536.5 Q704.871 1536.5 701.911 1539.27 Q698.982 1542.04 698.537 1547.07 L719.416 1547.04 Z" fill="#000000" fill-rule="nonzero" fill-opacity="1" /><path clip-path="url(#clip210)" d="M755.542 1537.87 Q754.555 1537.3 753.377 1537.04 Q752.232 1536.76 750.831 1536.76 Q745.866 1536.76 743.192 1540 Q740.55 1543.22 740.55 1549.27 L740.55 1568.04 L734.662 1568.04 L734.662 1532.4 L740.55 1532.4 L740.55 1537.93 Q742.397 1534.69 745.357 1533.13 Q748.317 1531.54 752.55 1531.54 Q753.155 1531.54 753.887 1531.63 Q754.619 1531.7 755.51 1531.85 L755.542 1537.87 Z" fill="#000000" fill-rule="nonzero" fill-opacity="1" /><path clip-path="url(#clip210)" d="M777.885 1550.12 Q770.788 1550.12 768.05 1551.75 Q765.313 1553.37 765.313 1557.29 Q765.313 1560.4 767.35 1562.25 Q769.419 1564.07 772.952 1564.07 Q777.822 1564.07 780.75 1560.63 Q783.71 1557.16 783.71 1551.43 L783.71 1550.12 L777.885 1550.12 M789.566 1547.71 L789.566 1568.04 L783.71 1568.04 L783.71 1562.63 Q781.705 1565.88 778.713 1567.44 Q775.721 1568.97 771.392 1568.97 Q765.918 1568.97 762.671 1565.91 Q759.457 1562.82 759.457 1557.67 Q759.457 1551.65 763.467 1548.6 Q767.509 1545.54 775.498 1545.54 L783.71 1545.54 L783.71 1544.97 Q783.71 1540.93 781.036 1538.73 Q778.395 1536.5 773.588 1536.5 Q770.533 1536.5 767.637 1537.23 Q764.74 1537.97 762.067 1539.43 L762.067 1534.02 Q765.281 1532.78 768.305 1532.17 Q771.329 1531.54 774.193 1531.54 Q781.928 1531.54 785.747 1535.55 Q789.566 1539.56 789.566 1547.71 Z" fill="#000000" fill-rule="nonzero" fill-opacity="1" /><path clip-path="url(#clip210)" d="M807.422 1522.27 L807.422 1532.4 L819.485 1532.4 L819.485 1536.95 L807.422 1536.95 L807.422 1556.3 Q807.422 1560.66 808.6 1561.9 Q809.809 1563.14 813.47 1563.14 L819.485 1563.14 L819.485 1568.04 L813.47 1568.04 Q806.69 1568.04 804.112 1565.53 Q801.534 1562.98 801.534 1556.3 L801.534 1536.95 L797.237 1536.95 L797.237 1532.4 L801.534 1532.4 L801.534 1522.27 L807.422 1522.27 Z" fill="#000000" fill-rule="nonzero" fill-opacity="1" /><path clip-path="url(#clip210)" d="M827.188 1532.4 L833.044 1532.4 L833.044 1568.04 L827.188 1568.04 L827.188 1532.4 M827.188 1518.52 L833.044 1518.52 L833.044 1525.93 L827.188 1525.93 L827.188 1518.52 Z" fill="#000000" fill-rule="nonzero" fill-opacity="1" /><path clip-path="url(#clip210)" d="M859.112 1536.5 Q854.401 1536.5 851.664 1540.19 Q848.927 1543.85 848.927 1550.25 Q848.927 1556.65 851.632 1560.34 Q854.369 1564 859.112 1564 Q863.791 1564 866.528 1560.31 Q869.265 1556.62 869.265 1550.25 Q869.265 1543.92 866.528 1540.23 Q863.791 1536.5 859.112 1536.5 M859.112 1531.54 Q866.751 1531.54 871.111 1536.5 Q875.472 1541.47 875.472 1550.25 Q875.472 1559 871.111 1564 Q866.751 1568.97 859.112 1568.97 Q851.441 1568.97 847.081 1564 Q842.752 1559 842.752 1550.25 Q842.752 1541.47 847.081 1536.5 Q851.441 1531.54 859.112 1531.54 Z" fill="#000000" fill-rule="nonzero" fill-opacity="1" /><path clip-path="url(#clip210)" d="M914.812 1546.53 L914.812 1568.04 L908.955 1568.04 L908.955 1546.72 Q908.955 1541.66 906.982 1539.14 Q905.008 1536.63 901.062 1536.63 Q896.319 1536.63 893.582 1539.65 Q890.845 1542.68 890.845 1547.9 L890.845 1568.04 L884.957 1568.04 L884.957 1532.4 L890.845 1532.4 L890.845 1537.93 Q892.945 1534.72 895.778 1533.13 Q898.643 1531.54 902.367 1531.54 Q908.51 1531.54 911.661 1535.36 Q914.812 1539.14 914.812 1546.53 Z" fill="#000000" fill-rule="nonzero" fill-opacity="1" /><polyline clip-path="url(#clip210)" style="stroke:#000000; stroke-linecap:round; stroke-linejoin:round; stroke-width:4; stroke-opacity:1; fill:none" points="216.436,1423.18 216.436,47.2441 "/>
<polyline clip-path="url(#clip210)" style="stroke:#000000; stroke-linecap:round; stroke-linejoin:round; stroke-width:4; stroke-opacity:1; fill:none" points="216.436,1228.3 235.334,1228.3 "/>
<polyline clip-path="url(#clip210)" style="stroke:#000000; stroke-linecap:round; stroke-linejoin:round; stroke-width:4; stroke-opacity:1; fill:none" points="216.436,1013.48 235.334,1013.48 "/>
<polyline clip-path="url(#clip210)" style="stroke:#000000; stroke-linecap:round; stroke-linejoin:round; stroke-width:4; stroke-opacity:1; fill:none" points="216.436,798.659 235.334,798.659 "/>
<polyline clip-path="url(#clip210)" style="stroke:#000000; stroke-linecap:round; stroke-linejoin:round; stroke-width:4; stroke-opacity:1; fill:none" points="216.436,583.839 235.334,583.839 "/>
<polyline clip-path="url(#clip210)" style="stroke:#000000; stroke-linecap:round; stroke-linejoin:round; stroke-width:4; stroke-opacity:1; fill:none" points="216.436,369.02 235.334,369.02 "/>
<polyline clip-path="url(#clip210)" style="stroke:#000000; stroke-linecap:round; stroke-linejoin:round; stroke-width:4; stroke-opacity:1; fill:none" points="216.436,154.2 235.334,154.2 "/>
<path clip-path="url(#clip210)" d="M62.9365 1214.1 Q59.3254 1214.1 57.4967 1217.66 Q55.6912 1221.2 55.6912 1228.33 Q55.6912 1235.44 57.4967 1239.01 Q59.3254 1242.55 62.9365 1242.55 Q66.5707 1242.55 68.3763 1239.01 Q70.205 1235.44 70.205 1228.33 Q70.205 1221.2 68.3763 1217.66 Q66.5707 1214.1 62.9365 1214.1 M62.9365 1210.39 Q68.7467 1210.39 71.8022 1215 Q74.8809 1219.58 74.8809 1228.33 Q74.8809 1237.06 71.8022 1241.67 Q68.7467 1246.25 62.9365 1246.25 Q57.1264 1246.25 54.0477 1241.67 Q50.9921 1237.06 50.9921 1228.33 Q50.9921 1219.58 54.0477 1215 Q57.1264 1210.39 62.9365 1210.39 Z" fill="#000000" fill-rule="nonzero" fill-opacity="1" /><path clip-path="url(#clip210)" d="M83.0984 1239.7 L87.9827 1239.7 L87.9827 1245.58 L83.0984 1245.58 L83.0984 1239.7 Z" fill="#000000" fill-rule="nonzero" fill-opacity="1" /><path clip-path="url(#clip210)" d="M108.168 1214.1 Q104.557 1214.1 102.728 1217.66 Q100.922 1221.2 100.922 1228.33 Q100.922 1235.44 102.728 1239.01 Q104.557 1242.55 108.168 1242.55 Q111.802 1242.55 113.608 1239.01 Q115.436 1235.44 115.436 1228.33 Q115.436 1221.2 113.608 1217.66 Q111.802 1214.1 108.168 1214.1 M108.168 1210.39 Q113.978 1210.39 117.033 1215 Q120.112 1219.58 120.112 1228.33 Q120.112 1237.06 117.033 1241.67 Q113.978 1246.25 108.168 1246.25 Q102.358 1246.25 99.2789 1241.67 Q96.2234 1237.06 96.2234 1228.33 Q96.2234 1219.58 99.2789 1215 Q102.358 1210.39 108.168 1210.39 Z" fill="#000000" fill-rule="nonzero" fill-opacity="1" /><path clip-path="url(#clip210)" d="M128.376 1211.02 L146.732 1211.02 L146.732 1214.95 L132.658 1214.95 L132.658 1223.43 Q133.677 1223.08 134.695 1222.92 Q135.714 1222.73 136.732 1222.73 Q142.519 1222.73 145.899 1225.9 Q149.279 1229.07 149.279 1234.49 Q149.279 1240.07 145.806 1243.17 Q142.334 1246.25 136.015 1246.25 Q133.839 1246.25 131.57 1245.88 Q129.325 1245.51 126.918 1244.77 L126.918 1240.07 Q129.001 1241.2 131.223 1241.76 Q133.445 1242.32 135.922 1242.32 Q139.927 1242.32 142.265 1240.21 Q144.603 1238.1 144.603 1234.49 Q144.603 1230.88 142.265 1228.77 Q139.927 1226.67 135.922 1226.67 Q134.047 1226.67 132.172 1227.08 Q130.32 1227.5 128.376 1228.38 L128.376 1211.02 Z" fill="#000000" fill-rule="nonzero" fill-opacity="1" /><path clip-path="url(#clip210)" d="M168.491 1214.1 Q164.88 1214.1 163.052 1217.66 Q161.246 1221.2 161.246 1228.33 Q161.246 1235.44 163.052 1239.01 Q164.88 1242.55 168.491 1242.55 Q172.126 1242.55 173.931 1239.01 Q175.76 1235.44 175.76 1228.33 Q175.76 1221.2 173.931 1217.66 Q172.126 1214.1 168.491 1214.1 M168.491 1210.39 Q174.302 1210.39 177.357 1215 Q180.436 1219.58 180.436 1228.33 Q180.436 1237.06 177.357 1241.67 Q174.302 1246.25 168.491 1246.25 Q162.681 1246.25 159.603 1241.67 Q156.547 1237.06 156.547 1228.33 Q156.547 1219.58 159.603 1215 Q162.681 1210.39 168.491 1210.39 Z" fill="#000000" fill-rule="nonzero" fill-opacity="1" /><path clip-path="url(#clip210)" d="M63.9319 999.278 Q60.3208 999.278 58.4921 1002.84 Q56.6865 1006.38 56.6865 1013.51 Q56.6865 1020.62 58.4921 1024.19 Q60.3208 1027.73 63.9319 1027.73 Q67.5661 1027.73 69.3717 1024.19 Q71.2004 1020.62 71.2004 1013.51 Q71.2004 1006.38 69.3717 1002.84 Q67.5661 999.278 63.9319 999.278 M63.9319 995.574 Q69.742 995.574 72.7976 1000.18 Q75.8763 1004.76 75.8763 1013.51 Q75.8763 1022.24 72.7976 1026.85 Q69.742 1031.43 63.9319 1031.43 Q58.1217 1031.43 55.043 1026.85 Q51.9875 1022.24 51.9875 1013.51 Q51.9875 1004.76 55.043 1000.18 Q58.1217 995.574 63.9319 995.574 Z" fill="#000000" fill-rule="nonzero" fill-opacity="1" /><path clip-path="url(#clip210)" d="M84.0938 1024.88 L88.978 1024.88 L88.978 1030.76 L84.0938 1030.76 L84.0938 1024.88 Z" fill="#000000" fill-rule="nonzero" fill-opacity="1" /><path clip-path="url(#clip210)" d="M109.163 999.278 Q105.552 999.278 103.723 1002.84 Q101.918 1006.38 101.918 1013.51 Q101.918 1020.62 103.723 1024.19 Q105.552 1027.73 109.163 1027.73 Q112.797 1027.73 114.603 1024.19 Q116.432 1020.62 116.432 1013.51 Q116.432 1006.38 114.603 1002.84 Q112.797 999.278 109.163 999.278 M109.163 995.574 Q114.973 995.574 118.029 1000.18 Q121.107 1004.76 121.107 1013.51 Q121.107 1022.24 118.029 1026.85 Q114.973 1031.43 109.163 1031.43 Q103.353 1031.43 100.274 1026.85 Q97.2187 1022.24 97.2187 1013.51 Q97.2187 1004.76 100.274 1000.18 Q103.353 995.574 109.163 995.574 Z" fill="#000000" fill-rule="nonzero" fill-opacity="1" /><path clip-path="url(#clip210)" d="M128.144 996.199 L150.367 996.199 L150.367 998.19 L137.82 1030.76 L132.936 1030.76 L144.742 1000.13 L128.144 1000.13 L128.144 996.199 Z" fill="#000000" fill-rule="nonzero" fill-opacity="1" /><path clip-path="url(#clip210)" d="M159.533 996.199 L177.89 996.199 L177.89 1000.13 L163.816 1000.13 L163.816 1008.61 Q164.834 1008.26 165.853 1008.1 Q166.871 1007.91 167.89 1007.91 Q173.677 1007.91 177.056 1011.08 Q180.436 1014.25 180.436 1019.67 Q180.436 1025.25 176.964 1028.35 Q173.491 1031.43 167.172 1031.43 Q164.996 1031.43 162.728 1031.06 Q160.482 1030.69 158.075 1029.95 L158.075 1025.25 Q160.158 1026.38 162.38 1026.94 Q164.603 1027.5 167.079 1027.5 Q171.084 1027.5 173.422 1025.39 Q175.76 1023.28 175.76 1019.67 Q175.76 1016.06 173.422 1013.95 Q171.084 1011.85 167.079 1011.85 Q165.204 1011.85 163.329 1012.26 Q161.478 1012.68 159.533 1013.56 L159.533 996.199 Z" fill="#000000" fill-rule="nonzero" fill-opacity="1" /><path clip-path="url(#clip210)" d="M62.9365 784.458 Q59.3254 784.458 57.4967 788.023 Q55.6912 791.564 55.6912 798.694 Q55.6912 805.801 57.4967 809.365 Q59.3254 812.907 62.9365 812.907 Q66.5707 812.907 68.3763 809.365 Q70.205 805.801 70.205 798.694 Q70.205 791.564 68.3763 788.023 Q66.5707 784.458 62.9365 784.458 M62.9365 780.754 Q68.7467 780.754 71.8022 785.361 Q74.8809 789.944 74.8809 798.694 Q74.8809 807.421 71.8022 812.027 Q68.7467 816.611 62.9365 816.611 Q57.1264 816.611 54.0477 812.027 Q50.9921 807.421 50.9921 798.694 Q50.9921 789.944 54.0477 785.361 Q57.1264 780.754 62.9365 780.754 Z" fill="#000000" fill-rule="nonzero" fill-opacity="1" /><path clip-path="url(#clip210)" d="M83.0984 810.06 L87.9827 810.06 L87.9827 815.939 L83.0984 815.939 L83.0984 810.06 Z" fill="#000000" fill-rule="nonzero" fill-opacity="1" /><path clip-path="url(#clip210)" d="M98.978 812.004 L106.617 812.004 L106.617 785.639 L98.3067 787.305 L98.3067 783.046 L106.571 781.379 L111.246 781.379 L111.246 812.004 L118.885 812.004 L118.885 815.939 L98.978 815.939 L98.978 812.004 Z" fill="#000000" fill-rule="nonzero" fill-opacity="1" /><path clip-path="url(#clip210)" d="M138.33 784.458 Q134.719 784.458 132.89 788.023 Q131.084 791.564 131.084 798.694 Q131.084 805.801 132.89 809.365 Q134.719 812.907 138.33 812.907 Q141.964 812.907 143.769 809.365 Q145.598 805.801 145.598 798.694 Q145.598 791.564 143.769 788.023 Q141.964 784.458 138.33 784.458 M138.33 780.754 Q144.14 780.754 147.195 785.361 Q150.274 789.944 150.274 798.694 Q150.274 807.421 147.195 812.027 Q144.14 816.611 138.33 816.611 Q132.519 816.611 129.441 812.027 Q126.385 807.421 126.385 798.694 Q126.385 789.944 129.441 785.361 Q132.519 780.754 138.33 780.754 Z" fill="#000000" fill-rule="nonzero" fill-opacity="1" /><path clip-path="url(#clip210)" d="M168.491 784.458 Q164.88 784.458 163.052 788.023 Q161.246 791.564 161.246 798.694 Q161.246 805.801 163.052 809.365 Q164.88 812.907 168.491 812.907 Q172.126 812.907 173.931 809.365 Q175.76 805.801 175.76 798.694 Q175.76 791.564 173.931 788.023 Q172.126 784.458 168.491 784.458 M168.491 780.754 Q174.302 780.754 177.357 785.361 Q180.436 789.944 180.436 798.694 Q180.436 807.421 177.357 812.027 Q174.302 816.611 168.491 816.611 Q162.681 816.611 159.603 812.027 Q156.547 807.421 156.547 798.694 Q156.547 789.944 159.603 785.361 Q162.681 780.754 168.491 780.754 Z" fill="#000000" fill-rule="nonzero" fill-opacity="1" /><path clip-path="url(#clip210)" d="M63.9319 569.638 Q60.3208 569.638 58.4921 573.203 Q56.6865 576.745 56.6865 583.874 Q56.6865 590.981 58.4921 594.545 Q60.3208 598.087 63.9319 598.087 Q67.5661 598.087 69.3717 594.545 Q71.2004 590.981 71.2004 583.874 Q71.2004 576.745 69.3717 573.203 Q67.5661 569.638 63.9319 569.638 M63.9319 565.934 Q69.742 565.934 72.7976 570.541 Q75.8763 575.124 75.8763 583.874 Q75.8763 592.601 72.7976 597.207 Q69.742 601.791 63.9319 601.791 Q58.1217 601.791 55.043 597.207 Q51.9875 592.601 51.9875 583.874 Q51.9875 575.124 55.043 570.541 Q58.1217 565.934 63.9319 565.934 Z" fill="#000000" fill-rule="nonzero" fill-opacity="1" /><path clip-path="url(#clip210)" d="M84.0938 595.24 L88.978 595.24 L88.978 601.119 L84.0938 601.119 L84.0938 595.24 Z" fill="#000000" fill-rule="nonzero" fill-opacity="1" /><path clip-path="url(#clip210)" d="M99.9733 597.184 L107.612 597.184 L107.612 570.819 L99.3021 572.485 L99.3021 568.226 L107.566 566.559 L112.242 566.559 L112.242 597.184 L119.881 597.184 L119.881 601.119 L99.9733 601.119 L99.9733 597.184 Z" fill="#000000" fill-rule="nonzero" fill-opacity="1" /><path clip-path="url(#clip210)" d="M133.353 597.184 L149.672 597.184 L149.672 601.119 L127.728 601.119 L127.728 597.184 Q130.39 594.43 134.973 589.8 Q139.58 585.147 140.76 583.805 Q143.006 581.282 143.885 579.546 Q144.788 577.786 144.788 576.096 Q144.788 573.342 142.843 571.606 Q140.922 569.87 137.82 569.87 Q135.621 569.87 133.168 570.634 Q130.737 571.397 127.959 572.948 L127.959 568.226 Q130.783 567.092 133.237 566.513 Q135.691 565.934 137.728 565.934 Q143.098 565.934 146.293 568.62 Q149.487 571.305 149.487 575.796 Q149.487 577.925 148.677 579.846 Q147.89 581.745 145.783 584.337 Q145.205 585.008 142.103 588.226 Q139.001 591.42 133.353 597.184 Z" fill="#000000" fill-rule="nonzero" fill-opacity="1" /><path clip-path="url(#clip210)" d="M159.533 566.559 L177.89 566.559 L177.89 570.495 L163.816 570.495 L163.816 578.967 Q164.834 578.62 165.853 578.458 Q166.871 578.272 167.89 578.272 Q173.677 578.272 177.056 581.444 Q180.436 584.615 180.436 590.032 Q180.436 595.61 176.964 598.712 Q173.491 601.791 167.172 601.791 Q164.996 601.791 162.728 601.42 Q160.482 601.05 158.075 600.309 L158.075 595.61 Q160.158 596.744 162.38 597.3 Q164.603 597.856 167.079 597.856 Q171.084 597.856 173.422 595.749 Q175.76 593.643 175.76 590.032 Q175.76 586.42 173.422 584.314 Q171.084 582.208 167.079 582.208 Q165.204 582.208 163.329 582.624 Q161.478 583.041 159.533 583.92 L159.533 566.559 Z" fill="#000000" fill-rule="nonzero" fill-opacity="1" /><path clip-path="url(#clip210)" d="M62.9365 354.818 Q59.3254 354.818 57.4967 358.383 Q55.6912 361.925 55.6912 369.054 Q55.6912 376.161 57.4967 379.726 Q59.3254 383.267 62.9365 383.267 Q66.5707 383.267 68.3763 379.726 Q70.205 376.161 70.205 369.054 Q70.205 361.925 68.3763 358.383 Q66.5707 354.818 62.9365 354.818 M62.9365 351.115 Q68.7467 351.115 71.8022 355.721 Q74.8809 360.304 74.8809 369.054 Q74.8809 377.781 71.8022 382.388 Q68.7467 386.971 62.9365 386.971 Q57.1264 386.971 54.0477 382.388 Q50.9921 377.781 50.9921 369.054 Q50.9921 360.304 54.0477 355.721 Q57.1264 351.115 62.9365 351.115 Z" fill="#000000" fill-rule="nonzero" fill-opacity="1" /><path clip-path="url(#clip210)" d="M83.0984 380.42 L87.9827 380.42 L87.9827 386.3 L83.0984 386.3 L83.0984 380.42 Z" fill="#000000" fill-rule="nonzero" fill-opacity="1" /><path clip-path="url(#clip210)" d="M98.978 382.364 L106.617 382.364 L106.617 355.999 L98.3067 357.665 L98.3067 353.406 L106.571 351.74 L111.246 351.74 L111.246 382.364 L118.885 382.364 L118.885 386.3 L98.978 386.3 L98.978 382.364 Z" fill="#000000" fill-rule="nonzero" fill-opacity="1" /><path clip-path="url(#clip210)" d="M128.376 351.74 L146.732 351.74 L146.732 355.675 L132.658 355.675 L132.658 364.147 Q133.677 363.8 134.695 363.638 Q135.714 363.452 136.732 363.452 Q142.519 363.452 145.899 366.624 Q149.279 369.795 149.279 375.212 Q149.279 380.79 145.806 383.892 Q142.334 386.971 136.015 386.971 Q133.839 386.971 131.57 386.6 Q129.325 386.23 126.918 385.489 L126.918 380.79 Q129.001 381.925 131.223 382.48 Q133.445 383.036 135.922 383.036 Q139.927 383.036 142.265 380.929 Q144.603 378.823 144.603 375.212 Q144.603 371.601 142.265 369.494 Q139.927 367.388 135.922 367.388 Q134.047 367.388 132.172 367.804 Q130.32 368.221 128.376 369.101 L128.376 351.74 Z" fill="#000000" fill-rule="nonzero" fill-opacity="1" /><path clip-path="url(#clip210)" d="M168.491 354.818 Q164.88 354.818 163.052 358.383 Q161.246 361.925 161.246 369.054 Q161.246 376.161 163.052 379.726 Q164.88 383.267 168.491 383.267 Q172.126 383.267 173.931 379.726 Q175.76 376.161 175.76 369.054 Q175.76 361.925 173.931 358.383 Q172.126 354.818 168.491 354.818 M168.491 351.115 Q174.302 351.115 177.357 355.721 Q180.436 360.304 180.436 369.054 Q180.436 377.781 177.357 382.388 Q174.302 386.971 168.491 386.971 Q162.681 386.971 159.603 382.388 Q156.547 377.781 156.547 369.054 Q156.547 360.304 159.603 355.721 Q162.681 351.115 168.491 351.115 Z" fill="#000000" fill-rule="nonzero" fill-opacity="1" /><path clip-path="url(#clip210)" d="M63.9319 139.998 Q60.3208 139.998 58.4921 143.563 Q56.6865 147.105 56.6865 154.234 Q56.6865 161.341 58.4921 164.906 Q60.3208 168.447 63.9319 168.447 Q67.5661 168.447 69.3717 164.906 Q71.2004 161.341 71.2004 154.234 Q71.2004 147.105 69.3717 143.563 Q67.5661 139.998 63.9319 139.998 M63.9319 136.295 Q69.742 136.295 72.7976 140.901 Q75.8763 145.484 75.8763 154.234 Q75.8763 162.961 72.7976 167.568 Q69.742 172.151 63.9319 172.151 Q58.1217 172.151 55.043 167.568 Q51.9875 162.961 51.9875 154.234 Q51.9875 145.484 55.043 140.901 Q58.1217 136.295 63.9319 136.295 Z" fill="#000000" fill-rule="nonzero" fill-opacity="1" /><path clip-path="url(#clip210)" d="M84.0938 165.6 L88.978 165.6 L88.978 171.48 L84.0938 171.48 L84.0938 165.6 Z" fill="#000000" fill-rule="nonzero" fill-opacity="1" /><path clip-path="url(#clip210)" d="M99.9733 167.545 L107.612 167.545 L107.612 141.179 L99.3021 142.846 L99.3021 138.586 L107.566 136.92 L112.242 136.92 L112.242 167.545 L119.881 167.545 L119.881 171.48 L99.9733 171.48 L99.9733 167.545 Z" fill="#000000" fill-rule="nonzero" fill-opacity="1" /><path clip-path="url(#clip210)" d="M128.144 136.92 L150.367 136.92 L150.367 138.91 L137.82 171.48 L132.936 171.48 L144.742 140.855 L128.144 140.855 L128.144 136.92 Z" fill="#000000" fill-rule="nonzero" fill-opacity="1" /><path clip-path="url(#clip210)" d="M159.533 136.92 L177.89 136.92 L177.89 140.855 L163.816 140.855 L163.816 149.327 Q164.834 148.98 165.853 148.818 Q166.871 148.633 167.89 148.633 Q173.677 148.633 177.056 151.804 Q180.436 154.975 180.436 160.392 Q180.436 165.97 176.964 169.072 Q173.491 172.151 167.172 172.151 Q164.996 172.151 162.728 171.781 Q160.482 171.41 158.075 170.669 L158.075 165.97 Q160.158 167.105 162.38 167.66 Q164.603 168.216 167.079 168.216 Q171.084 168.216 173.422 166.109 Q175.76 164.003 175.76 160.392 Q175.76 156.781 173.422 154.674 Q171.084 152.568 167.079 152.568 Q165.204 152.568 163.329 152.984 Q161.478 153.401 159.533 154.281 L159.533 136.92 Z" fill="#000000" fill-rule="nonzero" fill-opacity="1" /><polyline clip-path="url(#clip212)" style="stroke:#009af9; stroke-linecap:round; stroke-linejoin:round; stroke-width:4; stroke-opacity:1; fill:none" points="243.782,101.825 258.485,101.825 273.187,101.825 287.889,97.0088 302.592,97.0088 317.294,97.0088 331.996,97.0088 346.699,92.1778 361.401,97.0088 376.103,97.0088 390.806,97.0088 405.508,92.1778 420.211,92.1778 434.913,92.1778 449.615,87.3318 464.318,87.3318 479.02,87.3318 493.722,87.3318 508.425,87.3318 523.127,97.0088 537.829,86.1857 552.532,86.1857 567.234,95.8697 581.936,95.8697 596.639,100.689 611.341,110.284 626.044,131.525 640.746,136.235 655.448,174.219 670.151,174.219 684.853,210.603 699.555,220.569 714.258,240.297 728.96,259.753 743.662,301.399 758.365,354.312 773.067,381.717 787.769,469.07 802.472,506.379 817.174,585.199 831.877,659.197 846.579,780.415 861.281,858.424 875.984,896.307 890.686,958.314 905.388,978.567 920.091,1016.4 934.793,1087.77 949.495,1114.78 964.198,1149.13 978.9,1186.04 993.602,1236.84 1008.3,1256.79 1023.01,1266.63 1037.71,1287.03 1052.41,1302.69 1067.11,1317.69 1081.82,1329.18 1096.52,1343.19 1111.22,1354 1125.92,1361.13 1140.63,1377.66 1155.33,1384.24 "/>
<path clip-path="url(#clip210)" d="M1001.41 196.789 L1150.47 196.789 L1150.47 93.1086 L1001.41 93.1086  Z" fill="#ffffff" fill-rule="evenodd" fill-opacity="1"/>
<polyline clip-path="url(#clip210)" style="stroke:#000000; stroke-linecap:round; stroke-linejoin:round; stroke-width:4; stroke-opacity:1; fill:none" points="1001.41,196.789 1150.47,196.789 1150.47,93.1086 1001.41,93.1086 1001.41,196.789 "/>
<polyline clip-path="url(#clip210)" style="stroke:#009af9; stroke-linecap:round; stroke-linejoin:round; stroke-width:4; stroke-opacity:1; fill:none" points="1012.15,144.949 1076.56,144.949 "/>
<path clip-path="url(#clip210)" d="M1101.14 164.636 Q1099.34 169.266 1097.62 170.678 Q1095.91 172.09 1093.04 172.09 L1089.64 172.09 L1089.64 168.525 L1092.14 168.525 Q1093.9 168.525 1094.87 167.692 Q1095.84 166.858 1097.02 163.756 L1097.79 161.812 L1087.3 136.303 L1091.81 136.303 L1099.92 156.581 L1108.02 136.303 L1112.53 136.303 L1101.14 164.636 Z" fill="#000000" fill-rule="nonzero" fill-opacity="1" /><path clip-path="url(#clip210)" d="M1119.82 158.293 L1127.46 158.293 L1127.46 131.928 L1119.15 133.595 L1119.15 129.335 L1127.42 127.669 L1132.09 127.669 L1132.09 158.293 L1139.73 158.293 L1139.73 162.229 L1119.82 162.229 L1119.82 158.293 Z" fill="#000000" fill-rule="nonzero" fill-opacity="1" /><path clip-path="url(#clip210)" d="M1386.52 1423.18 L2352.76 1423.18 L2352.76 47.2441 L1386.52 47.2441  Z" fill="#ffffff" fill-rule="evenodd" fill-opacity="1"/>
<defs>
  <clipPath id="clip213">
    <rect x="1386" y="47" width="967" height="1377"/>
  </clipPath>
</defs>
<polyline clip-path="url(#clip213)" style="stroke:#000000; stroke-linecap:round; stroke-linejoin:round; stroke-width:2; stroke-opacity:0.1; fill:none" points="1399.16,1423.18 1399.16,47.2441 "/>
<polyline clip-path="url(#clip213)" style="stroke:#000000; stroke-linecap:round; stroke-linejoin:round; stroke-width:2; stroke-opacity:0.1; fill:none" points="1546.18,1423.18 1546.18,47.2441 "/>
<polyline clip-path="url(#clip213)" style="stroke:#000000; stroke-linecap:round; stroke-linejoin:round; stroke-width:2; stroke-opacity:0.1; fill:none" points="1693.21,1423.18 1693.21,47.2441 "/>
<polyline clip-path="url(#clip213)" style="stroke:#000000; stroke-linecap:round; stroke-linejoin:round; stroke-width:2; stroke-opacity:0.1; fill:none" points="1840.23,1423.18 1840.23,47.2441 "/>
<polyline clip-path="url(#clip213)" style="stroke:#000000; stroke-linecap:round; stroke-linejoin:round; stroke-width:2; stroke-opacity:0.1; fill:none" points="1987.26,1423.18 1987.26,47.2441 "/>
<polyline clip-path="url(#clip213)" style="stroke:#000000; stroke-linecap:round; stroke-linejoin:round; stroke-width:2; stroke-opacity:0.1; fill:none" points="2134.28,1423.18 2134.28,47.2441 "/>
<polyline clip-path="url(#clip213)" style="stroke:#000000; stroke-linecap:round; stroke-linejoin:round; stroke-width:2; stroke-opacity:0.1; fill:none" points="2281.3,1423.18 2281.3,47.2441 "/>
<polyline clip-path="url(#clip213)" style="stroke:#000000; stroke-linecap:round; stroke-linejoin:round; stroke-width:2; stroke-opacity:0.1; fill:none" points="1386.52,1221.98 2352.76,1221.98 "/>
<polyline clip-path="url(#clip213)" style="stroke:#000000; stroke-linecap:round; stroke-linejoin:round; stroke-width:2; stroke-opacity:0.1; fill:none" points="1386.52,897.469 2352.76,897.469 "/>
<polyline clip-path="url(#clip213)" style="stroke:#000000; stroke-linecap:round; stroke-linejoin:round; stroke-width:2; stroke-opacity:0.1; fill:none" points="1386.52,572.955 2352.76,572.955 "/>
<polyline clip-path="url(#clip213)" style="stroke:#000000; stroke-linecap:round; stroke-linejoin:round; stroke-width:2; stroke-opacity:0.1; fill:none" points="1386.52,248.442 2352.76,248.442 "/>
<polyline clip-path="url(#clip210)" style="stroke:#000000; stroke-linecap:round; stroke-linejoin:round; stroke-width:4; stroke-opacity:1; fill:none" points="1386.52,1423.18 2352.76,1423.18 "/>
<polyline clip-path="url(#clip210)" style="stroke:#000000; stroke-linecap:round; stroke-linejoin:round; stroke-width:4; stroke-opacity:1; fill:none" points="1399.16,1423.18 1399.16,1404.28 "/>
<polyline clip-path="url(#clip210)" style="stroke:#000000; stroke-linecap:round; stroke-linejoin:round; stroke-width:4; stroke-opacity:1; fill:none" points="1546.18,1423.18 1546.18,1404.28 "/>
<polyline clip-path="url(#clip210)" style="stroke:#000000; stroke-linecap:round; stroke-linejoin:round; stroke-width:4; stroke-opacity:1; fill:none" points="1693.21,1423.18 1693.21,1404.28 "/>
<polyline clip-path="url(#clip210)" style="stroke:#000000; stroke-linecap:round; stroke-linejoin:round; stroke-width:4; stroke-opacity:1; fill:none" points="1840.23,1423.18 1840.23,1404.28 "/>
<polyline clip-path="url(#clip210)" style="stroke:#000000; stroke-linecap:round; stroke-linejoin:round; stroke-width:4; stroke-opacity:1; fill:none" points="1987.26,1423.18 1987.26,1404.28 "/>
<polyline clip-path="url(#clip210)" style="stroke:#000000; stroke-linecap:round; stroke-linejoin:round; stroke-width:4; stroke-opacity:1; fill:none" points="2134.28,1423.18 2134.28,1404.28 "/>
<polyline clip-path="url(#clip210)" style="stroke:#000000; stroke-linecap:round; stroke-linejoin:round; stroke-width:4; stroke-opacity:1; fill:none" points="2281.3,1423.18 2281.3,1404.28 "/>
<path clip-path="url(#clip210)" d="M1399.16 1454.1 Q1395.55 1454.1 1393.72 1457.66 Q1391.92 1461.2 1391.92 1468.33 Q1391.92 1475.44 1393.72 1479.01 Q1395.55 1482.55 1399.16 1482.55 Q1402.8 1482.55 1404.6 1479.01 Q1406.43 1475.44 1406.43 1468.33 Q1406.43 1461.2 1404.6 1457.66 Q1402.8 1454.1 1399.16 1454.1 M1399.16 1450.39 Q1404.97 1450.39 1408.03 1455 Q1411.11 1459.58 1411.11 1468.33 Q1411.11 1477.06 1408.03 1481.67 Q1404.97 1486.25 1399.16 1486.25 Q1393.35 1486.25 1390.27 1481.67 Q1387.22 1477.06 1387.22 1468.33 Q1387.22 1459.58 1390.27 1455 Q1393.35 1450.39 1399.16 1450.39 Z" fill="#000000" fill-rule="nonzero" fill-opacity="1" /><path clip-path="url(#clip210)" d="M1520.87 1481.64 L1528.51 1481.64 L1528.51 1455.28 L1520.2 1456.95 L1520.2 1452.69 L1528.46 1451.02 L1533.14 1451.02 L1533.14 1481.64 L1540.78 1481.64 L1540.78 1485.58 L1520.87 1485.58 L1520.87 1481.64 Z" fill="#000000" fill-rule="nonzero" fill-opacity="1" /><path clip-path="url(#clip210)" d="M1560.22 1454.1 Q1556.61 1454.1 1554.78 1457.66 Q1552.98 1461.2 1552.98 1468.33 Q1552.98 1475.44 1554.78 1479.01 Q1556.61 1482.55 1560.22 1482.55 Q1563.86 1482.55 1565.66 1479.01 Q1567.49 1475.44 1567.49 1468.33 Q1567.49 1461.2 1565.66 1457.66 Q1563.86 1454.1 1560.22 1454.1 M1560.22 1450.39 Q1566.03 1450.39 1569.09 1455 Q1572.17 1459.58 1572.17 1468.33 Q1572.17 1477.06 1569.09 1481.67 Q1566.03 1486.25 1560.22 1486.25 Q1554.41 1486.25 1551.34 1481.67 Q1548.28 1477.06 1548.28 1468.33 Q1548.28 1459.58 1551.34 1455 Q1554.41 1450.39 1560.22 1450.39 Z" fill="#000000" fill-rule="nonzero" fill-opacity="1" /><path clip-path="url(#clip210)" d="M1671.98 1481.64 L1688.3 1481.64 L1688.3 1485.58 L1666.36 1485.58 L1666.36 1481.64 Q1669.02 1478.89 1673.6 1474.26 Q1678.21 1469.61 1679.39 1468.27 Q1681.63 1465.74 1682.51 1464.01 Q1683.42 1462.25 1683.42 1460.56 Q1683.42 1457.8 1681.47 1456.07 Q1679.55 1454.33 1676.45 1454.33 Q1674.25 1454.33 1671.8 1455.09 Q1669.37 1455.86 1666.59 1457.41 L1666.59 1452.69 Q1669.41 1451.55 1671.87 1450.97 Q1674.32 1450.39 1676.36 1450.39 Q1681.73 1450.39 1684.92 1453.08 Q1688.12 1455.77 1688.12 1460.26 Q1688.12 1462.39 1687.31 1464.31 Q1686.52 1466.2 1684.41 1468.8 Q1683.83 1469.47 1680.73 1472.69 Q1677.63 1475.88 1671.98 1481.64 Z" fill="#000000" fill-rule="nonzero" fill-opacity="1" /><path clip-path="url(#clip210)" d="M1708.12 1454.1 Q1704.5 1454.1 1702.68 1457.66 Q1700.87 1461.2 1700.87 1468.33 Q1700.87 1475.44 1702.68 1479.01 Q1704.5 1482.55 1708.12 1482.55 Q1711.75 1482.55 1713.56 1479.01 Q1715.38 1475.44 1715.38 1468.33 Q1715.38 1461.2 1713.56 1457.66 Q1711.75 1454.1 1708.12 1454.1 M1708.12 1450.39 Q1713.93 1450.39 1716.98 1455 Q1720.06 1459.58 1720.06 1468.33 Q1720.06 1477.06 1716.98 1481.67 Q1713.93 1486.25 1708.12 1486.25 Q1702.31 1486.25 1699.23 1481.67 Q1696.17 1477.06 1696.17 1468.33 Q1696.17 1459.58 1699.23 1455 Q1702.31 1450.39 1708.12 1450.39 Z" fill="#000000" fill-rule="nonzero" fill-opacity="1" /><path clip-path="url(#clip210)" d="M1829.07 1466.95 Q1832.43 1467.66 1834.31 1469.93 Q1836.2 1472.2 1836.2 1475.53 Q1836.2 1480.65 1832.69 1483.45 Q1829.17 1486.25 1822.69 1486.25 Q1820.51 1486.25 1818.19 1485.81 Q1815.9 1485.39 1813.45 1484.54 L1813.45 1480.02 Q1815.39 1481.16 1817.71 1481.74 Q1820.02 1482.32 1822.55 1482.32 Q1826.94 1482.32 1829.24 1480.58 Q1831.55 1478.84 1831.55 1475.53 Q1831.55 1472.48 1829.4 1470.77 Q1827.27 1469.03 1823.45 1469.03 L1819.42 1469.03 L1819.42 1465.19 L1823.63 1465.19 Q1827.08 1465.19 1828.91 1463.82 Q1830.74 1462.43 1830.74 1459.84 Q1830.74 1457.18 1828.84 1455.77 Q1826.97 1454.33 1823.45 1454.33 Q1821.53 1454.33 1819.33 1454.75 Q1817.13 1455.16 1814.49 1456.04 L1814.49 1451.88 Q1817.15 1451.14 1819.47 1450.77 Q1821.81 1450.39 1823.87 1450.39 Q1829.19 1450.39 1832.29 1452.83 Q1835.39 1455.23 1835.39 1459.35 Q1835.39 1462.22 1833.75 1464.21 Q1832.11 1466.18 1829.07 1466.95 Z" fill="#000000" fill-rule="nonzero" fill-opacity="1" /><path clip-path="url(#clip210)" d="M1855.07 1454.1 Q1851.46 1454.1 1849.63 1457.66 Q1847.82 1461.2 1847.82 1468.33 Q1847.82 1475.44 1849.63 1479.01 Q1851.46 1482.55 1855.07 1482.55 Q1858.7 1482.55 1860.51 1479.01 Q1862.34 1475.44 1862.34 1468.33 Q1862.34 1461.2 1860.51 1457.66 Q1858.7 1454.1 1855.07 1454.1 M1855.07 1450.39 Q1860.88 1450.39 1863.94 1455 Q1867.01 1459.58 1867.01 1468.33 Q1867.01 1477.06 1863.94 1481.67 Q1860.88 1486.25 1855.07 1486.25 Q1849.26 1486.25 1846.18 1481.67 Q1843.13 1477.06 1843.13 1468.33 Q1843.13 1459.58 1846.18 1455 Q1849.26 1450.39 1855.07 1450.39 Z" fill="#000000" fill-rule="nonzero" fill-opacity="1" /><path clip-path="url(#clip210)" d="M1975.43 1455.09 L1963.62 1473.54 L1975.43 1473.54 L1975.43 1455.09 M1974.2 1451.02 L1980.08 1451.02 L1980.08 1473.54 L1985.01 1473.54 L1985.01 1477.43 L1980.08 1477.43 L1980.08 1485.58 L1975.43 1485.58 L1975.43 1477.43 L1959.82 1477.43 L1959.82 1472.92 L1974.2 1451.02 Z" fill="#000000" fill-rule="nonzero" fill-opacity="1" /><path clip-path="url(#clip210)" d="M2002.74 1454.1 Q1999.13 1454.1 1997.3 1457.66 Q1995.5 1461.2 1995.5 1468.33 Q1995.5 1475.44 1997.3 1479.01 Q1999.13 1482.55 2002.74 1482.55 Q2006.38 1482.55 2008.18 1479.01 Q2010.01 1475.44 2010.01 1468.33 Q2010.01 1461.2 2008.18 1457.66 Q2006.38 1454.1 2002.74 1454.1 M2002.74 1450.39 Q2008.55 1450.39 2011.61 1455 Q2014.69 1459.58 2014.69 1468.33 Q2014.69 1477.06 2011.61 1481.67 Q2008.55 1486.25 2002.74 1486.25 Q1996.93 1486.25 1993.85 1481.67 Q1990.8 1477.06 1990.8 1468.33 Q1990.8 1459.58 1993.85 1455 Q1996.93 1450.39 2002.74 1450.39 Z" fill="#000000" fill-rule="nonzero" fill-opacity="1" /><path clip-path="url(#clip210)" d="M2108.98 1451.02 L2127.33 1451.02 L2127.33 1454.96 L2113.26 1454.96 L2113.26 1463.43 Q2114.28 1463.08 2115.3 1462.92 Q2116.32 1462.73 2117.33 1462.73 Q2123.12 1462.73 2126.5 1465.9 Q2129.88 1469.08 2129.88 1474.49 Q2129.88 1480.07 2126.41 1483.17 Q2122.94 1486.25 2116.62 1486.25 Q2114.44 1486.25 2112.17 1485.88 Q2109.93 1485.51 2107.52 1484.77 L2107.52 1480.07 Q2109.6 1481.2 2111.83 1481.76 Q2114.05 1482.32 2116.52 1482.32 Q2120.53 1482.32 2122.87 1480.21 Q2125.2 1478.1 2125.2 1474.49 Q2125.2 1470.88 2122.87 1468.77 Q2120.53 1466.67 2116.52 1466.67 Q2114.65 1466.67 2112.77 1467.08 Q2110.92 1467.5 2108.98 1468.38 L2108.98 1451.02 Z" fill="#000000" fill-rule="nonzero" fill-opacity="1" /><path clip-path="url(#clip210)" d="M2149.09 1454.1 Q2145.48 1454.1 2143.65 1457.66 Q2141.85 1461.2 2141.85 1468.33 Q2141.85 1475.44 2143.65 1479.01 Q2145.48 1482.55 2149.09 1482.55 Q2152.73 1482.55 2154.53 1479.01 Q2156.36 1475.44 2156.36 1468.33 Q2156.36 1461.2 2154.53 1457.66 Q2152.73 1454.1 2149.09 1454.1 M2149.09 1450.39 Q2154.9 1450.39 2157.96 1455 Q2161.04 1459.58 2161.04 1468.33 Q2161.04 1477.06 2157.96 1481.67 Q2154.9 1486.25 2149.09 1486.25 Q2143.28 1486.25 2140.2 1481.67 Q2137.15 1477.06 2137.15 1468.33 Q2137.15 1459.58 2140.2 1455 Q2143.28 1450.39 2149.09 1450.39 Z" fill="#000000" fill-rule="nonzero" fill-opacity="1" /><path clip-path="url(#clip210)" d="M2266.71 1466.44 Q2263.56 1466.44 2261.71 1468.59 Q2259.88 1470.74 2259.88 1474.49 Q2259.88 1478.22 2261.71 1480.39 Q2263.56 1482.55 2266.71 1482.55 Q2269.86 1482.55 2271.68 1480.39 Q2273.54 1478.22 2273.54 1474.49 Q2273.54 1470.74 2271.68 1468.59 Q2269.86 1466.44 2266.71 1466.44 M2275.99 1451.78 L2275.99 1456.04 Q2274.23 1455.21 2272.43 1454.77 Q2270.64 1454.33 2268.88 1454.33 Q2264.25 1454.33 2261.8 1457.45 Q2259.37 1460.58 2259.02 1466.9 Q2260.39 1464.89 2262.45 1463.82 Q2264.51 1462.73 2266.99 1462.73 Q2272.19 1462.73 2275.2 1465.9 Q2278.24 1469.05 2278.24 1474.49 Q2278.24 1479.82 2275.09 1483.03 Q2271.94 1486.25 2266.71 1486.25 Q2260.71 1486.25 2257.54 1481.67 Q2254.37 1477.06 2254.37 1468.33 Q2254.37 1460.14 2258.26 1455.28 Q2262.15 1450.39 2268.7 1450.39 Q2270.46 1450.39 2272.24 1450.74 Q2274.05 1451.09 2275.99 1451.78 Z" fill="#000000" fill-rule="nonzero" fill-opacity="1" /><path clip-path="url(#clip210)" d="M2296.29 1454.1 Q2292.68 1454.1 2290.85 1457.66 Q2289.05 1461.2 2289.05 1468.33 Q2289.05 1475.44 2290.85 1479.01 Q2292.68 1482.55 2296.29 1482.55 Q2299.93 1482.55 2301.73 1479.01 Q2303.56 1475.44 2303.56 1468.33 Q2303.56 1461.2 2301.73 1457.66 Q2299.93 1454.1 2296.29 1454.1 M2296.29 1450.39 Q2302.1 1450.39 2305.16 1455 Q2308.24 1459.58 2308.24 1468.33 Q2308.24 1477.06 2305.16 1481.67 Q2302.1 1486.25 2296.29 1486.25 Q2290.48 1486.25 2287.4 1481.67 Q2284.35 1477.06 2284.35 1468.33 Q2284.35 1459.58 2287.4 1455 Q2290.48 1450.39 2296.29 1450.39 Z" fill="#000000" fill-rule="nonzero" fill-opacity="1" /><path clip-path="url(#clip210)" d="M1684.97 1522.08 L1684.97 1528.35 Q1681.31 1526.6 1678.06 1525.74 Q1674.81 1524.88 1671.79 1524.88 Q1666.54 1524.88 1663.67 1526.92 Q1660.84 1528.96 1660.84 1532.71 Q1660.84 1535.87 1662.72 1537.49 Q1664.63 1539.08 1669.91 1540.07 L1673.8 1540.86 Q1680.99 1542.23 1684.39 1545.7 Q1687.83 1549.14 1687.83 1554.93 Q1687.83 1561.84 1683.18 1565.4 Q1678.57 1568.97 1669.63 1568.97 Q1666.25 1568.97 1662.43 1568.2 Q1658.65 1567.44 1654.57 1565.94 L1654.57 1559.32 Q1658.49 1561.52 1662.24 1562.63 Q1666 1563.75 1669.63 1563.75 Q1675.13 1563.75 1678.12 1561.58 Q1681.12 1559.42 1681.12 1555.41 Q1681.12 1551.91 1678.95 1549.93 Q1676.82 1547.96 1671.92 1546.97 L1668 1546.21 Q1660.81 1544.78 1657.59 1541.72 Q1654.38 1538.67 1654.38 1533.22 Q1654.38 1526.92 1658.8 1523.29 Q1663.26 1519.66 1671.06 1519.66 Q1674.4 1519.66 1677.87 1520.27 Q1681.34 1520.87 1684.97 1522.08 Z" fill="#000000" fill-rule="nonzero" fill-opacity="1" /><path clip-path="url(#clip210)" d="M1697.86 1520.52 L1707.44 1520.52 L1719.56 1552.86 L1731.76 1520.52 L1741.34 1520.52 L1741.34 1568.04 L1735.07 1568.04 L1735.07 1526.32 L1722.81 1558.91 L1716.35 1558.91 L1704.1 1526.32 L1704.1 1568.04 L1697.86 1568.04 L1697.86 1520.52 Z" fill="#000000" fill-rule="nonzero" fill-opacity="1" /><path clip-path="url(#clip210)" d="M1789.68 1524.18 L1789.68 1530.96 Q1786.44 1527.94 1782.74 1526.44 Q1779.08 1524.95 1774.95 1524.95 Q1766.8 1524.95 1762.47 1529.95 Q1758.14 1534.91 1758.14 1544.33 Q1758.14 1553.72 1762.47 1558.72 Q1766.8 1563.68 1774.95 1563.68 Q1779.08 1563.68 1782.74 1562.19 Q1786.44 1560.69 1789.68 1557.67 L1789.68 1564.38 Q1786.31 1566.68 1782.52 1567.82 Q1778.77 1568.97 1774.56 1568.97 Q1763.77 1568.97 1757.57 1562.38 Q1751.36 1555.76 1751.36 1544.33 Q1751.36 1532.87 1757.57 1526.28 Q1763.77 1519.66 1774.56 1519.66 Q1778.83 1519.66 1782.59 1520.81 Q1786.37 1521.92 1789.68 1524.18 Z" fill="#000000" fill-rule="nonzero" fill-opacity="1" /><path clip-path="url(#clip210)" d="M1820.33 1520.52 L1826.76 1520.52 L1826.76 1568.04 L1820.33 1568.04 L1820.33 1520.52 Z" fill="#000000" fill-rule="nonzero" fill-opacity="1" /><path clip-path="url(#clip210)" d="M1845.1 1522.27 L1845.1 1532.4 L1857.16 1532.4 L1857.16 1536.95 L1845.1 1536.95 L1845.1 1556.3 Q1845.1 1560.66 1846.27 1561.9 Q1847.48 1563.14 1851.14 1563.14 L1857.16 1563.14 L1857.16 1568.04 L1851.14 1568.04 Q1844.36 1568.04 1841.79 1565.53 Q1839.21 1562.98 1839.21 1556.3 L1839.21 1536.95 L1834.91 1536.95 L1834.91 1532.4 L1839.21 1532.4 L1839.21 1522.27 L1845.1 1522.27 Z" fill="#000000" fill-rule="nonzero" fill-opacity="1" /><path clip-path="url(#clip210)" d="M1895.35 1548.76 L1895.35 1551.62 L1868.43 1551.62 Q1868.81 1557.67 1872.06 1560.85 Q1875.33 1564 1881.16 1564 Q1884.53 1564 1887.68 1563.17 Q1890.87 1562.35 1893.99 1560.69 L1893.99 1566.23 Q1890.83 1567.57 1887.52 1568.27 Q1884.21 1568.97 1880.81 1568.97 Q1872.28 1568.97 1867.28 1564 Q1862.32 1559.04 1862.32 1550.57 Q1862.32 1541.82 1867.03 1536.69 Q1871.77 1531.54 1879.79 1531.54 Q1886.98 1531.54 1891.15 1536.18 Q1895.35 1540.8 1895.35 1548.76 M1889.5 1547.04 Q1889.43 1542.23 1886.79 1539.37 Q1884.18 1536.5 1879.85 1536.5 Q1874.95 1536.5 1871.99 1539.27 Q1869.06 1542.04 1868.62 1547.07 L1889.5 1547.04 Z" fill="#000000" fill-rule="nonzero" fill-opacity="1" /><path clip-path="url(#clip210)" d="M1925.62 1537.87 Q1924.64 1537.3 1923.46 1537.04 Q1922.31 1536.76 1920.91 1536.76 Q1915.95 1536.76 1913.27 1540 Q1910.63 1543.22 1910.63 1549.27 L1910.63 1568.04 L1904.74 1568.04 L1904.74 1532.4 L1910.63 1532.4 L1910.63 1537.93 Q1912.48 1534.69 1915.44 1533.13 Q1918.4 1531.54 1922.63 1531.54 Q1923.24 1531.54 1923.97 1531.63 Q1924.7 1531.7 1925.59 1531.85 L1925.62 1537.87 Z" fill="#000000" fill-rule="nonzero" fill-opacity="1" /><path clip-path="url(#clip210)" d="M1947.97 1550.12 Q1940.87 1550.12 1938.13 1551.75 Q1935.39 1553.37 1935.39 1557.29 Q1935.39 1560.4 1937.43 1562.25 Q1939.5 1564.07 1943.03 1564.07 Q1947.9 1564.07 1950.83 1560.63 Q1953.79 1557.16 1953.79 1551.43 L1953.79 1550.12 L1947.97 1550.12 M1959.65 1547.71 L1959.65 1568.04 L1953.79 1568.04 L1953.79 1562.63 Q1951.79 1565.88 1948.79 1567.44 Q1945.8 1568.97 1941.47 1568.97 Q1936 1568.97 1932.75 1565.91 Q1929.54 1562.82 1929.54 1557.67 Q1929.54 1551.65 1933.55 1548.6 Q1937.59 1545.54 1945.58 1545.54 L1953.79 1545.54 L1953.79 1544.97 Q1953.79 1540.93 1951.12 1538.73 Q1948.48 1536.5 1943.67 1536.5 Q1940.61 1536.5 1937.72 1537.23 Q1934.82 1537.97 1932.15 1539.43 L1932.15 1534.02 Q1935.36 1532.78 1938.39 1532.17 Q1941.41 1531.54 1944.27 1531.54 Q1952.01 1531.54 1955.83 1535.55 Q1959.65 1539.56 1959.65 1547.71 Z" fill="#000000" fill-rule="nonzero" fill-opacity="1" /><path clip-path="url(#clip210)" d="M1977.5 1522.27 L1977.5 1532.4 L1989.57 1532.4 L1989.57 1536.95 L1977.5 1536.95 L1977.5 1556.3 Q1977.5 1560.66 1978.68 1561.9 Q1979.89 1563.14 1983.55 1563.14 L1989.57 1563.14 L1989.57 1568.04 L1983.55 1568.04 Q1976.77 1568.04 1974.19 1565.53 Q1971.62 1562.98 1971.62 1556.3 L1971.62 1536.95 L1967.32 1536.95 L1967.32 1532.4 L1971.62 1532.4 L1971.62 1522.27 L1977.5 1522.27 Z" fill="#000000" fill-rule="nonzero" fill-opacity="1" /><path clip-path="url(#clip210)" d="M1997.27 1532.4 L2003.13 1532.4 L2003.13 1568.04 L1997.27 1568.04 L1997.27 1532.4 M1997.27 1518.52 L2003.13 1518.52 L2003.13 1525.93 L1997.27 1525.93 L1997.27 1518.52 Z" fill="#000000" fill-rule="nonzero" fill-opacity="1" /><path clip-path="url(#clip210)" d="M2029.19 1536.5 Q2024.48 1536.5 2021.75 1540.19 Q2019.01 1543.85 2019.01 1550.25 Q2019.01 1556.65 2021.71 1560.34 Q2024.45 1564 2029.19 1564 Q2033.87 1564 2036.61 1560.31 Q2039.35 1556.62 2039.35 1550.25 Q2039.35 1543.92 2036.61 1540.23 Q2033.87 1536.5 2029.19 1536.5 M2029.19 1531.54 Q2036.83 1531.54 2041.19 1536.5 Q2045.55 1541.47 2045.55 1550.25 Q2045.55 1559 2041.19 1564 Q2036.83 1568.97 2029.19 1568.97 Q2021.52 1568.97 2017.16 1564 Q2012.83 1559 2012.83 1550.25 Q2012.83 1541.47 2017.16 1536.5 Q2021.52 1531.54 2029.19 1531.54 Z" fill="#000000" fill-rule="nonzero" fill-opacity="1" /><path clip-path="url(#clip210)" d="M2084.89 1546.53 L2084.89 1568.04 L2079.04 1568.04 L2079.04 1546.72 Q2079.04 1541.66 2077.06 1539.14 Q2075.09 1536.63 2071.14 1536.63 Q2066.4 1536.63 2063.66 1539.65 Q2060.93 1542.68 2060.93 1547.9 L2060.93 1568.04 L2055.04 1568.04 L2055.04 1532.4 L2060.93 1532.4 L2060.93 1537.93 Q2063.03 1534.72 2065.86 1533.13 Q2068.72 1531.54 2072.45 1531.54 Q2078.59 1531.54 2081.74 1535.36 Q2084.89 1539.14 2084.89 1546.53 Z" fill="#000000" fill-rule="nonzero" fill-opacity="1" /><polyline clip-path="url(#clip210)" style="stroke:#000000; stroke-linecap:round; stroke-linejoin:round; stroke-width:4; stroke-opacity:1; fill:none" points="1386.52,1423.18 1386.52,47.2441 "/>
<polyline clip-path="url(#clip210)" style="stroke:#000000; stroke-linecap:round; stroke-linejoin:round; stroke-width:4; stroke-opacity:1; fill:none" points="1386.52,1221.98 1405.41,1221.98 "/>
<polyline clip-path="url(#clip210)" style="stroke:#000000; stroke-linecap:round; stroke-linejoin:round; stroke-width:4; stroke-opacity:1; fill:none" points="1386.52,897.469 1405.41,897.469 "/>
<polyline clip-path="url(#clip210)" style="stroke:#000000; stroke-linecap:round; stroke-linejoin:round; stroke-width:4; stroke-opacity:1; fill:none" points="1386.52,572.955 1405.41,572.955 "/>
<polyline clip-path="url(#clip210)" style="stroke:#000000; stroke-linecap:round; stroke-linejoin:round; stroke-width:4; stroke-opacity:1; fill:none" points="1386.52,248.442 1405.41,248.442 "/>
<path clip-path="url(#clip210)" d="M1294.94 1207.78 Q1291.33 1207.78 1289.5 1211.35 Q1287.69 1214.89 1287.69 1222.02 Q1287.69 1229.12 1289.5 1232.69 Q1291.33 1236.23 1294.94 1236.23 Q1298.57 1236.23 1300.38 1232.69 Q1302.21 1229.12 1302.21 1222.02 Q1302.21 1214.89 1300.38 1211.35 Q1298.57 1207.78 1294.94 1207.78 M1294.94 1204.08 Q1300.75 1204.08 1303.8 1208.68 Q1306.88 1213.27 1306.88 1222.02 Q1306.88 1230.74 1303.8 1235.35 Q1300.75 1239.93 1294.94 1239.93 Q1289.13 1239.93 1286.05 1235.35 Q1282.99 1230.74 1282.99 1222.02 Q1282.99 1213.27 1286.05 1208.68 Q1289.13 1204.08 1294.94 1204.08 Z" fill="#000000" fill-rule="nonzero" fill-opacity="1" /><path clip-path="url(#clip210)" d="M1315.1 1233.38 L1319.98 1233.38 L1319.98 1239.26 L1315.1 1239.26 L1315.1 1233.38 Z" fill="#000000" fill-rule="nonzero" fill-opacity="1" /><path clip-path="url(#clip210)" d="M1334.2 1235.33 L1350.52 1235.33 L1350.52 1239.26 L1328.57 1239.26 L1328.57 1235.33 Q1331.23 1232.57 1335.82 1227.94 Q1340.42 1223.29 1341.61 1221.95 Q1343.85 1219.42 1344.73 1217.69 Q1345.63 1215.93 1345.63 1214.24 Q1345.63 1211.48 1343.69 1209.75 Q1341.77 1208.01 1338.67 1208.01 Q1336.47 1208.01 1334.01 1208.78 Q1331.58 1209.54 1328.8 1211.09 L1328.8 1206.37 Q1331.63 1205.23 1334.08 1204.66 Q1336.54 1204.08 1338.57 1204.08 Q1343.94 1204.08 1347.14 1206.76 Q1350.33 1209.45 1350.33 1213.94 Q1350.33 1216.07 1349.52 1217.99 Q1348.73 1219.89 1346.63 1222.48 Q1346.05 1223.15 1342.95 1226.37 Q1339.85 1229.56 1334.2 1235.33 Z" fill="#000000" fill-rule="nonzero" fill-opacity="1" /><path clip-path="url(#clip210)" d="M1292.86 883.267 Q1289.24 883.267 1287.42 886.832 Q1285.61 890.374 1285.61 897.503 Q1285.61 904.61 1287.42 908.175 Q1289.24 911.716 1292.86 911.716 Q1296.49 911.716 1298.3 908.175 Q1300.12 904.61 1300.12 897.503 Q1300.12 890.374 1298.3 886.832 Q1296.49 883.267 1292.86 883.267 M1292.86 879.564 Q1298.67 879.564 1301.72 884.17 Q1304.8 888.753 1304.8 897.503 Q1304.8 906.23 1301.72 910.837 Q1298.67 915.42 1292.86 915.42 Q1287.05 915.42 1283.97 910.837 Q1280.91 906.23 1280.91 897.503 Q1280.91 888.753 1283.97 884.17 Q1287.05 879.564 1292.86 879.564 Z" fill="#000000" fill-rule="nonzero" fill-opacity="1" /><path clip-path="url(#clip210)" d="M1313.02 908.869 L1317.9 908.869 L1317.9 914.749 L1313.02 914.749 L1313.02 908.869 Z" fill="#000000" fill-rule="nonzero" fill-opacity="1" /><path clip-path="url(#clip210)" d="M1340.93 884.263 L1329.13 902.712 L1340.93 902.712 L1340.93 884.263 M1339.71 880.189 L1345.59 880.189 L1345.59 902.712 L1350.52 902.712 L1350.52 906.6 L1345.59 906.6 L1345.59 914.749 L1340.93 914.749 L1340.93 906.6 L1325.33 906.6 L1325.33 902.087 L1339.71 880.189 Z" fill="#000000" fill-rule="nonzero" fill-opacity="1" /><path clip-path="url(#clip210)" d="M1293.18 558.754 Q1289.57 558.754 1287.74 562.319 Q1285.93 565.861 1285.93 572.99 Q1285.93 580.097 1287.74 583.661 Q1289.57 587.203 1293.18 587.203 Q1296.81 587.203 1298.62 583.661 Q1300.45 580.097 1300.45 572.99 Q1300.45 565.861 1298.62 562.319 Q1296.81 558.754 1293.18 558.754 M1293.18 555.05 Q1298.99 555.05 1302.05 559.657 Q1305.12 564.24 1305.12 572.99 Q1305.12 581.717 1302.05 586.323 Q1298.99 590.907 1293.18 590.907 Q1287.37 590.907 1284.29 586.323 Q1281.24 581.717 1281.24 572.99 Q1281.24 564.24 1284.29 559.657 Q1287.37 555.05 1293.18 555.05 Z" fill="#000000" fill-rule="nonzero" fill-opacity="1" /><path clip-path="url(#clip210)" d="M1313.34 584.356 L1318.23 584.356 L1318.23 590.235 L1313.34 590.235 L1313.34 584.356 Z" fill="#000000" fill-rule="nonzero" fill-opacity="1" /><path clip-path="url(#clip210)" d="M1338.99 571.092 Q1335.84 571.092 1333.99 573.245 Q1332.16 575.398 1332.16 579.147 Q1332.16 582.874 1333.99 585.05 Q1335.84 587.203 1338.99 587.203 Q1342.14 587.203 1343.97 585.05 Q1345.82 582.874 1345.82 579.147 Q1345.82 575.398 1343.97 573.245 Q1342.14 571.092 1338.99 571.092 M1348.27 556.439 L1348.27 560.699 Q1346.51 559.865 1344.71 559.425 Q1342.92 558.986 1341.17 558.986 Q1336.54 558.986 1334.08 562.111 Q1331.65 565.236 1331.3 571.555 Q1332.67 569.541 1334.73 568.476 Q1336.79 567.388 1339.27 567.388 Q1344.48 567.388 1347.48 570.56 Q1350.52 573.708 1350.52 579.147 Q1350.52 584.472 1347.37 587.689 Q1344.22 590.907 1338.99 590.907 Q1332.99 590.907 1329.82 586.323 Q1326.65 581.717 1326.65 572.99 Q1326.65 564.796 1330.54 559.935 Q1334.43 555.05 1340.98 555.05 Q1342.74 555.05 1344.52 555.398 Q1346.33 555.745 1348.27 556.439 Z" fill="#000000" fill-rule="nonzero" fill-opacity="1" /><path clip-path="url(#clip210)" d="M1293.43 234.241 Q1289.82 234.241 1287.99 237.806 Q1286.19 241.347 1286.19 248.477 Q1286.19 255.583 1287.99 259.148 Q1289.82 262.69 1293.43 262.69 Q1297.07 262.69 1298.87 259.148 Q1300.7 255.583 1300.7 248.477 Q1300.7 241.347 1298.87 237.806 Q1297.07 234.241 1293.43 234.241 M1293.43 230.537 Q1299.24 230.537 1302.3 235.144 Q1305.38 239.727 1305.38 248.477 Q1305.38 257.204 1302.3 261.81 Q1299.24 266.394 1293.43 266.394 Q1287.62 266.394 1284.55 261.81 Q1281.49 257.204 1281.49 248.477 Q1281.49 239.727 1284.55 235.144 Q1287.62 230.537 1293.43 230.537 Z" fill="#000000" fill-rule="nonzero" fill-opacity="1" /><path clip-path="url(#clip210)" d="M1313.6 259.843 L1318.48 259.843 L1318.48 265.722 L1313.6 265.722 L1313.6 259.843 Z" fill="#000000" fill-rule="nonzero" fill-opacity="1" /><path clip-path="url(#clip210)" d="M1338.67 249.31 Q1335.33 249.31 1333.41 251.093 Q1331.51 252.875 1331.51 256 Q1331.51 259.125 1333.41 260.907 Q1335.33 262.69 1338.67 262.69 Q1342 262.69 1343.92 260.907 Q1345.84 259.102 1345.84 256 Q1345.84 252.875 1343.92 251.093 Q1342.02 249.31 1338.67 249.31 M1333.99 247.32 Q1330.98 246.579 1329.29 244.519 Q1327.62 242.458 1327.62 239.496 Q1327.62 235.352 1330.56 232.945 Q1333.53 230.537 1338.67 230.537 Q1343.83 230.537 1346.77 232.945 Q1349.71 235.352 1349.71 239.496 Q1349.71 242.458 1348.02 244.519 Q1346.35 246.579 1343.36 247.32 Q1346.74 248.107 1348.62 250.398 Q1350.52 252.69 1350.52 256 Q1350.52 261.023 1347.44 263.708 Q1344.38 266.394 1338.67 266.394 Q1332.95 266.394 1329.87 263.708 Q1326.81 261.023 1326.81 256 Q1326.81 252.69 1328.71 250.398 Q1330.61 248.107 1333.99 247.32 M1332.28 239.935 Q1332.28 242.621 1333.94 244.125 Q1335.63 245.63 1338.67 245.63 Q1341.67 245.63 1343.36 244.125 Q1345.08 242.621 1345.08 239.935 Q1345.08 237.25 1343.36 235.746 Q1341.67 234.241 1338.67 234.241 Q1335.63 234.241 1333.94 235.746 Q1332.28 237.25 1332.28 239.935 Z" fill="#000000" fill-rule="nonzero" fill-opacity="1" /><polyline clip-path="url(#clip213)" style="stroke:#009af9; stroke-linecap:round; stroke-linejoin:round; stroke-width:4; stroke-opacity:1; fill:none" points="1413.86,86.1857 1428.57,1384.24 1443.27,1384.24 1457.97,1384.24 1472.67,86.1857 1487.38,86.1857 1502.08,1384.24 1516.78,86.1857 1531.48,1384.24 1546.18,86.1857 1560.89,1384.24 1575.59,1384.24 1590.29,1384.24 1604.99,1384.24 1619.7,1384.24 1634.4,1384.24 1649.1,1384.24 1663.8,1384.24 1678.51,1384.24 1693.21,1384.24 1707.91,1384.24 1722.61,1384.24 1737.32,86.1857 1752.02,86.1857 1766.72,1384.24 1781.42,86.1857 1796.12,1384.24 1810.83,1384.24 1825.53,1384.24 1840.23,1384.24 1854.93,86.1857 1869.64,1384.24 1884.34,1384.24 1899.04,1384.24 1913.74,86.1857 1928.45,86.1857 1943.15,1384.24 1957.85,1384.24 1972.55,86.1857 1987.26,86.1857 2001.96,1384.24 2016.66,1384.24 2031.36,1384.24 2046.06,1384.24 2060.77,1384.24 2075.47,1384.24 2090.17,1384.24 2104.87,86.1857 2119.58,86.1857 2134.28,86.1857 2148.98,1384.24 2163.68,86.1857 2178.39,86.1857 2193.09,1384.24 2207.79,1384.24 2222.49,1384.24 2237.2,86.1857 2251.9,86.1857 2266.6,1384.24 2281.3,86.1857 2296,1384.24 2310.71,1384.24 2325.41,86.1857 "/>
<path clip-path="url(#clip210)" d="M1418.73 196.789 L1567.41 196.789 L1567.41 93.1086 L1418.73 93.1086  Z" fill="#ffffff" fill-rule="evenodd" fill-opacity="1"/>
<polyline clip-path="url(#clip210)" style="stroke:#000000; stroke-linecap:round; stroke-linejoin:round; stroke-width:4; stroke-opacity:1; fill:none" points="1418.73,196.789 1567.41,196.789 1567.41,93.1086 1418.73,93.1086 1418.73,196.789 "/>
<polyline clip-path="url(#clip210)" style="stroke:#009af9; stroke-linecap:round; stroke-linejoin:round; stroke-width:4; stroke-opacity:1; fill:none" points="1429.46,144.949 1493.88,144.949 "/>
<path clip-path="url(#clip210)" d="M1518.46 164.636 Q1516.65 169.266 1514.94 170.678 Q1513.22 172.09 1510.35 172.09 L1506.95 172.09 L1506.95 168.525 L1509.45 168.525 Q1511.21 168.525 1512.18 167.692 Q1513.15 166.858 1514.34 163.756 L1515.1 161.812 L1504.61 136.303 L1509.13 136.303 L1517.23 156.581 L1525.33 136.303 L1529.84 136.303 L1518.46 164.636 Z" fill="#000000" fill-rule="nonzero" fill-opacity="1" /><path clip-path="url(#clip210)" d="M1540.35 158.293 L1556.67 158.293 L1556.67 162.229 L1534.73 162.229 L1534.73 158.293 Q1537.39 155.539 1541.97 150.909 Q1546.58 146.256 1547.76 144.914 Q1550.01 142.391 1550.89 140.655 Q1551.79 138.895 1551.79 137.206 Q1551.79 134.451 1549.84 132.715 Q1547.92 130.979 1544.82 130.979 Q1542.62 130.979 1540.17 131.743 Q1537.74 132.507 1534.96 134.057 L1534.96 129.335 Q1537.78 128.201 1540.24 127.622 Q1542.69 127.044 1544.73 127.044 Q1550.1 127.044 1553.29 129.729 Q1556.49 132.414 1556.49 136.905 Q1556.49 139.034 1555.68 140.956 Q1554.89 142.854 1552.78 145.446 Q1552.21 146.118 1549.1 149.335 Q1546 152.53 1540.35 158.293 Z" fill="#000000" fill-rule="nonzero" fill-opacity="1" /></svg>
