<?xml version="1.0" encoding="utf-8"?>
<svg xmlns="http://www.w3.org/2000/svg" xmlns:xlink="http://www.w3.org/1999/xlink" width="600" height="400" viewBox="0 0 2400 1600">
<defs>
  <clipPath id="clip150">
    <rect x="0" y="0" width="2400" height="1600"/>
  </clipPath>
</defs>
<path clip-path="url(#clip150)" d="M0 1600 L2400 1600 L2400 0 L0 0  Z" fill="#ffffff" fill-rule="evenodd" fill-opacity="1"/>
<defs>
  <clipPath id="clip151">
    <rect x="480" y="0" width="1681" height="1600"/>
  </clipPath>
</defs>
<path clip-path="url(#clip150)" d="M250.028 1423.18 L2352.76 1423.18 L2352.76 47.2441 L250.028 47.2441  Z" fill="#ffffff" fill-rule="evenodd" fill-opacity="1"/>
<defs>
  <clipPath id="clip152">
    <rect x="250" y="47" width="2104" height="1377"/>
  </clipPath>
</defs>
<polyline clip-path="url(#clip152)" style="stroke:#000000; stroke-linecap:round; stroke-linejoin:round; stroke-width:2; stroke-opacity:0.1; fill:none" points="277.544,1423.18 277.544,47.2441 "/>
<polyline clip-path="url(#clip152)" style="stroke:#000000; stroke-linecap:round; stroke-linejoin:round; stroke-width:2; stroke-opacity:0.1; fill:none" points="597.497,1423.18 597.497,47.2441 "/>
<polyline clip-path="url(#clip152)" style="stroke:#000000; stroke-linecap:round; stroke-linejoin:round; stroke-width:2; stroke-opacity:0.1; fill:none" points="917.449,1423.18 917.449,47.2441 "/>
<polyline clip-path="url(#clip152)" style="stroke:#000000; stroke-linecap:round; stroke-linejoin:round; stroke-width:2; stroke-opacity:0.1; fill:none" points="1237.4,1423.18 1237.4,47.2441 "/>
<polyline clip-path="url(#clip152)" style="stroke:#000000; stroke-linecap:round; stroke-linejoin:round; stroke-width:2; stroke-opacity:0.1; fill:none" points="1557.35,1423.18 1557.35,47.2441 "/>
<polyline clip-path="url(#clip152)" style="stroke:#000000; stroke-linecap:round; stroke-linejoin:round; stroke-width:2; stroke-opacity:0.1; fill:none" points="1877.31,1423.18 1877.31,47.2441 "/>
<polyline clip-path="url(#clip152)" style="stroke:#000000; stroke-linecap:round; stroke-linejoin:round; stroke-width:2; stroke-opacity:0.1; fill:none" points="2197.26,1423.18 2197.26,47.2441 "/>
<polyline clip-path="url(#clip152)" style="stroke:#000000; stroke-linecap:round; stroke-linejoin:round; stroke-width:2; stroke-opacity:0.1; fill:none" points="250.028,1409.96 2352.76,1409.96 "/>
<polyline clip-path="url(#clip152)" style="stroke:#000000; stroke-linecap:round; stroke-linejoin:round; stroke-width:2; stroke-opacity:0.1; fill:none" points="250.028,1192.62 2352.76,1192.62 "/>
<polyline clip-path="url(#clip152)" style="stroke:#000000; stroke-linecap:round; stroke-linejoin:round; stroke-width:2; stroke-opacity:0.1; fill:none" points="250.028,975.278 2352.76,975.278 "/>
<polyline clip-path="url(#clip152)" style="stroke:#000000; stroke-linecap:round; stroke-linejoin:round; stroke-width:2; stroke-opacity:0.1; fill:none" points="250.028,757.938 2352.76,757.938 "/>
<polyline clip-path="url(#clip152)" style="stroke:#000000; stroke-linecap:round; stroke-linejoin:round; stroke-width:2; stroke-opacity:0.1; fill:none" points="250.028,540.598 2352.76,540.598 "/>
<polyline clip-path="url(#clip152)" style="stroke:#000000; stroke-linecap:round; stroke-linejoin:round; stroke-width:2; stroke-opacity:0.1; fill:none" points="250.028,323.258 2352.76,323.258 "/>
<polyline clip-path="url(#clip152)" style="stroke:#000000; stroke-linecap:round; stroke-linejoin:round; stroke-width:2; stroke-opacity:0.1; fill:none" points="250.028,105.918 2352.76,105.918 "/>
<polyline clip-path="url(#clip150)" style="stroke:#000000; stroke-linecap:round; stroke-linejoin:round; stroke-width:4; stroke-opacity:1; fill:none" points="250.028,1423.18 2352.76,1423.18 "/>
<polyline clip-path="url(#clip150)" style="stroke:#000000; stroke-linecap:round; stroke-linejoin:round; stroke-width:4; stroke-opacity:1; fill:none" points="277.544,1423.18 277.544,1404.28 "/>
<polyline clip-path="url(#clip150)" style="stroke:#000000; stroke-linecap:round; stroke-linejoin:round; stroke-width:4; stroke-opacity:1; fill:none" points="597.497,1423.18 597.497,1404.28 "/>
<polyline clip-path="url(#clip150)" style="stroke:#000000; stroke-linecap:round; stroke-linejoin:round; stroke-width:4; stroke-opacity:1; fill:none" points="917.449,1423.18 917.449,1404.28 "/>
<polyline clip-path="url(#clip150)" style="stroke:#000000; stroke-linecap:round; stroke-linejoin:round; stroke-width:4; stroke-opacity:1; fill:none" points="1237.4,1423.18 1237.4,1404.28 "/>
<polyline clip-path="url(#clip150)" style="stroke:#000000; stroke-linecap:round; stroke-linejoin:round; stroke-width:4; stroke-opacity:1; fill:none" points="1557.35,1423.18 1557.35,1404.28 "/>
<polyline clip-path="url(#clip150)" style="stroke:#000000; stroke-linecap:round; stroke-linejoin:round; stroke-width:4; stroke-opacity:1; fill:none" points="1877.31,1423.18 1877.31,1404.28 "/>
<polyline clip-path="url(#clip150)" style="stroke:#000000; stroke-linecap:round; stroke-linejoin:round; stroke-width:4; stroke-opacity:1; fill:none" points="2197.26,1423.18 2197.26,1404.28 "/>
<path clip-path="url(#clip150)" d="M277.544 1454.1 Q273.933 1454.1 272.104 1457.66 Q270.299 1461.2 270.299 1468.33 Q270.299 1475.44 272.104 1479.01 Q273.933 1482.55 277.544 1482.55 Q281.178 1482.55 282.984 1479.01 Q284.813 1475.44 284.813 1468.33 Q284.813 1461.2 282.984 1457.66 Q281.178 1454.1 277.544 1454.1 M277.544 1450.39 Q283.354 1450.39 286.41 1455 Q289.488 1459.58 289.488 1468.33 Q289.488 1477.06 286.41 1481.67 Q283.354 1486.25 277.544 1486.25 Q271.734 1486.25 268.655 1481.67 Q265.6 1477.06 265.6 1468.33 Q265.6 1459.58 268.655 1455 Q271.734 1450.39 277.544 1450.39 Z" fill="#000000" fill-rule="nonzero" fill-opacity="1" /><path clip-path="url(#clip150)" d="M572.184 1481.64 L579.823 1481.64 L579.823 1455.28 L571.513 1456.95 L571.513 1452.69 L579.777 1451.02 L584.453 1451.02 L584.453 1481.64 L592.091 1481.64 L592.091 1485.58 L572.184 1485.58 L572.184 1481.64 Z" fill="#000000" fill-rule="nonzero" fill-opacity="1" /><path clip-path="url(#clip150)" d="M611.536 1454.1 Q607.925 1454.1 606.096 1457.66 Q604.29 1461.2 604.29 1468.33 Q604.29 1475.44 606.096 1479.01 Q607.925 1482.55 611.536 1482.55 Q615.17 1482.55 616.976 1479.01 Q618.804 1475.44 618.804 1468.33 Q618.804 1461.2 616.976 1457.66 Q615.17 1454.1 611.536 1454.1 M611.536 1450.39 Q617.346 1450.39 620.402 1455 Q623.48 1459.58 623.48 1468.33 Q623.48 1477.06 620.402 1481.67 Q617.346 1486.25 611.536 1486.25 Q605.726 1486.25 602.647 1481.67 Q599.591 1477.06 599.591 1468.33 Q599.591 1459.58 602.647 1455 Q605.726 1450.39 611.536 1450.39 Z" fill="#000000" fill-rule="nonzero" fill-opacity="1" /><path clip-path="url(#clip150)" d="M896.222 1481.64 L912.542 1481.64 L912.542 1485.58 L890.597 1485.58 L890.597 1481.64 Q893.259 1478.89 897.843 1474.26 Q902.449 1469.61 903.63 1468.27 Q905.875 1465.74 906.755 1464.01 Q907.657 1462.25 907.657 1460.56 Q907.657 1457.8 905.713 1456.07 Q903.792 1454.33 900.69 1454.33 Q898.491 1454.33 896.037 1455.09 Q893.607 1455.86 890.829 1457.41 L890.829 1452.69 Q893.653 1451.55 896.107 1450.97 Q898.56 1450.39 900.597 1450.39 Q905.968 1450.39 909.162 1453.08 Q912.356 1455.77 912.356 1460.26 Q912.356 1462.39 911.546 1464.31 Q910.759 1466.2 908.653 1468.8 Q908.074 1469.47 904.972 1472.69 Q901.87 1475.88 896.222 1481.64 Z" fill="#000000" fill-rule="nonzero" fill-opacity="1" /><path clip-path="url(#clip150)" d="M932.356 1454.1 Q928.745 1454.1 926.917 1457.66 Q925.111 1461.2 925.111 1468.33 Q925.111 1475.44 926.917 1479.01 Q928.745 1482.55 932.356 1482.55 Q935.991 1482.55 937.796 1479.01 Q939.625 1475.44 939.625 1468.33 Q939.625 1461.2 937.796 1457.66 Q935.991 1454.1 932.356 1454.1 M932.356 1450.39 Q938.167 1450.39 941.222 1455 Q944.301 1459.58 944.301 1468.33 Q944.301 1477.06 941.222 1481.67 Q938.167 1486.25 932.356 1486.25 Q926.546 1486.25 923.468 1481.67 Q920.412 1477.06 920.412 1468.33 Q920.412 1459.58 923.468 1455 Q926.546 1450.39 932.356 1450.39 Z" fill="#000000" fill-rule="nonzero" fill-opacity="1" /><path clip-path="url(#clip150)" d="M1226.24 1466.95 Q1229.6 1467.66 1231.48 1469.93 Q1233.37 1472.2 1233.37 1475.53 Q1233.37 1480.65 1229.86 1483.45 Q1226.34 1486.25 1219.86 1486.25 Q1217.68 1486.25 1215.36 1485.81 Q1213.07 1485.39 1210.62 1484.54 L1210.62 1480.02 Q1212.56 1481.16 1214.88 1481.74 Q1217.19 1482.32 1219.72 1482.32 Q1224.11 1482.32 1226.41 1480.58 Q1228.72 1478.84 1228.72 1475.53 Q1228.72 1472.48 1226.57 1470.77 Q1224.44 1469.03 1220.62 1469.03 L1216.59 1469.03 L1216.59 1465.19 L1220.8 1465.19 Q1224.25 1465.19 1226.08 1463.82 Q1227.91 1462.43 1227.91 1459.84 Q1227.91 1457.18 1226.01 1455.77 Q1224.14 1454.33 1220.62 1454.33 Q1218.7 1454.33 1216.5 1454.75 Q1214.3 1455.16 1211.66 1456.04 L1211.66 1451.88 Q1214.32 1451.14 1216.64 1450.77 Q1218.98 1450.39 1221.04 1450.39 Q1226.36 1450.39 1229.46 1452.83 Q1232.56 1455.23 1232.56 1459.35 Q1232.56 1462.22 1230.92 1464.21 Q1229.28 1466.18 1226.24 1466.95 Z" fill="#000000" fill-rule="nonzero" fill-opacity="1" /><path clip-path="url(#clip150)" d="M1252.24 1454.1 Q1248.63 1454.1 1246.8 1457.66 Q1244.99 1461.2 1244.99 1468.33 Q1244.99 1475.44 1246.8 1479.01 Q1248.63 1482.55 1252.24 1482.55 Q1255.87 1482.55 1257.68 1479.01 Q1259.51 1475.44 1259.51 1468.33 Q1259.51 1461.2 1257.68 1457.66 Q1255.87 1454.1 1252.24 1454.1 M1252.24 1450.39 Q1258.05 1450.39 1261.11 1455 Q1264.18 1459.58 1264.18 1468.33 Q1264.18 1477.06 1261.11 1481.67 Q1258.05 1486.25 1252.24 1486.25 Q1246.43 1486.25 1243.35 1481.67 Q1240.3 1477.06 1240.3 1468.33 Q1240.3 1459.58 1243.35 1455 Q1246.43 1450.39 1252.24 1450.39 Z" fill="#000000" fill-rule="nonzero" fill-opacity="1" /><path clip-path="url(#clip150)" d="M1545.53 1455.09 L1533.72 1473.54 L1545.53 1473.54 L1545.53 1455.09 M1544.3 1451.02 L1550.18 1451.02 L1550.18 1473.54 L1555.11 1473.54 L1555.11 1477.43 L1550.18 1477.43 L1550.18 1485.58 L1545.53 1485.58 L1545.53 1477.43 L1529.92 1477.43 L1529.92 1472.92 L1544.3 1451.02 Z" fill="#000000" fill-rule="nonzero" fill-opacity="1" /><path clip-path="url(#clip150)" d="M1572.84 1454.1 Q1569.23 1454.1 1567.4 1457.66 Q1565.59 1461.2 1565.59 1468.33 Q1565.59 1475.44 1567.4 1479.01 Q1569.23 1482.55 1572.84 1482.55 Q1576.47 1482.55 1578.28 1479.01 Q1580.11 1475.44 1580.11 1468.33 Q1580.11 1461.2 1578.28 1457.66 Q1576.47 1454.1 1572.84 1454.1 M1572.84 1450.39 Q1578.65 1450.39 1581.71 1455 Q1584.78 1459.58 1584.78 1468.33 Q1584.78 1477.06 1581.71 1481.67 Q1578.65 1486.25 1572.84 1486.25 Q1567.03 1486.25 1563.95 1481.67 Q1560.9 1477.06 1560.9 1468.33 Q1560.9 1459.58 1563.95 1455 Q1567.03 1450.39 1572.84 1450.39 Z" fill="#000000" fill-rule="nonzero" fill-opacity="1" /><path clip-path="url(#clip150)" d="M1852.01 1451.02 L1870.36 1451.02 L1870.36 1454.96 L1856.29 1454.96 L1856.29 1463.43 Q1857.31 1463.08 1858.33 1462.92 Q1859.34 1462.73 1860.36 1462.73 Q1866.15 1462.73 1869.53 1465.9 Q1872.91 1469.08 1872.91 1474.49 Q1872.91 1480.07 1869.44 1483.17 Q1865.96 1486.25 1859.64 1486.25 Q1857.47 1486.25 1855.2 1485.88 Q1852.95 1485.51 1850.55 1484.77 L1850.55 1480.07 Q1852.63 1481.2 1854.85 1481.76 Q1857.08 1482.32 1859.55 1482.32 Q1863.56 1482.32 1865.89 1480.21 Q1868.23 1478.1 1868.23 1474.49 Q1868.23 1470.88 1865.89 1468.77 Q1863.56 1466.67 1859.55 1466.67 Q1857.68 1466.67 1855.8 1467.08 Q1853.95 1467.5 1852.01 1468.38 L1852.01 1451.02 Z" fill="#000000" fill-rule="nonzero" fill-opacity="1" /><path clip-path="url(#clip150)" d="M1892.12 1454.1 Q1888.51 1454.1 1886.68 1457.66 Q1884.88 1461.2 1884.88 1468.33 Q1884.88 1475.44 1886.68 1479.01 Q1888.51 1482.55 1892.12 1482.55 Q1895.76 1482.55 1897.56 1479.01 Q1899.39 1475.44 1899.39 1468.33 Q1899.39 1461.2 1897.56 1457.66 Q1895.76 1454.1 1892.12 1454.1 M1892.12 1450.39 Q1897.93 1450.39 1900.99 1455 Q1904.07 1459.58 1904.07 1468.33 Q1904.07 1477.06 1900.99 1481.67 Q1897.93 1486.25 1892.12 1486.25 Q1886.31 1486.25 1883.23 1481.67 Q1880.18 1477.06 1880.18 1468.33 Q1880.18 1459.58 1883.23 1455 Q1886.31 1450.39 1892.12 1450.39 Z" fill="#000000" fill-rule="nonzero" fill-opacity="1" /><path clip-path="url(#clip150)" d="M2182.66 1466.44 Q2179.52 1466.44 2177.66 1468.59 Q2175.84 1470.74 2175.84 1474.49 Q2175.84 1478.22 2177.66 1480.39 Q2179.52 1482.55 2182.66 1482.55 Q2185.81 1482.55 2187.64 1480.39 Q2189.49 1478.22 2189.49 1474.49 Q2189.49 1470.74 2187.64 1468.59 Q2185.81 1466.44 2182.66 1466.44 M2191.95 1451.78 L2191.95 1456.04 Q2190.19 1455.21 2188.38 1454.77 Q2186.6 1454.33 2184.84 1454.33 Q2180.21 1454.33 2177.76 1457.45 Q2175.33 1460.58 2174.98 1466.9 Q2176.34 1464.89 2178.4 1463.82 Q2180.47 1462.73 2182.94 1462.73 Q2188.15 1462.73 2191.16 1465.9 Q2194.19 1469.05 2194.19 1474.49 Q2194.19 1479.82 2191.04 1483.03 Q2187.9 1486.25 2182.66 1486.25 Q2176.67 1486.25 2173.5 1481.67 Q2170.33 1477.06 2170.33 1468.33 Q2170.33 1460.14 2174.22 1455.28 Q2178.1 1450.39 2184.65 1450.39 Q2186.41 1450.39 2188.2 1450.74 Q2190 1451.09 2191.95 1451.78 Z" fill="#000000" fill-rule="nonzero" fill-opacity="1" /><path clip-path="url(#clip150)" d="M2212.25 1454.1 Q2208.64 1454.1 2206.81 1457.66 Q2205 1461.2 2205 1468.33 Q2205 1475.44 2206.81 1479.01 Q2208.64 1482.55 2212.25 1482.55 Q2215.88 1482.55 2217.69 1479.01 Q2219.52 1475.44 2219.52 1468.33 Q2219.52 1461.2 2217.69 1457.66 Q2215.88 1454.1 2212.25 1454.1 M2212.25 1450.39 Q2218.06 1450.39 2221.11 1455 Q2224.19 1459.58 2224.19 1468.33 Q2224.19 1477.06 2221.11 1481.67 Q2218.06 1486.25 2212.25 1486.25 Q2206.44 1486.25 2203.36 1481.67 Q2200.3 1477.06 2200.3 1468.33 Q2200.3 1459.58 2203.36 1455 Q2206.44 1450.39 2212.25 1450.39 Z" fill="#000000" fill-rule="nonzero" fill-opacity="1" /><path clip-path="url(#clip150)" d="M1116.72 1522.08 L1116.72 1528.35 Q1113.06 1526.6 1109.82 1525.74 Q1106.57 1524.88 1103.55 1524.88 Q1098.29 1524.88 1095.43 1526.92 Q1092.6 1528.96 1092.6 1532.71 Q1092.6 1535.87 1094.47 1537.49 Q1096.38 1539.08 1101.67 1540.07 L1105.55 1540.86 Q1112.74 1542.23 1116.15 1545.7 Q1119.59 1549.14 1119.59 1554.93 Q1119.59 1561.84 1114.94 1565.4 Q1110.33 1568.97 1101.38 1568.97 Q1098.01 1568.97 1094.19 1568.2 Q1090.4 1567.44 1086.33 1565.94 L1086.33 1559.32 Q1090.24 1561.52 1094 1562.63 Q1097.75 1563.75 1101.38 1563.75 Q1106.89 1563.75 1109.88 1561.58 Q1112.87 1559.42 1112.87 1555.41 Q1112.87 1551.91 1110.71 1549.93 Q1108.57 1547.96 1103.67 1546.97 L1099.76 1546.21 Q1092.57 1544.78 1089.35 1541.72 Q1086.14 1538.67 1086.14 1533.22 Q1086.14 1526.92 1090.56 1523.29 Q1095.02 1519.66 1102.81 1519.66 Q1106.16 1519.66 1109.63 1520.27 Q1113.09 1520.87 1116.72 1522.08 Z" fill="#000000" fill-rule="nonzero" fill-opacity="1" /><path clip-path="url(#clip150)" d="M1129.61 1520.52 L1139.19 1520.52 L1151.32 1552.86 L1163.51 1520.52 L1173.09 1520.52 L1173.09 1568.04 L1166.82 1568.04 L1166.82 1526.32 L1154.57 1558.91 L1148.11 1558.91 L1135.85 1526.32 L1135.85 1568.04 L1129.61 1568.04 L1129.61 1520.52 Z" fill="#000000" fill-rule="nonzero" fill-opacity="1" /><path clip-path="url(#clip150)" d="M1221.44 1524.18 L1221.44 1530.96 Q1218.19 1527.94 1214.5 1526.44 Q1210.84 1524.95 1206.7 1524.95 Q1198.55 1524.95 1194.23 1529.95 Q1189.9 1534.91 1189.9 1544.33 Q1189.9 1553.72 1194.23 1558.72 Q1198.55 1563.68 1206.7 1563.68 Q1210.84 1563.68 1214.5 1562.19 Q1218.19 1560.69 1221.44 1557.67 L1221.44 1564.38 Q1218.06 1566.68 1214.28 1567.82 Q1210.52 1568.97 1206.32 1568.97 Q1195.53 1568.97 1189.32 1562.38 Q1183.12 1555.76 1183.12 1544.33 Q1183.12 1532.87 1189.32 1526.28 Q1195.53 1519.66 1206.32 1519.66 Q1210.59 1519.66 1214.34 1520.81 Q1218.13 1521.92 1221.44 1524.18 Z" fill="#000000" fill-rule="nonzero" fill-opacity="1" /><path clip-path="url(#clip150)" d="M1252.09 1520.52 L1258.52 1520.52 L1258.52 1568.04 L1252.09 1568.04 L1252.09 1520.52 Z" fill="#000000" fill-rule="nonzero" fill-opacity="1" /><path clip-path="url(#clip150)" d="M1276.85 1522.27 L1276.85 1532.4 L1288.92 1532.4 L1288.92 1536.95 L1276.85 1536.95 L1276.85 1556.3 Q1276.85 1560.66 1278.03 1561.9 Q1279.24 1563.14 1282.9 1563.14 L1288.92 1563.14 L1288.92 1568.04 L1282.9 1568.04 Q1276.12 1568.04 1273.54 1565.53 Q1270.96 1562.98 1270.96 1556.3 L1270.96 1536.95 L1266.67 1536.95 L1266.67 1532.4 L1270.96 1532.4 L1270.96 1522.27 L1276.85 1522.27 Z" fill="#000000" fill-rule="nonzero" fill-opacity="1" /><path clip-path="url(#clip150)" d="M1327.11 1548.76 L1327.11 1551.62 L1300.18 1551.62 Q1300.56 1557.67 1303.81 1560.85 Q1307.09 1564 1312.91 1564 Q1316.29 1564 1319.44 1563.17 Q1322.62 1562.35 1325.74 1560.69 L1325.74 1566.23 Q1322.59 1567.57 1319.28 1568.27 Q1315.97 1568.97 1312.56 1568.97 Q1304.03 1568.97 1299.04 1564 Q1294.07 1559.04 1294.07 1550.57 Q1294.07 1541.82 1298.78 1536.69 Q1303.52 1531.54 1311.55 1531.54 Q1318.74 1531.54 1322.91 1536.18 Q1327.11 1540.8 1327.11 1548.76 M1321.25 1547.04 Q1321.19 1542.23 1318.55 1539.37 Q1315.94 1536.5 1311.61 1536.5 Q1306.71 1536.5 1303.75 1539.27 Q1300.82 1542.04 1300.37 1547.07 L1321.25 1547.04 Z" fill="#000000" fill-rule="nonzero" fill-opacity="1" /><path clip-path="url(#clip150)" d="M1357.38 1537.87 Q1356.39 1537.3 1355.21 1537.04 Q1354.07 1536.76 1352.67 1536.76 Q1347.7 1536.76 1345.03 1540 Q1342.39 1543.22 1342.39 1549.27 L1342.39 1568.04 L1336.5 1568.04 L1336.5 1532.4 L1342.39 1532.4 L1342.39 1537.93 Q1344.23 1534.69 1347.19 1533.13 Q1350.15 1531.54 1354.39 1531.54 Q1354.99 1531.54 1355.72 1531.63 Q1356.46 1531.7 1357.35 1531.85 L1357.38 1537.87 Z" fill="#000000" fill-rule="nonzero" fill-opacity="1" /><path clip-path="url(#clip150)" d="M1379.72 1550.12 Q1372.62 1550.12 1369.89 1551.75 Q1367.15 1553.37 1367.15 1557.29 Q1367.15 1560.4 1369.19 1562.25 Q1371.26 1564.07 1374.79 1564.07 Q1379.66 1564.07 1382.59 1560.63 Q1385.55 1557.16 1385.55 1551.43 L1385.55 1550.12 L1379.72 1550.12 M1391.4 1547.71 L1391.4 1568.04 L1385.55 1568.04 L1385.55 1562.63 Q1383.54 1565.88 1380.55 1567.44 Q1377.56 1568.97 1373.23 1568.97 Q1367.75 1568.97 1364.51 1565.91 Q1361.29 1562.82 1361.29 1557.67 Q1361.29 1551.65 1365.3 1548.6 Q1369.35 1545.54 1377.33 1545.54 L1385.55 1545.54 L1385.55 1544.97 Q1385.55 1540.93 1382.87 1538.73 Q1380.23 1536.5 1375.43 1536.5 Q1372.37 1536.5 1369.47 1537.23 Q1366.58 1537.97 1363.9 1539.43 L1363.9 1534.02 Q1367.12 1532.78 1370.14 1532.17 Q1373.17 1531.54 1376.03 1531.54 Q1383.76 1531.54 1387.58 1535.55 Q1391.4 1539.56 1391.4 1547.71 Z" fill="#000000" fill-rule="nonzero" fill-opacity="1" /><path clip-path="url(#clip150)" d="M1409.26 1522.27 L1409.26 1532.4 L1421.32 1532.4 L1421.32 1536.95 L1409.26 1536.95 L1409.26 1556.3 Q1409.26 1560.66 1410.44 1561.9 Q1411.65 1563.14 1415.31 1563.14 L1421.32 1563.14 L1421.32 1568.04 L1415.31 1568.04 Q1408.53 1568.04 1405.95 1565.53 Q1403.37 1562.98 1403.37 1556.3 L1403.37 1536.95 L1399.07 1536.95 L1399.07 1532.4 L1403.37 1532.4 L1403.37 1522.27 L1409.26 1522.27 Z" fill="#000000" fill-rule="nonzero" fill-opacity="1" /><path clip-path="url(#clip150)" d="M1429.02 1532.4 L1434.88 1532.4 L1434.88 1568.04 L1429.02 1568.04 L1429.02 1532.4 M1429.02 1518.52 L1434.88 1518.52 L1434.88 1525.93 L1429.02 1525.93 L1429.02 1518.52 Z" fill="#000000" fill-rule="nonzero" fill-opacity="1" /><path clip-path="url(#clip150)" d="M1460.95 1536.5 Q1456.24 1536.5 1453.5 1540.19 Q1450.76 1543.85 1450.76 1550.25 Q1450.76 1556.65 1453.47 1560.34 Q1456.21 1564 1460.95 1564 Q1465.63 1564 1468.36 1560.31 Q1471.1 1556.62 1471.1 1550.25 Q1471.1 1543.92 1468.36 1540.23 Q1465.63 1536.5 1460.95 1536.5 M1460.95 1531.54 Q1468.59 1531.54 1472.95 1536.5 Q1477.31 1541.47 1477.31 1550.25 Q1477.31 1559 1472.95 1564 Q1468.59 1568.97 1460.95 1568.97 Q1453.28 1568.97 1448.92 1564 Q1444.59 1559 1444.59 1550.25 Q1444.59 1541.47 1448.92 1536.5 Q1453.28 1531.54 1460.95 1531.54 Z" fill="#000000" fill-rule="nonzero" fill-opacity="1" /><path clip-path="url(#clip150)" d="M1516.65 1546.53 L1516.65 1568.04 L1510.79 1568.04 L1510.79 1546.72 Q1510.79 1541.66 1508.82 1539.14 Q1506.85 1536.63 1502.9 1536.63 Q1498.16 1536.63 1495.42 1539.65 Q1492.68 1542.68 1492.68 1547.9 L1492.68 1568.04 L1486.79 1568.04 L1486.79 1532.4 L1492.68 1532.4 L1492.68 1537.93 Q1494.78 1534.72 1497.61 1533.13 Q1500.48 1531.54 1504.2 1531.54 Q1510.35 1531.54 1513.5 1535.36 Q1516.65 1539.14 1516.65 1546.53 Z" fill="#000000" fill-rule="nonzero" fill-opacity="1" /><polyline clip-path="url(#clip150)" style="stroke:#000000; stroke-linecap:round; stroke-linejoin:round; stroke-width:4; stroke-opacity:1; fill:none" points="250.028,1423.18 250.028,47.2441 "/>
<polyline clip-path="url(#clip150)" style="stroke:#000000; stroke-linecap:round; stroke-linejoin:round; stroke-width:4; stroke-opacity:1; fill:none" points="250.028,1409.96 268.926,1409.96 "/>
<polyline clip-path="url(#clip150)" style="stroke:#000000; stroke-linecap:round; stroke-linejoin:round; stroke-width:4; stroke-opacity:1; fill:none" points="250.028,1192.62 268.926,1192.62 "/>
<polyline clip-path="url(#clip150)" style="stroke:#000000; stroke-linecap:round; stroke-linejoin:round; stroke-width:4; stroke-opacity:1; fill:none" points="250.028,975.278 268.926,975.278 "/>
<polyline clip-path="url(#clip150)" style="stroke:#000000; stroke-linecap:round; stroke-linejoin:round; stroke-width:4; stroke-opacity:1; fill:none" points="250.028,757.938 268.926,757.938 "/>
<polyline clip-path="url(#clip150)" style="stroke:#000000; stroke-linecap:round; stroke-linejoin:round; stroke-width:4; stroke-opacity:1; fill:none" points="250.028,540.598 268.926,540.598 "/>
<polyline clip-path="url(#clip150)" style="stroke:#000000; stroke-linecap:round; stroke-linejoin:round; stroke-width:4; stroke-opacity:1; fill:none" points="250.028,323.258 268.926,323.258 "/>
<polyline clip-path="url(#clip150)" style="stroke:#000000; stroke-linecap:round; stroke-linejoin:round; stroke-width:4; stroke-opacity:1; fill:none" points="250.028,105.918 268.926,105.918 "/>
<path clip-path="url(#clip150)" d="M126.691 1395.76 Q123.08 1395.76 121.251 1399.32 Q119.445 1402.86 119.445 1409.99 Q119.445 1417.1 121.251 1420.66 Q123.08 1424.21 126.691 1424.21 Q130.325 1424.21 132.13 1420.66 Q133.959 1417.1 133.959 1409.99 Q133.959 1402.86 132.13 1399.32 Q130.325 1395.76 126.691 1395.76 M126.691 1392.05 Q132.501 1392.05 135.556 1396.66 Q138.635 1401.24 138.635 1409.99 Q138.635 1418.72 135.556 1423.33 Q132.501 1427.91 126.691 1427.91 Q120.88 1427.91 117.802 1423.33 Q114.746 1418.72 114.746 1409.99 Q114.746 1401.24 117.802 1396.66 Q120.88 1392.05 126.691 1392.05 Z" fill="#000000" fill-rule="nonzero" fill-opacity="1" /><path clip-path="url(#clip150)" d="M146.853 1421.36 L151.737 1421.36 L151.737 1427.24 L146.853 1427.24 L146.853 1421.36 Z" fill="#000000" fill-rule="nonzero" fill-opacity="1" /><path clip-path="url(#clip150)" d="M171.922 1395.76 Q168.311 1395.76 166.482 1399.32 Q164.677 1402.86 164.677 1409.99 Q164.677 1417.1 166.482 1420.66 Q168.311 1424.21 171.922 1424.21 Q175.556 1424.21 177.362 1420.66 Q179.19 1417.1 179.19 1409.99 Q179.19 1402.86 177.362 1399.32 Q175.556 1395.76 171.922 1395.76 M171.922 1392.05 Q177.732 1392.05 180.788 1396.66 Q183.866 1401.24 183.866 1409.99 Q183.866 1418.72 180.788 1423.33 Q177.732 1427.91 171.922 1427.91 Q166.112 1427.91 163.033 1423.33 Q159.978 1418.72 159.978 1409.99 Q159.978 1401.24 163.033 1396.66 Q166.112 1392.05 171.922 1392.05 Z" fill="#000000" fill-rule="nonzero" fill-opacity="1" /><path clip-path="url(#clip150)" d="M202.084 1395.76 Q198.473 1395.76 196.644 1399.32 Q194.838 1402.86 194.838 1409.99 Q194.838 1417.1 196.644 1420.66 Q198.473 1424.21 202.084 1424.21 Q205.718 1424.21 207.524 1420.66 Q209.352 1417.1 209.352 1409.99 Q209.352 1402.86 207.524 1399.32 Q205.718 1395.76 202.084 1395.76 M202.084 1392.05 Q207.894 1392.05 210.949 1396.66 Q214.028 1401.24 214.028 1409.99 Q214.028 1418.72 210.949 1423.33 Q207.894 1427.91 202.084 1427.91 Q196.274 1427.91 193.195 1423.33 Q190.139 1418.72 190.139 1409.99 Q190.139 1401.24 193.195 1396.66 Q196.274 1392.05 202.084 1392.05 Z" fill="#000000" fill-rule="nonzero" fill-opacity="1" /><path clip-path="url(#clip150)" d="M128.288 1178.42 Q124.677 1178.42 122.848 1181.98 Q121.043 1185.52 121.043 1192.65 Q121.043 1199.76 122.848 1203.32 Q124.677 1206.87 128.288 1206.87 Q131.922 1206.87 133.728 1203.32 Q135.556 1199.76 135.556 1192.65 Q135.556 1185.52 133.728 1181.98 Q131.922 1178.42 128.288 1178.42 M128.288 1174.71 Q134.098 1174.71 137.154 1179.32 Q140.232 1183.9 140.232 1192.65 Q140.232 1201.38 137.154 1205.99 Q134.098 1210.57 128.288 1210.57 Q122.478 1210.57 119.399 1205.99 Q116.343 1201.38 116.343 1192.65 Q116.343 1183.9 119.399 1179.32 Q122.478 1174.71 128.288 1174.71 Z" fill="#000000" fill-rule="nonzero" fill-opacity="1" /><path clip-path="url(#clip150)" d="M148.45 1204.02 L153.334 1204.02 L153.334 1209.9 L148.45 1209.9 L148.45 1204.02 Z" fill="#000000" fill-rule="nonzero" fill-opacity="1" /><path clip-path="url(#clip150)" d="M173.519 1178.42 Q169.908 1178.42 168.079 1181.98 Q166.274 1185.52 166.274 1192.65 Q166.274 1199.76 168.079 1203.32 Q169.908 1206.87 173.519 1206.87 Q177.153 1206.87 178.959 1203.32 Q180.788 1199.76 180.788 1192.65 Q180.788 1185.52 178.959 1181.98 Q177.153 1178.42 173.519 1178.42 M173.519 1174.71 Q179.329 1174.71 182.385 1179.32 Q185.463 1183.9 185.463 1192.65 Q185.463 1201.38 182.385 1205.99 Q179.329 1210.57 173.519 1210.57 Q167.709 1210.57 164.63 1205.99 Q161.575 1201.38 161.575 1192.65 Q161.575 1183.9 164.63 1179.32 Q167.709 1174.71 173.519 1174.71 Z" fill="#000000" fill-rule="nonzero" fill-opacity="1" /><path clip-path="url(#clip150)" d="M197.709 1205.96 L214.028 1205.96 L214.028 1209.9 L192.084 1209.9 L192.084 1205.96 Q194.746 1203.21 199.329 1198.58 Q203.936 1193.93 205.116 1192.58 Q207.362 1190.06 208.241 1188.32 Q209.144 1186.56 209.144 1184.88 Q209.144 1182.12 207.199 1180.38 Q205.278 1178.65 202.176 1178.65 Q199.977 1178.65 197.524 1179.41 Q195.093 1180.18 192.315 1181.73 L192.315 1177 Q195.139 1175.87 197.593 1175.29 Q200.047 1174.71 202.084 1174.71 Q207.454 1174.71 210.649 1177.4 Q213.843 1180.08 213.843 1184.57 Q213.843 1186.7 213.033 1188.63 Q212.246 1190.52 210.139 1193.12 Q209.561 1193.79 206.459 1197 Q203.357 1200.2 197.709 1205.96 Z" fill="#000000" fill-rule="nonzero" fill-opacity="1" /><path clip-path="url(#clip150)" d="M126.205 961.077 Q122.593 961.077 120.765 964.642 Q118.959 968.183 118.959 975.313 Q118.959 982.419 120.765 985.984 Q122.593 989.526 126.205 989.526 Q129.839 989.526 131.644 985.984 Q133.473 982.419 133.473 975.313 Q133.473 968.183 131.644 964.642 Q129.839 961.077 126.205 961.077 M126.205 957.373 Q132.015 957.373 135.07 961.98 Q138.149 966.563 138.149 975.313 Q138.149 984.04 135.07 988.646 Q132.015 993.229 126.205 993.229 Q120.394 993.229 117.316 988.646 Q114.26 984.04 114.26 975.313 Q114.26 966.563 117.316 961.98 Q120.394 957.373 126.205 957.373 Z" fill="#000000" fill-rule="nonzero" fill-opacity="1" /><path clip-path="url(#clip150)" d="M146.366 986.678 L151.251 986.678 L151.251 992.558 L146.366 992.558 L146.366 986.678 Z" fill="#000000" fill-rule="nonzero" fill-opacity="1" /><path clip-path="url(#clip150)" d="M171.436 961.077 Q167.825 961.077 165.996 964.642 Q164.19 968.183 164.19 975.313 Q164.19 982.419 165.996 985.984 Q167.825 989.526 171.436 989.526 Q175.07 989.526 176.876 985.984 Q178.704 982.419 178.704 975.313 Q178.704 968.183 176.876 964.642 Q175.07 961.077 171.436 961.077 M171.436 957.373 Q177.246 957.373 180.301 961.98 Q183.38 966.563 183.38 975.313 Q183.38 984.04 180.301 988.646 Q177.246 993.229 171.436 993.229 Q165.626 993.229 162.547 988.646 Q159.491 984.04 159.491 975.313 Q159.491 966.563 162.547 961.98 Q165.626 957.373 171.436 957.373 Z" fill="#000000" fill-rule="nonzero" fill-opacity="1" /><path clip-path="url(#clip150)" d="M204.445 962.072 L192.639 980.521 L204.445 980.521 L204.445 962.072 M203.218 957.998 L209.098 957.998 L209.098 980.521 L214.028 980.521 L214.028 984.41 L209.098 984.41 L209.098 992.558 L204.445 992.558 L204.445 984.41 L188.843 984.41 L188.843 979.896 L203.218 957.998 Z" fill="#000000" fill-rule="nonzero" fill-opacity="1" /><path clip-path="url(#clip150)" d="M126.529 743.737 Q122.918 743.737 121.089 747.302 Q119.283 750.843 119.283 757.973 Q119.283 765.079 121.089 768.644 Q122.918 772.186 126.529 772.186 Q130.163 772.186 131.968 768.644 Q133.797 765.079 133.797 757.973 Q133.797 750.843 131.968 747.302 Q130.163 743.737 126.529 743.737 M126.529 740.033 Q132.339 740.033 135.394 744.64 Q138.473 749.223 138.473 757.973 Q138.473 766.7 135.394 771.306 Q132.339 775.889 126.529 775.889 Q120.718 775.889 117.64 771.306 Q114.584 766.7 114.584 757.973 Q114.584 749.223 117.64 744.64 Q120.718 740.033 126.529 740.033 Z" fill="#000000" fill-rule="nonzero" fill-opacity="1" /><path clip-path="url(#clip150)" d="M146.691 769.339 L151.575 769.339 L151.575 775.218 L146.691 775.218 L146.691 769.339 Z" fill="#000000" fill-rule="nonzero" fill-opacity="1" /><path clip-path="url(#clip150)" d="M171.76 743.737 Q168.149 743.737 166.32 747.302 Q164.515 750.843 164.515 757.973 Q164.515 765.079 166.32 768.644 Q168.149 772.186 171.76 772.186 Q175.394 772.186 177.2 768.644 Q179.028 765.079 179.028 757.973 Q179.028 750.843 177.2 747.302 Q175.394 743.737 171.76 743.737 M171.76 740.033 Q177.57 740.033 180.626 744.64 Q183.704 749.223 183.704 757.973 Q183.704 766.7 180.626 771.306 Q177.57 775.889 171.76 775.889 Q165.95 775.889 162.871 771.306 Q159.815 766.7 159.815 757.973 Q159.815 749.223 162.871 744.64 Q165.95 740.033 171.76 740.033 Z" fill="#000000" fill-rule="nonzero" fill-opacity="1" /><path clip-path="url(#clip150)" d="M202.5 756.075 Q199.352 756.075 197.5 758.228 Q195.672 760.38 195.672 764.13 Q195.672 767.857 197.5 770.033 Q199.352 772.186 202.5 772.186 Q205.649 772.186 207.477 770.033 Q209.329 767.857 209.329 764.13 Q209.329 760.38 207.477 758.228 Q205.649 756.075 202.5 756.075 M211.783 741.422 L211.783 745.681 Q210.024 744.848 208.218 744.408 Q206.436 743.968 204.676 743.968 Q200.047 743.968 197.593 747.093 Q195.163 750.218 194.815 756.538 Q196.181 754.524 198.241 753.459 Q200.301 752.371 202.778 752.371 Q207.987 752.371 210.996 755.542 Q214.028 758.69 214.028 764.13 Q214.028 769.454 210.88 772.672 Q207.732 775.889 202.5 775.889 Q196.505 775.889 193.334 771.306 Q190.163 766.7 190.163 757.973 Q190.163 749.778 194.051 744.917 Q197.94 740.033 204.491 740.033 Q206.25 740.033 208.033 740.38 Q209.838 740.728 211.783 741.422 Z" fill="#000000" fill-rule="nonzero" fill-opacity="1" /><path clip-path="url(#clip150)" d="M126.783 526.397 Q123.172 526.397 121.343 529.962 Q119.538 533.503 119.538 540.633 Q119.538 547.739 121.343 551.304 Q123.172 554.846 126.783 554.846 Q130.417 554.846 132.223 551.304 Q134.052 547.739 134.052 540.633 Q134.052 533.503 132.223 529.962 Q130.417 526.397 126.783 526.397 M126.783 522.693 Q132.593 522.693 135.649 527.3 Q138.728 531.883 138.728 540.633 Q138.728 549.36 135.649 553.966 Q132.593 558.55 126.783 558.55 Q120.973 558.55 117.894 553.966 Q114.839 549.36 114.839 540.633 Q114.839 531.883 117.894 527.3 Q120.973 522.693 126.783 522.693 Z" fill="#000000" fill-rule="nonzero" fill-opacity="1" /><path clip-path="url(#clip150)" d="M146.945 551.999 L151.829 551.999 L151.829 557.878 L146.945 557.878 L146.945 551.999 Z" fill="#000000" fill-rule="nonzero" fill-opacity="1" /><path clip-path="url(#clip150)" d="M172.014 526.397 Q168.403 526.397 166.575 529.962 Q164.769 533.503 164.769 540.633 Q164.769 547.739 166.575 551.304 Q168.403 554.846 172.014 554.846 Q175.649 554.846 177.454 551.304 Q179.283 547.739 179.283 540.633 Q179.283 533.503 177.454 529.962 Q175.649 526.397 172.014 526.397 M172.014 522.693 Q177.825 522.693 180.88 527.3 Q183.959 531.883 183.959 540.633 Q183.959 549.36 180.88 553.966 Q177.825 558.55 172.014 558.55 Q166.204 558.55 163.126 553.966 Q160.07 549.36 160.07 540.633 Q160.07 531.883 163.126 527.3 Q166.204 522.693 172.014 522.693 Z" fill="#000000" fill-rule="nonzero" fill-opacity="1" /><path clip-path="url(#clip150)" d="M202.176 541.466 Q198.843 541.466 196.922 543.249 Q195.024 545.031 195.024 548.156 Q195.024 551.281 196.922 553.063 Q198.843 554.846 202.176 554.846 Q205.51 554.846 207.431 553.063 Q209.352 551.258 209.352 548.156 Q209.352 545.031 207.431 543.249 Q205.533 541.466 202.176 541.466 M197.5 539.476 Q194.491 538.735 192.801 536.675 Q191.135 534.614 191.135 531.651 Q191.135 527.508 194.075 525.101 Q197.037 522.693 202.176 522.693 Q207.338 522.693 210.278 525.101 Q213.218 527.508 213.218 531.651 Q213.218 534.614 211.528 536.675 Q209.861 538.735 206.875 539.476 Q210.255 540.263 212.13 542.554 Q214.028 544.846 214.028 548.156 Q214.028 553.179 210.949 555.864 Q207.894 558.55 202.176 558.55 Q196.459 558.55 193.38 555.864 Q190.325 553.179 190.325 548.156 Q190.325 544.846 192.223 542.554 Q194.121 540.263 197.5 539.476 M195.787 532.091 Q195.787 534.776 197.454 536.281 Q199.144 537.786 202.176 537.786 Q205.186 537.786 206.875 536.281 Q208.588 534.776 208.588 532.091 Q208.588 529.406 206.875 527.902 Q205.186 526.397 202.176 526.397 Q199.144 526.397 197.454 527.902 Q195.787 529.406 195.787 532.091 Z" fill="#000000" fill-rule="nonzero" fill-opacity="1" /><path clip-path="url(#clip150)" d="M126.691 309.057 Q123.08 309.057 121.251 312.622 Q119.445 316.163 119.445 323.293 Q119.445 330.399 121.251 333.964 Q123.08 337.506 126.691 337.506 Q130.325 337.506 132.13 333.964 Q133.959 330.399 133.959 323.293 Q133.959 316.163 132.13 312.622 Q130.325 309.057 126.691 309.057 M126.691 305.353 Q132.501 305.353 135.556 309.96 Q138.635 314.543 138.635 323.293 Q138.635 332.02 135.556 336.626 Q132.501 341.21 126.691 341.21 Q120.88 341.21 117.802 336.626 Q114.746 332.02 114.746 323.293 Q114.746 314.543 117.802 309.96 Q120.88 305.353 126.691 305.353 Z" fill="#000000" fill-rule="nonzero" fill-opacity="1" /><path clip-path="url(#clip150)" d="M146.853 334.659 L151.737 334.659 L151.737 340.538 L146.853 340.538 L146.853 334.659 Z" fill="#000000" fill-rule="nonzero" fill-opacity="1" /><path clip-path="url(#clip150)" d="M162.732 336.603 L170.371 336.603 L170.371 310.238 L162.061 311.904 L162.061 307.645 L170.325 305.978 L175.001 305.978 L175.001 336.603 L182.639 336.603 L182.639 340.538 L162.732 340.538 L162.732 336.603 Z" fill="#000000" fill-rule="nonzero" fill-opacity="1" /><path clip-path="url(#clip150)" d="M202.084 309.057 Q198.473 309.057 196.644 312.622 Q194.838 316.163 194.838 323.293 Q194.838 330.399 196.644 333.964 Q198.473 337.506 202.084 337.506 Q205.718 337.506 207.524 333.964 Q209.352 330.399 209.352 323.293 Q209.352 316.163 207.524 312.622 Q205.718 309.057 202.084 309.057 M202.084 305.353 Q207.894 305.353 210.949 309.96 Q214.028 314.543 214.028 323.293 Q214.028 332.02 210.949 336.626 Q207.894 341.21 202.084 341.21 Q196.274 341.21 193.195 336.626 Q190.139 332.02 190.139 323.293 Q190.139 314.543 193.195 309.96 Q196.274 305.353 202.084 305.353 Z" fill="#000000" fill-rule="nonzero" fill-opacity="1" /><path clip-path="url(#clip150)" d="M128.288 91.717 Q124.677 91.717 122.848 95.2818 Q121.043 98.8235 121.043 105.953 Q121.043 113.059 122.848 116.624 Q124.677 120.166 128.288 120.166 Q131.922 120.166 133.728 116.624 Q135.556 113.059 135.556 105.953 Q135.556 98.8235 133.728 95.2818 Q131.922 91.717 128.288 91.717 M128.288 88.0133 Q134.098 88.0133 137.154 92.6198 Q140.232 97.2031 140.232 105.953 Q140.232 114.68 137.154 119.286 Q134.098 123.87 128.288 123.87 Q122.478 123.87 119.399 119.286 Q116.343 114.68 116.343 105.953 Q116.343 97.2031 119.399 92.6198 Q122.478 88.0133 128.288 88.0133 Z" fill="#000000" fill-rule="nonzero" fill-opacity="1" /><path clip-path="url(#clip150)" d="M148.45 117.319 L153.334 117.319 L153.334 123.198 L148.45 123.198 L148.45 117.319 Z" fill="#000000" fill-rule="nonzero" fill-opacity="1" /><path clip-path="url(#clip150)" d="M164.329 119.263 L171.968 119.263 L171.968 92.8976 L163.658 94.5642 L163.658 90.305 L171.922 88.6383 L176.598 88.6383 L176.598 119.263 L184.237 119.263 L184.237 123.198 L164.329 123.198 L164.329 119.263 Z" fill="#000000" fill-rule="nonzero" fill-opacity="1" /><path clip-path="url(#clip150)" d="M197.709 119.263 L214.028 119.263 L214.028 123.198 L192.084 123.198 L192.084 119.263 Q194.746 116.509 199.329 111.879 Q203.936 107.226 205.116 105.884 Q207.362 103.36 208.241 101.624 Q209.144 99.8651 209.144 98.1753 Q209.144 95.4207 207.199 93.6846 Q205.278 91.9485 202.176 91.9485 Q199.977 91.9485 197.524 92.7124 Q195.093 93.4763 192.315 95.0272 L192.315 90.305 Q195.139 89.1707 197.593 88.592 Q200.047 88.0133 202.084 88.0133 Q207.454 88.0133 210.649 90.6985 Q213.843 93.3837 213.843 97.8744 Q213.843 100.004 213.033 101.925 Q212.246 103.823 210.139 106.416 Q209.561 107.087 206.459 110.305 Q203.357 113.499 197.709 119.263 Z" fill="#000000" fill-rule="nonzero" fill-opacity="1" /><path clip-path="url(#clip150)" d="M18.0438 868.128 L24.314 868.128 Q22.5634 871.788 21.704 875.035 Q20.8447 878.281 20.8447 881.305 Q20.8447 886.557 22.8817 889.421 Q24.9187 892.254 28.6745 892.254 Q31.8255 892.254 33.4488 890.376 Q35.0402 888.466 36.0269 883.183 L36.8226 879.3 Q38.1912 872.106 41.6605 868.701 Q45.098 865.263 50.8908 865.263 Q57.7976 865.263 61.3624 869.91 Q64.9272 874.525 64.9272 883.469 Q64.9272 886.843 64.1633 890.663 Q63.3994 894.45 61.9035 898.524 L55.2831 898.524 Q57.4793 894.609 58.5933 890.853 Q59.7073 887.098 59.7073 883.469 Q59.7073 877.963 57.543 874.971 Q55.3786 871.979 51.3682 871.979 Q47.8671 871.979 45.8937 874.144 Q43.9204 876.276 42.9337 881.178 L42.1698 885.093 Q40.7375 892.286 37.682 895.5 Q34.6264 898.715 29.1837 898.715 Q22.8817 898.715 19.2532 894.291 Q15.6248 889.835 15.6248 882.037 Q15.6248 878.695 16.2295 875.226 Q16.8343 871.756 18.0438 868.128 Z" fill="#000000" fill-rule="nonzero" fill-opacity="1" /><path clip-path="url(#clip150)" d="M18.2347 849.699 L28.3562 849.699 L28.3562 837.636 L32.9077 837.636 L32.9077 849.699 L52.2594 849.699 Q56.6199 849.699 57.8613 848.522 Q59.1026 847.312 59.1026 843.652 L59.1026 837.636 L64.0042 837.636 L64.0042 843.652 Q64.0042 850.431 61.4897 853.009 Q58.9434 855.587 52.2594 855.587 L32.9077 855.587 L32.9077 859.884 L28.3562 859.884 L28.3562 855.587 L18.2347 855.587 L18.2347 849.699 Z" fill="#000000" fill-rule="nonzero" fill-opacity="1" /><path clip-path="url(#clip150)" d="M44.7161 799.442 L47.5806 799.442 L47.5806 826.369 Q53.6281 825.987 56.8109 822.74 Q59.9619 819.462 59.9619 813.637 Q59.9619 810.264 59.1344 807.113 Q58.3069 803.93 56.6518 800.811 L62.1899 800.811 Q63.5267 803.962 64.227 807.272 Q64.9272 810.582 64.9272 813.988 Q64.9272 822.518 59.9619 827.515 Q54.9967 832.48 46.5303 832.48 Q37.7774 832.48 32.6531 827.769 Q27.4968 823.027 27.4968 815.006 Q27.4968 807.813 32.1438 803.643 Q36.7589 799.442 44.7161 799.442 M42.9973 805.298 Q38.1912 805.362 35.3266 808.004 Q32.4621 810.614 32.4621 814.942 Q32.4621 819.844 35.2312 822.804 Q38.0002 825.732 43.0292 826.178 L42.9973 805.298 Z" fill="#000000" fill-rule="nonzero" fill-opacity="1" /><path clip-path="url(#clip150)" d="M58.657 784.164 L77.5631 784.164 L77.5631 790.053 L28.3562 790.053 L28.3562 784.164 L33.7671 784.164 Q30.5842 782.318 29.0564 779.517 Q27.4968 776.685 27.4968 772.77 Q27.4968 766.277 32.6531 762.234 Q37.8093 758.16 46.212 758.16 Q54.6147 758.16 59.771 762.234 Q64.9272 766.277 64.9272 772.77 Q64.9272 776.685 63.3994 779.517 Q61.8398 782.318 58.657 784.164 M46.212 764.24 Q39.7508 764.24 36.0905 766.913 Q32.3984 769.555 32.3984 774.202 Q32.3984 778.849 36.0905 781.522 Q39.7508 784.164 46.212 784.164 Q52.6732 784.164 56.3653 781.522 Q60.0256 778.849 60.0256 774.202 Q60.0256 769.555 56.3653 766.913 Q52.6732 764.24 46.212 764.24 Z" fill="#000000" fill-rule="nonzero" fill-opacity="1" /><path clip-path="url(#clip150)" d="M29.4065 725.727 L34.9447 725.727 Q33.6716 728.21 33.035 730.883 Q32.3984 733.557 32.3984 736.421 Q32.3984 740.782 33.7352 742.978 Q35.072 745.142 37.7456 745.142 Q39.7826 745.142 40.9603 743.583 Q42.1061 742.023 43.1565 737.313 L43.6021 735.307 Q44.9389 729.069 47.3897 726.459 Q49.8086 723.817 54.1691 723.817 Q59.1344 723.817 62.0308 727.764 Q64.9272 731.679 64.9272 738.554 Q64.9272 741.419 64.3543 744.538 Q63.8132 747.625 62.6992 751.063 L56.6518 751.063 Q58.3387 747.816 59.198 744.665 Q60.0256 741.514 60.0256 738.427 Q60.0256 734.289 58.6251 732.061 Q57.1929 729.833 54.6147 729.833 Q52.2276 729.833 50.9545 731.456 Q49.6813 733.048 48.5037 738.49 L48.0262 740.527 Q46.8804 745.97 44.5251 748.389 Q42.138 750.808 38.0002 750.808 Q32.9713 750.808 30.2341 747.243 Q27.4968 743.678 27.4968 737.122 Q27.4968 733.875 27.9743 731.011 Q28.4517 728.146 29.4065 725.727 Z" fill="#000000" fill-rule="nonzero" fill-opacity="1" /><path clip-path="url(#clip150)" d="M28.3562 714.492 L28.3562 708.635 L64.0042 708.635 L64.0042 714.492 L28.3562 714.492 M14.479 714.492 L14.479 708.635 L21.895 708.635 L21.895 714.492 L14.479 714.492 Z" fill="#000000" fill-rule="nonzero" fill-opacity="1" /><path clip-path="url(#clip150)" d="M28.3562 698.927 L28.3562 671.109 L33.7034 671.109 L59.3254 693.135 L59.3254 671.109 L64.0042 671.109 L64.0042 699.723 L58.657 699.723 L33.035 677.698 L33.035 698.927 L28.3562 698.927 Z" fill="#000000" fill-rule="nonzero" fill-opacity="1" /><path clip-path="url(#clip150)" d="M44.7161 631.674 L47.5806 631.674 L47.5806 658.601 Q53.6281 658.219 56.8109 654.972 Q59.9619 651.694 59.9619 645.869 Q59.9619 642.495 59.1344 639.344 Q58.3069 636.162 56.6518 633.042 L62.1899 633.042 Q63.5267 636.193 64.227 639.504 Q64.9272 642.814 64.9272 646.219 Q64.9272 654.749 59.9619 659.747 Q54.9967 664.712 46.5303 664.712 Q37.7774 664.712 32.6531 660.001 Q27.4968 655.259 27.4968 647.238 Q27.4968 640.045 32.1438 635.875 Q36.7589 631.674 44.7161 631.674 M42.9973 637.53 Q38.1912 637.594 35.3266 640.236 Q32.4621 642.846 32.4621 647.174 Q32.4621 652.076 35.2312 655.036 Q38.0002 657.964 43.0292 658.41 L42.9973 637.53 Z" fill="#000000" fill-rule="nonzero" fill-opacity="1" /><path clip-path="url(#clip150)" d="M42.4881 571.709 L64.0042 571.709 L64.0042 577.565 L42.679 577.565 Q37.6183 577.565 35.1038 579.539 Q32.5894 581.512 32.5894 585.459 Q32.5894 590.201 35.6131 592.938 Q38.6368 595.676 43.8567 595.676 L64.0042 595.676 L64.0042 601.564 L14.479 601.564 L14.479 595.676 L33.8944 595.676 Q30.6797 593.575 29.0883 590.742 Q27.4968 587.878 27.4968 584.154 Q27.4968 578.011 31.3163 574.86 Q35.1038 571.709 42.4881 571.709 Z" fill="#000000" fill-rule="nonzero" fill-opacity="1" /><polyline clip-path="url(#clip152)" style="stroke:#009af9; stroke-linecap:round; stroke-linejoin:round; stroke-width:4; stroke-opacity:1; fill:none" points="309.539,86.1857 341.535,149.918 373.53,191.66 405.525,197.14 437.52,230.764 469.516,273.747 501.511,315.163 533.506,351.431 565.501,413.561 597.497,455.216 629.492,517.424 661.487,554.737 693.482,598.051 725.478,642.445 757.473,679.396 789.468,703.598 821.463,723.181 853.459,721.997 885.454,750.758 917.449,797.939 949.444,835.376 981.44,846.245 1013.43,840.533 1045.43,854.41 1077.43,884.786 1109.42,874.66 1141.42,889.501 1173.41,911.259 1205.41,936.516 1237.4,1010.43 1269.4,1036.47 1301.39,1054.45 1333.39,1075.31 1365.38,1089.3 1397.38,1102.71 1429.37,1126.66 1461.37,1136.99 1493.36,1153.01 1525.36,1171.4 1557.35,1196.27 1589.35,1223.01 1621.34,1234.44 1653.34,1242.71 1685.34,1258.73 1717.33,1269.55 1749.33,1283 1781.32,1302.4 1813.32,1315 1845.31,1324.43 1877.31,1335.8 1909.3,1350.38 1941.3,1354.64 1973.29,1357.3 2005.29,1360.94 2037.28,1364.77 2069.28,1370.2 2101.27,1373.86 2133.27,1377.04 2165.26,1378.63 2197.26,1380.67 2229.25,1382.69 2261.25,1383.6 2293.24,1384.24 "/>
<path clip-path="url(#clip150)" d="M2019.96 196.789 L2282.66 196.789 L2282.66 93.1086 L2019.96 93.1086  Z" fill="#ffffff" fill-rule="evenodd" fill-opacity="1"/>
<polyline clip-path="url(#clip150)" style="stroke:#000000; stroke-linecap:round; stroke-linejoin:round; stroke-width:4; stroke-opacity:1; fill:none" points="2019.96,196.789 2282.66,196.789 2282.66,93.1086 2019.96,93.1086 2019.96,196.789 "/>
<polyline clip-path="url(#clip150)" style="stroke:#009af9; stroke-linecap:round; stroke-linejoin:round; stroke-width:4; stroke-opacity:1; fill:none" points="2043.33,144.949 2183.51,144.949 "/>
<path clip-path="url(#clip150)" d="M2220.71 164.636 Q2218.91 169.266 2217.2 170.678 Q2215.48 172.09 2212.61 172.09 L2209.21 172.09 L2209.21 168.525 L2211.71 168.525 Q2213.47 168.525 2214.44 167.692 Q2215.41 166.858 2216.59 163.756 L2217.36 161.812 L2206.87 136.303 L2211.38 136.303 L2219.49 156.581 L2227.59 136.303 L2232.1 136.303 L2220.71 164.636 Z" fill="#000000" fill-rule="nonzero" fill-opacity="1" /><path clip-path="url(#clip150)" d="M2239.39 158.293 L2247.03 158.293 L2247.03 131.928 L2238.72 133.595 L2238.72 129.335 L2246.99 127.669 L2251.66 127.669 L2251.66 158.293 L2259.3 158.293 L2259.3 162.229 L2239.39 162.229 L2239.39 158.293 Z" fill="#000000" fill-rule="nonzero" fill-opacity="1" /></svg>
