<?xml version="1.0" encoding="utf-8"?>
<svg xmlns="http://www.w3.org/2000/svg" xmlns:xlink="http://www.w3.org/1999/xlink" width="600" height="400" viewBox="0 0 2400 1600">
<defs>
  <clipPath id="clip820">
    <rect x="0" y="0" width="2400" height="1600"/>
  </clipPath>
</defs>
<path clip-path="url(#clip820)" d="M0 1600 L2400 1600 L2400 0 L0 0  Z" fill="#ffffff" fill-rule="evenodd" fill-opacity="1"/>
<defs>
  <clipPath id="clip821">
    <rect x="480" y="0" width="1681" height="1600"/>
  </clipPath>
</defs>
<path clip-path="url(#clip820)" d="M186.274 1423.18 L1167.59 1423.18 L1167.59 47.2441 L186.274 47.2441  Z" fill="#ffffff" fill-rule="evenodd" fill-opacity="1"/>
<defs>
  <clipPath id="clip822">
    <rect x="186" y="47" width="982" height="1377"/>
  </clipPath>
</defs>
<polyline clip-path="url(#clip822)" style="stroke:#000000; stroke-linecap:round; stroke-linejoin:round; stroke-width:2; stroke-opacity:0.1; fill:none" points="199.115,1423.18 199.115,47.2441 "/>
<polyline clip-path="url(#clip822)" style="stroke:#000000; stroke-linecap:round; stroke-linejoin:round; stroke-width:2; stroke-opacity:0.1; fill:none" points="348.434,1423.18 348.434,47.2441 "/>
<polyline clip-path="url(#clip822)" style="stroke:#000000; stroke-linecap:round; stroke-linejoin:round; stroke-width:2; stroke-opacity:0.1; fill:none" points="497.752,1423.18 497.752,47.2441 "/>
<polyline clip-path="url(#clip822)" style="stroke:#000000; stroke-linecap:round; stroke-linejoin:round; stroke-width:2; stroke-opacity:0.1; fill:none" points="647.07,1423.18 647.07,47.2441 "/>
<polyline clip-path="url(#clip822)" style="stroke:#000000; stroke-linecap:round; stroke-linejoin:round; stroke-width:2; stroke-opacity:0.1; fill:none" points="796.389,1423.18 796.389,47.2441 "/>
<polyline clip-path="url(#clip822)" style="stroke:#000000; stroke-linecap:round; stroke-linejoin:round; stroke-width:2; stroke-opacity:0.1; fill:none" points="945.707,1423.18 945.707,47.2441 "/>
<polyline clip-path="url(#clip822)" style="stroke:#000000; stroke-linecap:round; stroke-linejoin:round; stroke-width:2; stroke-opacity:0.1; fill:none" points="1095.03,1423.18 1095.03,47.2441 "/>
<polyline clip-path="url(#clip822)" style="stroke:#000000; stroke-linecap:round; stroke-linejoin:round; stroke-width:2; stroke-opacity:0.1; fill:none" points="186.274,1314.76 1167.59,1314.76 "/>
<polyline clip-path="url(#clip822)" style="stroke:#000000; stroke-linecap:round; stroke-linejoin:round; stroke-width:2; stroke-opacity:0.1; fill:none" points="186.274,1027.12 1167.59,1027.12 "/>
<polyline clip-path="url(#clip822)" style="stroke:#000000; stroke-linecap:round; stroke-linejoin:round; stroke-width:2; stroke-opacity:0.1; fill:none" points="186.274,739.486 1167.59,739.486 "/>
<polyline clip-path="url(#clip822)" style="stroke:#000000; stroke-linecap:round; stroke-linejoin:round; stroke-width:2; stroke-opacity:0.1; fill:none" points="186.274,451.848 1167.59,451.848 "/>
<polyline clip-path="url(#clip822)" style="stroke:#000000; stroke-linecap:round; stroke-linejoin:round; stroke-width:2; stroke-opacity:0.1; fill:none" points="186.274,164.211 1167.59,164.211 "/>
<polyline clip-path="url(#clip820)" style="stroke:#000000; stroke-linecap:round; stroke-linejoin:round; stroke-width:4; stroke-opacity:1; fill:none" points="186.274,1423.18 1167.59,1423.18 "/>
<polyline clip-path="url(#clip820)" style="stroke:#000000; stroke-linecap:round; stroke-linejoin:round; stroke-width:4; stroke-opacity:1; fill:none" points="199.115,1423.18 199.115,1404.28 "/>
<polyline clip-path="url(#clip820)" style="stroke:#000000; stroke-linecap:round; stroke-linejoin:round; stroke-width:4; stroke-opacity:1; fill:none" points="348.434,1423.18 348.434,1404.28 "/>
<polyline clip-path="url(#clip820)" style="stroke:#000000; stroke-linecap:round; stroke-linejoin:round; stroke-width:4; stroke-opacity:1; fill:none" points="497.752,1423.18 497.752,1404.28 "/>
<polyline clip-path="url(#clip820)" style="stroke:#000000; stroke-linecap:round; stroke-linejoin:round; stroke-width:4; stroke-opacity:1; fill:none" points="647.07,1423.18 647.07,1404.28 "/>
<polyline clip-path="url(#clip820)" style="stroke:#000000; stroke-linecap:round; stroke-linejoin:round; stroke-width:4; stroke-opacity:1; fill:none" points="796.389,1423.18 796.389,1404.28 "/>
<polyline clip-path="url(#clip820)" style="stroke:#000000; stroke-linecap:round; stroke-linejoin:round; stroke-width:4; stroke-opacity:1; fill:none" points="945.707,1423.18 945.707,1404.28 "/>
<polyline clip-path="url(#clip820)" style="stroke:#000000; stroke-linecap:round; stroke-linejoin:round; stroke-width:4; stroke-opacity:1; fill:none" points="1095.03,1423.18 1095.03,1404.28 "/>
<path clip-path="url(#clip820)" d="M199.115 1454.1 Q195.504 1454.1 193.676 1457.66 Q191.87 1461.2 191.87 1468.33 Q191.87 1475.44 193.676 1479.01 Q195.504 1482.55 199.115 1482.55 Q202.75 1482.55 204.555 1479.01 Q206.384 1475.44 206.384 1468.33 Q206.384 1461.2 204.555 1457.66 Q202.75 1454.1 199.115 1454.1 M199.115 1450.39 Q204.926 1450.39 207.981 1455 Q211.06 1459.58 211.06 1468.33 Q211.06 1477.06 207.981 1481.67 Q204.926 1486.25 199.115 1486.25 Q193.305 1486.25 190.227 1481.67 Q187.171 1477.06 187.171 1468.33 Q187.171 1459.58 190.227 1455 Q193.305 1450.39 199.115 1450.39 Z" fill="#000000" fill-rule="nonzero" fill-opacity="1" /><path clip-path="url(#clip820)" d="M323.121 1481.64 L330.76 1481.64 L330.76 1455.28 L322.45 1456.95 L322.45 1452.69 L330.714 1451.02 L335.39 1451.02 L335.39 1481.64 L343.029 1481.64 L343.029 1485.58 L323.121 1485.58 L323.121 1481.64 Z" fill="#000000" fill-rule="nonzero" fill-opacity="1" /><path clip-path="url(#clip820)" d="M362.473 1454.1 Q358.862 1454.1 357.033 1457.66 Q355.228 1461.2 355.228 1468.33 Q355.228 1475.44 357.033 1479.01 Q358.862 1482.55 362.473 1482.55 Q366.107 1482.55 367.913 1479.01 Q369.741 1475.44 369.741 1468.33 Q369.741 1461.2 367.913 1457.66 Q366.107 1454.1 362.473 1454.1 M362.473 1450.39 Q368.283 1450.39 371.339 1455 Q374.417 1459.58 374.417 1468.33 Q374.417 1477.06 371.339 1481.67 Q368.283 1486.25 362.473 1486.25 Q356.663 1486.25 353.584 1481.67 Q350.529 1477.06 350.529 1468.33 Q350.529 1459.58 353.584 1455 Q356.663 1450.39 362.473 1450.39 Z" fill="#000000" fill-rule="nonzero" fill-opacity="1" /><path clip-path="url(#clip820)" d="M476.525 1481.64 L492.845 1481.64 L492.845 1485.58 L470.9 1485.58 L470.9 1481.64 Q473.562 1478.89 478.146 1474.26 Q482.752 1469.61 483.933 1468.27 Q486.178 1465.74 487.058 1464.01 Q487.96 1462.25 487.96 1460.56 Q487.96 1457.8 486.016 1456.07 Q484.095 1454.33 480.993 1454.33 Q478.794 1454.33 476.34 1455.09 Q473.909 1455.86 471.132 1457.41 L471.132 1452.69 Q473.956 1451.55 476.409 1450.97 Q478.863 1450.39 480.9 1450.39 Q486.271 1450.39 489.465 1453.08 Q492.659 1455.77 492.659 1460.26 Q492.659 1462.39 491.849 1464.31 Q491.062 1466.2 488.956 1468.8 Q488.377 1469.47 485.275 1472.69 Q482.173 1475.88 476.525 1481.64 Z" fill="#000000" fill-rule="nonzero" fill-opacity="1" /><path clip-path="url(#clip820)" d="M512.659 1454.1 Q509.048 1454.1 507.219 1457.66 Q505.414 1461.2 505.414 1468.33 Q505.414 1475.44 507.219 1479.01 Q509.048 1482.55 512.659 1482.55 Q516.294 1482.55 518.099 1479.01 Q519.928 1475.44 519.928 1468.33 Q519.928 1461.2 518.099 1457.66 Q516.294 1454.1 512.659 1454.1 M512.659 1450.39 Q518.469 1450.39 521.525 1455 Q524.604 1459.58 524.604 1468.33 Q524.604 1477.06 521.525 1481.67 Q518.469 1486.25 512.659 1486.25 Q506.849 1486.25 503.77 1481.67 Q500.715 1477.06 500.715 1468.33 Q500.715 1459.58 503.77 1455 Q506.849 1450.39 512.659 1450.39 Z" fill="#000000" fill-rule="nonzero" fill-opacity="1" /><path clip-path="url(#clip820)" d="M635.913 1466.95 Q639.269 1467.66 641.144 1469.93 Q643.042 1472.2 643.042 1475.53 Q643.042 1480.65 639.524 1483.45 Q636.005 1486.25 629.524 1486.25 Q627.348 1486.25 625.033 1485.81 Q622.742 1485.39 620.288 1484.54 L620.288 1480.02 Q622.232 1481.16 624.547 1481.74 Q626.862 1482.32 629.385 1482.32 Q633.783 1482.32 636.075 1480.58 Q638.39 1478.84 638.39 1475.53 Q638.39 1472.48 636.237 1470.77 Q634.107 1469.03 630.288 1469.03 L626.26 1469.03 L626.26 1465.19 L630.473 1465.19 Q633.922 1465.19 635.751 1463.82 Q637.58 1462.43 637.58 1459.84 Q637.58 1457.18 635.681 1455.77 Q633.806 1454.33 630.288 1454.33 Q628.367 1454.33 626.168 1454.75 Q623.969 1455.16 621.33 1456.04 L621.33 1451.88 Q623.992 1451.14 626.306 1450.77 Q628.644 1450.39 630.705 1450.39 Q636.029 1450.39 639.13 1452.83 Q642.232 1455.23 642.232 1459.35 Q642.232 1462.22 640.589 1464.21 Q638.945 1466.18 635.913 1466.95 Z" fill="#000000" fill-rule="nonzero" fill-opacity="1" /><path clip-path="url(#clip820)" d="M661.908 1454.1 Q658.297 1454.1 656.468 1457.66 Q654.663 1461.2 654.663 1468.33 Q654.663 1475.44 656.468 1479.01 Q658.297 1482.55 661.908 1482.55 Q665.542 1482.55 667.348 1479.01 Q669.177 1475.44 669.177 1468.33 Q669.177 1461.2 667.348 1457.66 Q665.542 1454.1 661.908 1454.1 M661.908 1450.39 Q667.718 1450.39 670.774 1455 Q673.853 1459.58 673.853 1468.33 Q673.853 1477.06 670.774 1481.67 Q667.718 1486.25 661.908 1486.25 Q656.098 1486.25 653.019 1481.67 Q649.964 1477.06 649.964 1468.33 Q649.964 1459.58 653.019 1455 Q656.098 1450.39 661.908 1450.39 Z" fill="#000000" fill-rule="nonzero" fill-opacity="1" /><path clip-path="url(#clip820)" d="M784.56 1455.09 L772.754 1473.54 L784.56 1473.54 L784.56 1455.09 M783.333 1451.02 L789.213 1451.02 L789.213 1473.54 L794.143 1473.54 L794.143 1477.43 L789.213 1477.43 L789.213 1485.58 L784.56 1485.58 L784.56 1477.43 L768.958 1477.43 L768.958 1472.92 L783.333 1451.02 Z" fill="#000000" fill-rule="nonzero" fill-opacity="1" /><path clip-path="url(#clip820)" d="M811.875 1454.1 Q808.263 1454.1 806.435 1457.66 Q804.629 1461.2 804.629 1468.33 Q804.629 1475.44 806.435 1479.01 Q808.263 1482.55 811.875 1482.55 Q815.509 1482.55 817.314 1479.01 Q819.143 1475.44 819.143 1468.33 Q819.143 1461.2 817.314 1457.66 Q815.509 1454.1 811.875 1454.1 M811.875 1450.39 Q817.685 1450.39 820.74 1455 Q823.819 1459.58 823.819 1468.33 Q823.819 1477.06 820.74 1481.67 Q817.685 1486.25 811.875 1486.25 Q806.064 1486.25 802.986 1481.67 Q799.93 1477.06 799.93 1468.33 Q799.93 1459.58 802.986 1455 Q806.064 1450.39 811.875 1450.39 Z" fill="#000000" fill-rule="nonzero" fill-opacity="1" /><path clip-path="url(#clip820)" d="M920.406 1451.02 L938.762 1451.02 L938.762 1454.96 L924.688 1454.96 L924.688 1463.43 Q925.707 1463.08 926.725 1462.92 Q927.744 1462.73 928.762 1462.73 Q934.549 1462.73 937.929 1465.9 Q941.309 1469.08 941.309 1474.49 Q941.309 1480.07 937.836 1483.17 Q934.364 1486.25 928.045 1486.25 Q925.869 1486.25 923.6 1485.88 Q921.355 1485.51 918.948 1484.77 L918.948 1480.07 Q921.031 1481.2 923.253 1481.76 Q925.475 1482.32 927.952 1482.32 Q931.957 1482.32 934.295 1480.21 Q936.633 1478.1 936.633 1474.49 Q936.633 1470.88 934.295 1468.77 Q931.957 1466.67 927.952 1466.67 Q926.077 1466.67 924.202 1467.08 Q922.35 1467.5 920.406 1468.38 L920.406 1451.02 Z" fill="#000000" fill-rule="nonzero" fill-opacity="1" /><path clip-path="url(#clip820)" d="M960.522 1454.1 Q956.91 1454.1 955.082 1457.66 Q953.276 1461.2 953.276 1468.33 Q953.276 1475.44 955.082 1479.01 Q956.91 1482.55 960.522 1482.55 Q964.156 1482.55 965.961 1479.01 Q967.79 1475.44 967.79 1468.33 Q967.79 1461.2 965.961 1457.66 Q964.156 1454.1 960.522 1454.1 M960.522 1450.39 Q966.332 1450.39 969.387 1455 Q972.466 1459.58 972.466 1468.33 Q972.466 1477.06 969.387 1481.67 Q966.332 1486.25 960.522 1486.25 Q954.711 1486.25 951.633 1481.67 Q948.577 1477.06 948.577 1468.33 Q948.577 1459.58 951.633 1455 Q954.711 1450.39 960.522 1450.39 Z" fill="#000000" fill-rule="nonzero" fill-opacity="1" /><path clip-path="url(#clip820)" d="M1080.43 1466.44 Q1077.28 1466.44 1075.43 1468.59 Q1073.6 1470.74 1073.6 1474.49 Q1073.6 1478.22 1075.43 1480.39 Q1077.28 1482.55 1080.43 1482.55 Q1083.58 1482.55 1085.41 1480.39 Q1087.26 1478.22 1087.26 1474.49 Q1087.26 1470.74 1085.41 1468.59 Q1083.58 1466.44 1080.43 1466.44 M1089.71 1451.78 L1089.71 1456.04 Q1087.95 1455.21 1086.15 1454.77 Q1084.37 1454.33 1082.61 1454.33 Q1077.98 1454.33 1075.52 1457.45 Q1073.09 1460.58 1072.75 1466.9 Q1074.11 1464.89 1076.17 1463.82 Q1078.23 1462.73 1080.71 1462.73 Q1085.92 1462.73 1088.93 1465.9 Q1091.96 1469.05 1091.96 1474.49 Q1091.96 1479.82 1088.81 1483.03 Q1085.66 1486.25 1080.43 1486.25 Q1074.43 1486.25 1071.26 1481.67 Q1068.09 1477.06 1068.09 1468.33 Q1068.09 1460.14 1071.98 1455.28 Q1075.87 1450.39 1082.42 1450.39 Q1084.18 1450.39 1085.96 1450.74 Q1087.77 1451.09 1089.71 1451.78 Z" fill="#000000" fill-rule="nonzero" fill-opacity="1" /><path clip-path="url(#clip820)" d="M1110.01 1454.1 Q1106.4 1454.1 1104.57 1457.66 Q1102.77 1461.2 1102.77 1468.33 Q1102.77 1475.44 1104.57 1479.01 Q1106.4 1482.55 1110.01 1482.55 Q1113.65 1482.55 1115.45 1479.01 Q1117.28 1475.44 1117.28 1468.33 Q1117.28 1461.2 1115.45 1457.66 Q1113.65 1454.1 1110.01 1454.1 M1110.01 1450.39 Q1115.82 1450.39 1118.88 1455 Q1121.96 1459.58 1121.96 1468.33 Q1121.96 1477.06 1118.88 1481.67 Q1115.82 1486.25 1110.01 1486.25 Q1104.2 1486.25 1101.12 1481.67 Q1098.07 1477.06 1098.07 1468.33 Q1098.07 1459.58 1101.12 1455 Q1104.2 1450.39 1110.01 1450.39 Z" fill="#000000" fill-rule="nonzero" fill-opacity="1" /><path clip-path="url(#clip820)" d="M492.265 1522.08 L492.265 1528.35 Q488.604 1526.6 485.358 1525.74 Q482.111 1524.88 479.088 1524.88 Q473.836 1524.88 470.971 1526.92 Q468.139 1528.96 468.139 1532.71 Q468.139 1535.87 470.017 1537.49 Q471.926 1539.08 477.21 1540.07 L481.093 1540.86 Q488.286 1542.23 491.692 1545.7 Q495.129 1549.14 495.129 1554.93 Q495.129 1561.84 490.482 1565.4 Q485.867 1568.97 476.923 1568.97 Q473.55 1568.97 469.73 1568.2 Q465.943 1567.44 461.868 1565.94 L461.868 1559.32 Q465.783 1561.52 469.539 1562.63 Q473.295 1563.75 476.923 1563.75 Q482.43 1563.75 485.422 1561.58 Q488.413 1559.42 488.413 1555.41 Q488.413 1551.91 486.249 1549.93 Q484.117 1547.96 479.215 1546.97 L475.3 1546.21 Q468.107 1544.78 464.892 1541.72 Q461.678 1538.67 461.678 1533.22 Q461.678 1526.92 466.102 1523.29 Q470.558 1519.66 478.356 1519.66 Q481.698 1519.66 485.167 1520.27 Q488.636 1520.87 492.265 1522.08 Z" fill="#000000" fill-rule="nonzero" fill-opacity="1" /><path clip-path="url(#clip820)" d="M505.155 1520.52 L514.736 1520.52 L526.862 1552.86 L539.053 1520.52 L548.633 1520.52 L548.633 1568.04 L542.363 1568.04 L542.363 1526.32 L530.109 1558.91 L523.648 1558.91 L511.394 1526.32 L511.394 1568.04 L505.155 1568.04 L505.155 1520.52 Z" fill="#000000" fill-rule="nonzero" fill-opacity="1" /><path clip-path="url(#clip820)" d="M596.981 1524.18 L596.981 1530.96 Q593.734 1527.94 590.042 1526.44 Q586.382 1524.95 582.244 1524.95 Q574.096 1524.95 569.767 1529.95 Q565.439 1534.91 565.439 1544.33 Q565.439 1553.72 569.767 1558.72 Q574.096 1563.68 582.244 1563.68 Q586.382 1563.68 590.042 1562.19 Q593.734 1560.69 596.981 1557.67 L596.981 1564.38 Q593.607 1566.68 589.819 1567.82 Q586.063 1568.97 581.862 1568.97 Q571.072 1568.97 564.866 1562.38 Q558.659 1555.76 558.659 1544.33 Q558.659 1532.87 564.866 1526.28 Q571.072 1519.66 581.862 1519.66 Q586.127 1519.66 589.883 1520.81 Q593.67 1521.92 596.981 1524.18 Z" fill="#000000" fill-rule="nonzero" fill-opacity="1" /><path clip-path="url(#clip820)" d="M627.631 1520.52 L634.061 1520.52 L634.061 1568.04 L627.631 1568.04 L627.631 1520.52 Z" fill="#000000" fill-rule="nonzero" fill-opacity="1" /><path clip-path="url(#clip820)" d="M652.394 1522.27 L652.394 1532.4 L664.457 1532.4 L664.457 1536.95 L652.394 1536.95 L652.394 1556.3 Q652.394 1560.66 653.572 1561.9 Q654.781 1563.14 658.442 1563.14 L664.457 1563.14 L664.457 1568.04 L658.442 1568.04 Q651.662 1568.04 649.084 1565.53 Q646.506 1562.98 646.506 1556.3 L646.506 1536.95 L642.209 1536.95 L642.209 1532.4 L646.506 1532.4 L646.506 1522.27 L652.394 1522.27 Z" fill="#000000" fill-rule="nonzero" fill-opacity="1" /><path clip-path="url(#clip820)" d="M702.651 1548.76 L702.651 1551.62 L675.724 1551.62 Q676.106 1557.67 679.353 1560.85 Q682.631 1564 688.456 1564 Q691.83 1564 694.981 1563.17 Q698.164 1562.35 701.283 1560.69 L701.283 1566.23 Q698.132 1567.57 694.822 1568.27 Q691.511 1568.97 688.106 1568.97 Q679.576 1568.97 674.579 1564 Q669.613 1559.04 669.613 1550.57 Q669.613 1541.82 674.324 1536.69 Q679.066 1531.54 687.087 1531.54 Q694.28 1531.54 698.45 1536.18 Q702.651 1540.8 702.651 1548.76 M696.795 1547.04 Q696.731 1542.23 694.089 1539.37 Q691.48 1536.5 687.151 1536.5 Q682.249 1536.5 679.289 1539.27 Q676.361 1542.04 675.915 1547.07 L696.795 1547.04 Z" fill="#000000" fill-rule="nonzero" fill-opacity="1" /><path clip-path="url(#clip820)" d="M732.92 1537.87 Q731.934 1537.3 730.756 1537.04 Q729.61 1536.76 728.21 1536.76 Q723.244 1536.76 720.571 1540 Q717.929 1543.22 717.929 1549.27 L717.929 1568.04 L712.041 1568.04 L712.041 1532.4 L717.929 1532.4 L717.929 1537.93 Q719.775 1534.69 722.735 1533.13 Q725.695 1531.54 729.928 1531.54 Q730.533 1531.54 731.265 1531.63 Q731.997 1531.7 732.888 1531.85 L732.92 1537.87 Z" fill="#000000" fill-rule="nonzero" fill-opacity="1" /><path clip-path="url(#clip820)" d="M755.264 1550.12 Q748.166 1550.12 745.429 1551.75 Q742.692 1553.37 742.692 1557.29 Q742.692 1560.4 744.729 1562.25 Q746.798 1564.07 750.33 1564.07 Q755.2 1564.07 758.128 1560.63 Q761.089 1557.16 761.089 1551.43 L761.089 1550.12 L755.264 1550.12 M766.945 1547.71 L766.945 1568.04 L761.089 1568.04 L761.089 1562.63 Q759.083 1565.88 756.091 1567.44 Q753.1 1568.97 748.771 1568.97 Q743.296 1568.97 740.05 1565.91 Q736.835 1562.82 736.835 1557.67 Q736.835 1551.65 740.846 1548.6 Q744.888 1545.54 752.877 1545.54 L761.089 1545.54 L761.089 1544.97 Q761.089 1540.93 758.415 1538.73 Q755.773 1536.5 750.967 1536.5 Q747.912 1536.5 745.015 1537.23 Q742.119 1537.97 739.445 1539.43 L739.445 1534.02 Q742.66 1532.78 745.684 1532.17 Q748.707 1531.54 751.572 1531.54 Q759.306 1531.54 763.126 1535.55 Q766.945 1539.56 766.945 1547.71 Z" fill="#000000" fill-rule="nonzero" fill-opacity="1" /><path clip-path="url(#clip820)" d="M784.801 1522.27 L784.801 1532.4 L796.864 1532.4 L796.864 1536.95 L784.801 1536.95 L784.801 1556.3 Q784.801 1560.66 785.978 1561.9 Q787.188 1563.14 790.848 1563.14 L796.864 1563.14 L796.864 1568.04 L790.848 1568.04 Q784.069 1568.04 781.491 1565.53 Q778.913 1562.98 778.913 1556.3 L778.913 1536.95 L774.616 1536.95 L774.616 1532.4 L778.913 1532.4 L778.913 1522.27 L784.801 1522.27 Z" fill="#000000" fill-rule="nonzero" fill-opacity="1" /><path clip-path="url(#clip820)" d="M804.566 1532.4 L810.423 1532.4 L810.423 1568.04 L804.566 1568.04 L804.566 1532.4 M804.566 1518.52 L810.423 1518.52 L810.423 1525.93 L804.566 1525.93 L804.566 1518.52 Z" fill="#000000" fill-rule="nonzero" fill-opacity="1" /><path clip-path="url(#clip820)" d="M836.49 1536.5 Q831.78 1536.5 829.042 1540.19 Q826.305 1543.85 826.305 1550.25 Q826.305 1556.65 829.011 1560.34 Q831.748 1564 836.49 1564 Q841.169 1564 843.906 1560.31 Q846.644 1556.62 846.644 1550.25 Q846.644 1543.92 843.906 1540.23 Q841.169 1536.5 836.49 1536.5 M836.49 1531.54 Q844.129 1531.54 848.49 1536.5 Q852.85 1541.47 852.85 1550.25 Q852.85 1559 848.49 1564 Q844.129 1568.97 836.49 1568.97 Q828.82 1568.97 824.459 1564 Q820.13 1559 820.13 1550.25 Q820.13 1541.47 824.459 1536.5 Q828.82 1531.54 836.49 1531.54 Z" fill="#000000" fill-rule="nonzero" fill-opacity="1" /><path clip-path="url(#clip820)" d="M892.19 1546.53 L892.19 1568.04 L886.334 1568.04 L886.334 1546.72 Q886.334 1541.66 884.36 1539.14 Q882.387 1536.63 878.44 1536.63 Q873.698 1536.63 870.961 1539.65 Q868.223 1542.68 868.223 1547.9 L868.223 1568.04 L862.335 1568.04 L862.335 1532.4 L868.223 1532.4 L868.223 1537.93 Q870.324 1534.72 873.157 1533.13 Q876.021 1531.54 879.745 1531.54 Q885.888 1531.54 889.039 1535.36 Q892.19 1539.14 892.19 1546.53 Z" fill="#000000" fill-rule="nonzero" fill-opacity="1" /><polyline clip-path="url(#clip820)" style="stroke:#000000; stroke-linecap:round; stroke-linejoin:round; stroke-width:4; stroke-opacity:1; fill:none" points="186.274,1423.18 186.274,47.2441 "/>
<polyline clip-path="url(#clip820)" style="stroke:#000000; stroke-linecap:round; stroke-linejoin:round; stroke-width:4; stroke-opacity:1; fill:none" points="186.274,1314.76 205.172,1314.76 "/>
<polyline clip-path="url(#clip820)" style="stroke:#000000; stroke-linecap:round; stroke-linejoin:round; stroke-width:4; stroke-opacity:1; fill:none" points="186.274,1027.12 205.172,1027.12 "/>
<polyline clip-path="url(#clip820)" style="stroke:#000000; stroke-linecap:round; stroke-linejoin:round; stroke-width:4; stroke-opacity:1; fill:none" points="186.274,739.486 205.172,739.486 "/>
<polyline clip-path="url(#clip820)" style="stroke:#000000; stroke-linecap:round; stroke-linejoin:round; stroke-width:4; stroke-opacity:1; fill:none" points="186.274,451.848 205.172,451.848 "/>
<polyline clip-path="url(#clip820)" style="stroke:#000000; stroke-linecap:round; stroke-linejoin:round; stroke-width:4; stroke-opacity:1; fill:none" points="186.274,164.211 205.172,164.211 "/>
<path clip-path="url(#clip820)" d="M63.9319 1300.56 Q60.3208 1300.56 58.4921 1304.13 Q56.6865 1307.67 56.6865 1314.8 Q56.6865 1321.9 58.4921 1325.47 Q60.3208 1329.01 63.9319 1329.01 Q67.5661 1329.01 69.3717 1325.47 Q71.2004 1321.9 71.2004 1314.8 Q71.2004 1307.67 69.3717 1304.13 Q67.5661 1300.56 63.9319 1300.56 M63.9319 1296.86 Q69.742 1296.86 72.7976 1301.46 Q75.8763 1306.05 75.8763 1314.8 Q75.8763 1323.52 72.7976 1328.13 Q69.742 1332.71 63.9319 1332.71 Q58.1217 1332.71 55.043 1328.13 Q51.9875 1323.52 51.9875 1314.8 Q51.9875 1306.05 55.043 1301.46 Q58.1217 1296.86 63.9319 1296.86 Z" fill="#000000" fill-rule="nonzero" fill-opacity="1" /><path clip-path="url(#clip820)" d="M84.0938 1326.16 L88.978 1326.16 L88.978 1332.04 L84.0938 1332.04 L84.0938 1326.16 Z" fill="#000000" fill-rule="nonzero" fill-opacity="1" /><path clip-path="url(#clip820)" d="M109.163 1300.56 Q105.552 1300.56 103.723 1304.13 Q101.918 1307.67 101.918 1314.8 Q101.918 1321.9 103.723 1325.47 Q105.552 1329.01 109.163 1329.01 Q112.797 1329.01 114.603 1325.47 Q116.432 1321.9 116.432 1314.8 Q116.432 1307.67 114.603 1304.13 Q112.797 1300.56 109.163 1300.56 M109.163 1296.86 Q114.973 1296.86 118.029 1301.46 Q121.107 1306.05 121.107 1314.8 Q121.107 1323.52 118.029 1328.13 Q114.973 1332.71 109.163 1332.71 Q103.353 1332.71 100.274 1328.13 Q97.2187 1323.52 97.2187 1314.8 Q97.2187 1306.05 100.274 1301.46 Q103.353 1296.86 109.163 1296.86 Z" fill="#000000" fill-rule="nonzero" fill-opacity="1" /><path clip-path="url(#clip820)" d="M129.371 1297.48 L147.728 1297.48 L147.728 1301.42 L133.654 1301.42 L133.654 1309.89 Q134.672 1309.54 135.691 1309.38 Q136.709 1309.2 137.728 1309.2 Q143.515 1309.2 146.894 1312.37 Q150.274 1315.54 150.274 1320.95 Q150.274 1326.53 146.802 1329.63 Q143.33 1332.71 137.01 1332.71 Q134.834 1332.71 132.566 1332.34 Q130.32 1331.97 127.913 1331.23 L127.913 1326.53 Q129.996 1327.67 132.219 1328.22 Q134.441 1328.78 136.918 1328.78 Q140.922 1328.78 143.26 1326.67 Q145.598 1324.57 145.598 1320.95 Q145.598 1317.34 143.26 1315.24 Q140.922 1313.13 136.918 1313.13 Q135.043 1313.13 133.168 1313.55 Q131.316 1313.96 129.371 1314.84 L129.371 1297.48 Z" fill="#000000" fill-rule="nonzero" fill-opacity="1" /><path clip-path="url(#clip820)" d="M62.9365 1012.92 Q59.3254 1012.92 57.4967 1016.49 Q55.6912 1020.03 55.6912 1027.16 Q55.6912 1034.27 57.4967 1037.83 Q59.3254 1041.37 62.9365 1041.37 Q66.5707 1041.37 68.3763 1037.83 Q70.205 1034.27 70.205 1027.16 Q70.205 1020.03 68.3763 1016.49 Q66.5707 1012.92 62.9365 1012.92 M62.9365 1009.22 Q68.7467 1009.22 71.8022 1013.83 Q74.8809 1018.41 74.8809 1027.16 Q74.8809 1035.89 71.8022 1040.49 Q68.7467 1045.08 62.9365 1045.08 Q57.1264 1045.08 54.0477 1040.49 Q50.9921 1035.89 50.9921 1027.16 Q50.9921 1018.41 54.0477 1013.83 Q57.1264 1009.22 62.9365 1009.22 Z" fill="#000000" fill-rule="nonzero" fill-opacity="1" /><path clip-path="url(#clip820)" d="M83.0984 1038.52 L87.9827 1038.52 L87.9827 1044.4 L83.0984 1044.4 L83.0984 1038.52 Z" fill="#000000" fill-rule="nonzero" fill-opacity="1" /><path clip-path="url(#clip820)" d="M98.978 1040.47 L106.617 1040.47 L106.617 1014.1 L98.3067 1015.77 L98.3067 1011.51 L106.571 1009.84 L111.246 1009.84 L111.246 1040.47 L118.885 1040.47 L118.885 1044.4 L98.978 1044.4 L98.978 1040.47 Z" fill="#000000" fill-rule="nonzero" fill-opacity="1" /><path clip-path="url(#clip820)" d="M138.33 1012.92 Q134.719 1012.92 132.89 1016.49 Q131.084 1020.03 131.084 1027.16 Q131.084 1034.27 132.89 1037.83 Q134.719 1041.37 138.33 1041.37 Q141.964 1041.37 143.769 1037.83 Q145.598 1034.27 145.598 1027.16 Q145.598 1020.03 143.769 1016.49 Q141.964 1012.92 138.33 1012.92 M138.33 1009.22 Q144.14 1009.22 147.195 1013.83 Q150.274 1018.41 150.274 1027.16 Q150.274 1035.89 147.195 1040.49 Q144.14 1045.08 138.33 1045.08 Q132.519 1045.08 129.441 1040.49 Q126.385 1035.89 126.385 1027.16 Q126.385 1018.41 129.441 1013.83 Q132.519 1009.22 138.33 1009.22 Z" fill="#000000" fill-rule="nonzero" fill-opacity="1" /><path clip-path="url(#clip820)" d="M63.9319 725.285 Q60.3208 725.285 58.4921 728.85 Q56.6865 732.392 56.6865 739.521 Q56.6865 746.628 58.4921 750.192 Q60.3208 753.734 63.9319 753.734 Q67.5661 753.734 69.3717 750.192 Q71.2004 746.628 71.2004 739.521 Q71.2004 732.392 69.3717 728.85 Q67.5661 725.285 63.9319 725.285 M63.9319 721.581 Q69.742 721.581 72.7976 726.188 Q75.8763 730.771 75.8763 739.521 Q75.8763 748.248 72.7976 752.854 Q69.742 757.438 63.9319 757.438 Q58.1217 757.438 55.043 752.854 Q51.9875 748.248 51.9875 739.521 Q51.9875 730.771 55.043 726.188 Q58.1217 721.581 63.9319 721.581 Z" fill="#000000" fill-rule="nonzero" fill-opacity="1" /><path clip-path="url(#clip820)" d="M84.0938 750.887 L88.978 750.887 L88.978 756.766 L84.0938 756.766 L84.0938 750.887 Z" fill="#000000" fill-rule="nonzero" fill-opacity="1" /><path clip-path="url(#clip820)" d="M99.9733 752.831 L107.612 752.831 L107.612 726.466 L99.3021 728.132 L99.3021 723.873 L107.566 722.206 L112.242 722.206 L112.242 752.831 L119.881 752.831 L119.881 756.766 L99.9733 756.766 L99.9733 752.831 Z" fill="#000000" fill-rule="nonzero" fill-opacity="1" /><path clip-path="url(#clip820)" d="M129.371 722.206 L147.728 722.206 L147.728 726.142 L133.654 726.142 L133.654 734.614 Q134.672 734.266 135.691 734.104 Q136.709 733.919 137.728 733.919 Q143.515 733.919 146.894 737.091 Q150.274 740.262 150.274 745.678 Q150.274 751.257 146.802 754.359 Q143.33 757.438 137.01 757.438 Q134.834 757.438 132.566 757.067 Q130.32 756.697 127.913 755.956 L127.913 751.257 Q129.996 752.391 132.219 752.947 Q134.441 753.503 136.918 753.503 Q140.922 753.503 143.26 751.396 Q145.598 749.29 145.598 745.678 Q145.598 742.067 143.26 739.961 Q140.922 737.854 136.918 737.854 Q135.043 737.854 133.168 738.271 Q131.316 738.688 129.371 739.567 L129.371 722.206 Z" fill="#000000" fill-rule="nonzero" fill-opacity="1" /><path clip-path="url(#clip820)" d="M62.9365 437.647 Q59.3254 437.647 57.4967 441.212 Q55.6912 444.754 55.6912 451.883 Q55.6912 458.99 57.4967 462.554 Q59.3254 466.096 62.9365 466.096 Q66.5707 466.096 68.3763 462.554 Q70.205 458.99 70.205 451.883 Q70.205 444.754 68.3763 441.212 Q66.5707 437.647 62.9365 437.647 M62.9365 433.943 Q68.7467 433.943 71.8022 438.55 Q74.8809 443.133 74.8809 451.883 Q74.8809 460.61 71.8022 465.216 Q68.7467 469.8 62.9365 469.8 Q57.1264 469.8 54.0477 465.216 Q50.9921 460.61 50.9921 451.883 Q50.9921 443.133 54.0477 438.55 Q57.1264 433.943 62.9365 433.943 Z" fill="#000000" fill-rule="nonzero" fill-opacity="1" /><path clip-path="url(#clip820)" d="M83.0984 463.249 L87.9827 463.249 L87.9827 469.128 L83.0984 469.128 L83.0984 463.249 Z" fill="#000000" fill-rule="nonzero" fill-opacity="1" /><path clip-path="url(#clip820)" d="M102.196 465.193 L118.515 465.193 L118.515 469.128 L96.5706 469.128 L96.5706 465.193 Q99.2326 462.439 103.816 457.809 Q108.422 453.156 109.603 451.814 Q111.848 449.291 112.728 447.554 Q113.631 445.795 113.631 444.105 Q113.631 441.351 111.686 439.615 Q109.765 437.879 106.663 437.879 Q104.464 437.879 102.01 438.643 Q99.5798 439.406 96.8021 440.957 L96.8021 436.235 Q99.6261 435.101 102.08 434.522 Q104.534 433.943 106.571 433.943 Q111.941 433.943 115.135 436.629 Q118.33 439.314 118.33 443.805 Q118.33 445.934 117.52 447.855 Q116.733 449.754 114.626 452.346 Q114.047 453.017 110.946 456.235 Q107.844 459.429 102.196 465.193 Z" fill="#000000" fill-rule="nonzero" fill-opacity="1" /><path clip-path="url(#clip820)" d="M138.33 437.647 Q134.719 437.647 132.89 441.212 Q131.084 444.754 131.084 451.883 Q131.084 458.99 132.89 462.554 Q134.719 466.096 138.33 466.096 Q141.964 466.096 143.769 462.554 Q145.598 458.99 145.598 451.883 Q145.598 444.754 143.769 441.212 Q141.964 437.647 138.33 437.647 M138.33 433.943 Q144.14 433.943 147.195 438.55 Q150.274 443.133 150.274 451.883 Q150.274 460.61 147.195 465.216 Q144.14 469.8 138.33 469.8 Q132.519 469.8 129.441 465.216 Q126.385 460.61 126.385 451.883 Q126.385 443.133 129.441 438.55 Q132.519 433.943 138.33 433.943 Z" fill="#000000" fill-rule="nonzero" fill-opacity="1" /><path clip-path="url(#clip820)" d="M63.9319 150.009 Q60.3208 150.009 58.4921 153.574 Q56.6865 157.116 56.6865 164.245 Q56.6865 171.352 58.4921 174.916 Q60.3208 178.458 63.9319 178.458 Q67.5661 178.458 69.3717 174.916 Q71.2004 171.352 71.2004 164.245 Q71.2004 157.116 69.3717 153.574 Q67.5661 150.009 63.9319 150.009 M63.9319 146.306 Q69.742 146.306 72.7976 150.912 Q75.8763 155.495 75.8763 164.245 Q75.8763 172.972 72.7976 177.579 Q69.742 182.162 63.9319 182.162 Q58.1217 182.162 55.043 177.579 Q51.9875 172.972 51.9875 164.245 Q51.9875 155.495 55.043 150.912 Q58.1217 146.306 63.9319 146.306 Z" fill="#000000" fill-rule="nonzero" fill-opacity="1" /><path clip-path="url(#clip820)" d="M84.0938 175.611 L88.978 175.611 L88.978 181.491 L84.0938 181.491 L84.0938 175.611 Z" fill="#000000" fill-rule="nonzero" fill-opacity="1" /><path clip-path="url(#clip820)" d="M103.191 177.555 L119.51 177.555 L119.51 181.491 L97.566 181.491 L97.566 177.555 Q100.228 174.801 104.811 170.171 Q109.418 165.518 110.598 164.176 Q112.844 161.653 113.723 159.917 Q114.626 158.157 114.626 156.468 Q114.626 153.713 112.682 151.977 Q110.76 150.241 107.658 150.241 Q105.459 150.241 103.006 151.005 Q100.575 151.768 97.7974 153.319 L97.7974 148.597 Q100.621 147.463 103.075 146.884 Q105.529 146.306 107.566 146.306 Q112.936 146.306 116.131 148.991 Q119.325 151.676 119.325 156.167 Q119.325 158.296 118.515 160.218 Q117.728 162.116 115.621 164.708 Q115.043 165.38 111.941 168.597 Q108.839 171.792 103.191 177.555 Z" fill="#000000" fill-rule="nonzero" fill-opacity="1" /><path clip-path="url(#clip820)" d="M129.371 146.931 L147.728 146.931 L147.728 150.866 L133.654 150.866 L133.654 159.338 Q134.672 158.991 135.691 158.829 Q136.709 158.643 137.728 158.643 Q143.515 158.643 146.894 161.815 Q150.274 164.986 150.274 170.403 Q150.274 175.981 146.802 179.083 Q143.33 182.162 137.01 182.162 Q134.834 182.162 132.566 181.791 Q130.32 181.421 127.913 180.68 L127.913 175.981 Q129.996 177.116 132.219 177.671 Q134.441 178.227 136.918 178.227 Q140.922 178.227 143.26 176.12 Q145.598 174.014 145.598 170.403 Q145.598 166.792 143.26 164.685 Q140.922 162.579 136.918 162.579 Q135.043 162.579 133.168 162.995 Q131.316 163.412 129.371 164.292 L129.371 146.931 Z" fill="#000000" fill-rule="nonzero" fill-opacity="1" /><polyline clip-path="url(#clip822)" style="stroke:#009af9; stroke-linecap:round; stroke-linejoin:round; stroke-width:4; stroke-opacity:1; fill:none" points="214.047,86.1857 228.979,86.1857 243.911,86.1857 258.843,91.966 273.775,97.7244 288.706,103.461 303.638,106.995 318.57,121.875 333.502,140.877 348.434,155.419 363.365,160.936 378.297,166.431 393.229,195.65 408.161,195.65 423.093,209.647 438.025,209.647 452.956,227.523 467.888,232.764 482.82,236.755 497.752,254.283 512.684,267.697 527.616,277.854 542.547,292.946 557.479,323.768 572.411,336.49 587.343,358.624 602.275,368.09 617.207,411.032 632.138,415.574 647.07,448.723 662.002,486.557 676.934,506.067 691.866,528.374 706.798,578.206 721.729,630.995 736.661,686.034 751.593,740.107 766.525,787.67 781.457,840.006 796.389,888.98 811.32,938.518 826.252,961.615 841.184,994.642 856.116,1022.84 871.048,1046.3 885.979,1071.51 900.911,1101.59 915.843,1113.15 930.775,1139.98 945.707,1162.34 960.639,1188.86 975.57,1220.66 990.502,1242.29 1005.43,1261.44 1020.37,1276.17 1035.3,1296.83 1050.23,1307.09 1065.16,1322.31 1080.09,1335.77 1095.03,1352.89 1109.96,1365.75 1124.89,1375.62 1139.82,1384.24 "/>
<path clip-path="url(#clip820)" d="M847.377 196.789 L1134.88 196.789 L1134.88 93.1086 L847.377 93.1086  Z" fill="#ffffff" fill-rule="evenodd" fill-opacity="1"/>
<polyline clip-path="url(#clip820)" style="stroke:#000000; stroke-linecap:round; stroke-linejoin:round; stroke-width:4; stroke-opacity:1; fill:none" points="847.377,196.789 1134.88,196.789 1134.88,93.1086 847.377,93.1086 847.377,196.789 "/>
<polyline clip-path="url(#clip820)" style="stroke:#009af9; stroke-linecap:round; stroke-linejoin:round; stroke-width:4; stroke-opacity:1; fill:none" points="858.281,144.949 923.702,144.949 "/>
<path clip-path="url(#clip820)" d="M953.031 137.067 L953.031 141.094 Q951.226 140.169 949.281 139.706 Q947.337 139.243 945.254 139.243 Q942.082 139.243 940.485 140.215 Q938.911 141.187 938.911 143.131 Q938.911 144.613 940.045 145.469 Q941.18 146.303 944.606 147.067 L946.064 147.391 Q950.601 148.363 952.499 150.145 Q954.42 151.905 954.42 155.076 Q954.42 158.687 951.55 160.793 Q948.703 162.9 943.703 162.9 Q941.619 162.9 939.351 162.483 Q937.106 162.09 934.606 161.28 L934.606 156.881 Q936.967 158.108 939.258 158.733 Q941.55 159.335 943.795 159.335 Q946.805 159.335 948.425 158.317 Q950.045 157.275 950.045 155.4 Q950.045 153.664 948.865 152.738 Q947.707 151.812 943.749 150.956 L942.268 150.608 Q938.309 149.775 936.55 148.062 Q934.791 146.326 934.791 143.317 Q934.791 139.659 937.383 137.669 Q939.976 135.678 944.744 135.678 Q947.106 135.678 949.189 136.025 Q951.272 136.372 953.031 137.067 Z" fill="#000000" fill-rule="nonzero" fill-opacity="1" /><path clip-path="url(#clip820)" d="M965.416 128.942 L965.416 136.303 L974.189 136.303 L974.189 139.613 L965.416 139.613 L965.416 153.687 Q965.416 156.858 966.272 157.761 Q967.152 158.664 969.814 158.664 L974.189 158.664 L974.189 162.229 L969.814 162.229 Q964.883 162.229 963.008 160.4 Q961.133 158.548 961.133 153.687 L961.133 139.613 L958.008 139.613 L958.008 136.303 L961.133 136.303 L961.133 128.942 L965.416 128.942 Z" fill="#000000" fill-rule="nonzero" fill-opacity="1" /><path clip-path="url(#clip820)" d="M1001.97 148.201 L1001.97 150.284 L982.383 150.284 Q982.661 154.682 985.022 156.997 Q987.406 159.289 991.642 159.289 Q994.096 159.289 996.388 158.687 Q998.702 158.085 1000.97 156.881 L1000.97 160.909 Q998.679 161.881 996.272 162.391 Q993.865 162.9 991.388 162.9 Q985.184 162.9 981.55 159.289 Q977.939 155.678 977.939 149.52 Q977.939 143.155 981.365 139.428 Q984.814 135.678 990.647 135.678 Q995.878 135.678 998.911 139.057 Q1001.97 142.414 1001.97 148.201 M997.707 146.951 Q997.661 143.456 995.74 141.372 Q993.841 139.289 990.693 139.289 Q987.128 139.289 984.976 141.303 Q982.846 143.317 982.522 146.974 L997.707 146.951 Z" fill="#000000" fill-rule="nonzero" fill-opacity="1" /><path clip-path="url(#clip820)" d="M1013.08 158.34 L1013.08 172.09 L1008.8 172.09 L1008.8 136.303 L1013.08 136.303 L1013.08 140.238 Q1014.42 137.923 1016.46 136.812 Q1018.52 135.678 1021.36 135.678 Q1026.09 135.678 1029.03 139.428 Q1031.99 143.178 1031.99 149.289 Q1031.99 155.4 1029.03 159.15 Q1026.09 162.9 1021.36 162.9 Q1018.52 162.9 1016.46 161.789 Q1014.42 160.655 1013.08 158.34 M1027.57 149.289 Q1027.57 144.59 1025.62 141.928 Q1023.7 139.243 1020.32 139.243 Q1016.94 139.243 1015 141.928 Q1013.08 144.59 1013.08 149.289 Q1013.08 153.988 1015 156.673 Q1016.94 159.335 1020.32 159.335 Q1023.7 159.335 1025.62 156.673 Q1027.57 153.988 1027.57 149.289 Z" fill="#000000" fill-rule="nonzero" fill-opacity="1" /><path clip-path="url(#clip820)" d="M1055.58 137.067 L1055.58 141.094 Q1053.77 140.169 1051.83 139.706 Q1049.88 139.243 1047.8 139.243 Q1044.63 139.243 1043.03 140.215 Q1041.46 141.187 1041.46 143.131 Q1041.46 144.613 1042.59 145.469 Q1043.73 146.303 1047.15 147.067 L1048.61 147.391 Q1053.15 148.363 1055.04 150.145 Q1056.97 151.905 1056.97 155.076 Q1056.97 158.687 1054.1 160.793 Q1051.25 162.9 1046.25 162.9 Q1044.17 162.9 1041.9 162.483 Q1039.65 162.09 1037.15 161.28 L1037.15 156.881 Q1039.51 158.108 1041.8 158.733 Q1044.1 159.335 1046.34 159.335 Q1049.35 159.335 1050.97 158.317 Q1052.59 157.275 1052.59 155.4 Q1052.59 153.664 1051.41 152.738 Q1050.25 151.812 1046.29 150.956 L1044.81 150.608 Q1040.86 149.775 1039.1 148.062 Q1037.34 146.326 1037.34 143.317 Q1037.34 139.659 1039.93 137.669 Q1042.52 135.678 1047.29 135.678 Q1049.65 135.678 1051.73 136.025 Q1053.82 136.372 1055.58 137.067 Z" fill="#000000" fill-rule="nonzero" fill-opacity="1" /><path clip-path="url(#clip820)" d="M1063.75 136.303 L1068.01 136.303 L1068.01 162.229 L1063.75 162.229 L1063.75 136.303 M1063.75 126.21 L1068.01 126.21 L1068.01 131.604 L1063.75 131.604 L1063.75 126.21 Z" fill="#000000" fill-rule="nonzero" fill-opacity="1" /><path clip-path="url(#clip820)" d="M1075.07 136.303 L1095.3 136.303 L1095.3 140.192 L1079.28 158.826 L1095.3 158.826 L1095.3 162.229 L1074.49 162.229 L1074.49 158.34 L1090.51 139.706 L1075.07 139.706 L1075.07 136.303 Z" fill="#000000" fill-rule="nonzero" fill-opacity="1" /><path clip-path="url(#clip820)" d="M1123.98 148.201 L1123.98 150.284 L1104.4 150.284 Q1104.67 154.682 1107.04 156.997 Q1109.42 159.289 1113.66 159.289 Q1116.11 159.289 1118.4 158.687 Q1120.72 158.085 1122.98 156.881 L1122.98 160.909 Q1120.69 161.881 1118.29 162.391 Q1115.88 162.9 1113.4 162.9 Q1107.2 162.9 1103.56 159.289 Q1099.95 155.678 1099.95 149.52 Q1099.95 143.155 1103.38 139.428 Q1106.83 135.678 1112.66 135.678 Q1117.89 135.678 1120.92 139.057 Q1123.98 142.414 1123.98 148.201 M1119.72 146.951 Q1119.67 143.456 1117.75 141.372 Q1115.85 139.289 1112.71 139.289 Q1109.14 139.289 1106.99 141.303 Q1104.86 143.317 1104.54 146.974 L1119.72 146.951 Z" fill="#000000" fill-rule="nonzero" fill-opacity="1" /><path clip-path="url(#clip820)" d="M1371.44 1423.18 L2352.76 1423.18 L2352.76 47.2441 L1371.44 47.2441  Z" fill="#ffffff" fill-rule="evenodd" fill-opacity="1"/>
<defs>
  <clipPath id="clip823">
    <rect x="1371" y="47" width="982" height="1377"/>
  </clipPath>
</defs>
<polyline clip-path="url(#clip823)" style="stroke:#000000; stroke-linecap:round; stroke-linejoin:round; stroke-width:2; stroke-opacity:0.1; fill:none" points="1384.28,1423.18 1384.28,47.2441 "/>
<polyline clip-path="url(#clip823)" style="stroke:#000000; stroke-linecap:round; stroke-linejoin:round; stroke-width:2; stroke-opacity:0.1; fill:none" points="1533.6,1423.18 1533.6,47.2441 "/>
<polyline clip-path="url(#clip823)" style="stroke:#000000; stroke-linecap:round; stroke-linejoin:round; stroke-width:2; stroke-opacity:0.1; fill:none" points="1682.91,1423.18 1682.91,47.2441 "/>
<polyline clip-path="url(#clip823)" style="stroke:#000000; stroke-linecap:round; stroke-linejoin:round; stroke-width:2; stroke-opacity:0.1; fill:none" points="1832.23,1423.18 1832.23,47.2441 "/>
<polyline clip-path="url(#clip823)" style="stroke:#000000; stroke-linecap:round; stroke-linejoin:round; stroke-width:2; stroke-opacity:0.1; fill:none" points="1981.55,1423.18 1981.55,47.2441 "/>
<polyline clip-path="url(#clip823)" style="stroke:#000000; stroke-linecap:round; stroke-linejoin:round; stroke-width:2; stroke-opacity:0.1; fill:none" points="2130.87,1423.18 2130.87,47.2441 "/>
<polyline clip-path="url(#clip823)" style="stroke:#000000; stroke-linecap:round; stroke-linejoin:round; stroke-width:2; stroke-opacity:0.1; fill:none" points="2280.19,1423.18 2280.19,47.2441 "/>
<polyline clip-path="url(#clip823)" style="stroke:#000000; stroke-linecap:round; stroke-linejoin:round; stroke-width:2; stroke-opacity:0.1; fill:none" points="1371.44,1221.98 2352.76,1221.98 "/>
<polyline clip-path="url(#clip823)" style="stroke:#000000; stroke-linecap:round; stroke-linejoin:round; stroke-width:2; stroke-opacity:0.1; fill:none" points="1371.44,897.469 2352.76,897.469 "/>
<polyline clip-path="url(#clip823)" style="stroke:#000000; stroke-linecap:round; stroke-linejoin:round; stroke-width:2; stroke-opacity:0.1; fill:none" points="1371.44,572.955 2352.76,572.955 "/>
<polyline clip-path="url(#clip823)" style="stroke:#000000; stroke-linecap:round; stroke-linejoin:round; stroke-width:2; stroke-opacity:0.1; fill:none" points="1371.44,248.442 2352.76,248.442 "/>
<polyline clip-path="url(#clip820)" style="stroke:#000000; stroke-linecap:round; stroke-linejoin:round; stroke-width:4; stroke-opacity:1; fill:none" points="1371.44,1423.18 2352.76,1423.18 "/>
<polyline clip-path="url(#clip820)" style="stroke:#000000; stroke-linecap:round; stroke-linejoin:round; stroke-width:4; stroke-opacity:1; fill:none" points="1384.28,1423.18 1384.28,1404.28 "/>
<polyline clip-path="url(#clip820)" style="stroke:#000000; stroke-linecap:round; stroke-linejoin:round; stroke-width:4; stroke-opacity:1; fill:none" points="1533.6,1423.18 1533.6,1404.28 "/>
<polyline clip-path="url(#clip820)" style="stroke:#000000; stroke-linecap:round; stroke-linejoin:round; stroke-width:4; stroke-opacity:1; fill:none" points="1682.91,1423.18 1682.91,1404.28 "/>
<polyline clip-path="url(#clip820)" style="stroke:#000000; stroke-linecap:round; stroke-linejoin:round; stroke-width:4; stroke-opacity:1; fill:none" points="1832.23,1423.18 1832.23,1404.28 "/>
<polyline clip-path="url(#clip820)" style="stroke:#000000; stroke-linecap:round; stroke-linejoin:round; stroke-width:4; stroke-opacity:1; fill:none" points="1981.55,1423.18 1981.55,1404.28 "/>
<polyline clip-path="url(#clip820)" style="stroke:#000000; stroke-linecap:round; stroke-linejoin:round; stroke-width:4; stroke-opacity:1; fill:none" points="2130.87,1423.18 2130.87,1404.28 "/>
<polyline clip-path="url(#clip820)" style="stroke:#000000; stroke-linecap:round; stroke-linejoin:round; stroke-width:4; stroke-opacity:1; fill:none" points="2280.19,1423.18 2280.19,1404.28 "/>
<path clip-path="url(#clip820)" d="M1384.28 1454.1 Q1380.67 1454.1 1378.84 1457.66 Q1377.03 1461.2 1377.03 1468.33 Q1377.03 1475.44 1378.84 1479.01 Q1380.67 1482.55 1384.28 1482.55 Q1387.91 1482.55 1389.72 1479.01 Q1391.55 1475.44 1391.55 1468.33 Q1391.55 1461.2 1389.72 1457.66 Q1387.91 1454.1 1384.28 1454.1 M1384.28 1450.39 Q1390.09 1450.39 1393.14 1455 Q1396.22 1459.58 1396.22 1468.33 Q1396.22 1477.06 1393.14 1481.67 Q1390.09 1486.25 1384.28 1486.25 Q1378.47 1486.25 1375.39 1481.67 Q1372.33 1477.06 1372.33 1468.33 Q1372.33 1459.58 1375.39 1455 Q1378.47 1450.39 1384.28 1450.39 Z" fill="#000000" fill-rule="nonzero" fill-opacity="1" /><path clip-path="url(#clip820)" d="M1508.28 1481.64 L1515.92 1481.64 L1515.92 1455.28 L1507.61 1456.95 L1507.61 1452.69 L1515.88 1451.02 L1520.55 1451.02 L1520.55 1481.64 L1528.19 1481.64 L1528.19 1485.58 L1508.28 1485.58 L1508.28 1481.64 Z" fill="#000000" fill-rule="nonzero" fill-opacity="1" /><path clip-path="url(#clip820)" d="M1547.64 1454.1 Q1544.02 1454.1 1542.2 1457.66 Q1540.39 1461.2 1540.39 1468.33 Q1540.39 1475.44 1542.2 1479.01 Q1544.02 1482.55 1547.64 1482.55 Q1551.27 1482.55 1553.07 1479.01 Q1554.9 1475.44 1554.9 1468.33 Q1554.9 1461.2 1553.07 1457.66 Q1551.27 1454.1 1547.64 1454.1 M1547.64 1450.39 Q1553.45 1450.39 1556.5 1455 Q1559.58 1459.58 1559.58 1468.33 Q1559.58 1477.06 1556.5 1481.67 Q1553.45 1486.25 1547.64 1486.25 Q1541.82 1486.25 1538.75 1481.67 Q1535.69 1477.06 1535.69 1468.33 Q1535.69 1459.58 1538.75 1455 Q1541.82 1450.39 1547.64 1450.39 Z" fill="#000000" fill-rule="nonzero" fill-opacity="1" /><path clip-path="url(#clip820)" d="M1661.69 1481.64 L1678.01 1481.64 L1678.01 1485.58 L1656.06 1485.58 L1656.06 1481.64 Q1658.72 1478.89 1663.31 1474.26 Q1667.91 1469.61 1669.09 1468.27 Q1671.34 1465.74 1672.22 1464.01 Q1673.12 1462.25 1673.12 1460.56 Q1673.12 1457.8 1671.18 1456.07 Q1669.26 1454.33 1666.15 1454.33 Q1663.96 1454.33 1661.5 1455.09 Q1659.07 1455.86 1656.29 1457.41 L1656.29 1452.69 Q1659.12 1451.55 1661.57 1450.97 Q1664.03 1450.39 1666.06 1450.39 Q1671.43 1450.39 1674.63 1453.08 Q1677.82 1455.77 1677.82 1460.26 Q1677.82 1462.39 1677.01 1464.31 Q1676.22 1466.2 1674.12 1468.8 Q1673.54 1469.47 1670.44 1472.69 Q1667.34 1475.88 1661.69 1481.64 Z" fill="#000000" fill-rule="nonzero" fill-opacity="1" /><path clip-path="url(#clip820)" d="M1697.82 1454.1 Q1694.21 1454.1 1692.38 1457.66 Q1690.58 1461.2 1690.58 1468.33 Q1690.58 1475.44 1692.38 1479.01 Q1694.21 1482.55 1697.82 1482.55 Q1701.46 1482.55 1703.26 1479.01 Q1705.09 1475.44 1705.09 1468.33 Q1705.09 1461.2 1703.26 1457.66 Q1701.46 1454.1 1697.82 1454.1 M1697.82 1450.39 Q1703.63 1450.39 1706.69 1455 Q1709.77 1459.58 1709.77 1468.33 Q1709.77 1477.06 1706.69 1481.67 Q1703.63 1486.25 1697.82 1486.25 Q1692.01 1486.25 1688.93 1481.67 Q1685.88 1477.06 1685.88 1468.33 Q1685.88 1459.58 1688.93 1455 Q1692.01 1450.39 1697.82 1450.39 Z" fill="#000000" fill-rule="nonzero" fill-opacity="1" /><path clip-path="url(#clip820)" d="M1821.08 1466.95 Q1824.43 1467.66 1826.31 1469.93 Q1828.2 1472.2 1828.2 1475.53 Q1828.2 1480.65 1824.69 1483.45 Q1821.17 1486.25 1814.69 1486.25 Q1812.51 1486.25 1810.2 1485.81 Q1807.9 1485.39 1805.45 1484.54 L1805.45 1480.02 Q1807.39 1481.16 1809.71 1481.74 Q1812.02 1482.32 1814.55 1482.32 Q1818.95 1482.32 1821.24 1480.58 Q1823.55 1478.84 1823.55 1475.53 Q1823.55 1472.48 1821.4 1470.77 Q1819.27 1469.03 1815.45 1469.03 L1811.42 1469.03 L1811.42 1465.19 L1815.64 1465.19 Q1819.08 1465.19 1820.91 1463.82 Q1822.74 1462.43 1822.74 1459.84 Q1822.74 1457.18 1820.84 1455.77 Q1818.97 1454.33 1815.45 1454.33 Q1813.53 1454.33 1811.33 1454.75 Q1809.13 1455.16 1806.49 1456.04 L1806.49 1451.88 Q1809.15 1451.14 1811.47 1450.77 Q1813.81 1450.39 1815.87 1450.39 Q1821.19 1450.39 1824.29 1452.83 Q1827.39 1455.23 1827.39 1459.35 Q1827.39 1462.22 1825.75 1464.21 Q1824.11 1466.18 1821.08 1466.95 Z" fill="#000000" fill-rule="nonzero" fill-opacity="1" /><path clip-path="url(#clip820)" d="M1847.07 1454.1 Q1843.46 1454.1 1841.63 1457.66 Q1839.82 1461.2 1839.82 1468.33 Q1839.82 1475.44 1841.63 1479.01 Q1843.46 1482.55 1847.07 1482.55 Q1850.7 1482.55 1852.51 1479.01 Q1854.34 1475.44 1854.34 1468.33 Q1854.34 1461.2 1852.51 1457.66 Q1850.7 1454.1 1847.07 1454.1 M1847.07 1450.39 Q1852.88 1450.39 1855.94 1455 Q1859.01 1459.58 1859.01 1468.33 Q1859.01 1477.06 1855.94 1481.67 Q1852.88 1486.25 1847.07 1486.25 Q1841.26 1486.25 1838.18 1481.67 Q1835.13 1477.06 1835.13 1468.33 Q1835.13 1459.58 1838.18 1455 Q1841.26 1450.39 1847.07 1450.39 Z" fill="#000000" fill-rule="nonzero" fill-opacity="1" /><path clip-path="url(#clip820)" d="M1969.72 1455.09 L1957.92 1473.54 L1969.72 1473.54 L1969.72 1455.09 M1968.5 1451.02 L1974.37 1451.02 L1974.37 1473.54 L1979.31 1473.54 L1979.31 1477.43 L1974.37 1477.43 L1974.37 1485.58 L1969.72 1485.58 L1969.72 1477.43 L1954.12 1477.43 L1954.12 1472.92 L1968.5 1451.02 Z" fill="#000000" fill-rule="nonzero" fill-opacity="1" /><path clip-path="url(#clip820)" d="M1997.04 1454.1 Q1993.43 1454.1 1991.6 1457.66 Q1989.79 1461.2 1989.79 1468.33 Q1989.79 1475.44 1991.6 1479.01 Q1993.43 1482.55 1997.04 1482.55 Q2000.67 1482.55 2002.48 1479.01 Q2004.31 1475.44 2004.31 1468.33 Q2004.31 1461.2 2002.48 1457.66 Q2000.67 1454.1 1997.04 1454.1 M1997.04 1450.39 Q2002.85 1450.39 2005.9 1455 Q2008.98 1459.58 2008.98 1468.33 Q2008.98 1477.06 2005.9 1481.67 Q2002.85 1486.25 1997.04 1486.25 Q1991.23 1486.25 1988.15 1481.67 Q1985.09 1477.06 1985.09 1468.33 Q1985.09 1459.58 1988.15 1455 Q1991.23 1450.39 1997.04 1450.39 Z" fill="#000000" fill-rule="nonzero" fill-opacity="1" /><path clip-path="url(#clip820)" d="M2105.57 1451.02 L2123.92 1451.02 L2123.92 1454.96 L2109.85 1454.96 L2109.85 1463.43 Q2110.87 1463.08 2111.89 1462.92 Q2112.91 1462.73 2113.92 1462.73 Q2119.71 1462.73 2123.09 1465.9 Q2126.47 1469.08 2126.47 1474.49 Q2126.47 1480.07 2123 1483.17 Q2119.53 1486.25 2113.21 1486.25 Q2111.03 1486.25 2108.76 1485.88 Q2106.52 1485.51 2104.11 1484.77 L2104.11 1480.07 Q2106.19 1481.2 2108.42 1481.76 Q2110.64 1482.32 2113.11 1482.32 Q2117.12 1482.32 2119.46 1480.21 Q2121.79 1478.1 2121.79 1474.49 Q2121.79 1470.88 2119.46 1468.77 Q2117.12 1466.67 2113.11 1466.67 Q2111.24 1466.67 2109.36 1467.08 Q2107.51 1467.5 2105.57 1468.38 L2105.57 1451.02 Z" fill="#000000" fill-rule="nonzero" fill-opacity="1" /><path clip-path="url(#clip820)" d="M2145.68 1454.1 Q2142.07 1454.1 2140.24 1457.66 Q2138.44 1461.2 2138.44 1468.33 Q2138.44 1475.44 2140.24 1479.01 Q2142.07 1482.55 2145.68 1482.55 Q2149.32 1482.55 2151.12 1479.01 Q2152.95 1475.44 2152.95 1468.33 Q2152.95 1461.2 2151.12 1457.66 Q2149.32 1454.1 2145.68 1454.1 M2145.68 1450.39 Q2151.49 1450.39 2154.55 1455 Q2157.63 1459.58 2157.63 1468.33 Q2157.63 1477.06 2154.55 1481.67 Q2151.49 1486.25 2145.68 1486.25 Q2139.87 1486.25 2136.79 1481.67 Q2133.74 1477.06 2133.74 1468.33 Q2133.74 1459.58 2136.79 1455 Q2139.87 1450.39 2145.68 1450.39 Z" fill="#000000" fill-rule="nonzero" fill-opacity="1" /><path clip-path="url(#clip820)" d="M2265.59 1466.44 Q2262.44 1466.44 2260.59 1468.59 Q2258.76 1470.74 2258.76 1474.49 Q2258.76 1478.22 2260.59 1480.39 Q2262.44 1482.55 2265.59 1482.55 Q2268.74 1482.55 2270.57 1480.39 Q2272.42 1478.22 2272.42 1474.49 Q2272.42 1470.74 2270.57 1468.59 Q2268.74 1466.44 2265.59 1466.44 M2274.87 1451.78 L2274.87 1456.04 Q2273.12 1455.21 2271.31 1454.77 Q2269.53 1454.33 2267.77 1454.33 Q2263.14 1454.33 2260.69 1457.45 Q2258.25 1460.58 2257.91 1466.9 Q2259.27 1464.89 2261.33 1463.82 Q2263.39 1462.73 2265.87 1462.73 Q2271.08 1462.73 2274.09 1465.9 Q2277.12 1469.05 2277.12 1474.49 Q2277.12 1479.82 2273.97 1483.03 Q2270.82 1486.25 2265.59 1486.25 Q2259.6 1486.25 2256.43 1481.67 Q2253.25 1477.06 2253.25 1468.33 Q2253.25 1460.14 2257.14 1455.28 Q2261.03 1450.39 2267.58 1450.39 Q2269.34 1450.39 2271.12 1450.74 Q2272.93 1451.09 2274.87 1451.78 Z" fill="#000000" fill-rule="nonzero" fill-opacity="1" /><path clip-path="url(#clip820)" d="M2295.18 1454.1 Q2291.56 1454.1 2289.74 1457.66 Q2287.93 1461.2 2287.93 1468.33 Q2287.93 1475.44 2289.74 1479.01 Q2291.56 1482.55 2295.18 1482.55 Q2298.81 1482.55 2300.62 1479.01 Q2302.44 1475.44 2302.44 1468.33 Q2302.44 1461.2 2300.62 1457.66 Q2298.81 1454.1 2295.18 1454.1 M2295.18 1450.39 Q2300.99 1450.39 2304.04 1455 Q2307.12 1459.58 2307.12 1468.33 Q2307.12 1477.06 2304.04 1481.67 Q2300.99 1486.25 2295.18 1486.25 Q2289.37 1486.25 2286.29 1481.67 Q2283.23 1477.06 2283.23 1468.33 Q2283.23 1459.58 2286.29 1455 Q2289.37 1450.39 2295.18 1450.39 Z" fill="#000000" fill-rule="nonzero" fill-opacity="1" /><path clip-path="url(#clip820)" d="M1677.43 1522.08 L1677.43 1528.35 Q1673.77 1526.6 1670.52 1525.74 Q1667.27 1524.88 1664.25 1524.88 Q1659 1524.88 1656.13 1526.92 Q1653.3 1528.96 1653.3 1532.71 Q1653.3 1535.87 1655.18 1537.49 Q1657.09 1539.08 1662.37 1540.07 L1666.26 1540.86 Q1673.45 1542.23 1676.85 1545.7 Q1680.29 1549.14 1680.29 1554.93 Q1680.29 1561.84 1675.64 1565.4 Q1671.03 1568.97 1662.09 1568.97 Q1658.71 1568.97 1654.89 1568.2 Q1651.1 1567.44 1647.03 1565.94 L1647.03 1559.32 Q1650.95 1561.52 1654.7 1562.63 Q1658.46 1563.75 1662.09 1563.75 Q1667.59 1563.75 1670.58 1561.58 Q1673.58 1559.42 1673.58 1555.41 Q1673.58 1551.91 1671.41 1549.93 Q1669.28 1547.96 1664.38 1546.97 L1660.46 1546.21 Q1653.27 1544.78 1650.05 1541.72 Q1646.84 1538.67 1646.84 1533.22 Q1646.84 1526.92 1651.26 1523.29 Q1655.72 1519.66 1663.52 1519.66 Q1666.86 1519.66 1670.33 1520.27 Q1673.8 1520.87 1677.43 1522.08 Z" fill="#000000" fill-rule="nonzero" fill-opacity="1" /><path clip-path="url(#clip820)" d="M1690.32 1520.52 L1699.9 1520.52 L1712.02 1552.86 L1724.21 1520.52 L1733.8 1520.52 L1733.8 1568.04 L1727.52 1568.04 L1727.52 1526.32 L1715.27 1558.91 L1708.81 1558.91 L1696.56 1526.32 L1696.56 1568.04 L1690.32 1568.04 L1690.32 1520.52 Z" fill="#000000" fill-rule="nonzero" fill-opacity="1" /><path clip-path="url(#clip820)" d="M1782.14 1524.18 L1782.14 1530.96 Q1778.9 1527.94 1775.2 1526.44 Q1771.54 1524.95 1767.41 1524.95 Q1759.26 1524.95 1754.93 1529.95 Q1750.6 1534.91 1750.6 1544.33 Q1750.6 1553.72 1754.93 1558.72 Q1759.26 1563.68 1767.41 1563.68 Q1771.54 1563.68 1775.2 1562.19 Q1778.9 1560.69 1782.14 1557.67 L1782.14 1564.38 Q1778.77 1566.68 1774.98 1567.82 Q1771.23 1568.97 1767.02 1568.97 Q1756.23 1568.97 1750.03 1562.38 Q1743.82 1555.76 1743.82 1544.33 Q1743.82 1532.87 1750.03 1526.28 Q1756.23 1519.66 1767.02 1519.66 Q1771.29 1519.66 1775.04 1520.81 Q1778.83 1521.92 1782.14 1524.18 Z" fill="#000000" fill-rule="nonzero" fill-opacity="1" /><path clip-path="url(#clip820)" d="M1812.79 1520.52 L1819.22 1520.52 L1819.22 1568.04 L1812.79 1568.04 L1812.79 1520.52 Z" fill="#000000" fill-rule="nonzero" fill-opacity="1" /><path clip-path="url(#clip820)" d="M1837.56 1522.27 L1837.56 1532.4 L1849.62 1532.4 L1849.62 1536.95 L1837.56 1536.95 L1837.56 1556.3 Q1837.56 1560.66 1838.73 1561.9 Q1839.94 1563.14 1843.6 1563.14 L1849.62 1563.14 L1849.62 1568.04 L1843.6 1568.04 Q1836.82 1568.04 1834.25 1565.53 Q1831.67 1562.98 1831.67 1556.3 L1831.67 1536.95 L1827.37 1536.95 L1827.37 1532.4 L1831.67 1532.4 L1831.67 1522.27 L1837.56 1522.27 Z" fill="#000000" fill-rule="nonzero" fill-opacity="1" /><path clip-path="url(#clip820)" d="M1887.81 1548.76 L1887.81 1551.62 L1860.89 1551.62 Q1861.27 1557.67 1864.51 1560.85 Q1867.79 1564 1873.62 1564 Q1876.99 1564 1880.14 1563.17 Q1883.33 1562.35 1886.44 1560.69 L1886.44 1566.23 Q1883.29 1567.57 1879.98 1568.27 Q1876.67 1568.97 1873.27 1568.97 Q1864.74 1568.97 1859.74 1564 Q1854.78 1559.04 1854.78 1550.57 Q1854.78 1541.82 1859.49 1536.69 Q1864.23 1531.54 1872.25 1531.54 Q1879.44 1531.54 1883.61 1536.18 Q1887.81 1540.8 1887.81 1548.76 M1881.96 1547.04 Q1881.89 1542.23 1879.25 1539.37 Q1876.64 1536.5 1872.31 1536.5 Q1867.41 1536.5 1864.45 1539.27 Q1861.52 1542.04 1861.08 1547.07 L1881.96 1547.04 Z" fill="#000000" fill-rule="nonzero" fill-opacity="1" /><path clip-path="url(#clip820)" d="M1918.08 1537.87 Q1917.1 1537.3 1915.92 1537.04 Q1914.77 1536.76 1913.37 1536.76 Q1908.41 1536.76 1905.73 1540 Q1903.09 1543.22 1903.09 1549.27 L1903.09 1568.04 L1897.2 1568.04 L1897.2 1532.4 L1903.09 1532.4 L1903.09 1537.93 Q1904.94 1534.69 1907.9 1533.13 Q1910.86 1531.54 1915.09 1531.54 Q1915.7 1531.54 1916.43 1531.63 Q1917.16 1531.7 1918.05 1531.85 L1918.08 1537.87 Z" fill="#000000" fill-rule="nonzero" fill-opacity="1" /><path clip-path="url(#clip820)" d="M1940.43 1550.12 Q1933.33 1550.12 1930.59 1551.75 Q1927.85 1553.37 1927.85 1557.29 Q1927.85 1560.4 1929.89 1562.25 Q1931.96 1564.07 1935.49 1564.07 Q1940.36 1564.07 1943.29 1560.63 Q1946.25 1557.16 1946.25 1551.43 L1946.25 1550.12 L1940.43 1550.12 M1952.11 1547.71 L1952.11 1568.04 L1946.25 1568.04 L1946.25 1562.63 Q1944.25 1565.88 1941.25 1567.44 Q1938.26 1568.97 1933.93 1568.97 Q1928.46 1568.97 1925.21 1565.91 Q1922 1562.82 1922 1557.67 Q1922 1551.65 1926.01 1548.6 Q1930.05 1545.54 1938.04 1545.54 L1946.25 1545.54 L1946.25 1544.97 Q1946.25 1540.93 1943.58 1538.73 Q1940.94 1536.5 1936.13 1536.5 Q1933.07 1536.5 1930.18 1537.23 Q1927.28 1537.97 1924.61 1539.43 L1924.61 1534.02 Q1927.82 1532.78 1930.85 1532.17 Q1933.87 1531.54 1936.73 1531.54 Q1944.47 1531.54 1948.29 1535.55 Q1952.11 1539.56 1952.11 1547.71 Z" fill="#000000" fill-rule="nonzero" fill-opacity="1" /><path clip-path="url(#clip820)" d="M1969.96 1522.27 L1969.96 1532.4 L1982.03 1532.4 L1982.03 1536.95 L1969.96 1536.95 L1969.96 1556.3 Q1969.96 1560.66 1971.14 1561.9 Q1972.35 1563.14 1976.01 1563.14 L1982.03 1563.14 L1982.03 1568.04 L1976.01 1568.04 Q1969.23 1568.04 1966.65 1565.53 Q1964.07 1562.98 1964.07 1556.3 L1964.07 1536.95 L1959.78 1536.95 L1959.78 1532.4 L1964.07 1532.4 L1964.07 1522.27 L1969.96 1522.27 Z" fill="#000000" fill-rule="nonzero" fill-opacity="1" /><path clip-path="url(#clip820)" d="M1989.73 1532.4 L1995.58 1532.4 L1995.58 1568.04 L1989.73 1568.04 L1989.73 1532.4 M1989.73 1518.52 L1995.58 1518.52 L1995.58 1525.93 L1989.73 1525.93 L1989.73 1518.52 Z" fill="#000000" fill-rule="nonzero" fill-opacity="1" /><path clip-path="url(#clip820)" d="M2021.65 1536.5 Q2016.94 1536.5 2014.2 1540.19 Q2011.47 1543.85 2011.47 1550.25 Q2011.47 1556.65 2014.17 1560.34 Q2016.91 1564 2021.65 1564 Q2026.33 1564 2029.07 1560.31 Q2031.81 1556.62 2031.81 1550.25 Q2031.81 1543.92 2029.07 1540.23 Q2026.33 1536.5 2021.65 1536.5 M2021.65 1531.54 Q2029.29 1531.54 2033.65 1536.5 Q2038.01 1541.47 2038.01 1550.25 Q2038.01 1559 2033.65 1564 Q2029.29 1568.97 2021.65 1568.97 Q2013.98 1568.97 2009.62 1564 Q2005.29 1559 2005.29 1550.25 Q2005.29 1541.47 2009.62 1536.5 Q2013.98 1531.54 2021.65 1531.54 Z" fill="#000000" fill-rule="nonzero" fill-opacity="1" /><path clip-path="url(#clip820)" d="M2077.35 1546.53 L2077.35 1568.04 L2071.5 1568.04 L2071.5 1546.72 Q2071.5 1541.66 2069.52 1539.14 Q2067.55 1536.63 2063.6 1536.63 Q2058.86 1536.63 2056.12 1539.65 Q2053.39 1542.68 2053.39 1547.9 L2053.39 1568.04 L2047.5 1568.04 L2047.5 1532.4 L2053.39 1532.4 L2053.39 1537.93 Q2055.49 1534.72 2058.32 1533.13 Q2061.18 1531.54 2064.91 1531.54 Q2071.05 1531.54 2074.2 1535.36 Q2077.35 1539.14 2077.35 1546.53 Z" fill="#000000" fill-rule="nonzero" fill-opacity="1" /><polyline clip-path="url(#clip820)" style="stroke:#000000; stroke-linecap:round; stroke-linejoin:round; stroke-width:4; stroke-opacity:1; fill:none" points="1371.44,1423.18 1371.44,47.2441 "/>
<polyline clip-path="url(#clip820)" style="stroke:#000000; stroke-linecap:round; stroke-linejoin:round; stroke-width:4; stroke-opacity:1; fill:none" points="1371.44,1221.98 1390.33,1221.98 "/>
<polyline clip-path="url(#clip820)" style="stroke:#000000; stroke-linecap:round; stroke-linejoin:round; stroke-width:4; stroke-opacity:1; fill:none" points="1371.44,897.469 1390.33,897.469 "/>
<polyline clip-path="url(#clip820)" style="stroke:#000000; stroke-linecap:round; stroke-linejoin:round; stroke-width:4; stroke-opacity:1; fill:none" points="1371.44,572.955 1390.33,572.955 "/>
<polyline clip-path="url(#clip820)" style="stroke:#000000; stroke-linecap:round; stroke-linejoin:round; stroke-width:4; stroke-opacity:1; fill:none" points="1371.44,248.442 1390.33,248.442 "/>
<path clip-path="url(#clip820)" d="M1279.86 1207.78 Q1276.25 1207.78 1274.42 1211.35 Q1272.61 1214.89 1272.61 1222.02 Q1272.61 1229.12 1274.42 1232.69 Q1276.25 1236.23 1279.86 1236.23 Q1283.49 1236.23 1285.3 1232.69 Q1287.13 1229.12 1287.13 1222.02 Q1287.13 1214.89 1285.3 1211.35 Q1283.49 1207.78 1279.86 1207.78 M1279.86 1204.08 Q1285.67 1204.08 1288.72 1208.68 Q1291.8 1213.27 1291.8 1222.02 Q1291.8 1230.74 1288.72 1235.35 Q1285.67 1239.93 1279.86 1239.93 Q1274.05 1239.93 1270.97 1235.35 Q1267.91 1230.74 1267.91 1222.02 Q1267.91 1213.27 1270.97 1208.68 Q1274.05 1204.08 1279.86 1204.08 Z" fill="#000000" fill-rule="nonzero" fill-opacity="1" /><path clip-path="url(#clip820)" d="M1300.02 1233.38 L1304.9 1233.38 L1304.9 1239.26 L1300.02 1239.26 L1300.02 1233.38 Z" fill="#000000" fill-rule="nonzero" fill-opacity="1" /><path clip-path="url(#clip820)" d="M1319.12 1235.33 L1335.44 1235.33 L1335.44 1239.26 L1313.49 1239.26 L1313.49 1235.33 Q1316.15 1232.57 1320.74 1227.94 Q1325.34 1223.29 1326.52 1221.95 Q1328.77 1219.42 1329.65 1217.69 Q1330.55 1215.93 1330.55 1214.24 Q1330.55 1211.48 1328.61 1209.75 Q1326.69 1208.01 1323.58 1208.01 Q1321.39 1208.01 1318.93 1208.78 Q1316.5 1209.54 1313.72 1211.09 L1313.72 1206.37 Q1316.55 1205.23 1319 1204.66 Q1321.45 1204.08 1323.49 1204.08 Q1328.86 1204.08 1332.06 1206.76 Q1335.25 1209.45 1335.25 1213.94 Q1335.25 1216.07 1334.44 1217.99 Q1333.65 1219.89 1331.55 1222.48 Q1330.97 1223.15 1327.87 1226.37 Q1324.76 1229.56 1319.12 1235.33 Z" fill="#000000" fill-rule="nonzero" fill-opacity="1" /><path clip-path="url(#clip820)" d="M1277.77 883.267 Q1274.16 883.267 1272.33 886.832 Q1270.53 890.374 1270.53 897.503 Q1270.53 904.61 1272.33 908.175 Q1274.16 911.716 1277.77 911.716 Q1281.41 911.716 1283.21 908.175 Q1285.04 904.61 1285.04 897.503 Q1285.04 890.374 1283.21 886.832 Q1281.41 883.267 1277.77 883.267 M1277.77 879.564 Q1283.58 879.564 1286.64 884.17 Q1289.72 888.753 1289.72 897.503 Q1289.72 906.23 1286.64 910.837 Q1283.58 915.42 1277.77 915.42 Q1271.96 915.42 1268.89 910.837 Q1265.83 906.23 1265.83 897.503 Q1265.83 888.753 1268.89 884.17 Q1271.96 879.564 1277.77 879.564 Z" fill="#000000" fill-rule="nonzero" fill-opacity="1" /><path clip-path="url(#clip820)" d="M1297.94 908.869 L1302.82 908.869 L1302.82 914.749 L1297.94 914.749 L1297.94 908.869 Z" fill="#000000" fill-rule="nonzero" fill-opacity="1" /><path clip-path="url(#clip820)" d="M1325.85 884.263 L1314.05 902.712 L1325.85 902.712 L1325.85 884.263 M1324.63 880.189 L1330.51 880.189 L1330.51 902.712 L1335.44 902.712 L1335.44 906.6 L1330.51 906.6 L1330.51 914.749 L1325.85 914.749 L1325.85 906.6 L1310.25 906.6 L1310.25 902.087 L1324.63 880.189 Z" fill="#000000" fill-rule="nonzero" fill-opacity="1" /><path clip-path="url(#clip820)" d="M1278.1 558.754 Q1274.49 558.754 1272.66 562.319 Q1270.85 565.861 1270.85 572.99 Q1270.85 580.097 1272.66 583.661 Q1274.49 587.203 1278.1 587.203 Q1281.73 587.203 1283.54 583.661 Q1285.37 580.097 1285.37 572.99 Q1285.37 565.861 1283.54 562.319 Q1281.73 558.754 1278.1 558.754 M1278.1 555.05 Q1283.91 555.05 1286.96 559.657 Q1290.04 564.24 1290.04 572.99 Q1290.04 581.717 1286.96 586.323 Q1283.91 590.907 1278.1 590.907 Q1272.29 590.907 1269.21 586.323 Q1266.15 581.717 1266.15 572.99 Q1266.15 564.24 1269.21 559.657 Q1272.29 555.05 1278.1 555.05 Z" fill="#000000" fill-rule="nonzero" fill-opacity="1" /><path clip-path="url(#clip820)" d="M1298.26 584.356 L1303.14 584.356 L1303.14 590.235 L1298.26 590.235 L1298.26 584.356 Z" fill="#000000" fill-rule="nonzero" fill-opacity="1" /><path clip-path="url(#clip820)" d="M1323.91 571.092 Q1320.76 571.092 1318.91 573.245 Q1317.08 575.398 1317.08 579.147 Q1317.08 582.874 1318.91 585.05 Q1320.76 587.203 1323.91 587.203 Q1327.06 587.203 1328.89 585.05 Q1330.74 582.874 1330.74 579.147 Q1330.74 575.398 1328.89 573.245 Q1327.06 571.092 1323.91 571.092 M1333.19 556.439 L1333.19 560.699 Q1331.43 559.865 1329.63 559.425 Q1327.84 558.986 1326.08 558.986 Q1321.45 558.986 1319 562.111 Q1316.57 565.236 1316.22 571.555 Q1317.59 569.541 1319.65 568.476 Q1321.71 567.388 1324.19 567.388 Q1329.39 567.388 1332.4 570.56 Q1335.44 573.708 1335.44 579.147 Q1335.44 584.472 1332.29 587.689 Q1329.14 590.907 1323.91 590.907 Q1317.91 590.907 1314.74 586.323 Q1311.57 581.717 1311.57 572.99 Q1311.57 564.796 1315.46 559.935 Q1319.35 555.05 1325.9 555.05 Q1327.66 555.05 1329.44 555.398 Q1331.25 555.745 1333.19 556.439 Z" fill="#000000" fill-rule="nonzero" fill-opacity="1" /><path clip-path="url(#clip820)" d="M1278.35 234.241 Q1274.74 234.241 1272.91 237.806 Q1271.11 241.347 1271.11 248.477 Q1271.11 255.583 1272.91 259.148 Q1274.74 262.69 1278.35 262.69 Q1281.99 262.69 1283.79 259.148 Q1285.62 255.583 1285.62 248.477 Q1285.62 241.347 1283.79 237.806 Q1281.99 234.241 1278.35 234.241 M1278.35 230.537 Q1284.16 230.537 1287.22 235.144 Q1290.3 239.727 1290.3 248.477 Q1290.3 257.204 1287.22 261.81 Q1284.16 266.394 1278.35 266.394 Q1272.54 266.394 1269.46 261.81 Q1266.41 257.204 1266.41 248.477 Q1266.41 239.727 1269.46 235.144 Q1272.54 230.537 1278.35 230.537 Z" fill="#000000" fill-rule="nonzero" fill-opacity="1" /><path clip-path="url(#clip820)" d="M1298.52 259.843 L1303.4 259.843 L1303.4 265.722 L1298.52 265.722 L1298.52 259.843 Z" fill="#000000" fill-rule="nonzero" fill-opacity="1" /><path clip-path="url(#clip820)" d="M1323.58 249.31 Q1320.25 249.31 1318.33 251.093 Q1316.43 252.875 1316.43 256 Q1316.43 259.125 1318.33 260.907 Q1320.25 262.69 1323.58 262.69 Q1326.92 262.69 1328.84 260.907 Q1330.76 259.102 1330.76 256 Q1330.76 252.875 1328.84 251.093 Q1326.94 249.31 1323.58 249.31 M1318.91 247.32 Q1315.9 246.579 1314.21 244.519 Q1312.54 242.458 1312.54 239.496 Q1312.54 235.352 1315.48 232.945 Q1318.45 230.537 1323.58 230.537 Q1328.75 230.537 1331.69 232.945 Q1334.63 235.352 1334.63 239.496 Q1334.63 242.458 1332.94 244.519 Q1331.27 246.579 1328.28 247.32 Q1331.66 248.107 1333.54 250.398 Q1335.44 252.69 1335.44 256 Q1335.44 261.023 1332.36 263.708 Q1329.3 266.394 1323.58 266.394 Q1317.87 266.394 1314.79 263.708 Q1311.73 261.023 1311.73 256 Q1311.73 252.69 1313.63 250.398 Q1315.53 248.107 1318.91 247.32 M1317.2 239.935 Q1317.2 242.621 1318.86 244.125 Q1320.55 245.63 1323.58 245.63 Q1326.59 245.63 1328.28 244.125 Q1330 242.621 1330 239.935 Q1330 237.25 1328.28 235.746 Q1326.59 234.241 1323.58 234.241 Q1320.55 234.241 1318.86 235.746 Q1317.2 237.25 1317.2 239.935 Z" fill="#000000" fill-rule="nonzero" fill-opacity="1" /><polyline clip-path="url(#clip823)" style="stroke:#009af9; stroke-linecap:round; stroke-linejoin:round; stroke-width:4; stroke-opacity:1; fill:none" points="1399.21,1384.24 1414.14,172.723 1429.07,86.1857 1444,1384.24 1458.94,259.259 1473.87,1384.24 1488.8,86.1857 1503.73,1384.24 1518.66,1384.24 1533.6,1124.63 1548.53,1384.24 1563.46,1384.24 1578.39,1384.24 1593.32,1384.24 1608.25,1384.24 1623.19,778.48 1638.12,1384.24 1653.05,691.944 1667.98,86.1857 1682.91,86.1857 1697.85,778.48 1712.78,259.259 1727.71,1384.24 1742.64,518.87 1757.57,86.1857 1772.51,86.1857 1787.44,1384.24 1802.37,1384.24 1817.3,1384.24 1832.23,86.1857 1847.16,86.1857 1862.1,86.1857 1877.03,86.1857 1891.96,86.1857 1906.89,86.1857 1921.82,86.1857 1936.76,1384.24 1951.69,1384.24 1966.62,1038.09 1981.55,1384.24 1996.48,1384.24 2011.41,865.017 2026.35,172.723 2041.28,86.1857 2056.21,1384.24 2071.14,86.1857 2086.07,86.1857 2101.01,778.48 2115.94,172.723 2130.87,86.1857 2145.8,1384.24 2160.73,86.1857 2175.66,1384.24 2190.6,172.723 2205.53,1384.24 2220.46,86.1857 2235.39,1384.24 2250.32,1384.24 2265.26,86.1857 2280.19,86.1857 2295.12,86.1857 2310.05,259.259 2324.98,1297.7 "/>
<path clip-path="url(#clip820)" d="M1404.15 196.789 L1897.46 196.789 L1897.46 93.1086 L1404.15 93.1086  Z" fill="#ffffff" fill-rule="evenodd" fill-opacity="1"/>
<polyline clip-path="url(#clip820)" style="stroke:#000000; stroke-linecap:round; stroke-linejoin:round; stroke-width:4; stroke-opacity:1; fill:none" points="1404.15,196.789 1897.46,196.789 1897.46,93.1086 1404.15,93.1086 1404.15,196.789 "/>
<polyline clip-path="url(#clip820)" style="stroke:#009af9; stroke-linecap:round; stroke-linejoin:round; stroke-width:4; stroke-opacity:1; fill:none" points="1415.05,144.949 1480.47,144.949 "/>
<path clip-path="url(#clip820)" d="M1506.56 140.284 Q1505.84 139.868 1504.99 139.682 Q1504.15 139.474 1503.13 139.474 Q1499.52 139.474 1497.58 141.835 Q1495.66 144.173 1495.66 148.571 L1495.66 162.229 L1491.38 162.229 L1491.38 136.303 L1495.66 136.303 L1495.66 140.331 Q1497 137.969 1499.15 136.835 Q1501.31 135.678 1504.38 135.678 Q1504.82 135.678 1505.36 135.747 Q1505.89 135.794 1506.54 135.909 L1506.56 140.284 Z" fill="#000000" fill-rule="nonzero" fill-opacity="1" /><path clip-path="url(#clip820)" d="M1532.16 148.201 L1532.16 150.284 L1512.58 150.284 Q1512.86 154.682 1515.22 156.997 Q1517.6 159.289 1521.84 159.289 Q1524.29 159.289 1526.58 158.687 Q1528.9 158.085 1531.17 156.881 L1531.17 160.909 Q1528.88 161.881 1526.47 162.391 Q1524.06 162.9 1521.58 162.9 Q1515.38 162.9 1511.75 159.289 Q1508.13 155.678 1508.13 149.52 Q1508.13 143.155 1511.56 139.428 Q1515.01 135.678 1520.84 135.678 Q1526.07 135.678 1529.11 139.057 Q1532.16 142.414 1532.16 148.201 M1527.9 146.951 Q1527.86 143.456 1525.94 141.372 Q1524.04 139.289 1520.89 139.289 Q1517.32 139.289 1515.17 141.303 Q1513.04 143.317 1512.72 146.974 L1527.9 146.951 Z" fill="#000000" fill-rule="nonzero" fill-opacity="1" /><path clip-path="url(#clip820)" d="M1552.28 126.21 L1552.28 129.752 L1548.2 129.752 Q1545.91 129.752 1545.01 130.678 Q1544.13 131.604 1544.13 134.011 L1544.13 136.303 L1551.14 136.303 L1551.14 139.613 L1544.13 139.613 L1544.13 162.229 L1539.85 162.229 L1539.85 139.613 L1535.77 139.613 L1535.77 136.303 L1539.85 136.303 L1539.85 134.497 Q1539.85 130.169 1541.86 128.201 Q1543.87 126.21 1548.25 126.21 L1552.28 126.21 Z" fill="#000000" fill-rule="nonzero" fill-opacity="1" /><path clip-path="url(#clip820)" d="M1570.87 140.284 Q1570.15 139.868 1569.29 139.682 Q1568.46 139.474 1567.44 139.474 Q1563.83 139.474 1561.88 141.835 Q1559.96 144.173 1559.96 148.571 L1559.96 162.229 L1555.68 162.229 L1555.68 136.303 L1559.96 136.303 L1559.96 140.331 Q1561.31 137.969 1563.46 136.835 Q1565.61 135.678 1568.69 135.678 Q1569.13 135.678 1569.66 135.747 Q1570.19 135.794 1570.84 135.909 L1570.87 140.284 Z" fill="#000000" fill-rule="nonzero" fill-opacity="1" /><path clip-path="url(#clip820)" d="M1596.47 148.201 L1596.47 150.284 L1576.88 150.284 Q1577.16 154.682 1579.52 156.997 Q1581.91 159.289 1586.14 159.289 Q1588.6 159.289 1590.89 158.687 Q1593.2 158.085 1595.47 156.881 L1595.47 160.909 Q1593.18 161.881 1590.77 162.391 Q1588.37 162.9 1585.89 162.9 Q1579.68 162.9 1576.05 159.289 Q1572.44 155.678 1572.44 149.52 Q1572.44 143.155 1575.87 139.428 Q1579.31 135.678 1585.15 135.678 Q1590.38 135.678 1593.41 139.057 Q1596.47 142.414 1596.47 148.201 M1592.21 146.951 Q1592.16 143.456 1590.24 141.372 Q1588.34 139.289 1585.19 139.289 Q1581.63 139.289 1579.48 141.303 Q1577.35 143.317 1577.02 146.974 L1592.21 146.951 Z" fill="#000000" fill-rule="nonzero" fill-opacity="1" /><path clip-path="url(#clip820)" d="M1619.99 137.067 L1619.99 141.094 Q1618.18 140.169 1616.24 139.706 Q1614.29 139.243 1612.21 139.243 Q1609.04 139.243 1607.44 140.215 Q1605.87 141.187 1605.87 143.131 Q1605.87 144.613 1607 145.469 Q1608.13 146.303 1611.56 147.067 L1613.02 147.391 Q1617.56 148.363 1619.45 150.145 Q1621.37 151.905 1621.37 155.076 Q1621.37 158.687 1618.5 160.793 Q1615.66 162.9 1610.66 162.9 Q1608.57 162.9 1606.31 162.483 Q1604.06 162.09 1601.56 161.28 L1601.56 156.881 Q1603.92 158.108 1606.21 158.733 Q1608.5 159.335 1610.75 159.335 Q1613.76 159.335 1615.38 158.317 Q1617 157.275 1617 155.4 Q1617 153.664 1615.82 152.738 Q1614.66 151.812 1610.7 150.956 L1609.22 150.608 Q1605.26 149.775 1603.5 148.062 Q1601.74 146.326 1601.74 143.317 Q1601.74 139.659 1604.34 137.669 Q1606.93 135.678 1611.7 135.678 Q1614.06 135.678 1616.14 136.025 Q1618.23 136.372 1619.99 137.067 Z" fill="#000000" fill-rule="nonzero" fill-opacity="1" /><path clip-path="url(#clip820)" d="M1649.71 146.581 L1649.71 162.229 L1645.45 162.229 L1645.45 146.719 Q1645.45 143.039 1644.01 141.21 Q1642.58 139.382 1639.71 139.382 Q1636.26 139.382 1634.27 141.581 Q1632.28 143.78 1632.28 147.576 L1632.28 162.229 L1627.99 162.229 L1627.99 126.21 L1632.28 126.21 L1632.28 140.331 Q1633.8 137.993 1635.87 136.835 Q1637.95 135.678 1640.66 135.678 Q1645.12 135.678 1647.42 138.456 Q1649.71 141.21 1649.71 146.581 Z" fill="#000000" fill-rule="nonzero" fill-opacity="1" /><path clip-path="url(#clip820)" d="M1678.39 141.28 Q1679.99 138.409 1682.21 137.044 Q1684.43 135.678 1687.44 135.678 Q1691.49 135.678 1693.69 138.525 Q1695.89 141.349 1695.89 146.581 L1695.89 162.229 L1691.61 162.229 L1691.61 146.719 Q1691.61 142.993 1690.29 141.187 Q1688.97 139.382 1686.26 139.382 Q1682.95 139.382 1681.03 141.581 Q1679.11 143.78 1679.11 147.576 L1679.11 162.229 L1674.82 162.229 L1674.82 146.719 Q1674.82 142.969 1673.5 141.187 Q1672.18 139.382 1669.43 139.382 Q1666.17 139.382 1664.24 141.604 Q1662.32 143.803 1662.32 147.576 L1662.32 162.229 L1658.04 162.229 L1658.04 136.303 L1662.32 136.303 L1662.32 140.331 Q1663.78 137.946 1665.82 136.812 Q1667.86 135.678 1670.66 135.678 Q1673.48 135.678 1675.45 137.113 Q1677.44 138.548 1678.39 141.28 Z" fill="#000000" fill-rule="nonzero" fill-opacity="1" /><path clip-path="url(#clip820)" d="M1726.56 148.201 L1726.56 150.284 L1706.98 150.284 Q1707.25 154.682 1709.61 156.997 Q1712 159.289 1716.24 159.289 Q1718.69 159.289 1720.98 158.687 Q1723.3 158.085 1725.56 156.881 L1725.56 160.909 Q1723.27 161.881 1720.86 162.391 Q1718.46 162.9 1715.98 162.9 Q1709.78 162.9 1706.14 159.289 Q1702.53 155.678 1702.53 149.52 Q1702.53 143.155 1705.96 139.428 Q1709.41 135.678 1715.24 135.678 Q1720.47 135.678 1723.5 139.057 Q1726.56 142.414 1726.56 148.201 M1722.3 146.951 Q1722.25 143.456 1720.33 141.372 Q1718.43 139.289 1715.29 139.289 Q1711.72 139.289 1709.57 141.303 Q1707.44 143.317 1707.11 146.974 L1722.3 146.951 Z" fill="#000000" fill-rule="nonzero" fill-opacity="1" /><path clip-path="url(#clip820)" d="M1755.1 146.581 L1755.1 162.229 L1750.84 162.229 L1750.84 146.719 Q1750.84 143.039 1749.41 141.21 Q1747.97 139.382 1745.1 139.382 Q1741.65 139.382 1739.66 141.581 Q1737.67 143.78 1737.67 147.576 L1737.67 162.229 L1733.39 162.229 L1733.39 136.303 L1737.67 136.303 L1737.67 140.331 Q1739.2 137.993 1741.26 136.835 Q1743.34 135.678 1746.05 135.678 Q1750.52 135.678 1752.81 138.456 Q1755.1 141.21 1755.1 146.581 Z" fill="#000000" fill-rule="nonzero" fill-opacity="1" /><path clip-path="url(#clip820)" d="M1767.81 128.942 L1767.81 136.303 L1776.58 136.303 L1776.58 139.613 L1767.81 139.613 L1767.81 153.687 Q1767.81 156.858 1768.67 157.761 Q1769.55 158.664 1772.21 158.664 L1776.58 158.664 L1776.58 162.229 L1772.21 162.229 Q1767.28 162.229 1765.4 160.4 Q1763.53 158.548 1763.53 153.687 L1763.53 139.613 L1760.4 139.613 L1760.4 136.303 L1763.53 136.303 L1763.53 128.942 L1767.81 128.942 Z" fill="#000000" fill-rule="nonzero" fill-opacity="1" /><path clip-path="url(#clip820)" d="M1812.28 140.284 Q1811.56 139.868 1810.7 139.682 Q1809.87 139.474 1808.85 139.474 Q1805.24 139.474 1803.29 141.835 Q1801.37 144.173 1801.37 148.571 L1801.37 162.229 L1797.09 162.229 L1797.09 136.303 L1801.37 136.303 L1801.37 140.331 Q1802.72 137.969 1804.87 136.835 Q1807.02 135.678 1810.1 135.678 Q1810.54 135.678 1811.07 135.747 Q1811.6 135.794 1812.25 135.909 L1812.28 140.284 Z" fill="#000000" fill-rule="nonzero" fill-opacity="1" /><path clip-path="url(#clip820)" d="M1828.53 149.196 Q1823.36 149.196 1821.37 150.377 Q1819.38 151.557 1819.38 154.405 Q1819.38 156.673 1820.86 158.016 Q1822.37 159.335 1824.94 159.335 Q1828.48 159.335 1830.61 156.835 Q1832.76 154.312 1832.76 150.145 L1832.76 149.196 L1828.53 149.196 M1837.02 147.437 L1837.02 162.229 L1832.76 162.229 L1832.76 158.293 Q1831.3 160.655 1829.13 161.789 Q1826.95 162.9 1823.8 162.9 Q1819.82 162.9 1817.46 160.678 Q1815.12 158.432 1815.12 154.682 Q1815.12 150.307 1818.04 148.085 Q1820.98 145.863 1826.79 145.863 L1832.76 145.863 L1832.76 145.446 Q1832.76 142.507 1830.82 140.909 Q1828.9 139.289 1825.4 139.289 Q1823.18 139.289 1821.07 139.821 Q1818.97 140.354 1817.02 141.419 L1817.02 137.483 Q1819.36 136.581 1821.56 136.141 Q1823.76 135.678 1825.84 135.678 Q1831.47 135.678 1834.24 138.594 Q1837.02 141.511 1837.02 147.437 Z" fill="#000000" fill-rule="nonzero" fill-opacity="1" /><path clip-path="url(#clip820)" d="M1850.01 128.942 L1850.01 136.303 L1858.78 136.303 L1858.78 139.613 L1850.01 139.613 L1850.01 153.687 Q1850.01 156.858 1850.86 157.761 Q1851.74 158.664 1854.41 158.664 L1858.78 158.664 L1858.78 162.229 L1854.41 162.229 Q1849.48 162.229 1847.6 160.4 Q1845.73 158.548 1845.73 153.687 L1845.73 139.613 L1842.6 139.613 L1842.6 136.303 L1845.73 136.303 L1845.73 128.942 L1850.01 128.942 Z" fill="#000000" fill-rule="nonzero" fill-opacity="1" /><path clip-path="url(#clip820)" d="M1886.56 148.201 L1886.56 150.284 L1866.98 150.284 Q1867.25 154.682 1869.61 156.997 Q1872 159.289 1876.23 159.289 Q1878.69 159.289 1880.98 158.687 Q1883.29 158.085 1885.56 156.881 L1885.56 160.909 Q1883.27 161.881 1880.86 162.391 Q1878.46 162.9 1875.98 162.9 Q1869.78 162.9 1866.14 159.289 Q1862.53 155.678 1862.53 149.52 Q1862.53 143.155 1865.96 139.428 Q1869.41 135.678 1875.24 135.678 Q1880.47 135.678 1883.5 139.057 Q1886.56 142.414 1886.56 148.201 M1882.3 146.951 Q1882.25 143.456 1880.33 141.372 Q1878.43 139.289 1875.29 139.289 Q1871.72 139.289 1869.57 141.303 Q1867.44 143.317 1867.11 146.974 L1882.3 146.951 Z" fill="#000000" fill-rule="nonzero" fill-opacity="1" /></svg>
