<?xml version="1.0" encoding="utf-8"?>
<svg xmlns="http://www.w3.org/2000/svg" xmlns:xlink="http://www.w3.org/1999/xlink" width="600" height="400" viewBox="0 0 2400 1600">
<defs>
  <clipPath id="clip790">
    <rect x="0" y="0" width="2400" height="1600"/>
  </clipPath>
</defs>
<path clip-path="url(#clip790)" d="M0 1600 L2400 1600 L2400 0 L0 0  Z" fill="#ffffff" fill-rule="evenodd" fill-opacity="1"/>
<defs>
  <clipPath id="clip791">
    <rect x="480" y="0" width="1681" height="1600"/>
  </clipPath>
</defs>
<path clip-path="url(#clip790)" d="M186.274 1423.18 L1167.59 1423.18 L1167.59 47.2441 L186.274 47.2441  Z" fill="#ffffff" fill-rule="evenodd" fill-opacity="1"/>
<defs>
  <clipPath id="clip792">
    <rect x="186" y="47" width="982" height="1377"/>
  </clipPath>
</defs>
<polyline clip-path="url(#clip792)" style="stroke:#000000; stroke-linecap:round; stroke-linejoin:round; stroke-width:2; stroke-opacity:0.1; fill:none" points="199.115,1423.18 199.115,47.2441 "/>
<polyline clip-path="url(#clip792)" style="stroke:#000000; stroke-linecap:round; stroke-linejoin:round; stroke-width:2; stroke-opacity:0.1; fill:none" points="348.434,1423.18 348.434,47.2441 "/>
<polyline clip-path="url(#clip792)" style="stroke:#000000; stroke-linecap:round; stroke-linejoin:round; stroke-width:2; stroke-opacity:0.1; fill:none" points="497.752,1423.18 497.752,47.2441 "/>
<polyline clip-path="url(#clip792)" style="stroke:#000000; stroke-linecap:round; stroke-linejoin:round; stroke-width:2; stroke-opacity:0.1; fill:none" points="647.07,1423.18 647.07,47.2441 "/>
<polyline clip-path="url(#clip792)" style="stroke:#000000; stroke-linecap:round; stroke-linejoin:round; stroke-width:2; stroke-opacity:0.1; fill:none" points="796.389,1423.18 796.389,47.2441 "/>
<polyline clip-path="url(#clip792)" style="stroke:#000000; stroke-linecap:round; stroke-linejoin:round; stroke-width:2; stroke-opacity:0.1; fill:none" points="945.707,1423.18 945.707,47.2441 "/>
<polyline clip-path="url(#clip792)" style="stroke:#000000; stroke-linecap:round; stroke-linejoin:round; stroke-width:2; stroke-opacity:0.1; fill:none" points="1095.03,1423.18 1095.03,47.2441 "/>
<polyline clip-path="url(#clip792)" style="stroke:#000000; stroke-linecap:round; stroke-linejoin:round; stroke-width:2; stroke-opacity:0.1; fill:none" points="186.274,1282 1167.59,1282 "/>
<polyline clip-path="url(#clip792)" style="stroke:#000000; stroke-linecap:round; stroke-linejoin:round; stroke-width:2; stroke-opacity:0.1; fill:none" points="186.274,969.381 1167.59,969.381 "/>
<polyline clip-path="url(#clip792)" style="stroke:#000000; stroke-linecap:round; stroke-linejoin:round; stroke-width:2; stroke-opacity:0.1; fill:none" points="186.274,656.766 1167.59,656.766 "/>
<polyline clip-path="url(#clip792)" style="stroke:#000000; stroke-linecap:round; stroke-linejoin:round; stroke-width:2; stroke-opacity:0.1; fill:none" points="186.274,344.151 1167.59,344.151 "/>
<polyline clip-path="url(#clip790)" style="stroke:#000000; stroke-linecap:round; stroke-linejoin:round; stroke-width:4; stroke-opacity:1; fill:none" points="186.274,1423.18 1167.59,1423.18 "/>
<polyline clip-path="url(#clip790)" style="stroke:#000000; stroke-linecap:round; stroke-linejoin:round; stroke-width:4; stroke-opacity:1; fill:none" points="199.115,1423.18 199.115,1404.28 "/>
<polyline clip-path="url(#clip790)" style="stroke:#000000; stroke-linecap:round; stroke-linejoin:round; stroke-width:4; stroke-opacity:1; fill:none" points="348.434,1423.18 348.434,1404.28 "/>
<polyline clip-path="url(#clip790)" style="stroke:#000000; stroke-linecap:round; stroke-linejoin:round; stroke-width:4; stroke-opacity:1; fill:none" points="497.752,1423.18 497.752,1404.28 "/>
<polyline clip-path="url(#clip790)" style="stroke:#000000; stroke-linecap:round; stroke-linejoin:round; stroke-width:4; stroke-opacity:1; fill:none" points="647.07,1423.18 647.07,1404.28 "/>
<polyline clip-path="url(#clip790)" style="stroke:#000000; stroke-linecap:round; stroke-linejoin:round; stroke-width:4; stroke-opacity:1; fill:none" points="796.389,1423.18 796.389,1404.28 "/>
<polyline clip-path="url(#clip790)" style="stroke:#000000; stroke-linecap:round; stroke-linejoin:round; stroke-width:4; stroke-opacity:1; fill:none" points="945.707,1423.18 945.707,1404.28 "/>
<polyline clip-path="url(#clip790)" style="stroke:#000000; stroke-linecap:round; stroke-linejoin:round; stroke-width:4; stroke-opacity:1; fill:none" points="1095.03,1423.18 1095.03,1404.28 "/>
<path clip-path="url(#clip790)" d="M199.115 1454.1 Q195.504 1454.1 193.676 1457.66 Q191.87 1461.2 191.87 1468.33 Q191.87 1475.44 193.676 1479.01 Q195.504 1482.55 199.115 1482.55 Q202.75 1482.55 204.555 1479.01 Q206.384 1475.44 206.384 1468.33 Q206.384 1461.2 204.555 1457.66 Q202.75 1454.1 199.115 1454.1 M199.115 1450.39 Q204.926 1450.39 207.981 1455 Q211.06 1459.58 211.06 1468.33 Q211.06 1477.06 207.981 1481.67 Q204.926 1486.25 199.115 1486.25 Q193.305 1486.25 190.227 1481.67 Q187.171 1477.06 187.171 1468.33 Q187.171 1459.58 190.227 1455 Q193.305 1450.39 199.115 1450.39 Z" fill="#000000" fill-rule="nonzero" fill-opacity="1" /><path clip-path="url(#clip790)" d="M323.121 1481.64 L330.76 1481.64 L330.76 1455.28 L322.45 1456.95 L322.45 1452.69 L330.714 1451.02 L335.39 1451.02 L335.39 1481.64 L343.029 1481.64 L343.029 1485.58 L323.121 1485.58 L323.121 1481.64 Z" fill="#000000" fill-rule="nonzero" fill-opacity="1" /><path clip-path="url(#clip790)" d="M362.473 1454.1 Q358.862 1454.1 357.033 1457.66 Q355.228 1461.2 355.228 1468.33 Q355.228 1475.44 357.033 1479.01 Q358.862 1482.55 362.473 1482.55 Q366.107 1482.55 367.913 1479.01 Q369.741 1475.44 369.741 1468.33 Q369.741 1461.2 367.913 1457.66 Q366.107 1454.1 362.473 1454.1 M362.473 1450.39 Q368.283 1450.39 371.339 1455 Q374.417 1459.58 374.417 1468.33 Q374.417 1477.06 371.339 1481.67 Q368.283 1486.25 362.473 1486.25 Q356.663 1486.25 353.584 1481.67 Q350.529 1477.06 350.529 1468.33 Q350.529 1459.58 353.584 1455 Q356.663 1450.39 362.473 1450.39 Z" fill="#000000" fill-rule="nonzero" fill-opacity="1" /><path clip-path="url(#clip790)" d="M476.525 1481.64 L492.845 1481.64 L492.845 1485.58 L470.9 1485.58 L470.9 1481.64 Q473.562 1478.89 478.146 1474.26 Q482.752 1469.61 483.933 1468.27 Q486.178 1465.74 487.058 1464.01 Q487.96 1462.25 487.96 1460.56 Q487.96 1457.8 486.016 1456.07 Q484.095 1454.33 480.993 1454.33 Q478.794 1454.33 476.34 1455.09 Q473.909 1455.86 471.132 1457.41 L471.132 1452.69 Q473.956 1451.55 476.409 1450.97 Q478.863 1450.39 480.9 1450.39 Q486.271 1450.39 489.465 1453.08 Q492.659 1455.77 492.659 1460.26 Q492.659 1462.39 491.849 1464.31 Q491.062 1466.2 488.956 1468.8 Q488.377 1469.47 485.275 1472.69 Q482.173 1475.88 476.525 1481.64 Z" fill="#000000" fill-rule="nonzero" fill-opacity="1" /><path clip-path="url(#clip790)" d="M512.659 1454.1 Q509.048 1454.1 507.219 1457.66 Q505.414 1461.2 505.414 1468.33 Q505.414 1475.44 507.219 1479.01 Q509.048 1482.55 512.659 1482.55 Q516.294 1482.55 518.099 1479.01 Q519.928 1475.44 519.928 1468.33 Q519.928 1461.2 518.099 1457.66 Q516.294 1454.1 512.659 1454.1 M512.659 1450.39 Q518.469 1450.39 521.525 1455 Q524.604 1459.58 524.604 1468.33 Q524.604 1477.06 521.525 1481.67 Q518.469 1486.25 512.659 1486.25 Q506.849 1486.25 503.77 1481.67 Q500.715 1477.06 500.715 1468.33 Q500.715 1459.58 503.77 1455 Q506.849 1450.39 512.659 1450.39 Z" fill="#000000" fill-rule="nonzero" fill-opacity="1" /><path clip-path="url(#clip790)" d="M635.913 1466.95 Q639.269 1467.66 641.144 1469.93 Q643.042 1472.2 643.042 1475.53 Q643.042 1480.65 639.524 1483.45 Q636.005 1486.25 629.524 1486.25 Q627.348 1486.25 625.033 1485.81 Q622.742 1485.39 620.288 1484.54 L620.288 1480.02 Q622.232 1481.16 624.547 1481.74 Q626.862 1482.32 629.385 1482.32 Q633.783 1482.32 636.075 1480.58 Q638.39 1478.84 638.39 1475.53 Q638.39 1472.48 636.237 1470.77 Q634.107 1469.03 630.288 1469.03 L626.26 1469.03 L626.26 1465.19 L630.473 1465.19 Q633.922 1465.19 635.751 1463.82 Q637.58 1462.43 637.58 1459.84 Q637.58 1457.18 635.681 1455.77 Q633.806 1454.33 630.288 1454.33 Q628.367 1454.33 626.168 1454.75 Q623.969 1455.16 621.33 1456.04 L621.33 1451.88 Q623.992 1451.14 626.306 1450.77 Q628.644 1450.39 630.705 1450.39 Q636.029 1450.39 639.13 1452.83 Q642.232 1455.23 642.232 1459.35 Q642.232 1462.22 640.589 1464.21 Q638.945 1466.18 635.913 1466.95 Z" fill="#000000" fill-rule="nonzero" fill-opacity="1" /><path clip-path="url(#clip790)" d="M661.908 1454.1 Q658.297 1454.1 656.468 1457.66 Q654.663 1461.2 654.663 1468.33 Q654.663 1475.44 656.468 1479.01 Q658.297 1482.55 661.908 1482.55 Q665.542 1482.55 667.348 1479.01 Q669.177 1475.44 669.177 1468.33 Q669.177 1461.2 667.348 1457.66 Q665.542 1454.1 661.908 1454.1 M661.908 1450.39 Q667.718 1450.39 670.774 1455 Q673.853 1459.58 673.853 1468.33 Q673.853 1477.06 670.774 1481.67 Q667.718 1486.25 661.908 1486.25 Q656.098 1486.25 653.019 1481.67 Q649.964 1477.06 649.964 1468.33 Q649.964 1459.58 653.019 1455 Q656.098 1450.39 661.908 1450.39 Z" fill="#000000" fill-rule="nonzero" fill-opacity="1" /><path clip-path="url(#clip790)" d="M784.56 1455.09 L772.754 1473.54 L784.56 1473.54 L784.56 1455.09 M783.333 1451.02 L789.213 1451.02 L789.213 1473.54 L794.143 1473.54 L794.143 1477.43 L789.213 1477.43 L789.213 1485.58 L784.56 1485.58 L784.56 1477.43 L768.958 1477.43 L768.958 1472.92 L783.333 1451.02 Z" fill="#000000" fill-rule="nonzero" fill-opacity="1" /><path clip-path="url(#clip790)" d="M811.875 1454.1 Q808.263 1454.1 806.435 1457.66 Q804.629 1461.2 804.629 1468.33 Q804.629 1475.44 806.435 1479.01 Q808.263 1482.55 811.875 1482.55 Q815.509 1482.55 817.314 1479.01 Q819.143 1475.44 819.143 1468.33 Q819.143 1461.2 817.314 1457.66 Q815.509 1454.1 811.875 1454.1 M811.875 1450.39 Q817.685 1450.39 820.74 1455 Q823.819 1459.58 823.819 1468.33 Q823.819 1477.06 820.74 1481.67 Q817.685 1486.25 811.875 1486.25 Q806.064 1486.25 802.986 1481.67 Q799.93 1477.06 799.93 1468.33 Q799.93 1459.58 802.986 1455 Q806.064 1450.39 811.875 1450.39 Z" fill="#000000" fill-rule="nonzero" fill-opacity="1" /><path clip-path="url(#clip790)" d="M920.406 1451.02 L938.762 1451.02 L938.762 1454.96 L924.688 1454.96 L924.688 1463.43 Q925.707 1463.08 926.725 1462.92 Q927.744 1462.73 928.762 1462.73 Q934.549 1462.73 937.929 1465.9 Q941.309 1469.08 941.309 1474.49 Q941.309 1480.07 937.836 1483.17 Q934.364 1486.25 928.045 1486.25 Q925.869 1486.25 923.6 1485.88 Q921.355 1485.51 918.948 1484.77 L918.948 1480.07 Q921.031 1481.2 923.253 1481.76 Q925.475 1482.32 927.952 1482.32 Q931.957 1482.32 934.295 1480.21 Q936.633 1478.1 936.633 1474.49 Q936.633 1470.88 934.295 1468.77 Q931.957 1466.67 927.952 1466.67 Q926.077 1466.67 924.202 1467.08 Q922.35 1467.5 920.406 1468.38 L920.406 1451.02 Z" fill="#000000" fill-rule="nonzero" fill-opacity="1" /><path clip-path="url(#clip790)" d="M960.522 1454.1 Q956.91 1454.1 955.082 1457.66 Q953.276 1461.2 953.276 1468.33 Q953.276 1475.44 955.082 1479.01 Q956.91 1482.55 960.522 1482.55 Q964.156 1482.55 965.961 1479.01 Q967.79 1475.44 967.79 1468.33 Q967.79 1461.2 965.961 1457.66 Q964.156 1454.1 960.522 1454.1 M960.522 1450.39 Q966.332 1450.39 969.387 1455 Q972.466 1459.58 972.466 1468.33 Q972.466 1477.06 969.387 1481.67 Q966.332 1486.25 960.522 1486.25 Q954.711 1486.25 951.633 1481.67 Q948.577 1477.06 948.577 1468.33 Q948.577 1459.58 951.633 1455 Q954.711 1450.39 960.522 1450.39 Z" fill="#000000" fill-rule="nonzero" fill-opacity="1" /><path clip-path="url(#clip790)" d="M1080.43 1466.44 Q1077.28 1466.44 1075.43 1468.59 Q1073.6 1470.74 1073.6 1474.49 Q1073.6 1478.22 1075.43 1480.39 Q1077.28 1482.55 1080.43 1482.55 Q1083.58 1482.55 1085.41 1480.39 Q1087.26 1478.22 1087.26 1474.49 Q1087.26 1470.74 1085.41 1468.59 Q1083.58 1466.44 1080.43 1466.44 M1089.71 1451.78 L1089.71 1456.04 Q1087.95 1455.21 1086.15 1454.77 Q1084.37 1454.33 1082.61 1454.33 Q1077.98 1454.33 1075.52 1457.45 Q1073.09 1460.58 1072.75 1466.9 Q1074.11 1464.89 1076.17 1463.82 Q1078.23 1462.73 1080.71 1462.73 Q1085.92 1462.73 1088.93 1465.9 Q1091.96 1469.05 1091.96 1474.49 Q1091.96 1479.82 1088.81 1483.03 Q1085.66 1486.25 1080.43 1486.25 Q1074.43 1486.25 1071.26 1481.67 Q1068.09 1477.06 1068.09 1468.33 Q1068.09 1460.14 1071.98 1455.28 Q1075.87 1450.39 1082.42 1450.39 Q1084.18 1450.39 1085.96 1450.74 Q1087.77 1451.09 1089.71 1451.78 Z" fill="#000000" fill-rule="nonzero" fill-opacity="1" /><path clip-path="url(#clip790)" d="M1110.01 1454.1 Q1106.4 1454.1 1104.57 1457.66 Q1102.77 1461.2 1102.77 1468.33 Q1102.77 1475.44 1104.57 1479.01 Q1106.4 1482.55 1110.01 1482.55 Q1113.65 1482.55 1115.45 1479.01 Q1117.28 1475.44 1117.28 1468.33 Q1117.28 1461.2 1115.45 1457.66 Q1113.65 1454.1 1110.01 1454.1 M1110.01 1450.39 Q1115.82 1450.39 1118.88 1455 Q1121.96 1459.58 1121.96 1468.33 Q1121.96 1477.06 1118.88 1481.67 Q1115.82 1486.25 1110.01 1486.25 Q1104.2 1486.25 1101.12 1481.67 Q1098.07 1477.06 1098.07 1468.33 Q1098.07 1459.58 1101.12 1455 Q1104.2 1450.39 1110.01 1450.39 Z" fill="#000000" fill-rule="nonzero" fill-opacity="1" /><path clip-path="url(#clip790)" d="M492.265 1522.08 L492.265 1528.35 Q488.604 1526.6 485.358 1525.74 Q482.111 1524.88 479.088 1524.88 Q473.836 1524.88 470.971 1526.92 Q468.139 1528.96 468.139 1532.71 Q468.139 1535.87 470.017 1537.49 Q471.926 1539.08 477.21 1540.07 L481.093 1540.86 Q488.286 1542.23 491.692 1545.7 Q495.129 1549.14 495.129 1554.93 Q495.129 1561.84 490.482 1565.4 Q485.867 1568.97 476.923 1568.97 Q473.55 1568.97 469.73 1568.2 Q465.943 1567.44 461.868 1565.94 L461.868 1559.32 Q465.783 1561.52 469.539 1562.63 Q473.295 1563.75 476.923 1563.75 Q482.43 1563.75 485.422 1561.58 Q488.413 1559.42 488.413 1555.41 Q488.413 1551.91 486.249 1549.93 Q484.117 1547.96 479.215 1546.97 L475.3 1546.21 Q468.107 1544.78 464.892 1541.72 Q461.678 1538.67 461.678 1533.22 Q461.678 1526.92 466.102 1523.29 Q470.558 1519.66 478.356 1519.66 Q481.698 1519.66 485.167 1520.27 Q488.636 1520.87 492.265 1522.08 Z" fill="#000000" fill-rule="nonzero" fill-opacity="1" /><path clip-path="url(#clip790)" d="M505.155 1520.52 L514.736 1520.52 L526.862 1552.86 L539.053 1520.52 L548.633 1520.52 L548.633 1568.04 L542.363 1568.04 L542.363 1526.32 L530.109 1558.91 L523.648 1558.91 L511.394 1526.32 L511.394 1568.04 L505.155 1568.04 L505.155 1520.52 Z" fill="#000000" fill-rule="nonzero" fill-opacity="1" /><path clip-path="url(#clip790)" d="M596.981 1524.18 L596.981 1530.96 Q593.734 1527.94 590.042 1526.44 Q586.382 1524.95 582.244 1524.95 Q574.096 1524.95 569.767 1529.95 Q565.439 1534.91 565.439 1544.33 Q565.439 1553.72 569.767 1558.72 Q574.096 1563.68 582.244 1563.68 Q586.382 1563.68 590.042 1562.19 Q593.734 1560.69 596.981 1557.67 L596.981 1564.38 Q593.607 1566.68 589.819 1567.82 Q586.063 1568.97 581.862 1568.97 Q571.072 1568.97 564.866 1562.38 Q558.659 1555.76 558.659 1544.33 Q558.659 1532.87 564.866 1526.28 Q571.072 1519.66 581.862 1519.66 Q586.127 1519.66 589.883 1520.81 Q593.67 1521.92 596.981 1524.18 Z" fill="#000000" fill-rule="nonzero" fill-opacity="1" /><path clip-path="url(#clip790)" d="M627.631 1520.52 L634.061 1520.52 L634.061 1568.04 L627.631 1568.04 L627.631 1520.52 Z" fill="#000000" fill-rule="nonzero" fill-opacity="1" /><path clip-path="url(#clip790)" d="M652.394 1522.27 L652.394 1532.4 L664.457 1532.4 L664.457 1536.95 L652.394 1536.95 L652.394 1556.3 Q652.394 1560.66 653.572 1561.9 Q654.781 1563.14 658.442 1563.14 L664.457 1563.14 L664.457 1568.04 L658.442 1568.04 Q651.662 1568.04 649.084 1565.53 Q646.506 1562.98 646.506 1556.3 L646.506 1536.95 L642.209 1536.95 L642.209 1532.4 L646.506 1532.4 L646.506 1522.27 L652.394 1522.27 Z" fill="#000000" fill-rule="nonzero" fill-opacity="1" /><path clip-path="url(#clip790)" d="M702.651 1548.76 L702.651 1551.62 L675.724 1551.62 Q676.106 1557.67 679.353 1560.85 Q682.631 1564 688.456 1564 Q691.83 1564 694.981 1563.17 Q698.164 1562.35 701.283 1560.69 L701.283 1566.23 Q698.132 1567.57 694.822 1568.27 Q691.511 1568.97 688.106 1568.97 Q679.576 1568.97 674.579 1564 Q669.613 1559.04 669.613 1550.57 Q669.613 1541.82 674.324 1536.69 Q679.066 1531.54 687.087 1531.54 Q694.28 1531.54 698.45 1536.18 Q702.651 1540.8 702.651 1548.76 M696.795 1547.04 Q696.731 1542.23 694.089 1539.37 Q691.48 1536.5 687.151 1536.5 Q682.249 1536.5 679.289 1539.27 Q676.361 1542.04 675.915 1547.07 L696.795 1547.04 Z" fill="#000000" fill-rule="nonzero" fill-opacity="1" /><path clip-path="url(#clip790)" d="M732.92 1537.87 Q731.934 1537.3 730.756 1537.04 Q729.61 1536.76 728.21 1536.76 Q723.244 1536.76 720.571 1540 Q717.929 1543.22 717.929 1549.27 L717.929 1568.04 L712.041 1568.04 L712.041 1532.4 L717.929 1532.4 L717.929 1537.93 Q719.775 1534.69 722.735 1533.13 Q725.695 1531.54 729.928 1531.54 Q730.533 1531.54 731.265 1531.63 Q731.997 1531.7 732.888 1531.85 L732.92 1537.87 Z" fill="#000000" fill-rule="nonzero" fill-opacity="1" /><path clip-path="url(#clip790)" d="M755.264 1550.12 Q748.166 1550.12 745.429 1551.75 Q742.692 1553.37 742.692 1557.29 Q742.692 1560.4 744.729 1562.25 Q746.798 1564.07 750.33 1564.07 Q755.2 1564.07 758.128 1560.63 Q761.089 1557.16 761.089 1551.43 L761.089 1550.12 L755.264 1550.12 M766.945 1547.71 L766.945 1568.04 L761.089 1568.04 L761.089 1562.63 Q759.083 1565.88 756.091 1567.44 Q753.1 1568.97 748.771 1568.97 Q743.296 1568.97 740.05 1565.91 Q736.835 1562.82 736.835 1557.67 Q736.835 1551.65 740.846 1548.6 Q744.888 1545.54 752.877 1545.54 L761.089 1545.54 L761.089 1544.97 Q761.089 1540.93 758.415 1538.73 Q755.773 1536.5 750.967 1536.5 Q747.912 1536.5 745.015 1537.23 Q742.119 1537.97 739.445 1539.43 L739.445 1534.02 Q742.66 1532.78 745.684 1532.17 Q748.707 1531.54 751.572 1531.54 Q759.306 1531.54 763.126 1535.55 Q766.945 1539.56 766.945 1547.71 Z" fill="#000000" fill-rule="nonzero" fill-opacity="1" /><path clip-path="url(#clip790)" d="M784.801 1522.27 L784.801 1532.4 L796.864 1532.4 L796.864 1536.95 L784.801 1536.95 L784.801 1556.3 Q784.801 1560.66 785.978 1561.9 Q787.188 1563.14 790.848 1563.14 L796.864 1563.14 L796.864 1568.04 L790.848 1568.04 Q784.069 1568.04 781.491 1565.53 Q778.913 1562.98 778.913 1556.3 L778.913 1536.95 L774.616 1536.95 L774.616 1532.4 L778.913 1532.4 L778.913 1522.27 L784.801 1522.27 Z" fill="#000000" fill-rule="nonzero" fill-opacity="1" /><path clip-path="url(#clip790)" d="M804.566 1532.4 L810.423 1532.4 L810.423 1568.04 L804.566 1568.04 L804.566 1532.4 M804.566 1518.52 L810.423 1518.52 L810.423 1525.93 L804.566 1525.93 L804.566 1518.52 Z" fill="#000000" fill-rule="nonzero" fill-opacity="1" /><path clip-path="url(#clip790)" d="M836.49 1536.5 Q831.78 1536.5 829.042 1540.19 Q826.305 1543.85 826.305 1550.25 Q826.305 1556.65 829.011 1560.34 Q831.748 1564 836.49 1564 Q841.169 1564 843.906 1560.31 Q846.644 1556.62 846.644 1550.25 Q846.644 1543.92 843.906 1540.23 Q841.169 1536.5 836.49 1536.5 M836.49 1531.54 Q844.129 1531.54 848.49 1536.5 Q852.85 1541.47 852.85 1550.25 Q852.85 1559 848.49 1564 Q844.129 1568.97 836.49 1568.97 Q828.82 1568.97 824.459 1564 Q820.13 1559 820.13 1550.25 Q820.13 1541.47 824.459 1536.5 Q828.82 1531.54 836.49 1531.54 Z" fill="#000000" fill-rule="nonzero" fill-opacity="1" /><path clip-path="url(#clip790)" d="M892.19 1546.53 L892.19 1568.04 L886.334 1568.04 L886.334 1546.72 Q886.334 1541.66 884.36 1539.14 Q882.387 1536.63 878.44 1536.63 Q873.698 1536.63 870.961 1539.65 Q868.223 1542.68 868.223 1547.9 L868.223 1568.04 L862.335 1568.04 L862.335 1532.4 L868.223 1532.4 L868.223 1537.93 Q870.324 1534.72 873.157 1533.13 Q876.021 1531.54 879.745 1531.54 Q885.888 1531.54 889.039 1535.36 Q892.19 1539.14 892.19 1546.53 Z" fill="#000000" fill-rule="nonzero" fill-opacity="1" /><polyline clip-path="url(#clip790)" style="stroke:#000000; stroke-linecap:round; stroke-linejoin:round; stroke-width:4; stroke-opacity:1; fill:none" points="186.274,1423.18 186.274,47.2441 "/>
<polyline clip-path="url(#clip790)" style="stroke:#000000; stroke-linecap:round; stroke-linejoin:round; stroke-width:4; stroke-opacity:1; fill:none" points="186.274,1282 205.172,1282 "/>
<polyline clip-path="url(#clip790)" style="stroke:#000000; stroke-linecap:round; stroke-linejoin:round; stroke-width:4; stroke-opacity:1; fill:none" points="186.274,969.381 205.172,969.381 "/>
<polyline clip-path="url(#clip790)" style="stroke:#000000; stroke-linecap:round; stroke-linejoin:round; stroke-width:4; stroke-opacity:1; fill:none" points="186.274,656.766 205.172,656.766 "/>
<polyline clip-path="url(#clip790)" style="stroke:#000000; stroke-linecap:round; stroke-linejoin:round; stroke-width:4; stroke-opacity:1; fill:none" points="186.274,344.151 205.172,344.151 "/>
<path clip-path="url(#clip790)" d="M63.9319 1267.79 Q60.3208 1267.79 58.4921 1271.36 Q56.6865 1274.9 56.6865 1282.03 Q56.6865 1289.14 58.4921 1292.7 Q60.3208 1296.24 63.9319 1296.24 Q67.5661 1296.24 69.3717 1292.7 Q71.2004 1289.14 71.2004 1282.03 Q71.2004 1274.9 69.3717 1271.36 Q67.5661 1267.79 63.9319 1267.79 M63.9319 1264.09 Q69.742 1264.09 72.7976 1268.7 Q75.8763 1273.28 75.8763 1282.03 Q75.8763 1290.76 72.7976 1295.36 Q69.742 1299.95 63.9319 1299.95 Q58.1217 1299.95 55.043 1295.36 Q51.9875 1290.76 51.9875 1282.03 Q51.9875 1273.28 55.043 1268.7 Q58.1217 1264.09 63.9319 1264.09 Z" fill="#000000" fill-rule="nonzero" fill-opacity="1" /><path clip-path="url(#clip790)" d="M84.0938 1293.4 L88.978 1293.4 L88.978 1299.28 L84.0938 1299.28 L84.0938 1293.4 Z" fill="#000000" fill-rule="nonzero" fill-opacity="1" /><path clip-path="url(#clip790)" d="M109.163 1267.79 Q105.552 1267.79 103.723 1271.36 Q101.918 1274.9 101.918 1282.03 Q101.918 1289.14 103.723 1292.7 Q105.552 1296.24 109.163 1296.24 Q112.797 1296.24 114.603 1292.7 Q116.432 1289.14 116.432 1282.03 Q116.432 1274.9 114.603 1271.36 Q112.797 1267.79 109.163 1267.79 M109.163 1264.09 Q114.973 1264.09 118.029 1268.7 Q121.107 1273.28 121.107 1282.03 Q121.107 1290.76 118.029 1295.36 Q114.973 1299.95 109.163 1299.95 Q103.353 1299.95 100.274 1295.36 Q97.2187 1290.76 97.2187 1282.03 Q97.2187 1273.28 100.274 1268.7 Q103.353 1264.09 109.163 1264.09 Z" fill="#000000" fill-rule="nonzero" fill-opacity="1" /><path clip-path="url(#clip790)" d="M129.371 1264.72 L147.728 1264.72 L147.728 1268.65 L133.654 1268.65 L133.654 1277.12 Q134.672 1276.78 135.691 1276.61 Q136.709 1276.43 137.728 1276.43 Q143.515 1276.43 146.894 1279.6 Q150.274 1282.77 150.274 1288.19 Q150.274 1293.77 146.802 1296.87 Q143.33 1299.95 137.01 1299.95 Q134.834 1299.95 132.566 1299.58 Q130.32 1299.21 127.913 1298.47 L127.913 1293.77 Q129.996 1294.9 132.219 1295.46 Q134.441 1296.01 136.918 1296.01 Q140.922 1296.01 143.26 1293.9 Q145.598 1291.8 145.598 1288.19 Q145.598 1284.58 143.26 1282.47 Q140.922 1280.36 136.918 1280.36 Q135.043 1280.36 133.168 1280.78 Q131.316 1281.2 129.371 1282.08 L129.371 1264.72 Z" fill="#000000" fill-rule="nonzero" fill-opacity="1" /><path clip-path="url(#clip790)" d="M62.9365 955.179 Q59.3254 955.179 57.4967 958.744 Q55.6912 962.286 55.6912 969.415 Q55.6912 976.522 57.4967 980.087 Q59.3254 983.628 62.9365 983.628 Q66.5707 983.628 68.3763 980.087 Q70.205 976.522 70.205 969.415 Q70.205 962.286 68.3763 958.744 Q66.5707 955.179 62.9365 955.179 M62.9365 951.476 Q68.7467 951.476 71.8022 956.082 Q74.8809 960.665 74.8809 969.415 Q74.8809 978.142 71.8022 982.749 Q68.7467 987.332 62.9365 987.332 Q57.1264 987.332 54.0477 982.749 Q50.9921 978.142 50.9921 969.415 Q50.9921 960.665 54.0477 956.082 Q57.1264 951.476 62.9365 951.476 Z" fill="#000000" fill-rule="nonzero" fill-opacity="1" /><path clip-path="url(#clip790)" d="M83.0984 980.781 L87.9827 980.781 L87.9827 986.661 L83.0984 986.661 L83.0984 980.781 Z" fill="#000000" fill-rule="nonzero" fill-opacity="1" /><path clip-path="url(#clip790)" d="M98.978 982.725 L106.617 982.725 L106.617 956.36 L98.3067 958.026 L98.3067 953.767 L106.571 952.101 L111.246 952.101 L111.246 982.725 L118.885 982.725 L118.885 986.661 L98.978 986.661 L98.978 982.725 Z" fill="#000000" fill-rule="nonzero" fill-opacity="1" /><path clip-path="url(#clip790)" d="M138.33 955.179 Q134.719 955.179 132.89 958.744 Q131.084 962.286 131.084 969.415 Q131.084 976.522 132.89 980.087 Q134.719 983.628 138.33 983.628 Q141.964 983.628 143.769 980.087 Q145.598 976.522 145.598 969.415 Q145.598 962.286 143.769 958.744 Q141.964 955.179 138.33 955.179 M138.33 951.476 Q144.14 951.476 147.195 956.082 Q150.274 960.665 150.274 969.415 Q150.274 978.142 147.195 982.749 Q144.14 987.332 138.33 987.332 Q132.519 987.332 129.441 982.749 Q126.385 978.142 126.385 969.415 Q126.385 960.665 129.441 956.082 Q132.519 951.476 138.33 951.476 Z" fill="#000000" fill-rule="nonzero" fill-opacity="1" /><path clip-path="url(#clip790)" d="M63.9319 642.565 Q60.3208 642.565 58.4921 646.129 Q56.6865 649.671 56.6865 656.801 Q56.6865 663.907 58.4921 667.472 Q60.3208 671.014 63.9319 671.014 Q67.5661 671.014 69.3717 667.472 Q71.2004 663.907 71.2004 656.801 Q71.2004 649.671 69.3717 646.129 Q67.5661 642.565 63.9319 642.565 M63.9319 638.861 Q69.742 638.861 72.7976 643.467 Q75.8763 648.051 75.8763 656.801 Q75.8763 665.527 72.7976 670.134 Q69.742 674.717 63.9319 674.717 Q58.1217 674.717 55.043 670.134 Q51.9875 665.527 51.9875 656.801 Q51.9875 648.051 55.043 643.467 Q58.1217 638.861 63.9319 638.861 Z" fill="#000000" fill-rule="nonzero" fill-opacity="1" /><path clip-path="url(#clip790)" d="M84.0938 668.166 L88.978 668.166 L88.978 674.046 L84.0938 674.046 L84.0938 668.166 Z" fill="#000000" fill-rule="nonzero" fill-opacity="1" /><path clip-path="url(#clip790)" d="M99.9733 670.111 L107.612 670.111 L107.612 643.745 L99.3021 645.412 L99.3021 641.153 L107.566 639.486 L112.242 639.486 L112.242 670.111 L119.881 670.111 L119.881 674.046 L99.9733 674.046 L99.9733 670.111 Z" fill="#000000" fill-rule="nonzero" fill-opacity="1" /><path clip-path="url(#clip790)" d="M129.371 639.486 L147.728 639.486 L147.728 643.421 L133.654 643.421 L133.654 651.893 Q134.672 651.546 135.691 651.384 Q136.709 651.199 137.728 651.199 Q143.515 651.199 146.894 654.37 Q150.274 657.541 150.274 662.958 Q150.274 668.537 146.802 671.639 Q143.33 674.717 137.01 674.717 Q134.834 674.717 132.566 674.347 Q130.32 673.977 127.913 673.236 L127.913 668.537 Q129.996 669.671 132.219 670.227 Q134.441 670.782 136.918 670.782 Q140.922 670.782 143.26 668.676 Q145.598 666.569 145.598 662.958 Q145.598 659.347 143.26 657.24 Q140.922 655.134 136.918 655.134 Q135.043 655.134 133.168 655.551 Q131.316 655.967 129.371 656.847 L129.371 639.486 Z" fill="#000000" fill-rule="nonzero" fill-opacity="1" /><path clip-path="url(#clip790)" d="M62.9365 329.95 Q59.3254 329.95 57.4967 333.515 Q55.6912 337.056 55.6912 344.186 Q55.6912 351.292 57.4967 354.857 Q59.3254 358.399 62.9365 358.399 Q66.5707 358.399 68.3763 354.857 Q70.205 351.292 70.205 344.186 Q70.205 337.056 68.3763 333.515 Q66.5707 329.95 62.9365 329.95 M62.9365 326.246 Q68.7467 326.246 71.8022 330.853 Q74.8809 335.436 74.8809 344.186 Q74.8809 352.913 71.8022 357.519 Q68.7467 362.103 62.9365 362.103 Q57.1264 362.103 54.0477 357.519 Q50.9921 352.913 50.9921 344.186 Q50.9921 335.436 54.0477 330.853 Q57.1264 326.246 62.9365 326.246 Z" fill="#000000" fill-rule="nonzero" fill-opacity="1" /><path clip-path="url(#clip790)" d="M83.0984 355.552 L87.9827 355.552 L87.9827 361.431 L83.0984 361.431 L83.0984 355.552 Z" fill="#000000" fill-rule="nonzero" fill-opacity="1" /><path clip-path="url(#clip790)" d="M102.196 357.496 L118.515 357.496 L118.515 361.431 L96.5706 361.431 L96.5706 357.496 Q99.2326 354.742 103.816 350.112 Q108.422 345.459 109.603 344.117 Q111.848 341.593 112.728 339.857 Q113.631 338.098 113.631 336.408 Q113.631 333.654 111.686 331.918 Q109.765 330.181 106.663 330.181 Q104.464 330.181 102.01 330.945 Q99.5798 331.709 96.8021 333.26 L96.8021 328.538 Q99.6261 327.404 102.08 326.825 Q104.534 326.246 106.571 326.246 Q111.941 326.246 115.135 328.931 Q118.33 331.617 118.33 336.107 Q118.33 338.237 117.52 340.158 Q116.733 342.056 114.626 344.649 Q114.047 345.32 110.946 348.538 Q107.844 351.732 102.196 357.496 Z" fill="#000000" fill-rule="nonzero" fill-opacity="1" /><path clip-path="url(#clip790)" d="M138.33 329.95 Q134.719 329.95 132.89 333.515 Q131.084 337.056 131.084 344.186 Q131.084 351.292 132.89 354.857 Q134.719 358.399 138.33 358.399 Q141.964 358.399 143.769 354.857 Q145.598 351.292 145.598 344.186 Q145.598 337.056 143.769 333.515 Q141.964 329.95 138.33 329.95 M138.33 326.246 Q144.14 326.246 147.195 330.853 Q150.274 335.436 150.274 344.186 Q150.274 352.913 147.195 357.519 Q144.14 362.103 138.33 362.103 Q132.519 362.103 129.441 357.519 Q126.385 352.913 126.385 344.186 Q126.385 335.436 129.441 330.853 Q132.519 326.246 138.33 326.246 Z" fill="#000000" fill-rule="nonzero" fill-opacity="1" /><polyline clip-path="url(#clip792)" style="stroke:#009af9; stroke-linecap:round; stroke-linejoin:round; stroke-width:4; stroke-opacity:1; fill:none" points="214.047,86.1857 228.979,91.9364 243.911,91.9364 258.843,91.9364 273.775,91.9364 288.706,91.9364 303.638,91.9364 318.57,91.9364 333.502,91.9364 348.434,97.6651 363.365,103.372 378.297,103.372 393.229,103.372 408.161,109.057 423.093,128.124 438.025,146.946 452.956,152.465 467.888,166.815 482.82,183.083 497.752,197.127 512.684,215.064 527.616,239.185 542.547,243.134 557.479,246.321 572.411,263.626 587.343,289.981 602.275,306.726 617.207,329.244 632.138,342.266 647.07,354.727 662.002,385.26 676.934,424.92 691.866,465.614 706.798,488.586 721.729,496.859 736.661,613.674 751.593,698.102 766.525,922.845 781.457,985.976 796.389,1072.09 811.32,1087.53 826.252,1113.67 841.184,1144.56 856.116,1164.01 871.048,1183.99 885.979,1185.55 900.911,1205.33 915.843,1228.31 930.775,1239.13 945.707,1245.35 960.639,1273.62 975.57,1294.24 990.502,1303.12 1005.43,1311.73 1020.37,1327.25 1035.3,1339.86 1050.23,1345.04 1065.16,1347.53 1080.09,1356.92 1095.03,1365.95 1109.96,1373.45 1124.89,1377.83 1139.82,1384.24 "/>
<path clip-path="url(#clip790)" d="M984.321 196.789 L1134.88 196.789 L1134.88 93.1086 L984.321 93.1086  Z" fill="#ffffff" fill-rule="evenodd" fill-opacity="1"/>
<polyline clip-path="url(#clip790)" style="stroke:#000000; stroke-linecap:round; stroke-linejoin:round; stroke-width:4; stroke-opacity:1; fill:none" points="984.321,196.789 1134.88,196.789 1134.88,93.1086 984.321,93.1086 984.321,196.789 "/>
<polyline clip-path="url(#clip790)" style="stroke:#009af9; stroke-linecap:round; stroke-linejoin:round; stroke-width:4; stroke-opacity:1; fill:none" points="995.224,144.949 1060.65,144.949 "/>
<path clip-path="url(#clip790)" d="M1085.39 164.636 Q1083.59 169.266 1081.87 170.678 Q1080.16 172.09 1077.29 172.09 L1073.89 172.09 L1073.89 168.525 L1076.39 168.525 Q1078.15 168.525 1079.12 167.692 Q1080.09 166.858 1081.27 163.756 L1082.04 161.812 L1071.55 136.303 L1076.06 136.303 L1084.16 156.581 L1092.27 136.303 L1096.78 136.303 L1085.39 164.636 Z" fill="#000000" fill-rule="nonzero" fill-opacity="1" /><path clip-path="url(#clip790)" d="M1104.07 158.293 L1111.71 158.293 L1111.71 131.928 L1103.4 133.595 L1103.4 129.335 L1111.66 127.669 L1116.34 127.669 L1116.34 158.293 L1123.98 158.293 L1123.98 162.229 L1104.07 162.229 L1104.07 158.293 Z" fill="#000000" fill-rule="nonzero" fill-opacity="1" /><path clip-path="url(#clip790)" d="M1371.44 1423.18 L2352.76 1423.18 L2352.76 47.2441 L1371.44 47.2441  Z" fill="#ffffff" fill-rule="evenodd" fill-opacity="1"/>
<defs>
  <clipPath id="clip793">
    <rect x="1371" y="47" width="982" height="1377"/>
  </clipPath>
</defs>
<polyline clip-path="url(#clip793)" style="stroke:#000000; stroke-linecap:round; stroke-linejoin:round; stroke-width:2; stroke-opacity:0.1; fill:none" points="1384.28,1423.18 1384.28,47.2441 "/>
<polyline clip-path="url(#clip793)" style="stroke:#000000; stroke-linecap:round; stroke-linejoin:round; stroke-width:2; stroke-opacity:0.1; fill:none" points="1533.6,1423.18 1533.6,47.2441 "/>
<polyline clip-path="url(#clip793)" style="stroke:#000000; stroke-linecap:round; stroke-linejoin:round; stroke-width:2; stroke-opacity:0.1; fill:none" points="1682.91,1423.18 1682.91,47.2441 "/>
<polyline clip-path="url(#clip793)" style="stroke:#000000; stroke-linecap:round; stroke-linejoin:round; stroke-width:2; stroke-opacity:0.1; fill:none" points="1832.23,1423.18 1832.23,47.2441 "/>
<polyline clip-path="url(#clip793)" style="stroke:#000000; stroke-linecap:round; stroke-linejoin:round; stroke-width:2; stroke-opacity:0.1; fill:none" points="1981.55,1423.18 1981.55,47.2441 "/>
<polyline clip-path="url(#clip793)" style="stroke:#000000; stroke-linecap:round; stroke-linejoin:round; stroke-width:2; stroke-opacity:0.1; fill:none" points="2130.87,1423.18 2130.87,47.2441 "/>
<polyline clip-path="url(#clip793)" style="stroke:#000000; stroke-linecap:round; stroke-linejoin:round; stroke-width:2; stroke-opacity:0.1; fill:none" points="2280.19,1423.18 2280.19,47.2441 "/>
<polyline clip-path="url(#clip793)" style="stroke:#000000; stroke-linecap:round; stroke-linejoin:round; stroke-width:2; stroke-opacity:0.1; fill:none" points="1371.44,1221.98 2352.76,1221.98 "/>
<polyline clip-path="url(#clip793)" style="stroke:#000000; stroke-linecap:round; stroke-linejoin:round; stroke-width:2; stroke-opacity:0.1; fill:none" points="1371.44,897.469 2352.76,897.469 "/>
<polyline clip-path="url(#clip793)" style="stroke:#000000; stroke-linecap:round; stroke-linejoin:round; stroke-width:2; stroke-opacity:0.1; fill:none" points="1371.44,572.955 2352.76,572.955 "/>
<polyline clip-path="url(#clip793)" style="stroke:#000000; stroke-linecap:round; stroke-linejoin:round; stroke-width:2; stroke-opacity:0.1; fill:none" points="1371.44,248.442 2352.76,248.442 "/>
<polyline clip-path="url(#clip790)" style="stroke:#000000; stroke-linecap:round; stroke-linejoin:round; stroke-width:4; stroke-opacity:1; fill:none" points="1371.44,1423.18 2352.76,1423.18 "/>
<polyline clip-path="url(#clip790)" style="stroke:#000000; stroke-linecap:round; stroke-linejoin:round; stroke-width:4; stroke-opacity:1; fill:none" points="1384.28,1423.18 1384.28,1404.28 "/>
<polyline clip-path="url(#clip790)" style="stroke:#000000; stroke-linecap:round; stroke-linejoin:round; stroke-width:4; stroke-opacity:1; fill:none" points="1533.6,1423.18 1533.6,1404.28 "/>
<polyline clip-path="url(#clip790)" style="stroke:#000000; stroke-linecap:round; stroke-linejoin:round; stroke-width:4; stroke-opacity:1; fill:none" points="1682.91,1423.18 1682.91,1404.28 "/>
<polyline clip-path="url(#clip790)" style="stroke:#000000; stroke-linecap:round; stroke-linejoin:round; stroke-width:4; stroke-opacity:1; fill:none" points="1832.23,1423.18 1832.23,1404.28 "/>
<polyline clip-path="url(#clip790)" style="stroke:#000000; stroke-linecap:round; stroke-linejoin:round; stroke-width:4; stroke-opacity:1; fill:none" points="1981.55,1423.18 1981.55,1404.28 "/>
<polyline clip-path="url(#clip790)" style="stroke:#000000; stroke-linecap:round; stroke-linejoin:round; stroke-width:4; stroke-opacity:1; fill:none" points="2130.87,1423.18 2130.87,1404.28 "/>
<polyline clip-path="url(#clip790)" style="stroke:#000000; stroke-linecap:round; stroke-linejoin:round; stroke-width:4; stroke-opacity:1; fill:none" points="2280.19,1423.18 2280.19,1404.28 "/>
<path clip-path="url(#clip790)" d="M1384.28 1454.1 Q1380.67 1454.1 1378.84 1457.66 Q1377.03 1461.2 1377.03 1468.33 Q1377.03 1475.44 1378.84 1479.01 Q1380.67 1482.55 1384.28 1482.55 Q1387.91 1482.55 1389.72 1479.01 Q1391.55 1475.44 1391.55 1468.33 Q1391.55 1461.2 1389.72 1457.66 Q1387.91 1454.1 1384.28 1454.1 M1384.28 1450.39 Q1390.09 1450.39 1393.14 1455 Q1396.22 1459.58 1396.22 1468.33 Q1396.22 1477.06 1393.14 1481.67 Q1390.09 1486.25 1384.28 1486.25 Q1378.47 1486.25 1375.39 1481.67 Q1372.33 1477.06 1372.33 1468.33 Q1372.33 1459.58 1375.39 1455 Q1378.47 1450.39 1384.28 1450.39 Z" fill="#000000" fill-rule="nonzero" fill-opacity="1" /><path clip-path="url(#clip790)" d="M1508.28 1481.64 L1515.92 1481.64 L1515.92 1455.28 L1507.61 1456.95 L1507.61 1452.69 L1515.88 1451.02 L1520.55 1451.02 L1520.55 1481.64 L1528.19 1481.64 L1528.19 1485.58 L1508.28 1485.58 L1508.28 1481.64 Z" fill="#000000" fill-rule="nonzero" fill-opacity="1" /><path clip-path="url(#clip790)" d="M1547.64 1454.1 Q1544.02 1454.1 1542.2 1457.66 Q1540.39 1461.2 1540.39 1468.33 Q1540.39 1475.44 1542.2 1479.01 Q1544.02 1482.55 1547.64 1482.55 Q1551.27 1482.55 1553.07 1479.01 Q1554.9 1475.44 1554.9 1468.33 Q1554.9 1461.2 1553.07 1457.66 Q1551.27 1454.1 1547.64 1454.1 M1547.64 1450.39 Q1553.45 1450.39 1556.5 1455 Q1559.58 1459.58 1559.58 1468.33 Q1559.58 1477.06 1556.5 1481.67 Q1553.45 1486.25 1547.64 1486.25 Q1541.82 1486.25 1538.75 1481.67 Q1535.69 1477.06 1535.69 1468.33 Q1535.69 1459.58 1538.75 1455 Q1541.82 1450.39 1547.64 1450.39 Z" fill="#000000" fill-rule="nonzero" fill-opacity="1" /><path clip-path="url(#clip790)" d="M1661.69 1481.64 L1678.01 1481.64 L1678.01 1485.58 L1656.06 1485.58 L1656.06 1481.64 Q1658.72 1478.89 1663.31 1474.26 Q1667.91 1469.61 1669.09 1468.27 Q1671.34 1465.74 1672.22 1464.01 Q1673.12 1462.25 1673.12 1460.56 Q1673.12 1457.8 1671.18 1456.07 Q1669.26 1454.33 1666.15 1454.33 Q1663.96 1454.33 1661.5 1455.09 Q1659.07 1455.86 1656.29 1457.41 L1656.29 1452.69 Q1659.12 1451.55 1661.57 1450.97 Q1664.03 1450.39 1666.06 1450.39 Q1671.43 1450.39 1674.63 1453.08 Q1677.82 1455.77 1677.82 1460.26 Q1677.82 1462.39 1677.01 1464.31 Q1676.22 1466.2 1674.12 1468.8 Q1673.54 1469.47 1670.44 1472.69 Q1667.34 1475.88 1661.69 1481.64 Z" fill="#000000" fill-rule="nonzero" fill-opacity="1" /><path clip-path="url(#clip790)" d="M1697.82 1454.1 Q1694.21 1454.1 1692.38 1457.66 Q1690.58 1461.2 1690.58 1468.33 Q1690.58 1475.44 1692.38 1479.01 Q1694.21 1482.55 1697.82 1482.55 Q1701.46 1482.55 1703.26 1479.01 Q1705.09 1475.44 1705.09 1468.33 Q1705.09 1461.2 1703.26 1457.66 Q1701.46 1454.1 1697.82 1454.1 M1697.82 1450.39 Q1703.63 1450.39 1706.69 1455 Q1709.77 1459.58 1709.77 1468.33 Q1709.77 1477.06 1706.69 1481.67 Q1703.63 1486.25 1697.82 1486.25 Q1692.01 1486.25 1688.93 1481.67 Q1685.88 1477.06 1685.88 1468.33 Q1685.88 1459.58 1688.93 1455 Q1692.01 1450.39 1697.82 1450.39 Z" fill="#000000" fill-rule="nonzero" fill-opacity="1" /><path clip-path="url(#clip790)" d="M1821.08 1466.95 Q1824.43 1467.66 1826.31 1469.93 Q1828.2 1472.2 1828.2 1475.53 Q1828.2 1480.65 1824.69 1483.45 Q1821.17 1486.25 1814.69 1486.25 Q1812.51 1486.25 1810.2 1485.81 Q1807.9 1485.39 1805.45 1484.54 L1805.45 1480.02 Q1807.39 1481.16 1809.71 1481.74 Q1812.02 1482.32 1814.55 1482.32 Q1818.95 1482.32 1821.24 1480.58 Q1823.55 1478.84 1823.55 1475.53 Q1823.55 1472.48 1821.4 1470.77 Q1819.27 1469.03 1815.45 1469.03 L1811.42 1469.03 L1811.42 1465.19 L1815.64 1465.19 Q1819.08 1465.19 1820.91 1463.82 Q1822.74 1462.43 1822.74 1459.84 Q1822.74 1457.18 1820.84 1455.77 Q1818.97 1454.33 1815.45 1454.33 Q1813.53 1454.33 1811.33 1454.75 Q1809.13 1455.16 1806.49 1456.04 L1806.49 1451.88 Q1809.15 1451.14 1811.47 1450.77 Q1813.81 1450.39 1815.87 1450.39 Q1821.19 1450.39 1824.29 1452.83 Q1827.39 1455.23 1827.39 1459.35 Q1827.39 1462.22 1825.75 1464.21 Q1824.11 1466.18 1821.08 1466.95 Z" fill="#000000" fill-rule="nonzero" fill-opacity="1" /><path clip-path="url(#clip790)" d="M1847.07 1454.1 Q1843.46 1454.1 1841.63 1457.66 Q1839.82 1461.2 1839.82 1468.33 Q1839.82 1475.44 1841.63 1479.01 Q1843.46 1482.55 1847.07 1482.55 Q1850.7 1482.55 1852.51 1479.01 Q1854.34 1475.44 1854.34 1468.33 Q1854.34 1461.2 1852.51 1457.66 Q1850.7 1454.1 1847.07 1454.1 M1847.07 1450.39 Q1852.88 1450.39 1855.94 1455 Q1859.01 1459.58 1859.01 1468.33 Q1859.01 1477.06 1855.94 1481.67 Q1852.88 1486.25 1847.07 1486.25 Q1841.26 1486.25 1838.18 1481.67 Q1835.13 1477.06 1835.13 1468.33 Q1835.13 1459.58 1838.18 1455 Q1841.26 1450.39 1847.07 1450.39 Z" fill="#000000" fill-rule="nonzero" fill-opacity="1" /><path clip-path="url(#clip790)" d="M1969.72 1455.09 L1957.92 1473.54 L1969.72 1473.54 L1969.72 1455.09 M1968.5 1451.02 L1974.37 1451.02 L1974.37 1473.54 L1979.31 1473.54 L1979.31 1477.43 L1974.37 1477.43 L1974.37 1485.58 L1969.72 1485.58 L1969.72 1477.43 L1954.12 1477.43 L1954.12 1472.92 L1968.5 1451.02 Z" fill="#000000" fill-rule="nonzero" fill-opacity="1" /><path clip-path="url(#clip790)" d="M1997.04 1454.1 Q1993.43 1454.1 1991.6 1457.66 Q1989.79 1461.2 1989.79 1468.33 Q1989.79 1475.44 1991.6 1479.01 Q1993.43 1482.55 1997.04 1482.55 Q2000.67 1482.55 2002.48 1479.01 Q2004.31 1475.44 2004.31 1468.33 Q2004.31 1461.2 2002.48 1457.66 Q2000.67 1454.1 1997.04 1454.1 M1997.04 1450.39 Q2002.85 1450.39 2005.9 1455 Q2008.98 1459.58 2008.98 1468.33 Q2008.98 1477.06 2005.9 1481.67 Q2002.85 1486.25 1997.04 1486.25 Q1991.23 1486.25 1988.15 1481.67 Q1985.09 1477.06 1985.09 1468.33 Q1985.09 1459.58 1988.15 1455 Q1991.23 1450.39 1997.04 1450.39 Z" fill="#000000" fill-rule="nonzero" fill-opacity="1" /><path clip-path="url(#clip790)" d="M2105.57 1451.02 L2123.92 1451.02 L2123.92 1454.96 L2109.85 1454.96 L2109.85 1463.43 Q2110.87 1463.08 2111.89 1462.92 Q2112.91 1462.73 2113.92 1462.73 Q2119.71 1462.73 2123.09 1465.9 Q2126.47 1469.08 2126.47 1474.49 Q2126.47 1480.07 2123 1483.17 Q2119.53 1486.25 2113.21 1486.25 Q2111.03 1486.25 2108.76 1485.88 Q2106.52 1485.51 2104.11 1484.77 L2104.11 1480.07 Q2106.19 1481.2 2108.42 1481.76 Q2110.64 1482.32 2113.11 1482.32 Q2117.12 1482.32 2119.46 1480.21 Q2121.79 1478.1 2121.79 1474.49 Q2121.79 1470.88 2119.46 1468.77 Q2117.12 1466.67 2113.11 1466.67 Q2111.24 1466.67 2109.36 1467.08 Q2107.51 1467.5 2105.57 1468.38 L2105.57 1451.02 Z" fill="#000000" fill-rule="nonzero" fill-opacity="1" /><path clip-path="url(#clip790)" d="M2145.68 1454.1 Q2142.07 1454.1 2140.24 1457.66 Q2138.44 1461.2 2138.44 1468.33 Q2138.44 1475.44 2140.24 1479.01 Q2142.07 1482.55 2145.68 1482.55 Q2149.32 1482.55 2151.12 1479.01 Q2152.95 1475.44 2152.95 1468.33 Q2152.95 1461.2 2151.12 1457.66 Q2149.32 1454.1 2145.68 1454.1 M2145.68 1450.39 Q2151.49 1450.39 2154.55 1455 Q2157.63 1459.58 2157.63 1468.33 Q2157.63 1477.06 2154.55 1481.67 Q2151.49 1486.25 2145.68 1486.25 Q2139.87 1486.25 2136.79 1481.67 Q2133.74 1477.06 2133.74 1468.33 Q2133.74 1459.58 2136.79 1455 Q2139.87 1450.39 2145.68 1450.39 Z" fill="#000000" fill-rule="nonzero" fill-opacity="1" /><path clip-path="url(#clip790)" d="M2265.59 1466.44 Q2262.44 1466.44 2260.59 1468.59 Q2258.76 1470.74 2258.76 1474.49 Q2258.76 1478.22 2260.59 1480.39 Q2262.44 1482.55 2265.59 1482.55 Q2268.74 1482.55 2270.57 1480.39 Q2272.42 1478.22 2272.42 1474.49 Q2272.42 1470.74 2270.57 1468.59 Q2268.74 1466.44 2265.59 1466.44 M2274.87 1451.78 L2274.87 1456.04 Q2273.12 1455.21 2271.31 1454.77 Q2269.53 1454.33 2267.77 1454.33 Q2263.14 1454.33 2260.69 1457.45 Q2258.25 1460.58 2257.91 1466.9 Q2259.27 1464.89 2261.33 1463.82 Q2263.39 1462.73 2265.87 1462.73 Q2271.08 1462.73 2274.09 1465.9 Q2277.12 1469.05 2277.12 1474.49 Q2277.12 1479.82 2273.97 1483.03 Q2270.82 1486.25 2265.59 1486.25 Q2259.6 1486.25 2256.43 1481.67 Q2253.25 1477.06 2253.25 1468.33 Q2253.25 1460.14 2257.14 1455.28 Q2261.03 1450.39 2267.58 1450.39 Q2269.34 1450.39 2271.12 1450.74 Q2272.93 1451.09 2274.87 1451.78 Z" fill="#000000" fill-rule="nonzero" fill-opacity="1" /><path clip-path="url(#clip790)" d="M2295.18 1454.1 Q2291.56 1454.1 2289.74 1457.66 Q2287.93 1461.2 2287.93 1468.33 Q2287.93 1475.44 2289.74 1479.01 Q2291.56 1482.55 2295.18 1482.55 Q2298.81 1482.55 2300.62 1479.01 Q2302.44 1475.44 2302.44 1468.33 Q2302.44 1461.2 2300.62 1457.66 Q2298.81 1454.1 2295.18 1454.1 M2295.18 1450.39 Q2300.99 1450.39 2304.04 1455 Q2307.12 1459.58 2307.12 1468.33 Q2307.12 1477.06 2304.04 1481.67 Q2300.99 1486.25 2295.18 1486.25 Q2289.37 1486.25 2286.29 1481.67 Q2283.23 1477.06 2283.23 1468.33 Q2283.23 1459.58 2286.29 1455 Q2289.37 1450.39 2295.18 1450.39 Z" fill="#000000" fill-rule="nonzero" fill-opacity="1" /><path clip-path="url(#clip790)" d="M1677.43 1522.08 L1677.43 1528.35 Q1673.77 1526.6 1670.52 1525.74 Q1667.27 1524.88 1664.25 1524.88 Q1659 1524.88 1656.13 1526.92 Q1653.3 1528.96 1653.3 1532.71 Q1653.3 1535.87 1655.18 1537.49 Q1657.09 1539.08 1662.37 1540.07 L1666.26 1540.86 Q1673.45 1542.23 1676.85 1545.7 Q1680.29 1549.14 1680.29 1554.93 Q1680.29 1561.84 1675.64 1565.4 Q1671.03 1568.97 1662.09 1568.97 Q1658.71 1568.97 1654.89 1568.2 Q1651.1 1567.44 1647.03 1565.94 L1647.03 1559.32 Q1650.95 1561.52 1654.7 1562.63 Q1658.46 1563.75 1662.09 1563.75 Q1667.59 1563.75 1670.58 1561.58 Q1673.58 1559.42 1673.58 1555.41 Q1673.58 1551.91 1671.41 1549.93 Q1669.28 1547.96 1664.38 1546.97 L1660.46 1546.21 Q1653.27 1544.78 1650.05 1541.72 Q1646.84 1538.67 1646.84 1533.22 Q1646.84 1526.92 1651.26 1523.29 Q1655.72 1519.66 1663.52 1519.66 Q1666.86 1519.66 1670.33 1520.27 Q1673.8 1520.87 1677.43 1522.08 Z" fill="#000000" fill-rule="nonzero" fill-opacity="1" /><path clip-path="url(#clip790)" d="M1690.32 1520.52 L1699.9 1520.52 L1712.02 1552.86 L1724.21 1520.52 L1733.8 1520.52 L1733.8 1568.04 L1727.52 1568.04 L1727.52 1526.32 L1715.27 1558.91 L1708.81 1558.91 L1696.56 1526.32 L1696.56 1568.04 L1690.32 1568.04 L1690.32 1520.52 Z" fill="#000000" fill-rule="nonzero" fill-opacity="1" /><path clip-path="url(#clip790)" d="M1782.14 1524.18 L1782.14 1530.96 Q1778.9 1527.94 1775.2 1526.44 Q1771.54 1524.95 1767.41 1524.95 Q1759.26 1524.95 1754.93 1529.95 Q1750.6 1534.91 1750.6 1544.33 Q1750.6 1553.72 1754.93 1558.72 Q1759.26 1563.68 1767.41 1563.68 Q1771.54 1563.68 1775.2 1562.19 Q1778.9 1560.69 1782.14 1557.67 L1782.14 1564.38 Q1778.77 1566.68 1774.98 1567.82 Q1771.23 1568.97 1767.02 1568.97 Q1756.23 1568.97 1750.03 1562.38 Q1743.82 1555.76 1743.82 1544.33 Q1743.82 1532.87 1750.03 1526.28 Q1756.23 1519.66 1767.02 1519.66 Q1771.29 1519.66 1775.04 1520.81 Q1778.83 1521.92 1782.14 1524.18 Z" fill="#000000" fill-rule="nonzero" fill-opacity="1" /><path clip-path="url(#clip790)" d="M1812.79 1520.52 L1819.22 1520.52 L1819.22 1568.04 L1812.79 1568.04 L1812.79 1520.52 Z" fill="#000000" fill-rule="nonzero" fill-opacity="1" /><path clip-path="url(#clip790)" d="M1837.56 1522.27 L1837.56 1532.4 L1849.62 1532.4 L1849.62 1536.95 L1837.56 1536.95 L1837.56 1556.3 Q1837.56 1560.66 1838.73 1561.9 Q1839.94 1563.14 1843.6 1563.14 L1849.62 1563.14 L1849.62 1568.04 L1843.6 1568.04 Q1836.82 1568.04 1834.25 1565.53 Q1831.67 1562.98 1831.67 1556.3 L1831.67 1536.95 L1827.37 1536.95 L1827.37 1532.4 L1831.67 1532.4 L1831.67 1522.27 L1837.56 1522.27 Z" fill="#000000" fill-rule="nonzero" fill-opacity="1" /><path clip-path="url(#clip790)" d="M1887.81 1548.76 L1887.81 1551.62 L1860.89 1551.62 Q1861.27 1557.67 1864.51 1560.85 Q1867.79 1564 1873.62 1564 Q1876.99 1564 1880.14 1563.17 Q1883.33 1562.35 1886.44 1560.69 L1886.44 1566.23 Q1883.29 1567.57 1879.98 1568.27 Q1876.67 1568.97 1873.27 1568.97 Q1864.74 1568.97 1859.74 1564 Q1854.78 1559.04 1854.78 1550.57 Q1854.78 1541.82 1859.49 1536.69 Q1864.23 1531.54 1872.25 1531.54 Q1879.44 1531.54 1883.61 1536.18 Q1887.81 1540.8 1887.81 1548.76 M1881.96 1547.04 Q1881.89 1542.23 1879.25 1539.37 Q1876.64 1536.5 1872.31 1536.5 Q1867.41 1536.5 1864.45 1539.27 Q1861.52 1542.04 1861.08 1547.07 L1881.96 1547.04 Z" fill="#000000" fill-rule="nonzero" fill-opacity="1" /><path clip-path="url(#clip790)" d="M1918.08 1537.87 Q1917.1 1537.3 1915.92 1537.04 Q1914.77 1536.76 1913.37 1536.76 Q1908.41 1536.76 1905.73 1540 Q1903.09 1543.22 1903.09 1549.27 L1903.09 1568.04 L1897.2 1568.04 L1897.2 1532.4 L1903.09 1532.4 L1903.09 1537.93 Q1904.94 1534.69 1907.9 1533.13 Q1910.86 1531.54 1915.09 1531.54 Q1915.7 1531.54 1916.43 1531.63 Q1917.16 1531.7 1918.05 1531.85 L1918.08 1537.87 Z" fill="#000000" fill-rule="nonzero" fill-opacity="1" /><path clip-path="url(#clip790)" d="M1940.43 1550.12 Q1933.33 1550.12 1930.59 1551.75 Q1927.85 1553.37 1927.85 1557.29 Q1927.85 1560.4 1929.89 1562.25 Q1931.96 1564.07 1935.49 1564.07 Q1940.36 1564.07 1943.29 1560.63 Q1946.25 1557.16 1946.25 1551.43 L1946.25 1550.12 L1940.43 1550.12 M1952.11 1547.71 L1952.11 1568.04 L1946.25 1568.04 L1946.25 1562.63 Q1944.25 1565.88 1941.25 1567.44 Q1938.26 1568.97 1933.93 1568.97 Q1928.46 1568.97 1925.21 1565.91 Q1922 1562.82 1922 1557.67 Q1922 1551.65 1926.01 1548.6 Q1930.05 1545.54 1938.04 1545.54 L1946.25 1545.54 L1946.25 1544.97 Q1946.25 1540.93 1943.58 1538.73 Q1940.94 1536.5 1936.13 1536.5 Q1933.07 1536.5 1930.18 1537.23 Q1927.28 1537.97 1924.61 1539.43 L1924.61 1534.02 Q1927.82 1532.78 1930.85 1532.17 Q1933.87 1531.54 1936.73 1531.54 Q1944.47 1531.54 1948.29 1535.55 Q1952.11 1539.56 1952.11 1547.71 Z" fill="#000000" fill-rule="nonzero" fill-opacity="1" /><path clip-path="url(#clip790)" d="M1969.96 1522.27 L1969.96 1532.4 L1982.03 1532.4 L1982.03 1536.95 L1969.96 1536.95 L1969.96 1556.3 Q1969.96 1560.66 1971.14 1561.9 Q1972.35 1563.14 1976.01 1563.14 L1982.03 1563.14 L1982.03 1568.04 L1976.01 1568.04 Q1969.23 1568.04 1966.65 1565.53 Q1964.07 1562.98 1964.07 1556.3 L1964.07 1536.95 L1959.78 1536.95 L1959.78 1532.4 L1964.07 1532.4 L1964.07 1522.27 L1969.96 1522.27 Z" fill="#000000" fill-rule="nonzero" fill-opacity="1" /><path clip-path="url(#clip790)" d="M1989.73 1532.4 L1995.58 1532.4 L1995.58 1568.04 L1989.73 1568.04 L1989.73 1532.4 M1989.73 1518.52 L1995.58 1518.52 L1995.58 1525.93 L1989.73 1525.93 L1989.73 1518.52 Z" fill="#000000" fill-rule="nonzero" fill-opacity="1" /><path clip-path="url(#clip790)" d="M2021.65 1536.5 Q2016.94 1536.5 2014.2 1540.19 Q2011.47 1543.85 2011.47 1550.25 Q2011.47 1556.65 2014.17 1560.34 Q2016.91 1564 2021.65 1564 Q2026.33 1564 2029.07 1560.31 Q2031.81 1556.62 2031.81 1550.25 Q2031.81 1543.92 2029.07 1540.23 Q2026.33 1536.5 2021.65 1536.5 M2021.65 1531.54 Q2029.29 1531.54 2033.65 1536.5 Q2038.01 1541.47 2038.01 1550.25 Q2038.01 1559 2033.65 1564 Q2029.29 1568.97 2021.65 1568.97 Q2013.98 1568.97 2009.62 1564 Q2005.29 1559 2005.29 1550.25 Q2005.29 1541.47 2009.62 1536.5 Q2013.98 1531.54 2021.65 1531.54 Z" fill="#000000" fill-rule="nonzero" fill-opacity="1" /><path clip-path="url(#clip790)" d="M2077.35 1546.53 L2077.35 1568.04 L2071.5 1568.04 L2071.5 1546.72 Q2071.5 1541.66 2069.52 1539.14 Q2067.55 1536.63 2063.6 1536.63 Q2058.86 1536.63 2056.12 1539.65 Q2053.39 1542.68 2053.39 1547.9 L2053.39 1568.04 L2047.5 1568.04 L2047.5 1532.4 L2053.39 1532.4 L2053.39 1537.93 Q2055.49 1534.72 2058.32 1533.13 Q2061.18 1531.54 2064.91 1531.54 Q2071.05 1531.54 2074.2 1535.36 Q2077.35 1539.14 2077.35 1546.53 Z" fill="#000000" fill-rule="nonzero" fill-opacity="1" /><polyline clip-path="url(#clip790)" style="stroke:#000000; stroke-linecap:round; stroke-linejoin:round; stroke-width:4; stroke-opacity:1; fill:none" points="1371.44,1423.18 1371.44,47.2441 "/>
<polyline clip-path="url(#clip790)" style="stroke:#000000; stroke-linecap:round; stroke-linejoin:round; stroke-width:4; stroke-opacity:1; fill:none" points="1371.44,1221.98 1390.33,1221.98 "/>
<polyline clip-path="url(#clip790)" style="stroke:#000000; stroke-linecap:round; stroke-linejoin:round; stroke-width:4; stroke-opacity:1; fill:none" points="1371.44,897.469 1390.33,897.469 "/>
<polyline clip-path="url(#clip790)" style="stroke:#000000; stroke-linecap:round; stroke-linejoin:round; stroke-width:4; stroke-opacity:1; fill:none" points="1371.44,572.955 1390.33,572.955 "/>
<polyline clip-path="url(#clip790)" style="stroke:#000000; stroke-linecap:round; stroke-linejoin:round; stroke-width:4; stroke-opacity:1; fill:none" points="1371.44,248.442 1390.33,248.442 "/>
<path clip-path="url(#clip790)" d="M1279.86 1207.78 Q1276.25 1207.78 1274.42 1211.35 Q1272.61 1214.89 1272.61 1222.02 Q1272.61 1229.12 1274.42 1232.69 Q1276.25 1236.23 1279.86 1236.23 Q1283.49 1236.23 1285.3 1232.69 Q1287.13 1229.12 1287.13 1222.02 Q1287.13 1214.89 1285.3 1211.35 Q1283.49 1207.78 1279.86 1207.78 M1279.86 1204.08 Q1285.67 1204.08 1288.72 1208.68 Q1291.8 1213.27 1291.8 1222.02 Q1291.8 1230.74 1288.72 1235.35 Q1285.67 1239.93 1279.86 1239.93 Q1274.05 1239.93 1270.97 1235.35 Q1267.91 1230.74 1267.91 1222.02 Q1267.91 1213.27 1270.97 1208.68 Q1274.05 1204.08 1279.86 1204.08 Z" fill="#000000" fill-rule="nonzero" fill-opacity="1" /><path clip-path="url(#clip790)" d="M1300.02 1233.38 L1304.9 1233.38 L1304.9 1239.26 L1300.02 1239.26 L1300.02 1233.38 Z" fill="#000000" fill-rule="nonzero" fill-opacity="1" /><path clip-path="url(#clip790)" d="M1319.12 1235.33 L1335.44 1235.33 L1335.44 1239.26 L1313.49 1239.26 L1313.49 1235.33 Q1316.15 1232.57 1320.74 1227.94 Q1325.34 1223.29 1326.52 1221.95 Q1328.77 1219.42 1329.65 1217.69 Q1330.55 1215.93 1330.55 1214.24 Q1330.55 1211.48 1328.61 1209.75 Q1326.69 1208.01 1323.58 1208.01 Q1321.39 1208.01 1318.93 1208.78 Q1316.5 1209.54 1313.72 1211.09 L1313.72 1206.37 Q1316.55 1205.23 1319 1204.66 Q1321.45 1204.08 1323.49 1204.08 Q1328.86 1204.08 1332.06 1206.76 Q1335.25 1209.45 1335.25 1213.94 Q1335.25 1216.07 1334.44 1217.99 Q1333.65 1219.89 1331.55 1222.48 Q1330.97 1223.15 1327.87 1226.37 Q1324.76 1229.56 1319.12 1235.33 Z" fill="#000000" fill-rule="nonzero" fill-opacity="1" /><path clip-path="url(#clip790)" d="M1277.77 883.267 Q1274.16 883.267 1272.33 886.832 Q1270.53 890.374 1270.53 897.503 Q1270.53 904.61 1272.33 908.175 Q1274.16 911.716 1277.77 911.716 Q1281.41 911.716 1283.21 908.175 Q1285.04 904.61 1285.04 897.503 Q1285.04 890.374 1283.21 886.832 Q1281.41 883.267 1277.77 883.267 M1277.77 879.564 Q1283.58 879.564 1286.64 884.17 Q1289.72 888.753 1289.72 897.503 Q1289.72 906.23 1286.64 910.837 Q1283.58 915.42 1277.77 915.42 Q1271.96 915.42 1268.89 910.837 Q1265.83 906.23 1265.83 897.503 Q1265.83 888.753 1268.89 884.17 Q1271.96 879.564 1277.77 879.564 Z" fill="#000000" fill-rule="nonzero" fill-opacity="1" /><path clip-path="url(#clip790)" d="M1297.94 908.869 L1302.82 908.869 L1302.82 914.749 L1297.94 914.749 L1297.94 908.869 Z" fill="#000000" fill-rule="nonzero" fill-opacity="1" /><path clip-path="url(#clip790)" d="M1325.85 884.263 L1314.05 902.712 L1325.85 902.712 L1325.85 884.263 M1324.63 880.189 L1330.51 880.189 L1330.51 902.712 L1335.44 902.712 L1335.44 906.6 L1330.51 906.6 L1330.51 914.749 L1325.85 914.749 L1325.85 906.6 L1310.25 906.6 L1310.25 902.087 L1324.63 880.189 Z" fill="#000000" fill-rule="nonzero" fill-opacity="1" /><path clip-path="url(#clip790)" d="M1278.1 558.754 Q1274.49 558.754 1272.66 562.319 Q1270.85 565.861 1270.85 572.99 Q1270.85 580.097 1272.66 583.661 Q1274.49 587.203 1278.1 587.203 Q1281.73 587.203 1283.54 583.661 Q1285.37 580.097 1285.37 572.99 Q1285.37 565.861 1283.54 562.319 Q1281.73 558.754 1278.1 558.754 M1278.1 555.05 Q1283.91 555.05 1286.96 559.657 Q1290.04 564.24 1290.04 572.99 Q1290.04 581.717 1286.96 586.323 Q1283.91 590.907 1278.1 590.907 Q1272.29 590.907 1269.21 586.323 Q1266.15 581.717 1266.15 572.99 Q1266.15 564.24 1269.21 559.657 Q1272.29 555.05 1278.1 555.05 Z" fill="#000000" fill-rule="nonzero" fill-opacity="1" /><path clip-path="url(#clip790)" d="M1298.26 584.356 L1303.14 584.356 L1303.14 590.235 L1298.26 590.235 L1298.26 584.356 Z" fill="#000000" fill-rule="nonzero" fill-opacity="1" /><path clip-path="url(#clip790)" d="M1323.91 571.092 Q1320.76 571.092 1318.91 573.245 Q1317.08 575.398 1317.08 579.147 Q1317.08 582.874 1318.91 585.05 Q1320.76 587.203 1323.91 587.203 Q1327.06 587.203 1328.89 585.05 Q1330.74 582.874 1330.74 579.147 Q1330.74 575.398 1328.89 573.245 Q1327.06 571.092 1323.91 571.092 M1333.19 556.439 L1333.19 560.699 Q1331.43 559.865 1329.63 559.425 Q1327.84 558.986 1326.08 558.986 Q1321.45 558.986 1319 562.111 Q1316.57 565.236 1316.22 571.555 Q1317.59 569.541 1319.65 568.476 Q1321.71 567.388 1324.19 567.388 Q1329.39 567.388 1332.4 570.56 Q1335.44 573.708 1335.44 579.147 Q1335.44 584.472 1332.29 587.689 Q1329.14 590.907 1323.91 590.907 Q1317.91 590.907 1314.74 586.323 Q1311.57 581.717 1311.57 572.99 Q1311.57 564.796 1315.46 559.935 Q1319.35 555.05 1325.9 555.05 Q1327.66 555.05 1329.44 555.398 Q1331.25 555.745 1333.19 556.439 Z" fill="#000000" fill-rule="nonzero" fill-opacity="1" /><path clip-path="url(#clip790)" d="M1278.35 234.241 Q1274.74 234.241 1272.91 237.806 Q1271.11 241.347 1271.11 248.477 Q1271.11 255.583 1272.91 259.148 Q1274.74 262.69 1278.35 262.69 Q1281.99 262.69 1283.79 259.148 Q1285.62 255.583 1285.62 248.477 Q1285.62 241.347 1283.79 237.806 Q1281.99 234.241 1278.35 234.241 M1278.35 230.537 Q1284.16 230.537 1287.22 235.144 Q1290.3 239.727 1290.3 248.477 Q1290.3 257.204 1287.22 261.81 Q1284.16 266.394 1278.35 266.394 Q1272.54 266.394 1269.46 261.81 Q1266.41 257.204 1266.41 248.477 Q1266.41 239.727 1269.46 235.144 Q1272.54 230.537 1278.35 230.537 Z" fill="#000000" fill-rule="nonzero" fill-opacity="1" /><path clip-path="url(#clip790)" d="M1298.52 259.843 L1303.4 259.843 L1303.4 265.722 L1298.52 265.722 L1298.52 259.843 Z" fill="#000000" fill-rule="nonzero" fill-opacity="1" /><path clip-path="url(#clip790)" d="M1323.58 249.31 Q1320.25 249.31 1318.33 251.093 Q1316.43 252.875 1316.43 256 Q1316.43 259.125 1318.33 260.907 Q1320.25 262.69 1323.58 262.69 Q1326.92 262.69 1328.84 260.907 Q1330.76 259.102 1330.76 256 Q1330.76 252.875 1328.84 251.093 Q1326.94 249.31 1323.58 249.31 M1318.91 247.32 Q1315.9 246.579 1314.21 244.519 Q1312.54 242.458 1312.54 239.496 Q1312.54 235.352 1315.48 232.945 Q1318.45 230.537 1323.58 230.537 Q1328.75 230.537 1331.69 232.945 Q1334.63 235.352 1334.63 239.496 Q1334.63 242.458 1332.94 244.519 Q1331.27 246.579 1328.28 247.32 Q1331.66 248.107 1333.54 250.398 Q1335.44 252.69 1335.44 256 Q1335.44 261.023 1332.36 263.708 Q1329.3 266.394 1323.58 266.394 Q1317.87 266.394 1314.79 263.708 Q1311.73 261.023 1311.73 256 Q1311.73 252.69 1313.63 250.398 Q1315.53 248.107 1318.91 247.32 M1317.2 239.935 Q1317.2 242.621 1318.86 244.125 Q1320.55 245.63 1323.58 245.63 Q1326.59 245.63 1328.28 244.125 Q1330 242.621 1330 239.935 Q1330 237.25 1328.28 235.746 Q1326.59 234.241 1323.58 234.241 Q1320.55 234.241 1318.86 235.746 Q1317.2 237.25 1317.2 239.935 Z" fill="#000000" fill-rule="nonzero" fill-opacity="1" /><polyline clip-path="url(#clip793)" style="stroke:#009af9; stroke-linecap:round; stroke-linejoin:round; stroke-width:4; stroke-opacity:1; fill:none" points="1399.21,86.1857 1414.14,1384.24 1429.07,86.1857 1444,1384.24 1458.94,86.1857 1473.87,86.1857 1488.8,1384.24 1503.73,86.1857 1518.66,86.1857 1533.6,1384.24 1548.53,86.1857 1563.46,86.1857 1578.39,1384.24 1593.32,1384.24 1608.25,1384.24 1623.19,86.1857 1638.12,86.1857 1653.05,1384.24 1667.98,86.1857 1682.91,86.1857 1697.85,86.1857 1712.78,1384.24 1727.71,86.1857 1742.64,86.1857 1757.57,86.1857 1772.51,1384.24 1787.44,1384.24 1802.37,1384.24 1817.3,86.1857 1832.23,1384.24 1847.16,86.1857 1862.1,1384.24 1877.03,86.1857 1891.96,86.1857 1906.89,1384.24 1921.82,86.1857 1936.76,86.1857 1951.69,86.1857 1966.62,1384.24 1981.55,1384.24 1996.48,1384.24 2011.41,1384.24 2026.35,1384.24 2041.28,1384.24 2056.21,1384.24 2071.14,1384.24 2086.07,1384.24 2101.01,1384.24 2115.94,1384.24 2130.87,1384.24 2145.8,1384.24 2160.73,1384.24 2175.66,1384.24 2190.6,1384.24 2205.53,86.1857 2220.46,1384.24 2235.39,1384.24 2250.32,1384.24 2265.26,86.1857 2280.19,86.1857 2295.12,86.1857 2310.05,1384.24 2324.98,1384.24 "/>
<path clip-path="url(#clip790)" d="M2169.85 196.789 L2320.05 196.789 L2320.05 93.1086 L2169.85 93.1086  Z" fill="#ffffff" fill-rule="evenodd" fill-opacity="1"/>
<polyline clip-path="url(#clip790)" style="stroke:#000000; stroke-linecap:round; stroke-linejoin:round; stroke-width:4; stroke-opacity:1; fill:none" points="2169.85,196.789 2320.05,196.789 2320.05,93.1086 2169.85,93.1086 2169.85,196.789 "/>
<polyline clip-path="url(#clip790)" style="stroke:#009af9; stroke-linecap:round; stroke-linejoin:round; stroke-width:4; stroke-opacity:1; fill:none" points="2180.76,144.949 2246.18,144.949 "/>
<path clip-path="url(#clip790)" d="M2270.92 164.636 Q2269.12 169.266 2267.41 170.678 Q2265.69 172.09 2262.82 172.09 L2259.42 172.09 L2259.42 168.525 L2261.92 168.525 Q2263.68 168.525 2264.65 167.692 Q2265.62 166.858 2266.8 163.756 L2267.57 161.812 L2257.08 136.303 L2261.6 136.303 L2269.7 156.581 L2277.8 136.303 L2282.31 136.303 L2270.92 164.636 Z" fill="#000000" fill-rule="nonzero" fill-opacity="1" /><path clip-path="url(#clip790)" d="M2292.82 158.293 L2309.14 158.293 L2309.14 162.229 L2287.2 162.229 L2287.2 158.293 Q2289.86 155.539 2294.44 150.909 Q2299.05 146.256 2300.23 144.914 Q2302.48 142.391 2303.35 140.655 Q2304.26 138.895 2304.26 137.206 Q2304.26 134.451 2302.31 132.715 Q2300.39 130.979 2297.29 130.979 Q2295.09 130.979 2292.64 131.743 Q2290.21 132.507 2287.43 134.057 L2287.43 129.335 Q2290.25 128.201 2292.71 127.622 Q2295.16 127.044 2297.2 127.044 Q2302.57 127.044 2305.76 129.729 Q2308.96 132.414 2308.96 136.905 Q2308.96 139.034 2308.15 140.956 Q2307.36 142.854 2305.25 145.446 Q2304.67 146.118 2301.57 149.335 Q2298.47 152.53 2292.82 158.293 Z" fill="#000000" fill-rule="nonzero" fill-opacity="1" /></svg>
