<?xml version="1.0" encoding="utf-8"?>
<svg xmlns="http://www.w3.org/2000/svg" xmlns:xlink="http://www.w3.org/1999/xlink" width="600" height="400" viewBox="0 0 2400 1600">
<defs>
  <clipPath id="clip790">
    <rect x="0" y="0" width="2400" height="1600"/>
  </clipPath>
</defs>
<path clip-path="url(#clip790)" d="M0 1600 L2400 1600 L2400 0 L0 0  Z" fill="#ffffff" fill-rule="evenodd" fill-opacity="1"/>
<defs>
  <clipPath id="clip791">
    <rect x="480" y="0" width="1681" height="1600"/>
  </clipPath>
</defs>
<path clip-path="url(#clip790)" d="M219.38 1423.18 L2352.76 1423.18 L2352.76 47.2441 L219.38 47.2441  Z" fill="#ffffff" fill-rule="evenodd" fill-opacity="1"/>
<defs>
  <clipPath id="clip792">
    <rect x="219" y="47" width="2134" height="1377"/>
  </clipPath>
</defs>
<polyline clip-path="url(#clip792)" style="stroke:#000000; stroke-linecap:round; stroke-linejoin:round; stroke-width:2; stroke-opacity:0.1; fill:none" points="247.297,1423.18 247.297,47.2441 "/>
<polyline clip-path="url(#clip792)" style="stroke:#000000; stroke-linecap:round; stroke-linejoin:round; stroke-width:2; stroke-opacity:0.1; fill:none" points="571.913,1423.18 571.913,47.2441 "/>
<polyline clip-path="url(#clip792)" style="stroke:#000000; stroke-linecap:round; stroke-linejoin:round; stroke-width:2; stroke-opacity:0.1; fill:none" points="896.529,1423.18 896.529,47.2441 "/>
<polyline clip-path="url(#clip792)" style="stroke:#000000; stroke-linecap:round; stroke-linejoin:round; stroke-width:2; stroke-opacity:0.1; fill:none" points="1221.14,1423.18 1221.14,47.2441 "/>
<polyline clip-path="url(#clip792)" style="stroke:#000000; stroke-linecap:round; stroke-linejoin:round; stroke-width:2; stroke-opacity:0.1; fill:none" points="1545.76,1423.18 1545.76,47.2441 "/>
<polyline clip-path="url(#clip792)" style="stroke:#000000; stroke-linecap:round; stroke-linejoin:round; stroke-width:2; stroke-opacity:0.1; fill:none" points="1870.38,1423.18 1870.38,47.2441 "/>
<polyline clip-path="url(#clip792)" style="stroke:#000000; stroke-linecap:round; stroke-linejoin:round; stroke-width:2; stroke-opacity:0.1; fill:none" points="2194.99,1423.18 2194.99,47.2441 "/>
<polyline clip-path="url(#clip792)" style="stroke:#000000; stroke-linecap:round; stroke-linejoin:round; stroke-width:2; stroke-opacity:0.1; fill:none" points="219.38,1423.15 2352.76,1423.15 "/>
<polyline clip-path="url(#clip792)" style="stroke:#000000; stroke-linecap:round; stroke-linejoin:round; stroke-width:2; stroke-opacity:0.1; fill:none" points="219.38,1035.85 2352.76,1035.85 "/>
<polyline clip-path="url(#clip792)" style="stroke:#000000; stroke-linecap:round; stroke-linejoin:round; stroke-width:2; stroke-opacity:0.1; fill:none" points="219.38,648.548 2352.76,648.548 "/>
<polyline clip-path="url(#clip792)" style="stroke:#000000; stroke-linecap:round; stroke-linejoin:round; stroke-width:2; stroke-opacity:0.1; fill:none" points="219.38,261.248 2352.76,261.248 "/>
<polyline clip-path="url(#clip790)" style="stroke:#000000; stroke-linecap:round; stroke-linejoin:round; stroke-width:4; stroke-opacity:1; fill:none" points="219.38,1423.18 2352.76,1423.18 "/>
<polyline clip-path="url(#clip790)" style="stroke:#000000; stroke-linecap:round; stroke-linejoin:round; stroke-width:4; stroke-opacity:1; fill:none" points="247.297,1423.18 247.297,1404.28 "/>
<polyline clip-path="url(#clip790)" style="stroke:#000000; stroke-linecap:round; stroke-linejoin:round; stroke-width:4; stroke-opacity:1; fill:none" points="571.913,1423.18 571.913,1404.28 "/>
<polyline clip-path="url(#clip790)" style="stroke:#000000; stroke-linecap:round; stroke-linejoin:round; stroke-width:4; stroke-opacity:1; fill:none" points="896.529,1423.18 896.529,1404.28 "/>
<polyline clip-path="url(#clip790)" style="stroke:#000000; stroke-linecap:round; stroke-linejoin:round; stroke-width:4; stroke-opacity:1; fill:none" points="1221.14,1423.18 1221.14,1404.28 "/>
<polyline clip-path="url(#clip790)" style="stroke:#000000; stroke-linecap:round; stroke-linejoin:round; stroke-width:4; stroke-opacity:1; fill:none" points="1545.76,1423.18 1545.76,1404.28 "/>
<polyline clip-path="url(#clip790)" style="stroke:#000000; stroke-linecap:round; stroke-linejoin:round; stroke-width:4; stroke-opacity:1; fill:none" points="1870.38,1423.18 1870.38,1404.28 "/>
<polyline clip-path="url(#clip790)" style="stroke:#000000; stroke-linecap:round; stroke-linejoin:round; stroke-width:4; stroke-opacity:1; fill:none" points="2194.99,1423.18 2194.99,1404.28 "/>
<path clip-path="url(#clip790)" d="M247.297 1454.1 Q243.686 1454.1 241.857 1457.66 Q240.052 1461.2 240.052 1468.33 Q240.052 1475.44 241.857 1479.01 Q243.686 1482.55 247.297 1482.55 Q250.931 1482.55 252.737 1479.01 Q254.566 1475.44 254.566 1468.33 Q254.566 1461.2 252.737 1457.66 Q250.931 1454.1 247.297 1454.1 M247.297 1450.39 Q253.107 1450.39 256.163 1455 Q259.242 1459.58 259.242 1468.33 Q259.242 1477.06 256.163 1481.67 Q253.107 1486.25 247.297 1486.25 Q241.487 1486.25 238.408 1481.67 Q235.353 1477.06 235.353 1468.33 Q235.353 1459.58 238.408 1455 Q241.487 1450.39 247.297 1450.39 Z" fill="#000000" fill-rule="nonzero" fill-opacity="1" /><path clip-path="url(#clip790)" d="M546.601 1481.64 L554.24 1481.64 L554.24 1455.28 L545.929 1456.95 L545.929 1452.69 L554.193 1451.02 L558.869 1451.02 L558.869 1481.64 L566.508 1481.64 L566.508 1485.58 L546.601 1485.58 L546.601 1481.64 Z" fill="#000000" fill-rule="nonzero" fill-opacity="1" /><path clip-path="url(#clip790)" d="M585.952 1454.1 Q582.341 1454.1 580.513 1457.66 Q578.707 1461.2 578.707 1468.33 Q578.707 1475.44 580.513 1479.01 Q582.341 1482.55 585.952 1482.55 Q589.587 1482.55 591.392 1479.01 Q593.221 1475.44 593.221 1468.33 Q593.221 1461.2 591.392 1457.66 Q589.587 1454.1 585.952 1454.1 M585.952 1450.39 Q591.762 1450.39 594.818 1455 Q597.897 1459.58 597.897 1468.33 Q597.897 1477.06 594.818 1481.67 Q591.762 1486.25 585.952 1486.25 Q580.142 1486.25 577.063 1481.67 Q574.008 1477.06 574.008 1468.33 Q574.008 1459.58 577.063 1455 Q580.142 1450.39 585.952 1450.39 Z" fill="#000000" fill-rule="nonzero" fill-opacity="1" /><path clip-path="url(#clip790)" d="M875.302 1481.64 L891.622 1481.64 L891.622 1485.58 L869.677 1485.58 L869.677 1481.64 Q872.339 1478.89 876.923 1474.26 Q881.529 1469.61 882.71 1468.27 Q884.955 1465.74 885.835 1464.01 Q886.737 1462.25 886.737 1460.56 Q886.737 1457.8 884.793 1456.07 Q882.872 1454.33 879.77 1454.33 Q877.571 1454.33 875.117 1455.09 Q872.686 1455.86 869.909 1457.41 L869.909 1452.69 Q872.733 1451.55 875.186 1450.97 Q877.64 1450.39 879.677 1450.39 Q885.048 1450.39 888.242 1453.08 Q891.436 1455.77 891.436 1460.26 Q891.436 1462.39 890.626 1464.31 Q889.839 1466.2 887.733 1468.8 Q887.154 1469.47 884.052 1472.69 Q880.95 1475.88 875.302 1481.64 Z" fill="#000000" fill-rule="nonzero" fill-opacity="1" /><path clip-path="url(#clip790)" d="M911.436 1454.1 Q907.825 1454.1 905.996 1457.66 Q904.191 1461.2 904.191 1468.33 Q904.191 1475.44 905.996 1479.01 Q907.825 1482.55 911.436 1482.55 Q915.071 1482.55 916.876 1479.01 Q918.705 1475.44 918.705 1468.33 Q918.705 1461.2 916.876 1457.66 Q915.071 1454.1 911.436 1454.1 M911.436 1450.39 Q917.246 1450.39 920.302 1455 Q923.381 1459.58 923.381 1468.33 Q923.381 1477.06 920.302 1481.67 Q917.246 1486.25 911.436 1486.25 Q905.626 1486.25 902.547 1481.67 Q899.492 1477.06 899.492 1468.33 Q899.492 1459.58 902.547 1455 Q905.626 1450.39 911.436 1450.39 Z" fill="#000000" fill-rule="nonzero" fill-opacity="1" /><path clip-path="url(#clip790)" d="M1209.99 1466.95 Q1213.34 1467.66 1215.22 1469.93 Q1217.12 1472.2 1217.12 1475.53 Q1217.12 1480.65 1213.6 1483.45 Q1210.08 1486.25 1203.6 1486.25 Q1201.42 1486.25 1199.11 1485.81 Q1196.82 1485.39 1194.36 1484.54 L1194.36 1480.02 Q1196.31 1481.16 1198.62 1481.74 Q1200.94 1482.32 1203.46 1482.32 Q1207.86 1482.32 1210.15 1480.58 Q1212.46 1478.84 1212.46 1475.53 Q1212.46 1472.48 1210.31 1470.77 Q1208.18 1469.03 1204.36 1469.03 L1200.33 1469.03 L1200.33 1465.19 L1204.55 1465.19 Q1208 1465.19 1209.83 1463.82 Q1211.65 1462.43 1211.65 1459.84 Q1211.65 1457.18 1209.76 1455.77 Q1207.88 1454.33 1204.36 1454.33 Q1202.44 1454.33 1200.24 1454.75 Q1198.04 1455.16 1195.4 1456.04 L1195.4 1451.88 Q1198.07 1451.14 1200.38 1450.77 Q1202.72 1450.39 1204.78 1450.39 Q1210.1 1450.39 1213.21 1452.83 Q1216.31 1455.23 1216.31 1459.35 Q1216.31 1462.22 1214.66 1464.21 Q1213.02 1466.18 1209.99 1466.95 Z" fill="#000000" fill-rule="nonzero" fill-opacity="1" /><path clip-path="url(#clip790)" d="M1235.98 1454.1 Q1232.37 1454.1 1230.54 1457.66 Q1228.74 1461.2 1228.74 1468.33 Q1228.74 1475.44 1230.54 1479.01 Q1232.37 1482.55 1235.98 1482.55 Q1239.62 1482.55 1241.42 1479.01 Q1243.25 1475.44 1243.25 1468.33 Q1243.25 1461.2 1241.42 1457.66 Q1239.62 1454.1 1235.98 1454.1 M1235.98 1450.39 Q1241.79 1450.39 1244.85 1455 Q1247.93 1459.58 1247.93 1468.33 Q1247.93 1477.06 1244.85 1481.67 Q1241.79 1486.25 1235.98 1486.25 Q1230.17 1486.25 1227.09 1481.67 Q1224.04 1477.06 1224.04 1468.33 Q1224.04 1459.58 1227.09 1455 Q1230.17 1450.39 1235.98 1450.39 Z" fill="#000000" fill-rule="nonzero" fill-opacity="1" /><path clip-path="url(#clip790)" d="M1533.93 1455.09 L1522.13 1473.54 L1533.93 1473.54 L1533.93 1455.09 M1532.71 1451.02 L1538.58 1451.02 L1538.58 1473.54 L1543.52 1473.54 L1543.52 1477.43 L1538.58 1477.43 L1538.58 1485.58 L1533.93 1485.58 L1533.93 1477.43 L1518.33 1477.43 L1518.33 1472.92 L1532.71 1451.02 Z" fill="#000000" fill-rule="nonzero" fill-opacity="1" /><path clip-path="url(#clip790)" d="M1561.25 1454.1 Q1557.64 1454.1 1555.81 1457.66 Q1554 1461.2 1554 1468.33 Q1554 1475.44 1555.81 1479.01 Q1557.64 1482.55 1561.25 1482.55 Q1564.88 1482.55 1566.69 1479.01 Q1568.52 1475.44 1568.52 1468.33 Q1568.52 1461.2 1566.69 1457.66 Q1564.88 1454.1 1561.25 1454.1 M1561.25 1450.39 Q1567.06 1450.39 1570.11 1455 Q1573.19 1459.58 1573.19 1468.33 Q1573.19 1477.06 1570.11 1481.67 Q1567.06 1486.25 1561.25 1486.25 Q1555.44 1486.25 1552.36 1481.67 Q1549.3 1477.06 1549.3 1468.33 Q1549.3 1459.58 1552.36 1455 Q1555.44 1450.39 1561.25 1450.39 Z" fill="#000000" fill-rule="nonzero" fill-opacity="1" /><path clip-path="url(#clip790)" d="M1845.08 1451.02 L1863.43 1451.02 L1863.43 1454.96 L1849.36 1454.96 L1849.36 1463.43 Q1850.38 1463.08 1851.4 1462.92 Q1852.41 1462.73 1853.43 1462.73 Q1859.22 1462.73 1862.6 1465.9 Q1865.98 1469.08 1865.98 1474.49 Q1865.98 1480.07 1862.51 1483.17 Q1859.03 1486.25 1852.71 1486.25 Q1850.54 1486.25 1848.27 1485.88 Q1846.02 1485.51 1843.62 1484.77 L1843.62 1480.07 Q1845.7 1481.2 1847.92 1481.76 Q1850.15 1482.32 1852.62 1482.32 Q1856.63 1482.32 1858.96 1480.21 Q1861.3 1478.1 1861.3 1474.49 Q1861.3 1470.88 1858.96 1468.77 Q1856.63 1466.67 1852.62 1466.67 Q1850.75 1466.67 1848.87 1467.08 Q1847.02 1467.5 1845.08 1468.38 L1845.08 1451.02 Z" fill="#000000" fill-rule="nonzero" fill-opacity="1" /><path clip-path="url(#clip790)" d="M1885.19 1454.1 Q1881.58 1454.1 1879.75 1457.66 Q1877.95 1461.2 1877.95 1468.33 Q1877.95 1475.44 1879.75 1479.01 Q1881.58 1482.55 1885.19 1482.55 Q1888.83 1482.55 1890.63 1479.01 Q1892.46 1475.44 1892.46 1468.33 Q1892.46 1461.2 1890.63 1457.66 Q1888.83 1454.1 1885.19 1454.1 M1885.19 1450.39 Q1891 1450.39 1894.06 1455 Q1897.14 1459.58 1897.14 1468.33 Q1897.14 1477.06 1894.06 1481.67 Q1891 1486.25 1885.19 1486.25 Q1879.38 1486.25 1876.3 1481.67 Q1873.25 1477.06 1873.25 1468.33 Q1873.25 1459.58 1876.3 1455 Q1879.38 1450.39 1885.19 1450.39 Z" fill="#000000" fill-rule="nonzero" fill-opacity="1" /><path clip-path="url(#clip790)" d="M2180.4 1466.44 Q2177.25 1466.44 2175.4 1468.59 Q2173.57 1470.74 2173.57 1474.49 Q2173.57 1478.22 2175.4 1480.39 Q2177.25 1482.55 2180.4 1482.55 Q2183.55 1482.55 2185.37 1480.39 Q2187.23 1478.22 2187.23 1474.49 Q2187.23 1470.74 2185.37 1468.59 Q2183.55 1466.44 2180.4 1466.44 M2189.68 1451.78 L2189.68 1456.04 Q2187.92 1455.21 2186.12 1454.77 Q2184.33 1454.33 2182.57 1454.33 Q2177.94 1454.33 2175.49 1457.45 Q2173.06 1460.58 2172.71 1466.9 Q2174.08 1464.89 2176.14 1463.82 Q2178.2 1462.73 2180.68 1462.73 Q2185.88 1462.73 2188.89 1465.9 Q2191.93 1469.05 2191.93 1474.49 Q2191.93 1479.82 2188.78 1483.03 Q2185.63 1486.25 2180.4 1486.25 Q2174.4 1486.25 2171.23 1481.67 Q2168.06 1477.06 2168.06 1468.33 Q2168.06 1460.14 2171.95 1455.28 Q2175.84 1450.39 2182.39 1450.39 Q2184.15 1450.39 2185.93 1450.74 Q2187.74 1451.09 2189.68 1451.78 Z" fill="#000000" fill-rule="nonzero" fill-opacity="1" /><path clip-path="url(#clip790)" d="M2209.98 1454.1 Q2206.37 1454.1 2204.54 1457.66 Q2202.74 1461.2 2202.74 1468.33 Q2202.74 1475.44 2204.54 1479.01 Q2206.37 1482.55 2209.98 1482.55 Q2213.62 1482.55 2215.42 1479.01 Q2217.25 1475.44 2217.25 1468.33 Q2217.25 1461.2 2215.42 1457.66 Q2213.62 1454.1 2209.98 1454.1 M2209.98 1450.39 Q2215.79 1450.39 2218.85 1455 Q2221.93 1459.58 2221.93 1468.33 Q2221.93 1477.06 2218.85 1481.67 Q2215.79 1486.25 2209.98 1486.25 Q2204.17 1486.25 2201.09 1481.67 Q2198.04 1477.06 2198.04 1468.33 Q2198.04 1459.58 2201.09 1455 Q2204.17 1450.39 2209.98 1450.39 Z" fill="#000000" fill-rule="nonzero" fill-opacity="1" /><path clip-path="url(#clip790)" d="M1101.4 1522.08 L1101.4 1528.35 Q1097.74 1526.6 1094.49 1525.74 Q1091.25 1524.88 1088.22 1524.88 Q1082.97 1524.88 1080.11 1526.92 Q1077.27 1528.96 1077.27 1532.71 Q1077.27 1535.87 1079.15 1537.49 Q1081.06 1539.08 1086.34 1540.07 L1090.23 1540.86 Q1097.42 1542.23 1100.83 1545.7 Q1104.26 1549.14 1104.26 1554.93 Q1104.26 1561.84 1099.62 1565.4 Q1095 1568.97 1086.06 1568.97 Q1082.68 1568.97 1078.86 1568.2 Q1075.08 1567.44 1071 1565.94 L1071 1559.32 Q1074.92 1561.52 1078.67 1562.63 Q1082.43 1563.75 1086.06 1563.75 Q1091.56 1563.75 1094.56 1561.58 Q1097.55 1559.42 1097.55 1555.41 Q1097.55 1551.91 1095.38 1549.93 Q1093.25 1547.96 1088.35 1546.97 L1084.43 1546.21 Q1077.24 1544.78 1074.03 1541.72 Q1070.81 1538.67 1070.81 1533.22 Q1070.81 1526.92 1075.24 1523.29 Q1079.69 1519.66 1087.49 1519.66 Q1090.83 1519.66 1094.3 1520.27 Q1097.77 1520.87 1101.4 1522.08 Z" fill="#000000" fill-rule="nonzero" fill-opacity="1" /><path clip-path="url(#clip790)" d="M1114.29 1520.52 L1123.87 1520.52 L1136 1552.86 L1148.19 1520.52 L1157.77 1520.52 L1157.77 1568.04 L1151.5 1568.04 L1151.5 1526.32 L1139.24 1558.91 L1132.78 1558.91 L1120.53 1526.32 L1120.53 1568.04 L1114.29 1568.04 L1114.29 1520.52 Z" fill="#000000" fill-rule="nonzero" fill-opacity="1" /><path clip-path="url(#clip790)" d="M1206.11 1524.18 L1206.11 1530.96 Q1202.87 1527.94 1199.18 1526.44 Q1195.52 1524.95 1191.38 1524.95 Q1183.23 1524.95 1178.9 1529.95 Q1174.57 1534.91 1174.57 1544.33 Q1174.57 1553.72 1178.9 1558.72 Q1183.23 1563.68 1191.38 1563.68 Q1195.52 1563.68 1199.18 1562.19 Q1202.87 1560.69 1206.11 1557.67 L1206.11 1564.38 Q1202.74 1566.68 1198.95 1567.82 Q1195.2 1568.97 1191 1568.97 Q1180.21 1568.97 1174 1562.38 Q1167.79 1555.76 1167.79 1544.33 Q1167.79 1532.87 1174 1526.28 Q1180.21 1519.66 1191 1519.66 Q1195.26 1519.66 1199.02 1520.81 Q1202.8 1521.92 1206.11 1524.18 Z" fill="#000000" fill-rule="nonzero" fill-opacity="1" /><path clip-path="url(#clip790)" d="M1236.77 1520.52 L1243.19 1520.52 L1243.19 1568.04 L1236.77 1568.04 L1236.77 1520.52 Z" fill="#000000" fill-rule="nonzero" fill-opacity="1" /><path clip-path="url(#clip790)" d="M1261.53 1522.27 L1261.53 1532.4 L1273.59 1532.4 L1273.59 1536.95 L1261.53 1536.95 L1261.53 1556.3 Q1261.53 1560.66 1262.71 1561.9 Q1263.92 1563.14 1267.58 1563.14 L1273.59 1563.14 L1273.59 1568.04 L1267.58 1568.04 Q1260.8 1568.04 1258.22 1565.53 Q1255.64 1562.98 1255.64 1556.3 L1255.64 1536.95 L1251.34 1536.95 L1251.34 1532.4 L1255.64 1532.4 L1255.64 1522.27 L1261.53 1522.27 Z" fill="#000000" fill-rule="nonzero" fill-opacity="1" /><path clip-path="url(#clip790)" d="M1311.79 1548.76 L1311.79 1551.62 L1284.86 1551.62 Q1285.24 1557.67 1288.49 1560.85 Q1291.77 1564 1297.59 1564 Q1300.96 1564 1304.11 1563.17 Q1307.3 1562.35 1310.42 1560.69 L1310.42 1566.23 Q1307.27 1567.57 1303.96 1568.27 Q1300.65 1568.97 1297.24 1568.97 Q1288.71 1568.97 1283.71 1564 Q1278.75 1559.04 1278.75 1550.57 Q1278.75 1541.82 1283.46 1536.69 Q1288.2 1531.54 1296.22 1531.54 Q1303.41 1531.54 1307.58 1536.18 Q1311.79 1540.8 1311.79 1548.76 M1305.93 1547.04 Q1305.87 1542.23 1303.22 1539.37 Q1300.61 1536.5 1296.28 1536.5 Q1291.38 1536.5 1288.42 1539.27 Q1285.5 1542.04 1285.05 1547.07 L1305.93 1547.04 Z" fill="#000000" fill-rule="nonzero" fill-opacity="1" /><path clip-path="url(#clip790)" d="M1342.05 1537.87 Q1341.07 1537.3 1339.89 1537.04 Q1338.74 1536.76 1337.34 1536.76 Q1332.38 1536.76 1329.7 1540 Q1327.06 1543.22 1327.06 1549.27 L1327.06 1568.04 L1321.17 1568.04 L1321.17 1532.4 L1327.06 1532.4 L1327.06 1537.93 Q1328.91 1534.69 1331.87 1533.13 Q1334.83 1531.54 1339.06 1531.54 Q1339.67 1531.54 1340.4 1531.63 Q1341.13 1531.7 1342.02 1531.85 L1342.05 1537.87 Z" fill="#000000" fill-rule="nonzero" fill-opacity="1" /><path clip-path="url(#clip790)" d="M1364.4 1550.12 Q1357.3 1550.12 1354.56 1551.75 Q1351.83 1553.37 1351.83 1557.29 Q1351.83 1560.4 1353.86 1562.25 Q1355.93 1564.07 1359.46 1564.07 Q1364.33 1564.07 1367.26 1560.63 Q1370.22 1557.16 1370.22 1551.43 L1370.22 1550.12 L1364.4 1550.12 M1376.08 1547.71 L1376.08 1568.04 L1370.22 1568.04 L1370.22 1562.63 Q1368.22 1565.88 1365.23 1567.44 Q1362.23 1568.97 1357.91 1568.97 Q1352.43 1568.97 1349.18 1565.91 Q1345.97 1562.82 1345.97 1557.67 Q1345.97 1551.65 1349.98 1548.6 Q1354.02 1545.54 1362.01 1545.54 L1370.22 1545.54 L1370.22 1544.97 Q1370.22 1540.93 1367.55 1538.73 Q1364.91 1536.5 1360.1 1536.5 Q1357.05 1536.5 1354.15 1537.23 Q1351.25 1537.97 1348.58 1539.43 L1348.58 1534.02 Q1351.79 1532.78 1354.82 1532.17 Q1357.84 1531.54 1360.71 1531.54 Q1368.44 1531.54 1372.26 1535.55 Q1376.08 1539.56 1376.08 1547.71 Z" fill="#000000" fill-rule="nonzero" fill-opacity="1" /><path clip-path="url(#clip790)" d="M1393.93 1522.27 L1393.93 1532.4 L1406 1532.4 L1406 1536.95 L1393.93 1536.95 L1393.93 1556.3 Q1393.93 1560.66 1395.11 1561.9 Q1396.32 1563.14 1399.98 1563.14 L1406 1563.14 L1406 1568.04 L1399.98 1568.04 Q1393.2 1568.04 1390.62 1565.53 Q1388.05 1562.98 1388.05 1556.3 L1388.05 1536.95 L1383.75 1536.95 L1383.75 1532.4 L1388.05 1532.4 L1388.05 1522.27 L1393.93 1522.27 Z" fill="#000000" fill-rule="nonzero" fill-opacity="1" /><path clip-path="url(#clip790)" d="M1413.7 1532.4 L1419.56 1532.4 L1419.56 1568.04 L1413.7 1568.04 L1413.7 1532.4 M1413.7 1518.52 L1419.56 1518.52 L1419.56 1525.93 L1413.7 1525.93 L1413.7 1518.52 Z" fill="#000000" fill-rule="nonzero" fill-opacity="1" /><path clip-path="url(#clip790)" d="M1445.62 1536.5 Q1440.91 1536.5 1438.18 1540.19 Q1435.44 1543.85 1435.44 1550.25 Q1435.44 1556.65 1438.14 1560.34 Q1440.88 1564 1445.62 1564 Q1450.3 1564 1453.04 1560.31 Q1455.78 1556.62 1455.78 1550.25 Q1455.78 1543.92 1453.04 1540.23 Q1450.3 1536.5 1445.62 1536.5 M1445.62 1531.54 Q1453.26 1531.54 1457.62 1536.5 Q1461.98 1541.47 1461.98 1550.25 Q1461.98 1559 1457.62 1564 Q1453.26 1568.97 1445.62 1568.97 Q1437.95 1568.97 1433.59 1564 Q1429.26 1559 1429.26 1550.25 Q1429.26 1541.47 1433.59 1536.5 Q1437.95 1531.54 1445.62 1531.54 Z" fill="#000000" fill-rule="nonzero" fill-opacity="1" /><path clip-path="url(#clip790)" d="M1501.32 1546.53 L1501.32 1568.04 L1495.47 1568.04 L1495.47 1546.72 Q1495.47 1541.66 1493.49 1539.14 Q1491.52 1536.63 1487.57 1536.63 Q1482.83 1536.63 1480.09 1539.65 Q1477.36 1542.68 1477.36 1547.9 L1477.36 1568.04 L1471.47 1568.04 L1471.47 1532.4 L1477.36 1532.4 L1477.36 1537.93 Q1479.46 1534.72 1482.29 1533.13 Q1485.16 1531.54 1488.88 1531.54 Q1495.02 1531.54 1498.17 1535.36 Q1501.32 1539.14 1501.32 1546.53 Z" fill="#000000" fill-rule="nonzero" fill-opacity="1" /><polyline clip-path="url(#clip790)" style="stroke:#000000; stroke-linecap:round; stroke-linejoin:round; stroke-width:4; stroke-opacity:1; fill:none" points="219.38,1423.18 219.38,47.2441 "/>
<polyline clip-path="url(#clip790)" style="stroke:#000000; stroke-linecap:round; stroke-linejoin:round; stroke-width:4; stroke-opacity:1; fill:none" points="219.38,1423.15 238.278,1423.15 "/>
<polyline clip-path="url(#clip790)" style="stroke:#000000; stroke-linecap:round; stroke-linejoin:round; stroke-width:4; stroke-opacity:1; fill:none" points="219.38,1035.85 238.278,1035.85 "/>
<polyline clip-path="url(#clip790)" style="stroke:#000000; stroke-linecap:round; stroke-linejoin:round; stroke-width:4; stroke-opacity:1; fill:none" points="219.38,648.548 238.278,648.548 "/>
<polyline clip-path="url(#clip790)" style="stroke:#000000; stroke-linecap:round; stroke-linejoin:round; stroke-width:4; stroke-opacity:1; fill:none" points="219.38,261.248 238.278,261.248 "/>
<path clip-path="url(#clip790)" d="M126.205 1408.95 Q122.593 1408.95 120.765 1412.51 Q118.959 1416.05 118.959 1423.18 Q118.959 1430.29 120.765 1433.86 Q122.593 1437.4 126.205 1437.4 Q129.839 1437.4 131.644 1433.86 Q133.473 1430.29 133.473 1423.18 Q133.473 1416.05 131.644 1412.51 Q129.839 1408.95 126.205 1408.95 M126.205 1405.24 Q132.015 1405.24 135.07 1409.85 Q138.149 1414.43 138.149 1423.18 Q138.149 1431.91 135.07 1436.52 Q132.015 1441.1 126.205 1441.1 Q120.394 1441.1 117.316 1436.52 Q114.26 1431.91 114.26 1423.18 Q114.26 1414.43 117.316 1409.85 Q120.394 1405.24 126.205 1405.24 Z" fill="#000000" fill-rule="nonzero" fill-opacity="1" /><path clip-path="url(#clip790)" d="M146.366 1434.55 L151.251 1434.55 L151.251 1440.43 L146.366 1440.43 L146.366 1434.55 Z" fill="#000000" fill-rule="nonzero" fill-opacity="1" /><path clip-path="url(#clip790)" d="M171.436 1408.95 Q167.825 1408.95 165.996 1412.51 Q164.19 1416.05 164.19 1423.18 Q164.19 1430.29 165.996 1433.86 Q167.825 1437.4 171.436 1437.4 Q175.07 1437.4 176.876 1433.86 Q178.704 1430.29 178.704 1423.18 Q178.704 1416.05 176.876 1412.51 Q175.07 1408.95 171.436 1408.95 M171.436 1405.24 Q177.246 1405.24 180.301 1409.85 Q183.38 1414.43 183.38 1423.18 Q183.38 1431.91 180.301 1436.52 Q177.246 1441.1 171.436 1441.1 Q165.626 1441.1 162.547 1436.52 Q159.491 1431.91 159.491 1423.18 Q159.491 1414.43 162.547 1409.85 Q165.626 1405.24 171.436 1405.24 Z" fill="#000000" fill-rule="nonzero" fill-opacity="1" /><path clip-path="url(#clip790)" d="M127.431 1021.65 Q123.82 1021.65 121.992 1025.21 Q120.186 1028.75 120.186 1035.88 Q120.186 1042.99 121.992 1046.55 Q123.82 1050.1 127.431 1050.1 Q131.066 1050.1 132.871 1046.55 Q134.7 1042.99 134.7 1035.88 Q134.7 1028.75 132.871 1025.21 Q131.066 1021.65 127.431 1021.65 M127.431 1017.94 Q133.242 1017.94 136.297 1022.55 Q139.376 1027.13 139.376 1035.88 Q139.376 1044.61 136.297 1049.22 Q133.242 1053.8 127.431 1053.8 Q121.621 1053.8 118.543 1049.22 Q115.487 1044.61 115.487 1035.88 Q115.487 1027.13 118.543 1022.55 Q121.621 1017.94 127.431 1017.94 Z" fill="#000000" fill-rule="nonzero" fill-opacity="1" /><path clip-path="url(#clip790)" d="M147.593 1047.25 L152.478 1047.25 L152.478 1053.13 L147.593 1053.13 L147.593 1047.25 Z" fill="#000000" fill-rule="nonzero" fill-opacity="1" /><path clip-path="url(#clip790)" d="M163.473 1049.19 L171.112 1049.19 L171.112 1022.83 L162.802 1024.49 L162.802 1020.24 L171.065 1018.57 L175.741 1018.57 L175.741 1049.19 L183.38 1049.19 L183.38 1053.13 L163.473 1053.13 L163.473 1049.19 Z" fill="#000000" fill-rule="nonzero" fill-opacity="1" /><path clip-path="url(#clip790)" d="M127.802 634.347 Q124.191 634.347 122.362 637.912 Q120.556 641.453 120.556 648.583 Q120.556 655.689 122.362 659.254 Q124.191 662.796 127.802 662.796 Q131.436 662.796 133.242 659.254 Q135.07 655.689 135.07 648.583 Q135.07 641.453 133.242 637.912 Q131.436 634.347 127.802 634.347 M127.802 630.643 Q133.612 630.643 136.667 635.25 Q139.746 639.833 139.746 648.583 Q139.746 657.31 136.667 661.916 Q133.612 666.5 127.802 666.5 Q121.992 666.5 118.913 661.916 Q115.857 657.31 115.857 648.583 Q115.857 639.833 118.913 635.25 Q121.992 630.643 127.802 630.643 Z" fill="#000000" fill-rule="nonzero" fill-opacity="1" /><path clip-path="url(#clip790)" d="M147.964 659.949 L152.848 659.949 L152.848 665.828 L147.964 665.828 L147.964 659.949 Z" fill="#000000" fill-rule="nonzero" fill-opacity="1" /><path clip-path="url(#clip790)" d="M167.061 661.893 L183.38 661.893 L183.38 665.828 L161.436 665.828 L161.436 661.893 Q164.098 659.138 168.681 654.509 Q173.288 649.856 174.468 648.514 Q176.714 645.99 177.593 644.254 Q178.496 642.495 178.496 640.805 Q178.496 638.051 176.551 636.315 Q174.63 634.578 171.528 634.578 Q169.329 634.578 166.876 635.342 Q164.445 636.106 161.667 637.657 L161.667 632.935 Q164.491 631.801 166.945 631.222 Q169.399 630.643 171.436 630.643 Q176.806 630.643 180.001 633.328 Q183.195 636.014 183.195 640.504 Q183.195 642.634 182.385 644.555 Q181.598 646.453 179.491 649.046 Q178.913 649.717 175.811 652.935 Q172.709 656.129 167.061 661.893 Z" fill="#000000" fill-rule="nonzero" fill-opacity="1" /><path clip-path="url(#clip790)" d="M126.853 247.046 Q123.242 247.046 121.413 250.611 Q119.607 254.153 119.607 261.282 Q119.607 268.389 121.413 271.954 Q123.242 275.495 126.853 275.495 Q130.487 275.495 132.292 271.954 Q134.121 268.389 134.121 261.282 Q134.121 254.153 132.292 250.611 Q130.487 247.046 126.853 247.046 M126.853 243.343 Q132.663 243.343 135.718 247.949 Q138.797 252.533 138.797 261.282 Q138.797 270.009 135.718 274.616 Q132.663 279.199 126.853 279.199 Q121.043 279.199 117.964 274.616 Q114.908 270.009 114.908 261.282 Q114.908 252.533 117.964 247.949 Q121.043 243.343 126.853 243.343 Z" fill="#000000" fill-rule="nonzero" fill-opacity="1" /><path clip-path="url(#clip790)" d="M147.015 272.648 L151.899 272.648 L151.899 278.528 L147.015 278.528 L147.015 272.648 Z" fill="#000000" fill-rule="nonzero" fill-opacity="1" /><path clip-path="url(#clip790)" d="M176.251 259.894 Q179.607 260.611 181.482 262.88 Q183.38 265.148 183.38 268.482 Q183.38 273.597 179.862 276.398 Q176.343 279.199 169.862 279.199 Q167.686 279.199 165.371 278.759 Q163.079 278.343 160.626 277.486 L160.626 272.972 Q162.57 274.106 164.885 274.685 Q167.2 275.264 169.723 275.264 Q174.121 275.264 176.413 273.528 Q178.727 271.792 178.727 268.482 Q178.727 265.426 176.575 263.713 Q174.445 261.977 170.626 261.977 L166.598 261.977 L166.598 258.134 L170.811 258.134 Q174.26 258.134 176.089 256.769 Q177.917 255.38 177.917 252.787 Q177.917 250.125 176.019 248.713 Q174.144 247.278 170.626 247.278 Q168.704 247.278 166.505 247.695 Q164.306 248.111 161.667 248.991 L161.667 244.824 Q164.329 244.083 166.644 243.713 Q168.982 243.343 171.042 243.343 Q176.366 243.343 179.468 245.773 Q182.57 248.181 182.57 252.301 Q182.57 255.171 180.926 257.162 Q179.283 259.13 176.251 259.894 Z" fill="#000000" fill-rule="nonzero" fill-opacity="1" /><path clip-path="url(#clip790)" d="M18.0438 868.128 L24.314 868.128 Q22.5634 871.788 21.704 875.035 Q20.8447 878.281 20.8447 881.305 Q20.8447 886.557 22.8817 889.421 Q24.9187 892.254 28.6745 892.254 Q31.8255 892.254 33.4488 890.376 Q35.0402 888.466 36.0269 883.183 L36.8226 879.3 Q38.1912 872.106 41.6605 868.701 Q45.098 865.263 50.8908 865.263 Q57.7976 865.263 61.3624 869.91 Q64.9272 874.525 64.9272 883.469 Q64.9272 886.843 64.1633 890.663 Q63.3994 894.45 61.9035 898.524 L55.2831 898.524 Q57.4793 894.609 58.5933 890.853 Q59.7073 887.098 59.7073 883.469 Q59.7073 877.963 57.543 874.971 Q55.3786 871.979 51.3682 871.979 Q47.8671 871.979 45.8937 874.144 Q43.9204 876.276 42.9337 881.178 L42.1698 885.093 Q40.7375 892.286 37.682 895.5 Q34.6264 898.715 29.1837 898.715 Q22.8817 898.715 19.2532 894.291 Q15.6248 889.835 15.6248 882.037 Q15.6248 878.695 16.2295 875.226 Q16.8343 871.756 18.0438 868.128 Z" fill="#000000" fill-rule="nonzero" fill-opacity="1" /><path clip-path="url(#clip790)" d="M18.2347 849.699 L28.3562 849.699 L28.3562 837.636 L32.9077 837.636 L32.9077 849.699 L52.2594 849.699 Q56.6199 849.699 57.8613 848.522 Q59.1026 847.312 59.1026 843.652 L59.1026 837.636 L64.0042 837.636 L64.0042 843.652 Q64.0042 850.431 61.4897 853.009 Q58.9434 855.587 52.2594 855.587 L32.9077 855.587 L32.9077 859.884 L28.3562 859.884 L28.3562 855.587 L18.2347 855.587 L18.2347 849.699 Z" fill="#000000" fill-rule="nonzero" fill-opacity="1" /><path clip-path="url(#clip790)" d="M44.7161 799.442 L47.5806 799.442 L47.5806 826.369 Q53.6281 825.987 56.8109 822.74 Q59.9619 819.462 59.9619 813.637 Q59.9619 810.264 59.1344 807.113 Q58.3069 803.93 56.6518 800.811 L62.1899 800.811 Q63.5267 803.962 64.227 807.272 Q64.9272 810.582 64.9272 813.988 Q64.9272 822.518 59.9619 827.515 Q54.9967 832.48 46.5303 832.48 Q37.7774 832.48 32.6531 827.769 Q27.4968 823.027 27.4968 815.006 Q27.4968 807.813 32.1438 803.643 Q36.7589 799.442 44.7161 799.442 M42.9973 805.298 Q38.1912 805.362 35.3266 808.004 Q32.4621 810.614 32.4621 814.942 Q32.4621 819.844 35.2312 822.804 Q38.0002 825.732 43.0292 826.178 L42.9973 805.298 Z" fill="#000000" fill-rule="nonzero" fill-opacity="1" /><path clip-path="url(#clip790)" d="M58.657 784.164 L77.5631 784.164 L77.5631 790.053 L28.3562 790.053 L28.3562 784.164 L33.7671 784.164 Q30.5842 782.318 29.0564 779.517 Q27.4968 776.685 27.4968 772.77 Q27.4968 766.277 32.6531 762.234 Q37.8093 758.16 46.212 758.16 Q54.6147 758.16 59.771 762.234 Q64.9272 766.277 64.9272 772.77 Q64.9272 776.685 63.3994 779.517 Q61.8398 782.318 58.657 784.164 M46.212 764.24 Q39.7508 764.24 36.0905 766.913 Q32.3984 769.555 32.3984 774.202 Q32.3984 778.849 36.0905 781.522 Q39.7508 784.164 46.212 784.164 Q52.6732 784.164 56.3653 781.522 Q60.0256 778.849 60.0256 774.202 Q60.0256 769.555 56.3653 766.913 Q52.6732 764.24 46.212 764.24 Z" fill="#000000" fill-rule="nonzero" fill-opacity="1" /><path clip-path="url(#clip790)" d="M29.4065 725.727 L34.9447 725.727 Q33.6716 728.21 33.035 730.883 Q32.3984 733.557 32.3984 736.421 Q32.3984 740.782 33.7352 742.978 Q35.072 745.142 37.7456 745.142 Q39.7826 745.142 40.9603 743.583 Q42.1061 742.023 43.1565 737.313 L43.6021 735.307 Q44.9389 729.069 47.3897 726.459 Q49.8086 723.817 54.1691 723.817 Q59.1344 723.817 62.0308 727.764 Q64.9272 731.679 64.9272 738.554 Q64.9272 741.419 64.3543 744.538 Q63.8132 747.625 62.6992 751.063 L56.6518 751.063 Q58.3387 747.816 59.198 744.665 Q60.0256 741.514 60.0256 738.427 Q60.0256 734.289 58.6251 732.061 Q57.1929 729.833 54.6147 729.833 Q52.2276 729.833 50.9545 731.456 Q49.6813 733.048 48.5037 738.49 L48.0262 740.527 Q46.8804 745.97 44.5251 748.389 Q42.138 750.808 38.0002 750.808 Q32.9713 750.808 30.2341 747.243 Q27.4968 743.678 27.4968 737.122 Q27.4968 733.875 27.9743 731.011 Q28.4517 728.146 29.4065 725.727 Z" fill="#000000" fill-rule="nonzero" fill-opacity="1" /><path clip-path="url(#clip790)" d="M28.3562 714.492 L28.3562 708.635 L64.0042 708.635 L64.0042 714.492 L28.3562 714.492 M14.479 714.492 L14.479 708.635 L21.895 708.635 L21.895 714.492 L14.479 714.492 Z" fill="#000000" fill-rule="nonzero" fill-opacity="1" /><path clip-path="url(#clip790)" d="M28.3562 698.927 L28.3562 671.109 L33.7034 671.109 L59.3254 693.135 L59.3254 671.109 L64.0042 671.109 L64.0042 699.723 L58.657 699.723 L33.035 677.698 L33.035 698.927 L28.3562 698.927 Z" fill="#000000" fill-rule="nonzero" fill-opacity="1" /><path clip-path="url(#clip790)" d="M44.7161 631.674 L47.5806 631.674 L47.5806 658.601 Q53.6281 658.219 56.8109 654.972 Q59.9619 651.694 59.9619 645.869 Q59.9619 642.495 59.1344 639.344 Q58.3069 636.162 56.6518 633.042 L62.1899 633.042 Q63.5267 636.193 64.227 639.504 Q64.9272 642.814 64.9272 646.219 Q64.9272 654.749 59.9619 659.747 Q54.9967 664.712 46.5303 664.712 Q37.7774 664.712 32.6531 660.001 Q27.4968 655.259 27.4968 647.238 Q27.4968 640.045 32.1438 635.875 Q36.7589 631.674 44.7161 631.674 M42.9973 637.53 Q38.1912 637.594 35.3266 640.236 Q32.4621 642.846 32.4621 647.174 Q32.4621 652.076 35.2312 655.036 Q38.0002 657.964 43.0292 658.41 L42.9973 637.53 Z" fill="#000000" fill-rule="nonzero" fill-opacity="1" /><path clip-path="url(#clip790)" d="M42.4881 571.709 L64.0042 571.709 L64.0042 577.565 L42.679 577.565 Q37.6183 577.565 35.1038 579.539 Q32.5894 581.512 32.5894 585.459 Q32.5894 590.201 35.6131 592.938 Q38.6368 595.676 43.8567 595.676 L64.0042 595.676 L64.0042 601.564 L14.479 601.564 L14.479 595.676 L33.8944 595.676 Q30.6797 593.575 29.0883 590.742 Q27.4968 587.878 27.4968 584.154 Q27.4968 578.011 31.3163 574.86 Q35.1038 571.709 42.4881 571.709 Z" fill="#000000" fill-rule="nonzero" fill-opacity="1" /><polyline clip-path="url(#clip792)" style="stroke:#009af9; stroke-linecap:round; stroke-linejoin:round; stroke-width:4; stroke-opacity:1; fill:none" points="279.759,86.1857 312.22,252.244 344.682,394.139 377.143,453.748 409.605,444.968 442.067,439.501 474.528,481.626 506.99,660.84 539.451,597.483 571.913,716.906 604.375,737.216 636.836,727.135 669.298,704.054 701.759,793.37 734.221,879.58 766.683,879.58 799.144,887.453 831.606,861.555 864.067,899.951 896.529,964.935 928.991,1012.26 961.452,953.99 993.914,986.067 1026.38,996.264 1058.84,1077.52 1091.3,1074.39 1123.76,1024.93 1156.22,1068.04 1188.68,1113.88 1221.14,1153.79 1253.61,1156.21 1286.07,1166.22 1318.53,1176.7 1350.99,1190.97 1383.45,1210.71 1415.91,1212.62 1448.38,1208.79 1480.84,1242.83 1513.3,1248.02 1545.76,1249.59 1578.22,1274.18 1610.68,1270.62 1643.15,1286.38 1675.61,1290.31 1708.07,1302.44 1740.53,1319.49 1772.99,1316.05 1805.45,1322.68 1837.92,1331.23 1870.38,1330.71 1902.84,1344.59 1935.3,1341.53 1967.76,1346.26 2000.22,1348.47 2032.68,1355.57 2065.15,1364.5 2097.61,1366.38 2130.07,1372.24 2162.53,1375.72 2194.99,1378.47 2227.45,1377.81 2259.92,1384.24 2292.38,1383.09 "/>
<path clip-path="url(#clip790)" d="M2015.88 196.789 L2281.64 196.789 L2281.64 93.1086 L2015.88 93.1086  Z" fill="#ffffff" fill-rule="evenodd" fill-opacity="1"/>
<polyline clip-path="url(#clip790)" style="stroke:#000000; stroke-linecap:round; stroke-linejoin:round; stroke-width:4; stroke-opacity:1; fill:none" points="2015.88,196.789 2281.64,196.789 2281.64,93.1086 2015.88,93.1086 2015.88,196.789 "/>
<polyline clip-path="url(#clip790)" style="stroke:#009af9; stroke-linecap:round; stroke-linejoin:round; stroke-width:4; stroke-opacity:1; fill:none" points="2039.58,144.949 2181.8,144.949 "/>
<path clip-path="url(#clip790)" d="M2219.35 164.636 Q2217.55 169.266 2215.83 170.678 Q2214.12 172.09 2211.25 172.09 L2207.85 172.09 L2207.85 168.525 L2210.35 168.525 Q2212.11 168.525 2213.08 167.692 Q2214.05 166.858 2215.23 163.756 L2215.99 161.812 L2205.51 136.303 L2210.02 136.303 L2218.12 156.581 L2226.23 136.303 L2230.74 136.303 L2219.35 164.636 Z" fill="#000000" fill-rule="nonzero" fill-opacity="1" /><path clip-path="url(#clip790)" d="M2238.03 158.293 L2245.67 158.293 L2245.67 131.928 L2237.36 133.595 L2237.36 129.335 L2245.62 127.669 L2250.3 127.669 L2250.3 158.293 L2257.94 158.293 L2257.94 162.229 L2238.03 162.229 L2238.03 158.293 Z" fill="#000000" fill-rule="nonzero" fill-opacity="1" /></svg>
