<?xml version="1.0" encoding="utf-8"?>
<svg xmlns="http://www.w3.org/2000/svg" xmlns:xlink="http://www.w3.org/1999/xlink" width="600" height="400" viewBox="0 0 2400 1600">
<defs>
  <clipPath id="clip850">
    <rect x="0" y="0" width="2400" height="1600"/>
  </clipPath>
</defs>
<path clip-path="url(#clip850)" d="M0 1600 L2400 1600 L2400 0 L0 0  Z" fill="#ffffff" fill-rule="evenodd" fill-opacity="1"/>
<defs>
  <clipPath id="clip851">
    <rect x="480" y="0" width="1681" height="1600"/>
  </clipPath>
</defs>
<path clip-path="url(#clip850)" d="M186.274 1423.18 L1167.59 1423.18 L1167.59 47.2441 L186.274 47.2441  Z" fill="#ffffff" fill-rule="evenodd" fill-opacity="1"/>
<defs>
  <clipPath id="clip852">
    <rect x="186" y="47" width="982" height="1377"/>
  </clipPath>
</defs>
<polyline clip-path="url(#clip852)" style="stroke:#000000; stroke-linecap:round; stroke-linejoin:round; stroke-width:2; stroke-opacity:0.1; fill:none" points="199.115,1423.18 199.115,47.2441 "/>
<polyline clip-path="url(#clip852)" style="stroke:#000000; stroke-linecap:round; stroke-linejoin:round; stroke-width:2; stroke-opacity:0.1; fill:none" points="348.434,1423.18 348.434,47.2441 "/>
<polyline clip-path="url(#clip852)" style="stroke:#000000; stroke-linecap:round; stroke-linejoin:round; stroke-width:2; stroke-opacity:0.1; fill:none" points="497.752,1423.18 497.752,47.2441 "/>
<polyline clip-path="url(#clip852)" style="stroke:#000000; stroke-linecap:round; stroke-linejoin:round; stroke-width:2; stroke-opacity:0.1; fill:none" points="647.07,1423.18 647.07,47.2441 "/>
<polyline clip-path="url(#clip852)" style="stroke:#000000; stroke-linecap:round; stroke-linejoin:round; stroke-width:2; stroke-opacity:0.1; fill:none" points="796.389,1423.18 796.389,47.2441 "/>
<polyline clip-path="url(#clip852)" style="stroke:#000000; stroke-linecap:round; stroke-linejoin:round; stroke-width:2; stroke-opacity:0.1; fill:none" points="945.707,1423.18 945.707,47.2441 "/>
<polyline clip-path="url(#clip852)" style="stroke:#000000; stroke-linecap:round; stroke-linejoin:round; stroke-width:2; stroke-opacity:0.1; fill:none" points="1095.03,1423.18 1095.03,47.2441 "/>
<polyline clip-path="url(#clip852)" style="stroke:#000000; stroke-linecap:round; stroke-linejoin:round; stroke-width:2; stroke-opacity:0.1; fill:none" points="186.274,1312.18 1167.59,1312.18 "/>
<polyline clip-path="url(#clip852)" style="stroke:#000000; stroke-linecap:round; stroke-linejoin:round; stroke-width:2; stroke-opacity:0.1; fill:none" points="186.274,1078.16 1167.59,1078.16 "/>
<polyline clip-path="url(#clip852)" style="stroke:#000000; stroke-linecap:round; stroke-linejoin:round; stroke-width:2; stroke-opacity:0.1; fill:none" points="186.274,844.147 1167.59,844.147 "/>
<polyline clip-path="url(#clip852)" style="stroke:#000000; stroke-linecap:round; stroke-linejoin:round; stroke-width:2; stroke-opacity:0.1; fill:none" points="186.274,610.13 1167.59,610.13 "/>
<polyline clip-path="url(#clip852)" style="stroke:#000000; stroke-linecap:round; stroke-linejoin:round; stroke-width:2; stroke-opacity:0.1; fill:none" points="186.274,376.113 1167.59,376.113 "/>
<polyline clip-path="url(#clip852)" style="stroke:#000000; stroke-linecap:round; stroke-linejoin:round; stroke-width:2; stroke-opacity:0.1; fill:none" points="186.274,142.096 1167.59,142.096 "/>
<polyline clip-path="url(#clip850)" style="stroke:#000000; stroke-linecap:round; stroke-linejoin:round; stroke-width:4; stroke-opacity:1; fill:none" points="186.274,1423.18 1167.59,1423.18 "/>
<polyline clip-path="url(#clip850)" style="stroke:#000000; stroke-linecap:round; stroke-linejoin:round; stroke-width:4; stroke-opacity:1; fill:none" points="199.115,1423.18 199.115,1404.28 "/>
<polyline clip-path="url(#clip850)" style="stroke:#000000; stroke-linecap:round; stroke-linejoin:round; stroke-width:4; stroke-opacity:1; fill:none" points="348.434,1423.18 348.434,1404.28 "/>
<polyline clip-path="url(#clip850)" style="stroke:#000000; stroke-linecap:round; stroke-linejoin:round; stroke-width:4; stroke-opacity:1; fill:none" points="497.752,1423.18 497.752,1404.28 "/>
<polyline clip-path="url(#clip850)" style="stroke:#000000; stroke-linecap:round; stroke-linejoin:round; stroke-width:4; stroke-opacity:1; fill:none" points="647.07,1423.18 647.07,1404.28 "/>
<polyline clip-path="url(#clip850)" style="stroke:#000000; stroke-linecap:round; stroke-linejoin:round; stroke-width:4; stroke-opacity:1; fill:none" points="796.389,1423.18 796.389,1404.28 "/>
<polyline clip-path="url(#clip850)" style="stroke:#000000; stroke-linecap:round; stroke-linejoin:round; stroke-width:4; stroke-opacity:1; fill:none" points="945.707,1423.18 945.707,1404.28 "/>
<polyline clip-path="url(#clip850)" style="stroke:#000000; stroke-linecap:round; stroke-linejoin:round; stroke-width:4; stroke-opacity:1; fill:none" points="1095.03,1423.18 1095.03,1404.28 "/>
<path clip-path="url(#clip850)" d="M199.115 1454.1 Q195.504 1454.1 193.676 1457.66 Q191.87 1461.2 191.87 1468.33 Q191.87 1475.44 193.676 1479.01 Q195.504 1482.55 199.115 1482.55 Q202.75 1482.55 204.555 1479.01 Q206.384 1475.44 206.384 1468.33 Q206.384 1461.2 204.555 1457.66 Q202.75 1454.1 199.115 1454.1 M199.115 1450.39 Q204.926 1450.39 207.981 1455 Q211.06 1459.58 211.06 1468.33 Q211.06 1477.06 207.981 1481.67 Q204.926 1486.25 199.115 1486.25 Q193.305 1486.25 190.227 1481.67 Q187.171 1477.06 187.171 1468.33 Q187.171 1459.58 190.227 1455 Q193.305 1450.39 199.115 1450.39 Z" fill="#000000" fill-rule="nonzero" fill-opacity="1" /><path clip-path="url(#clip850)" d="M323.121 1481.64 L330.76 1481.64 L330.76 1455.28 L322.45 1456.95 L322.45 1452.69 L330.714 1451.02 L335.39 1451.02 L335.39 1481.64 L343.029 1481.64 L343.029 1485.58 L323.121 1485.58 L323.121 1481.64 Z" fill="#000000" fill-rule="nonzero" fill-opacity="1" /><path clip-path="url(#clip850)" d="M362.473 1454.1 Q358.862 1454.1 357.033 1457.66 Q355.228 1461.2 355.228 1468.33 Q355.228 1475.44 357.033 1479.01 Q358.862 1482.55 362.473 1482.55 Q366.107 1482.55 367.913 1479.01 Q369.741 1475.44 369.741 1468.33 Q369.741 1461.2 367.913 1457.66 Q366.107 1454.1 362.473 1454.1 M362.473 1450.39 Q368.283 1450.39 371.339 1455 Q374.417 1459.58 374.417 1468.33 Q374.417 1477.06 371.339 1481.67 Q368.283 1486.25 362.473 1486.25 Q356.663 1486.25 353.584 1481.67 Q350.529 1477.06 350.529 1468.33 Q350.529 1459.58 353.584 1455 Q356.663 1450.39 362.473 1450.39 Z" fill="#000000" fill-rule="nonzero" fill-opacity="1" /><path clip-path="url(#clip850)" d="M476.525 1481.64 L492.845 1481.64 L492.845 1485.58 L470.9 1485.58 L470.9 1481.64 Q473.562 1478.89 478.146 1474.26 Q482.752 1469.61 483.933 1468.27 Q486.178 1465.74 487.058 1464.01 Q487.96 1462.25 487.96 1460.56 Q487.96 1457.8 486.016 1456.07 Q484.095 1454.33 480.993 1454.33 Q478.794 1454.33 476.34 1455.09 Q473.909 1455.86 471.132 1457.41 L471.132 1452.69 Q473.956 1451.55 476.409 1450.97 Q478.863 1450.39 480.9 1450.39 Q486.271 1450.39 489.465 1453.08 Q492.659 1455.77 492.659 1460.26 Q492.659 1462.39 491.849 1464.31 Q491.062 1466.2 488.956 1468.8 Q488.377 1469.47 485.275 1472.69 Q482.173 1475.88 476.525 1481.64 Z" fill="#000000" fill-rule="nonzero" fill-opacity="1" /><path clip-path="url(#clip850)" d="M512.659 1454.1 Q509.048 1454.1 507.219 1457.66 Q505.414 1461.2 505.414 1468.33 Q505.414 1475.44 507.219 1479.01 Q509.048 1482.55 512.659 1482.55 Q516.294 1482.55 518.099 1479.01 Q519.928 1475.44 519.928 1468.33 Q519.928 1461.2 518.099 1457.66 Q516.294 1454.1 512.659 1454.1 M512.659 1450.39 Q518.469 1450.39 521.525 1455 Q524.604 1459.58 524.604 1468.33 Q524.604 1477.06 521.525 1481.67 Q518.469 1486.25 512.659 1486.25 Q506.849 1486.25 503.77 1481.67 Q500.715 1477.06 500.715 1468.33 Q500.715 1459.58 503.77 1455 Q506.849 1450.39 512.659 1450.39 Z" fill="#000000" fill-rule="nonzero" fill-opacity="1" /><path clip-path="url(#clip850)" d="M635.913 1466.95 Q639.269 1467.66 641.144 1469.93 Q643.042 1472.2 643.042 1475.53 Q643.042 1480.65 639.524 1483.45 Q636.005 1486.25 629.524 1486.25 Q627.348 1486.25 625.033 1485.81 Q622.742 1485.39 620.288 1484.54 L620.288 1480.02 Q622.232 1481.16 624.547 1481.74 Q626.862 1482.32 629.385 1482.32 Q633.783 1482.32 636.075 1480.58 Q638.39 1478.84 638.39 1475.53 Q638.39 1472.48 636.237 1470.77 Q634.107 1469.03 630.288 1469.03 L626.26 1469.03 L626.26 1465.19 L630.473 1465.19 Q633.922 1465.19 635.751 1463.82 Q637.58 1462.43 637.58 1459.84 Q637.58 1457.18 635.681 1455.77 Q633.806 1454.33 630.288 1454.33 Q628.367 1454.33 626.168 1454.75 Q623.969 1455.16 621.33 1456.04 L621.33 1451.88 Q623.992 1451.14 626.306 1450.77 Q628.644 1450.39 630.705 1450.39 Q636.029 1450.39 639.13 1452.83 Q642.232 1455.23 642.232 1459.35 Q642.232 1462.22 640.589 1464.21 Q638.945 1466.18 635.913 1466.95 Z" fill="#000000" fill-rule="nonzero" fill-opacity="1" /><path clip-path="url(#clip850)" d="M661.908 1454.1 Q658.297 1454.1 656.468 1457.66 Q654.663 1461.2 654.663 1468.33 Q654.663 1475.44 656.468 1479.01 Q658.297 1482.55 661.908 1482.55 Q665.542 1482.55 667.348 1479.01 Q669.177 1475.44 669.177 1468.33 Q669.177 1461.2 667.348 1457.66 Q665.542 1454.1 661.908 1454.1 M661.908 1450.39 Q667.718 1450.39 670.774 1455 Q673.853 1459.58 673.853 1468.33 Q673.853 1477.06 670.774 1481.67 Q667.718 1486.25 661.908 1486.25 Q656.098 1486.25 653.019 1481.67 Q649.964 1477.06 649.964 1468.33 Q649.964 1459.58 653.019 1455 Q656.098 1450.39 661.908 1450.39 Z" fill="#000000" fill-rule="nonzero" fill-opacity="1" /><path clip-path="url(#clip850)" d="M784.56 1455.09 L772.754 1473.54 L784.56 1473.54 L784.56 1455.09 M783.333 1451.02 L789.213 1451.02 L789.213 1473.54 L794.143 1473.54 L794.143 1477.43 L789.213 1477.43 L789.213 1485.58 L784.56 1485.58 L784.56 1477.43 L768.958 1477.43 L768.958 1472.92 L783.333 1451.02 Z" fill="#000000" fill-rule="nonzero" fill-opacity="1" /><path clip-path="url(#clip850)" d="M811.875 1454.1 Q808.263 1454.1 806.435 1457.66 Q804.629 1461.2 804.629 1468.33 Q804.629 1475.44 806.435 1479.01 Q808.263 1482.55 811.875 1482.55 Q815.509 1482.55 817.314 1479.01 Q819.143 1475.44 819.143 1468.33 Q819.143 1461.2 817.314 1457.66 Q815.509 1454.1 811.875 1454.1 M811.875 1450.39 Q817.685 1450.39 820.74 1455 Q823.819 1459.58 823.819 1468.33 Q823.819 1477.06 820.74 1481.67 Q817.685 1486.25 811.875 1486.25 Q806.064 1486.25 802.986 1481.67 Q799.93 1477.06 799.93 1468.33 Q799.93 1459.58 802.986 1455 Q806.064 1450.39 811.875 1450.39 Z" fill="#000000" fill-rule="nonzero" fill-opacity="1" /><path clip-path="url(#clip850)" d="M920.406 1451.02 L938.762 1451.02 L938.762 1454.96 L924.688 1454.96 L924.688 1463.43 Q925.707 1463.08 926.725 1462.92 Q927.744 1462.73 928.762 1462.73 Q934.549 1462.73 937.929 1465.9 Q941.309 1469.08 941.309 1474.49 Q941.309 1480.07 937.836 1483.17 Q934.364 1486.25 928.045 1486.25 Q925.869 1486.25 923.6 1485.88 Q921.355 1485.51 918.948 1484.77 L918.948 1480.07 Q921.031 1481.2 923.253 1481.76 Q925.475 1482.32 927.952 1482.32 Q931.957 1482.32 934.295 1480.21 Q936.633 1478.1 936.633 1474.49 Q936.633 1470.88 934.295 1468.77 Q931.957 1466.67 927.952 1466.67 Q926.077 1466.67 924.202 1467.08 Q922.35 1467.5 920.406 1468.38 L920.406 1451.02 Z" fill="#000000" fill-rule="nonzero" fill-opacity="1" /><path clip-path="url(#clip850)" d="M960.522 1454.1 Q956.91 1454.1 955.082 1457.66 Q953.276 1461.2 953.276 1468.33 Q953.276 1475.44 955.082 1479.01 Q956.91 1482.55 960.522 1482.55 Q964.156 1482.55 965.961 1479.01 Q967.79 1475.44 967.79 1468.33 Q967.79 1461.2 965.961 1457.66 Q964.156 1454.1 960.522 1454.1 M960.522 1450.39 Q966.332 1450.39 969.387 1455 Q972.466 1459.58 972.466 1468.33 Q972.466 1477.06 969.387 1481.67 Q966.332 1486.25 960.522 1486.25 Q954.711 1486.25 951.633 1481.67 Q948.577 1477.06 948.577 1468.33 Q948.577 1459.58 951.633 1455 Q954.711 1450.39 960.522 1450.39 Z" fill="#000000" fill-rule="nonzero" fill-opacity="1" /><path clip-path="url(#clip850)" d="M1080.43 1466.44 Q1077.28 1466.44 1075.43 1468.59 Q1073.6 1470.74 1073.6 1474.49 Q1073.6 1478.22 1075.43 1480.39 Q1077.28 1482.55 1080.43 1482.55 Q1083.58 1482.55 1085.41 1480.39 Q1087.26 1478.22 1087.26 1474.49 Q1087.26 1470.74 1085.41 1468.59 Q1083.58 1466.44 1080.43 1466.44 M1089.71 1451.78 L1089.71 1456.04 Q1087.95 1455.21 1086.15 1454.77 Q1084.37 1454.33 1082.61 1454.33 Q1077.98 1454.33 1075.52 1457.45 Q1073.09 1460.58 1072.75 1466.9 Q1074.11 1464.89 1076.17 1463.82 Q1078.23 1462.73 1080.71 1462.73 Q1085.92 1462.73 1088.93 1465.9 Q1091.96 1469.05 1091.96 1474.49 Q1091.96 1479.82 1088.81 1483.03 Q1085.66 1486.25 1080.43 1486.25 Q1074.43 1486.25 1071.26 1481.67 Q1068.09 1477.06 1068.09 1468.33 Q1068.09 1460.14 1071.98 1455.28 Q1075.87 1450.39 1082.42 1450.39 Q1084.18 1450.39 1085.96 1450.74 Q1087.77 1451.09 1089.71 1451.78 Z" fill="#000000" fill-rule="nonzero" fill-opacity="1" /><path clip-path="url(#clip850)" d="M1110.01 1454.1 Q1106.4 1454.1 1104.57 1457.66 Q1102.77 1461.2 1102.77 1468.33 Q1102.77 1475.44 1104.57 1479.01 Q1106.4 1482.55 1110.01 1482.55 Q1113.65 1482.55 1115.45 1479.01 Q1117.28 1475.44 1117.28 1468.33 Q1117.28 1461.2 1115.45 1457.66 Q1113.65 1454.1 1110.01 1454.1 M1110.01 1450.39 Q1115.82 1450.39 1118.88 1455 Q1121.96 1459.58 1121.96 1468.33 Q1121.96 1477.06 1118.88 1481.67 Q1115.82 1486.25 1110.01 1486.25 Q1104.2 1486.25 1101.12 1481.67 Q1098.07 1477.06 1098.07 1468.33 Q1098.07 1459.58 1101.12 1455 Q1104.2 1450.39 1110.01 1450.39 Z" fill="#000000" fill-rule="nonzero" fill-opacity="1" /><path clip-path="url(#clip850)" d="M492.265 1522.08 L492.265 1528.35 Q488.604 1526.6 485.358 1525.74 Q482.111 1524.88 479.088 1524.88 Q473.836 1524.88 470.971 1526.92 Q468.139 1528.96 468.139 1532.71 Q468.139 1535.87 470.017 1537.49 Q471.926 1539.08 477.21 1540.07 L481.093 1540.86 Q488.286 1542.23 491.692 1545.7 Q495.129 1549.14 495.129 1554.93 Q495.129 1561.84 490.482 1565.4 Q485.867 1568.97 476.923 1568.97 Q473.55 1568.97 469.73 1568.2 Q465.943 1567.44 461.868 1565.94 L461.868 1559.32 Q465.783 1561.52 469.539 1562.63 Q473.295 1563.75 476.923 1563.75 Q482.43 1563.75 485.422 1561.58 Q488.413 1559.42 488.413 1555.41 Q488.413 1551.91 486.249 1549.93 Q484.117 1547.96 479.215 1546.97 L475.3 1546.21 Q468.107 1544.78 464.892 1541.72 Q461.678 1538.67 461.678 1533.22 Q461.678 1526.92 466.102 1523.29 Q470.558 1519.66 478.356 1519.66 Q481.698 1519.66 485.167 1520.27 Q488.636 1520.87 492.265 1522.08 Z" fill="#000000" fill-rule="nonzero" fill-opacity="1" /><path clip-path="url(#clip850)" d="M505.155 1520.52 L514.736 1520.52 L526.862 1552.86 L539.053 1520.52 L548.633 1520.52 L548.633 1568.04 L542.363 1568.04 L542.363 1526.32 L530.109 1558.91 L523.648 1558.91 L511.394 1526.32 L511.394 1568.04 L505.155 1568.04 L505.155 1520.52 Z" fill="#000000" fill-rule="nonzero" fill-opacity="1" /><path clip-path="url(#clip850)" d="M596.981 1524.18 L596.981 1530.96 Q593.734 1527.94 590.042 1526.44 Q586.382 1524.95 582.244 1524.95 Q574.096 1524.95 569.767 1529.95 Q565.439 1534.91 565.439 1544.33 Q565.439 1553.72 569.767 1558.72 Q574.096 1563.68 582.244 1563.68 Q586.382 1563.68 590.042 1562.19 Q593.734 1560.69 596.981 1557.67 L596.981 1564.38 Q593.607 1566.68 589.819 1567.82 Q586.063 1568.97 581.862 1568.97 Q571.072 1568.97 564.866 1562.38 Q558.659 1555.76 558.659 1544.33 Q558.659 1532.87 564.866 1526.28 Q571.072 1519.66 581.862 1519.66 Q586.127 1519.66 589.883 1520.81 Q593.67 1521.92 596.981 1524.18 Z" fill="#000000" fill-rule="nonzero" fill-opacity="1" /><path clip-path="url(#clip850)" d="M627.631 1520.52 L634.061 1520.52 L634.061 1568.04 L627.631 1568.04 L627.631 1520.52 Z" fill="#000000" fill-rule="nonzero" fill-opacity="1" /><path clip-path="url(#clip850)" d="M652.394 1522.27 L652.394 1532.4 L664.457 1532.4 L664.457 1536.95 L652.394 1536.95 L652.394 1556.3 Q652.394 1560.66 653.572 1561.9 Q654.781 1563.14 658.442 1563.14 L664.457 1563.14 L664.457 1568.04 L658.442 1568.04 Q651.662 1568.04 649.084 1565.53 Q646.506 1562.98 646.506 1556.3 L646.506 1536.95 L642.209 1536.95 L642.209 1532.4 L646.506 1532.4 L646.506 1522.27 L652.394 1522.27 Z" fill="#000000" fill-rule="nonzero" fill-opacity="1" /><path clip-path="url(#clip850)" d="M702.651 1548.76 L702.651 1551.62 L675.724 1551.62 Q676.106 1557.67 679.353 1560.85 Q682.631 1564 688.456 1564 Q691.83 1564 694.981 1563.17 Q698.164 1562.35 701.283 1560.69 L701.283 1566.23 Q698.132 1567.57 694.822 1568.27 Q691.511 1568.97 688.106 1568.97 Q679.576 1568.97 674.579 1564 Q669.613 1559.04 669.613 1550.57 Q669.613 1541.82 674.324 1536.69 Q679.066 1531.54 687.087 1531.54 Q694.28 1531.54 698.45 1536.18 Q702.651 1540.8 702.651 1548.76 M696.795 1547.04 Q696.731 1542.23 694.089 1539.37 Q691.48 1536.5 687.151 1536.5 Q682.249 1536.5 679.289 1539.27 Q676.361 1542.04 675.915 1547.07 L696.795 1547.04 Z" fill="#000000" fill-rule="nonzero" fill-opacity="1" /><path clip-path="url(#clip850)" d="M732.92 1537.87 Q731.934 1537.3 730.756 1537.04 Q729.61 1536.76 728.21 1536.76 Q723.244 1536.76 720.571 1540 Q717.929 1543.22 717.929 1549.27 L717.929 1568.04 L712.041 1568.04 L712.041 1532.4 L717.929 1532.4 L717.929 1537.93 Q719.775 1534.69 722.735 1533.13 Q725.695 1531.54 729.928 1531.54 Q730.533 1531.54 731.265 1531.63 Q731.997 1531.7 732.888 1531.85 L732.92 1537.87 Z" fill="#000000" fill-rule="nonzero" fill-opacity="1" /><path clip-path="url(#clip850)" d="M755.264 1550.12 Q748.166 1550.12 745.429 1551.75 Q742.692 1553.37 742.692 1557.29 Q742.692 1560.4 744.729 1562.25 Q746.798 1564.07 750.33 1564.07 Q755.2 1564.07 758.128 1560.63 Q761.089 1557.16 761.089 1551.43 L761.089 1550.12 L755.264 1550.12 M766.945 1547.71 L766.945 1568.04 L761.089 1568.04 L761.089 1562.63 Q759.083 1565.88 756.091 1567.44 Q753.1 1568.97 748.771 1568.97 Q743.296 1568.97 740.05 1565.91 Q736.835 1562.82 736.835 1557.67 Q736.835 1551.65 740.846 1548.6 Q744.888 1545.54 752.877 1545.54 L761.089 1545.54 L761.089 1544.97 Q761.089 1540.93 758.415 1538.73 Q755.773 1536.5 750.967 1536.5 Q747.912 1536.5 745.015 1537.23 Q742.119 1537.97 739.445 1539.43 L739.445 1534.02 Q742.66 1532.78 745.684 1532.17 Q748.707 1531.54 751.572 1531.54 Q759.306 1531.54 763.126 1535.55 Q766.945 1539.56 766.945 1547.71 Z" fill="#000000" fill-rule="nonzero" fill-opacity="1" /><path clip-path="url(#clip850)" d="M784.801 1522.27 L784.801 1532.4 L796.864 1532.4 L796.864 1536.95 L784.801 1536.95 L784.801 1556.3 Q784.801 1560.66 785.978 1561.9 Q787.188 1563.14 790.848 1563.14 L796.864 1563.14 L796.864 1568.04 L790.848 1568.04 Q784.069 1568.04 781.491 1565.53 Q778.913 1562.98 778.913 1556.3 L778.913 1536.95 L774.616 1536.95 L774.616 1532.4 L778.913 1532.4 L778.913 1522.27 L784.801 1522.27 Z" fill="#000000" fill-rule="nonzero" fill-opacity="1" /><path clip-path="url(#clip850)" d="M804.566 1532.4 L810.423 1532.4 L810.423 1568.04 L804.566 1568.04 L804.566 1532.4 M804.566 1518.52 L810.423 1518.52 L810.423 1525.93 L804.566 1525.93 L804.566 1518.52 Z" fill="#000000" fill-rule="nonzero" fill-opacity="1" /><path clip-path="url(#clip850)" d="M836.49 1536.5 Q831.78 1536.5 829.042 1540.19 Q826.305 1543.85 826.305 1550.25 Q826.305 1556.65 829.011 1560.34 Q831.748 1564 836.49 1564 Q841.169 1564 843.906 1560.31 Q846.644 1556.62 846.644 1550.25 Q846.644 1543.92 843.906 1540.23 Q841.169 1536.5 836.49 1536.5 M836.49 1531.54 Q844.129 1531.54 848.49 1536.5 Q852.85 1541.47 852.85 1550.25 Q852.85 1559 848.49 1564 Q844.129 1568.97 836.49 1568.97 Q828.82 1568.97 824.459 1564 Q820.13 1559 820.13 1550.25 Q820.13 1541.47 824.459 1536.5 Q828.82 1531.54 836.49 1531.54 Z" fill="#000000" fill-rule="nonzero" fill-opacity="1" /><path clip-path="url(#clip850)" d="M892.19 1546.53 L892.19 1568.04 L886.334 1568.04 L886.334 1546.72 Q886.334 1541.66 884.36 1539.14 Q882.387 1536.63 878.44 1536.63 Q873.698 1536.63 870.961 1539.65 Q868.223 1542.68 868.223 1547.9 L868.223 1568.04 L862.335 1568.04 L862.335 1532.4 L868.223 1532.4 L868.223 1537.93 Q870.324 1534.72 873.157 1533.13 Q876.021 1531.54 879.745 1531.54 Q885.888 1531.54 889.039 1535.36 Q892.19 1539.14 892.19 1546.53 Z" fill="#000000" fill-rule="nonzero" fill-opacity="1" /><polyline clip-path="url(#clip850)" style="stroke:#000000; stroke-linecap:round; stroke-linejoin:round; stroke-width:4; stroke-opacity:1; fill:none" points="186.274,1423.18 186.274,47.2441 "/>
<polyline clip-path="url(#clip850)" style="stroke:#000000; stroke-linecap:round; stroke-linejoin:round; stroke-width:4; stroke-opacity:1; fill:none" points="186.274,1312.18 205.172,1312.18 "/>
<polyline clip-path="url(#clip850)" style="stroke:#000000; stroke-linecap:round; stroke-linejoin:round; stroke-width:4; stroke-opacity:1; fill:none" points="186.274,1078.16 205.172,1078.16 "/>
<polyline clip-path="url(#clip850)" style="stroke:#000000; stroke-linecap:round; stroke-linejoin:round; stroke-width:4; stroke-opacity:1; fill:none" points="186.274,844.147 205.172,844.147 "/>
<polyline clip-path="url(#clip850)" style="stroke:#000000; stroke-linecap:round; stroke-linejoin:round; stroke-width:4; stroke-opacity:1; fill:none" points="186.274,610.13 205.172,610.13 "/>
<polyline clip-path="url(#clip850)" style="stroke:#000000; stroke-linecap:round; stroke-linejoin:round; stroke-width:4; stroke-opacity:1; fill:none" points="186.274,376.113 205.172,376.113 "/>
<polyline clip-path="url(#clip850)" style="stroke:#000000; stroke-linecap:round; stroke-linejoin:round; stroke-width:4; stroke-opacity:1; fill:none" points="186.274,142.096 205.172,142.096 "/>
<path clip-path="url(#clip850)" d="M63.9319 1297.98 Q60.3208 1297.98 58.4921 1301.55 Q56.6865 1305.09 56.6865 1312.22 Q56.6865 1319.32 58.4921 1322.89 Q60.3208 1326.43 63.9319 1326.43 Q67.5661 1326.43 69.3717 1322.89 Q71.2004 1319.32 71.2004 1312.22 Q71.2004 1305.09 69.3717 1301.55 Q67.5661 1297.98 63.9319 1297.98 M63.9319 1294.28 Q69.742 1294.28 72.7976 1298.88 Q75.8763 1303.47 75.8763 1312.22 Q75.8763 1320.94 72.7976 1325.55 Q69.742 1330.13 63.9319 1330.13 Q58.1217 1330.13 55.043 1325.55 Q51.9875 1320.94 51.9875 1312.22 Q51.9875 1303.47 55.043 1298.88 Q58.1217 1294.28 63.9319 1294.28 Z" fill="#000000" fill-rule="nonzero" fill-opacity="1" /><path clip-path="url(#clip850)" d="M84.0938 1323.58 L88.978 1323.58 L88.978 1329.46 L84.0938 1329.46 L84.0938 1323.58 Z" fill="#000000" fill-rule="nonzero" fill-opacity="1" /><path clip-path="url(#clip850)" d="M109.163 1297.98 Q105.552 1297.98 103.723 1301.55 Q101.918 1305.09 101.918 1312.22 Q101.918 1319.32 103.723 1322.89 Q105.552 1326.43 109.163 1326.43 Q112.797 1326.43 114.603 1322.89 Q116.432 1319.32 116.432 1312.22 Q116.432 1305.09 114.603 1301.55 Q112.797 1297.98 109.163 1297.98 M109.163 1294.28 Q114.973 1294.28 118.029 1298.88 Q121.107 1303.47 121.107 1312.22 Q121.107 1320.94 118.029 1325.55 Q114.973 1330.13 109.163 1330.13 Q103.353 1330.13 100.274 1325.55 Q97.2187 1320.94 97.2187 1312.22 Q97.2187 1303.47 100.274 1298.88 Q103.353 1294.28 109.163 1294.28 Z" fill="#000000" fill-rule="nonzero" fill-opacity="1" /><path clip-path="url(#clip850)" d="M129.371 1294.9 L147.728 1294.9 L147.728 1298.84 L133.654 1298.84 L133.654 1307.31 Q134.672 1306.96 135.691 1306.8 Q136.709 1306.61 137.728 1306.61 Q143.515 1306.61 146.894 1309.79 Q150.274 1312.96 150.274 1318.37 Q150.274 1323.95 146.802 1327.05 Q143.33 1330.13 137.01 1330.13 Q134.834 1330.13 132.566 1329.76 Q130.32 1329.39 127.913 1328.65 L127.913 1323.95 Q129.996 1325.09 132.219 1325.64 Q134.441 1326.2 136.918 1326.2 Q140.922 1326.2 143.26 1324.09 Q145.598 1321.98 145.598 1318.37 Q145.598 1314.76 143.26 1312.66 Q140.922 1310.55 136.918 1310.55 Q135.043 1310.55 133.168 1310.97 Q131.316 1311.38 129.371 1312.26 L129.371 1294.9 Z" fill="#000000" fill-rule="nonzero" fill-opacity="1" /><path clip-path="url(#clip850)" d="M62.9365 1063.96 Q59.3254 1063.96 57.4967 1067.53 Q55.6912 1071.07 55.6912 1078.2 Q55.6912 1085.31 57.4967 1088.87 Q59.3254 1092.41 62.9365 1092.41 Q66.5707 1092.41 68.3763 1088.87 Q70.205 1085.31 70.205 1078.2 Q70.205 1071.07 68.3763 1067.53 Q66.5707 1063.96 62.9365 1063.96 M62.9365 1060.26 Q68.7467 1060.26 71.8022 1064.87 Q74.8809 1069.45 74.8809 1078.2 Q74.8809 1086.93 71.8022 1091.53 Q68.7467 1096.12 62.9365 1096.12 Q57.1264 1096.12 54.0477 1091.53 Q50.9921 1086.93 50.9921 1078.2 Q50.9921 1069.45 54.0477 1064.87 Q57.1264 1060.26 62.9365 1060.26 Z" fill="#000000" fill-rule="nonzero" fill-opacity="1" /><path clip-path="url(#clip850)" d="M83.0984 1089.56 L87.9827 1089.56 L87.9827 1095.44 L83.0984 1095.44 L83.0984 1089.56 Z" fill="#000000" fill-rule="nonzero" fill-opacity="1" /><path clip-path="url(#clip850)" d="M98.978 1091.51 L106.617 1091.51 L106.617 1065.14 L98.3067 1066.81 L98.3067 1062.55 L106.571 1060.88 L111.246 1060.88 L111.246 1091.51 L118.885 1091.51 L118.885 1095.44 L98.978 1095.44 L98.978 1091.51 Z" fill="#000000" fill-rule="nonzero" fill-opacity="1" /><path clip-path="url(#clip850)" d="M138.33 1063.96 Q134.719 1063.96 132.89 1067.53 Q131.084 1071.07 131.084 1078.2 Q131.084 1085.31 132.89 1088.87 Q134.719 1092.41 138.33 1092.41 Q141.964 1092.41 143.769 1088.87 Q145.598 1085.31 145.598 1078.2 Q145.598 1071.07 143.769 1067.53 Q141.964 1063.96 138.33 1063.96 M138.33 1060.26 Q144.14 1060.26 147.195 1064.87 Q150.274 1069.45 150.274 1078.2 Q150.274 1086.93 147.195 1091.53 Q144.14 1096.12 138.33 1096.12 Q132.519 1096.12 129.441 1091.53 Q126.385 1086.93 126.385 1078.2 Q126.385 1069.45 129.441 1064.87 Q132.519 1060.26 138.33 1060.26 Z" fill="#000000" fill-rule="nonzero" fill-opacity="1" /><path clip-path="url(#clip850)" d="M63.9319 829.946 Q60.3208 829.946 58.4921 833.511 Q56.6865 837.052 56.6865 844.182 Q56.6865 851.289 58.4921 854.853 Q60.3208 858.395 63.9319 858.395 Q67.5661 858.395 69.3717 854.853 Q71.2004 851.289 71.2004 844.182 Q71.2004 837.052 69.3717 833.511 Q67.5661 829.946 63.9319 829.946 M63.9319 826.242 Q69.742 826.242 72.7976 830.849 Q75.8763 835.432 75.8763 844.182 Q75.8763 852.909 72.7976 857.515 Q69.742 862.099 63.9319 862.099 Q58.1217 862.099 55.043 857.515 Q51.9875 852.909 51.9875 844.182 Q51.9875 835.432 55.043 830.849 Q58.1217 826.242 63.9319 826.242 Z" fill="#000000" fill-rule="nonzero" fill-opacity="1" /><path clip-path="url(#clip850)" d="M84.0938 855.548 L88.978 855.548 L88.978 861.427 L84.0938 861.427 L84.0938 855.548 Z" fill="#000000" fill-rule="nonzero" fill-opacity="1" /><path clip-path="url(#clip850)" d="M99.9733 857.492 L107.612 857.492 L107.612 831.127 L99.3021 832.793 L99.3021 828.534 L107.566 826.867 L112.242 826.867 L112.242 857.492 L119.881 857.492 L119.881 861.427 L99.9733 861.427 L99.9733 857.492 Z" fill="#000000" fill-rule="nonzero" fill-opacity="1" /><path clip-path="url(#clip850)" d="M129.371 826.867 L147.728 826.867 L147.728 830.803 L133.654 830.803 L133.654 839.275 Q134.672 838.927 135.691 838.765 Q136.709 838.58 137.728 838.58 Q143.515 838.58 146.894 841.752 Q150.274 844.923 150.274 850.339 Q150.274 855.918 146.802 859.02 Q143.33 862.099 137.01 862.099 Q134.834 862.099 132.566 861.728 Q130.32 861.358 127.913 860.617 L127.913 855.918 Q129.996 857.052 132.219 857.608 Q134.441 858.163 136.918 858.163 Q140.922 858.163 143.26 856.057 Q145.598 853.951 145.598 850.339 Q145.598 846.728 143.26 844.622 Q140.922 842.515 136.918 842.515 Q135.043 842.515 133.168 842.932 Q131.316 843.349 129.371 844.228 L129.371 826.867 Z" fill="#000000" fill-rule="nonzero" fill-opacity="1" /><path clip-path="url(#clip850)" d="M62.9365 595.929 Q59.3254 595.929 57.4967 599.494 Q55.6912 603.035 55.6912 610.165 Q55.6912 617.271 57.4967 620.836 Q59.3254 624.378 62.9365 624.378 Q66.5707 624.378 68.3763 620.836 Q70.205 617.271 70.205 610.165 Q70.205 603.035 68.3763 599.494 Q66.5707 595.929 62.9365 595.929 M62.9365 592.225 Q68.7467 592.225 71.8022 596.832 Q74.8809 601.415 74.8809 610.165 Q74.8809 618.892 71.8022 623.498 Q68.7467 628.081 62.9365 628.081 Q57.1264 628.081 54.0477 623.498 Q50.9921 618.892 50.9921 610.165 Q50.9921 601.415 54.0477 596.832 Q57.1264 592.225 62.9365 592.225 Z" fill="#000000" fill-rule="nonzero" fill-opacity="1" /><path clip-path="url(#clip850)" d="M83.0984 621.531 L87.9827 621.531 L87.9827 627.41 L83.0984 627.41 L83.0984 621.531 Z" fill="#000000" fill-rule="nonzero" fill-opacity="1" /><path clip-path="url(#clip850)" d="M102.196 623.475 L118.515 623.475 L118.515 627.41 L96.5706 627.41 L96.5706 623.475 Q99.2326 620.72 103.816 616.091 Q108.422 611.438 109.603 610.095 Q111.848 607.572 112.728 605.836 Q113.631 604.077 113.631 602.387 Q113.631 599.633 111.686 597.896 Q109.765 596.16 106.663 596.16 Q104.464 596.16 102.01 596.924 Q99.5798 597.688 96.8021 599.239 L96.8021 594.517 Q99.6261 593.383 102.08 592.804 Q104.534 592.225 106.571 592.225 Q111.941 592.225 115.135 594.91 Q118.33 597.596 118.33 602.086 Q118.33 604.216 117.52 606.137 Q116.733 608.035 114.626 610.628 Q114.047 611.299 110.946 614.517 Q107.844 617.711 102.196 623.475 Z" fill="#000000" fill-rule="nonzero" fill-opacity="1" /><path clip-path="url(#clip850)" d="M138.33 595.929 Q134.719 595.929 132.89 599.494 Q131.084 603.035 131.084 610.165 Q131.084 617.271 132.89 620.836 Q134.719 624.378 138.33 624.378 Q141.964 624.378 143.769 620.836 Q145.598 617.271 145.598 610.165 Q145.598 603.035 143.769 599.494 Q141.964 595.929 138.33 595.929 M138.33 592.225 Q144.14 592.225 147.195 596.832 Q150.274 601.415 150.274 610.165 Q150.274 618.892 147.195 623.498 Q144.14 628.081 138.33 628.081 Q132.519 628.081 129.441 623.498 Q126.385 618.892 126.385 610.165 Q126.385 601.415 129.441 596.832 Q132.519 592.225 138.33 592.225 Z" fill="#000000" fill-rule="nonzero" fill-opacity="1" /><path clip-path="url(#clip850)" d="M63.9319 361.912 Q60.3208 361.912 58.4921 365.476 Q56.6865 369.018 56.6865 376.148 Q56.6865 383.254 58.4921 386.819 Q60.3208 390.361 63.9319 390.361 Q67.5661 390.361 69.3717 386.819 Q71.2004 383.254 71.2004 376.148 Q71.2004 369.018 69.3717 365.476 Q67.5661 361.912 63.9319 361.912 M63.9319 358.208 Q69.742 358.208 72.7976 362.814 Q75.8763 367.398 75.8763 376.148 Q75.8763 384.874 72.7976 389.481 Q69.742 394.064 63.9319 394.064 Q58.1217 394.064 55.043 389.481 Q51.9875 384.874 51.9875 376.148 Q51.9875 367.398 55.043 362.814 Q58.1217 358.208 63.9319 358.208 Z" fill="#000000" fill-rule="nonzero" fill-opacity="1" /><path clip-path="url(#clip850)" d="M84.0938 387.513 L88.978 387.513 L88.978 393.393 L84.0938 393.393 L84.0938 387.513 Z" fill="#000000" fill-rule="nonzero" fill-opacity="1" /><path clip-path="url(#clip850)" d="M103.191 389.458 L119.51 389.458 L119.51 393.393 L97.566 393.393 L97.566 389.458 Q100.228 386.703 104.811 382.074 Q109.418 377.421 110.598 376.078 Q112.844 373.555 113.723 371.819 Q114.626 370.06 114.626 368.37 Q114.626 365.615 112.682 363.879 Q110.76 362.143 107.658 362.143 Q105.459 362.143 103.006 362.907 Q100.575 363.671 97.7974 365.222 L97.7974 360.5 Q100.621 359.365 103.075 358.787 Q105.529 358.208 107.566 358.208 Q112.936 358.208 116.131 360.893 Q119.325 363.578 119.325 368.069 Q119.325 370.199 118.515 372.12 Q117.728 374.018 115.621 376.611 Q115.043 377.282 111.941 380.5 Q108.839 383.694 103.191 389.458 Z" fill="#000000" fill-rule="nonzero" fill-opacity="1" /><path clip-path="url(#clip850)" d="M129.371 358.833 L147.728 358.833 L147.728 362.768 L133.654 362.768 L133.654 371.24 Q134.672 370.893 135.691 370.731 Q136.709 370.546 137.728 370.546 Q143.515 370.546 146.894 373.717 Q150.274 376.888 150.274 382.305 Q150.274 387.884 146.802 390.986 Q143.33 394.064 137.01 394.064 Q134.834 394.064 132.566 393.694 Q130.32 393.324 127.913 392.583 L127.913 387.884 Q129.996 389.018 132.219 389.574 Q134.441 390.129 136.918 390.129 Q140.922 390.129 143.26 388.023 Q145.598 385.916 145.598 382.305 Q145.598 378.694 143.26 376.587 Q140.922 374.481 136.918 374.481 Q135.043 374.481 133.168 374.898 Q131.316 375.314 129.371 376.194 L129.371 358.833 Z" fill="#000000" fill-rule="nonzero" fill-opacity="1" /><path clip-path="url(#clip850)" d="M62.9365 127.894 Q59.3254 127.894 57.4967 131.459 Q55.6912 135.001 55.6912 142.13 Q55.6912 149.237 57.4967 152.802 Q59.3254 156.343 62.9365 156.343 Q66.5707 156.343 68.3763 152.802 Q70.205 149.237 70.205 142.13 Q70.205 135.001 68.3763 131.459 Q66.5707 127.894 62.9365 127.894 M62.9365 124.191 Q68.7467 124.191 71.8022 128.797 Q74.8809 133.381 74.8809 142.13 Q74.8809 150.857 71.8022 155.464 Q68.7467 160.047 62.9365 160.047 Q57.1264 160.047 54.0477 155.464 Q50.9921 150.857 50.9921 142.13 Q50.9921 133.381 54.0477 128.797 Q57.1264 124.191 62.9365 124.191 Z" fill="#000000" fill-rule="nonzero" fill-opacity="1" /><path clip-path="url(#clip850)" d="M83.0984 153.496 L87.9827 153.496 L87.9827 159.376 L83.0984 159.376 L83.0984 153.496 Z" fill="#000000" fill-rule="nonzero" fill-opacity="1" /><path clip-path="url(#clip850)" d="M112.334 140.742 Q115.691 141.459 117.566 143.728 Q119.464 145.996 119.464 149.33 Q119.464 154.445 115.945 157.246 Q112.427 160.047 105.946 160.047 Q103.77 160.047 101.455 159.607 Q99.1632 159.191 96.7095 158.334 L96.7095 153.82 Q98.6539 154.954 100.969 155.533 Q103.284 156.112 105.807 156.112 Q110.205 156.112 112.496 154.376 Q114.811 152.64 114.811 149.33 Q114.811 146.274 112.658 144.561 Q110.529 142.825 106.709 142.825 L102.682 142.825 L102.682 138.982 L106.895 138.982 Q110.344 138.982 112.172 137.617 Q114.001 136.228 114.001 133.635 Q114.001 130.973 112.103 129.561 Q110.228 128.126 106.709 128.126 Q104.788 128.126 102.589 128.543 Q100.39 128.959 97.7511 129.839 L97.7511 125.672 Q100.413 124.932 102.728 124.561 Q105.066 124.191 107.126 124.191 Q112.45 124.191 115.552 126.621 Q118.654 129.029 118.654 133.149 Q118.654 136.019 117.01 138.01 Q115.367 139.978 112.334 140.742 Z" fill="#000000" fill-rule="nonzero" fill-opacity="1" /><path clip-path="url(#clip850)" d="M138.33 127.894 Q134.719 127.894 132.89 131.459 Q131.084 135.001 131.084 142.13 Q131.084 149.237 132.89 152.802 Q134.719 156.343 138.33 156.343 Q141.964 156.343 143.769 152.802 Q145.598 149.237 145.598 142.13 Q145.598 135.001 143.769 131.459 Q141.964 127.894 138.33 127.894 M138.33 124.191 Q144.14 124.191 147.195 128.797 Q150.274 133.381 150.274 142.13 Q150.274 150.857 147.195 155.464 Q144.14 160.047 138.33 160.047 Q132.519 160.047 129.441 155.464 Q126.385 150.857 126.385 142.13 Q126.385 133.381 129.441 128.797 Q132.519 124.191 138.33 124.191 Z" fill="#000000" fill-rule="nonzero" fill-opacity="1" /><polyline clip-path="url(#clip852)" style="stroke:#009af9; stroke-linecap:round; stroke-linejoin:round; stroke-width:4; stroke-opacity:1; fill:none" points="214.047,95.1812 228.979,86.1857 243.911,100.713 258.843,106.224 273.775,140.118 288.706,148.781 303.638,148.781 318.57,166.717 333.502,182.434 348.434,197.973 363.365,211.388 378.297,228.52 393.229,233.543 408.161,256.495 423.093,279.045 438.025,301.2 452.956,330.924 467.888,355.652 482.82,372.646 497.752,400.269 512.684,411.671 527.616,422.96 542.547,449.399 557.479,460.312 572.411,497.953 587.343,512.696 602.275,539.963 617.207,564.196 632.138,577.212 647.07,600.346 662.002,636.3 676.934,670.888 691.866,686.306 706.798,710.679 721.729,742.439 736.661,777.164 751.593,801.811 766.525,845.046 781.457,886.928 796.389,924.282 811.32,1065.81 826.252,1146.79 841.184,1152.41 856.116,1161.81 871.048,1186.5 885.979,1206.88 900.911,1222.63 915.843,1230.35 930.775,1245.63 945.707,1265.9 960.639,1275.1 975.57,1279.84 990.502,1296.95 1005.43,1312.96 1020.37,1319.85 1035.3,1327.73 1050.23,1338.29 1065.16,1344.96 1080.09,1356.06 1095.03,1363.06 1109.96,1370.02 1124.89,1378.75 1139.82,1384.24 "/>
<path clip-path="url(#clip850)" d="M847.377 196.789 L1134.88 196.789 L1134.88 93.1086 L847.377 93.1086  Z" fill="#ffffff" fill-rule="evenodd" fill-opacity="1"/>
<polyline clip-path="url(#clip850)" style="stroke:#000000; stroke-linecap:round; stroke-linejoin:round; stroke-width:4; stroke-opacity:1; fill:none" points="847.377,196.789 1134.88,196.789 1134.88,93.1086 847.377,93.1086 847.377,196.789 "/>
<polyline clip-path="url(#clip850)" style="stroke:#009af9; stroke-linecap:round; stroke-linejoin:round; stroke-width:4; stroke-opacity:1; fill:none" points="858.281,144.949 923.702,144.949 "/>
<path clip-path="url(#clip850)" d="M953.031 137.067 L953.031 141.094 Q951.226 140.169 949.281 139.706 Q947.337 139.243 945.254 139.243 Q942.082 139.243 940.485 140.215 Q938.911 141.187 938.911 143.131 Q938.911 144.613 940.045 145.469 Q941.18 146.303 944.606 147.067 L946.064 147.391 Q950.601 148.363 952.499 150.145 Q954.42 151.905 954.42 155.076 Q954.42 158.687 951.55 160.793 Q948.703 162.9 943.703 162.9 Q941.619 162.9 939.351 162.483 Q937.106 162.09 934.606 161.28 L934.606 156.881 Q936.967 158.108 939.258 158.733 Q941.55 159.335 943.795 159.335 Q946.805 159.335 948.425 158.317 Q950.045 157.275 950.045 155.4 Q950.045 153.664 948.865 152.738 Q947.707 151.812 943.749 150.956 L942.268 150.608 Q938.309 149.775 936.55 148.062 Q934.791 146.326 934.791 143.317 Q934.791 139.659 937.383 137.669 Q939.976 135.678 944.744 135.678 Q947.106 135.678 949.189 136.025 Q951.272 136.372 953.031 137.067 Z" fill="#000000" fill-rule="nonzero" fill-opacity="1" /><path clip-path="url(#clip850)" d="M965.416 128.942 L965.416 136.303 L974.189 136.303 L974.189 139.613 L965.416 139.613 L965.416 153.687 Q965.416 156.858 966.272 157.761 Q967.152 158.664 969.814 158.664 L974.189 158.664 L974.189 162.229 L969.814 162.229 Q964.883 162.229 963.008 160.4 Q961.133 158.548 961.133 153.687 L961.133 139.613 L958.008 139.613 L958.008 136.303 L961.133 136.303 L961.133 128.942 L965.416 128.942 Z" fill="#000000" fill-rule="nonzero" fill-opacity="1" /><path clip-path="url(#clip850)" d="M1001.97 148.201 L1001.97 150.284 L982.383 150.284 Q982.661 154.682 985.022 156.997 Q987.406 159.289 991.642 159.289 Q994.096 159.289 996.388 158.687 Q998.702 158.085 1000.97 156.881 L1000.97 160.909 Q998.679 161.881 996.272 162.391 Q993.865 162.9 991.388 162.9 Q985.184 162.9 981.55 159.289 Q977.939 155.678 977.939 149.52 Q977.939 143.155 981.365 139.428 Q984.814 135.678 990.647 135.678 Q995.878 135.678 998.911 139.057 Q1001.97 142.414 1001.97 148.201 M997.707 146.951 Q997.661 143.456 995.74 141.372 Q993.841 139.289 990.693 139.289 Q987.128 139.289 984.976 141.303 Q982.846 143.317 982.522 146.974 L997.707 146.951 Z" fill="#000000" fill-rule="nonzero" fill-opacity="1" /><path clip-path="url(#clip850)" d="M1013.08 158.34 L1013.08 172.09 L1008.8 172.09 L1008.8 136.303 L1013.08 136.303 L1013.08 140.238 Q1014.42 137.923 1016.46 136.812 Q1018.52 135.678 1021.36 135.678 Q1026.09 135.678 1029.03 139.428 Q1031.99 143.178 1031.99 149.289 Q1031.99 155.4 1029.03 159.15 Q1026.09 162.9 1021.36 162.9 Q1018.52 162.9 1016.46 161.789 Q1014.42 160.655 1013.08 158.34 M1027.57 149.289 Q1027.57 144.59 1025.62 141.928 Q1023.7 139.243 1020.32 139.243 Q1016.94 139.243 1015 141.928 Q1013.08 144.59 1013.08 149.289 Q1013.08 153.988 1015 156.673 Q1016.94 159.335 1020.32 159.335 Q1023.7 159.335 1025.62 156.673 Q1027.57 153.988 1027.57 149.289 Z" fill="#000000" fill-rule="nonzero" fill-opacity="1" /><path clip-path="url(#clip850)" d="M1055.58 137.067 L1055.58 141.094 Q1053.77 140.169 1051.83 139.706 Q1049.88 139.243 1047.8 139.243 Q1044.63 139.243 1043.03 140.215 Q1041.46 141.187 1041.46 143.131 Q1041.46 144.613 1042.59 145.469 Q1043.73 146.303 1047.15 147.067 L1048.61 147.391 Q1053.15 148.363 1055.04 150.145 Q1056.97 151.905 1056.97 155.076 Q1056.97 158.687 1054.1 160.793 Q1051.25 162.9 1046.25 162.9 Q1044.17 162.9 1041.9 162.483 Q1039.65 162.09 1037.15 161.28 L1037.15 156.881 Q1039.51 158.108 1041.8 158.733 Q1044.1 159.335 1046.34 159.335 Q1049.35 159.335 1050.97 158.317 Q1052.59 157.275 1052.59 155.4 Q1052.59 153.664 1051.41 152.738 Q1050.25 151.812 1046.29 150.956 L1044.81 150.608 Q1040.86 149.775 1039.1 148.062 Q1037.34 146.326 1037.34 143.317 Q1037.34 139.659 1039.93 137.669 Q1042.52 135.678 1047.29 135.678 Q1049.65 135.678 1051.73 136.025 Q1053.82 136.372 1055.58 137.067 Z" fill="#000000" fill-rule="nonzero" fill-opacity="1" /><path clip-path="url(#clip850)" d="M1063.75 136.303 L1068.01 136.303 L1068.01 162.229 L1063.75 162.229 L1063.75 136.303 M1063.75 126.21 L1068.01 126.21 L1068.01 131.604 L1063.75 131.604 L1063.75 126.21 Z" fill="#000000" fill-rule="nonzero" fill-opacity="1" /><path clip-path="url(#clip850)" d="M1075.07 136.303 L1095.3 136.303 L1095.3 140.192 L1079.28 158.826 L1095.3 158.826 L1095.3 162.229 L1074.49 162.229 L1074.49 158.34 L1090.51 139.706 L1075.07 139.706 L1075.07 136.303 Z" fill="#000000" fill-rule="nonzero" fill-opacity="1" /><path clip-path="url(#clip850)" d="M1123.98 148.201 L1123.98 150.284 L1104.4 150.284 Q1104.67 154.682 1107.04 156.997 Q1109.42 159.289 1113.66 159.289 Q1116.11 159.289 1118.4 158.687 Q1120.72 158.085 1122.98 156.881 L1122.98 160.909 Q1120.69 161.881 1118.29 162.391 Q1115.88 162.9 1113.4 162.9 Q1107.2 162.9 1103.56 159.289 Q1099.95 155.678 1099.95 149.52 Q1099.95 143.155 1103.38 139.428 Q1106.83 135.678 1112.66 135.678 Q1117.89 135.678 1120.92 139.057 Q1123.98 142.414 1123.98 148.201 M1119.72 146.951 Q1119.67 143.456 1117.75 141.372 Q1115.85 139.289 1112.71 139.289 Q1109.14 139.289 1106.99 141.303 Q1104.86 143.317 1104.54 146.974 L1119.72 146.951 Z" fill="#000000" fill-rule="nonzero" fill-opacity="1" /><path clip-path="url(#clip850)" d="M1371.44 1423.18 L2352.76 1423.18 L2352.76 47.2441 L1371.44 47.2441  Z" fill="#ffffff" fill-rule="evenodd" fill-opacity="1"/>
<defs>
  <clipPath id="clip853">
    <rect x="1371" y="47" width="982" height="1377"/>
  </clipPath>
</defs>
<polyline clip-path="url(#clip853)" style="stroke:#000000; stroke-linecap:round; stroke-linejoin:round; stroke-width:2; stroke-opacity:0.1; fill:none" points="1384.28,1423.18 1384.28,47.2441 "/>
<polyline clip-path="url(#clip853)" style="stroke:#000000; stroke-linecap:round; stroke-linejoin:round; stroke-width:2; stroke-opacity:0.1; fill:none" points="1533.6,1423.18 1533.6,47.2441 "/>
<polyline clip-path="url(#clip853)" style="stroke:#000000; stroke-linecap:round; stroke-linejoin:round; stroke-width:2; stroke-opacity:0.1; fill:none" points="1682.91,1423.18 1682.91,47.2441 "/>
<polyline clip-path="url(#clip853)" style="stroke:#000000; stroke-linecap:round; stroke-linejoin:round; stroke-width:2; stroke-opacity:0.1; fill:none" points="1832.23,1423.18 1832.23,47.2441 "/>
<polyline clip-path="url(#clip853)" style="stroke:#000000; stroke-linecap:round; stroke-linejoin:round; stroke-width:2; stroke-opacity:0.1; fill:none" points="1981.55,1423.18 1981.55,47.2441 "/>
<polyline clip-path="url(#clip853)" style="stroke:#000000; stroke-linecap:round; stroke-linejoin:round; stroke-width:2; stroke-opacity:0.1; fill:none" points="2130.87,1423.18 2130.87,47.2441 "/>
<polyline clip-path="url(#clip853)" style="stroke:#000000; stroke-linecap:round; stroke-linejoin:round; stroke-width:2; stroke-opacity:0.1; fill:none" points="2280.19,1423.18 2280.19,47.2441 "/>
<polyline clip-path="url(#clip853)" style="stroke:#000000; stroke-linecap:round; stroke-linejoin:round; stroke-width:2; stroke-opacity:0.1; fill:none" points="1371.44,1221.98 2352.76,1221.98 "/>
<polyline clip-path="url(#clip853)" style="stroke:#000000; stroke-linecap:round; stroke-linejoin:round; stroke-width:2; stroke-opacity:0.1; fill:none" points="1371.44,897.469 2352.76,897.469 "/>
<polyline clip-path="url(#clip853)" style="stroke:#000000; stroke-linecap:round; stroke-linejoin:round; stroke-width:2; stroke-opacity:0.1; fill:none" points="1371.44,572.955 2352.76,572.955 "/>
<polyline clip-path="url(#clip853)" style="stroke:#000000; stroke-linecap:round; stroke-linejoin:round; stroke-width:2; stroke-opacity:0.1; fill:none" points="1371.44,248.442 2352.76,248.442 "/>
<polyline clip-path="url(#clip850)" style="stroke:#000000; stroke-linecap:round; stroke-linejoin:round; stroke-width:4; stroke-opacity:1; fill:none" points="1371.44,1423.18 2352.76,1423.18 "/>
<polyline clip-path="url(#clip850)" style="stroke:#000000; stroke-linecap:round; stroke-linejoin:round; stroke-width:4; stroke-opacity:1; fill:none" points="1384.28,1423.18 1384.28,1404.28 "/>
<polyline clip-path="url(#clip850)" style="stroke:#000000; stroke-linecap:round; stroke-linejoin:round; stroke-width:4; stroke-opacity:1; fill:none" points="1533.6,1423.18 1533.6,1404.28 "/>
<polyline clip-path="url(#clip850)" style="stroke:#000000; stroke-linecap:round; stroke-linejoin:round; stroke-width:4; stroke-opacity:1; fill:none" points="1682.91,1423.18 1682.91,1404.28 "/>
<polyline clip-path="url(#clip850)" style="stroke:#000000; stroke-linecap:round; stroke-linejoin:round; stroke-width:4; stroke-opacity:1; fill:none" points="1832.23,1423.18 1832.23,1404.28 "/>
<polyline clip-path="url(#clip850)" style="stroke:#000000; stroke-linecap:round; stroke-linejoin:round; stroke-width:4; stroke-opacity:1; fill:none" points="1981.55,1423.18 1981.55,1404.28 "/>
<polyline clip-path="url(#clip850)" style="stroke:#000000; stroke-linecap:round; stroke-linejoin:round; stroke-width:4; stroke-opacity:1; fill:none" points="2130.87,1423.18 2130.87,1404.28 "/>
<polyline clip-path="url(#clip850)" style="stroke:#000000; stroke-linecap:round; stroke-linejoin:round; stroke-width:4; stroke-opacity:1; fill:none" points="2280.19,1423.18 2280.19,1404.28 "/>
<path clip-path="url(#clip850)" d="M1384.28 1454.1 Q1380.67 1454.1 1378.84 1457.66 Q1377.03 1461.2 1377.03 1468.33 Q1377.03 1475.44 1378.84 1479.01 Q1380.67 1482.55 1384.28 1482.55 Q1387.91 1482.55 1389.72 1479.01 Q1391.55 1475.44 1391.55 1468.33 Q1391.55 1461.2 1389.72 1457.66 Q1387.91 1454.1 1384.28 1454.1 M1384.28 1450.39 Q1390.09 1450.39 1393.14 1455 Q1396.22 1459.58 1396.22 1468.33 Q1396.22 1477.06 1393.14 1481.67 Q1390.09 1486.25 1384.28 1486.25 Q1378.47 1486.25 1375.39 1481.67 Q1372.33 1477.06 1372.33 1468.33 Q1372.33 1459.58 1375.39 1455 Q1378.47 1450.39 1384.28 1450.39 Z" fill="#000000" fill-rule="nonzero" fill-opacity="1" /><path clip-path="url(#clip850)" d="M1508.28 1481.64 L1515.92 1481.64 L1515.92 1455.28 L1507.61 1456.95 L1507.61 1452.69 L1515.88 1451.02 L1520.55 1451.02 L1520.55 1481.64 L1528.19 1481.64 L1528.19 1485.58 L1508.28 1485.58 L1508.28 1481.64 Z" fill="#000000" fill-rule="nonzero" fill-opacity="1" /><path clip-path="url(#clip850)" d="M1547.64 1454.1 Q1544.02 1454.1 1542.2 1457.66 Q1540.39 1461.2 1540.39 1468.33 Q1540.39 1475.44 1542.2 1479.01 Q1544.02 1482.55 1547.64 1482.55 Q1551.27 1482.55 1553.07 1479.01 Q1554.9 1475.44 1554.9 1468.33 Q1554.9 1461.2 1553.07 1457.66 Q1551.27 1454.1 1547.64 1454.1 M1547.64 1450.39 Q1553.45 1450.39 1556.5 1455 Q1559.58 1459.58 1559.58 1468.33 Q1559.58 1477.06 1556.5 1481.67 Q1553.45 1486.25 1547.64 1486.25 Q1541.82 1486.25 1538.75 1481.67 Q1535.69 1477.06 1535.69 1468.33 Q1535.69 1459.58 1538.75 1455 Q1541.82 1450.39 1547.64 1450.39 Z" fill="#000000" fill-rule="nonzero" fill-opacity="1" /><path clip-path="url(#clip850)" d="M1661.69 1481.64 L1678.01 1481.64 L1678.01 1485.58 L1656.06 1485.58 L1656.06 1481.64 Q1658.72 1478.89 1663.31 1474.26 Q1667.91 1469.61 1669.09 1468.27 Q1671.34 1465.74 1672.22 1464.01 Q1673.12 1462.25 1673.12 1460.56 Q1673.12 1457.8 1671.18 1456.07 Q1669.26 1454.33 1666.15 1454.33 Q1663.96 1454.33 1661.5 1455.09 Q1659.07 1455.86 1656.29 1457.41 L1656.29 1452.69 Q1659.12 1451.55 1661.57 1450.97 Q1664.03 1450.39 1666.06 1450.39 Q1671.43 1450.39 1674.63 1453.08 Q1677.82 1455.77 1677.82 1460.26 Q1677.82 1462.39 1677.01 1464.31 Q1676.22 1466.2 1674.12 1468.8 Q1673.54 1469.47 1670.44 1472.69 Q1667.34 1475.88 1661.69 1481.64 Z" fill="#000000" fill-rule="nonzero" fill-opacity="1" /><path clip-path="url(#clip850)" d="M1697.82 1454.1 Q1694.21 1454.1 1692.38 1457.66 Q1690.58 1461.2 1690.58 1468.33 Q1690.58 1475.44 1692.38 1479.01 Q1694.21 1482.55 1697.82 1482.55 Q1701.46 1482.55 1703.26 1479.01 Q1705.09 1475.44 1705.09 1468.33 Q1705.09 1461.2 1703.26 1457.66 Q1701.46 1454.1 1697.82 1454.1 M1697.82 1450.39 Q1703.63 1450.39 1706.69 1455 Q1709.77 1459.58 1709.77 1468.33 Q1709.77 1477.06 1706.69 1481.67 Q1703.63 1486.25 1697.82 1486.25 Q1692.01 1486.25 1688.93 1481.67 Q1685.88 1477.06 1685.88 1468.33 Q1685.88 1459.58 1688.93 1455 Q1692.01 1450.39 1697.82 1450.39 Z" fill="#000000" fill-rule="nonzero" fill-opacity="1" /><path clip-path="url(#clip850)" d="M1821.08 1466.95 Q1824.43 1467.66 1826.31 1469.93 Q1828.2 1472.2 1828.2 1475.53 Q1828.2 1480.65 1824.69 1483.45 Q1821.17 1486.25 1814.69 1486.25 Q1812.51 1486.25 1810.2 1485.81 Q1807.9 1485.39 1805.45 1484.54 L1805.45 1480.02 Q1807.39 1481.16 1809.71 1481.74 Q1812.02 1482.32 1814.55 1482.32 Q1818.95 1482.32 1821.24 1480.58 Q1823.55 1478.84 1823.55 1475.53 Q1823.55 1472.48 1821.4 1470.77 Q1819.27 1469.03 1815.45 1469.03 L1811.42 1469.03 L1811.42 1465.19 L1815.64 1465.19 Q1819.08 1465.19 1820.91 1463.82 Q1822.74 1462.43 1822.74 1459.84 Q1822.74 1457.18 1820.84 1455.77 Q1818.97 1454.33 1815.45 1454.33 Q1813.53 1454.33 1811.33 1454.75 Q1809.13 1455.16 1806.49 1456.04 L1806.49 1451.88 Q1809.15 1451.14 1811.47 1450.77 Q1813.81 1450.39 1815.87 1450.39 Q1821.19 1450.39 1824.29 1452.83 Q1827.39 1455.23 1827.39 1459.35 Q1827.39 1462.22 1825.75 1464.21 Q1824.11 1466.18 1821.08 1466.95 Z" fill="#000000" fill-rule="nonzero" fill-opacity="1" /><path clip-path="url(#clip850)" d="M1847.07 1454.1 Q1843.46 1454.1 1841.63 1457.66 Q1839.82 1461.2 1839.82 1468.33 Q1839.82 1475.44 1841.63 1479.01 Q1843.46 1482.55 1847.07 1482.55 Q1850.7 1482.55 1852.51 1479.01 Q1854.34 1475.44 1854.34 1468.33 Q1854.34 1461.2 1852.51 1457.66 Q1850.7 1454.1 1847.07 1454.1 M1847.07 1450.39 Q1852.88 1450.39 1855.94 1455 Q1859.01 1459.58 1859.01 1468.33 Q1859.01 1477.06 1855.94 1481.67 Q1852.88 1486.25 1847.07 1486.25 Q1841.26 1486.25 1838.18 1481.67 Q1835.13 1477.06 1835.13 1468.33 Q1835.13 1459.58 1838.18 1455 Q1841.26 1450.39 1847.07 1450.39 Z" fill="#000000" fill-rule="nonzero" fill-opacity="1" /><path clip-path="url(#clip850)" d="M1969.72 1455.09 L1957.92 1473.54 L1969.72 1473.54 L1969.72 1455.09 M1968.5 1451.02 L1974.37 1451.02 L1974.37 1473.54 L1979.31 1473.54 L1979.31 1477.43 L1974.37 1477.43 L1974.37 1485.58 L1969.72 1485.58 L1969.72 1477.43 L1954.12 1477.43 L1954.12 1472.92 L1968.5 1451.02 Z" fill="#000000" fill-rule="nonzero" fill-opacity="1" /><path clip-path="url(#clip850)" d="M1997.04 1454.1 Q1993.43 1454.1 1991.6 1457.66 Q1989.79 1461.2 1989.79 1468.33 Q1989.79 1475.44 1991.6 1479.01 Q1993.43 1482.55 1997.04 1482.55 Q2000.67 1482.55 2002.48 1479.01 Q2004.31 1475.44 2004.31 1468.33 Q2004.31 1461.2 2002.48 1457.66 Q2000.67 1454.1 1997.04 1454.1 M1997.04 1450.39 Q2002.85 1450.39 2005.9 1455 Q2008.98 1459.58 2008.98 1468.33 Q2008.98 1477.06 2005.9 1481.67 Q2002.85 1486.25 1997.04 1486.25 Q1991.23 1486.25 1988.15 1481.67 Q1985.09 1477.06 1985.09 1468.33 Q1985.09 1459.58 1988.15 1455 Q1991.23 1450.39 1997.04 1450.39 Z" fill="#000000" fill-rule="nonzero" fill-opacity="1" /><path clip-path="url(#clip850)" d="M2105.57 1451.02 L2123.92 1451.02 L2123.92 1454.96 L2109.85 1454.96 L2109.85 1463.43 Q2110.87 1463.08 2111.89 1462.92 Q2112.91 1462.73 2113.92 1462.73 Q2119.71 1462.73 2123.09 1465.9 Q2126.47 1469.08 2126.47 1474.49 Q2126.47 1480.07 2123 1483.17 Q2119.53 1486.25 2113.21 1486.25 Q2111.03 1486.25 2108.76 1485.88 Q2106.52 1485.51 2104.11 1484.77 L2104.11 1480.07 Q2106.19 1481.2 2108.42 1481.76 Q2110.64 1482.32 2113.11 1482.32 Q2117.12 1482.32 2119.46 1480.21 Q2121.79 1478.1 2121.79 1474.49 Q2121.79 1470.88 2119.46 1468.77 Q2117.12 1466.67 2113.11 1466.67 Q2111.24 1466.67 2109.36 1467.08 Q2107.51 1467.5 2105.57 1468.38 L2105.57 1451.02 Z" fill="#000000" fill-rule="nonzero" fill-opacity="1" /><path clip-path="url(#clip850)" d="M2145.68 1454.1 Q2142.07 1454.1 2140.24 1457.66 Q2138.44 1461.2 2138.44 1468.33 Q2138.44 1475.44 2140.24 1479.01 Q2142.07 1482.55 2145.68 1482.55 Q2149.32 1482.55 2151.12 1479.01 Q2152.95 1475.44 2152.95 1468.33 Q2152.95 1461.2 2151.12 1457.66 Q2149.32 1454.1 2145.68 1454.1 M2145.68 1450.39 Q2151.49 1450.39 2154.55 1455 Q2157.63 1459.58 2157.63 1468.33 Q2157.63 1477.06 2154.55 1481.67 Q2151.49 1486.25 2145.68 1486.25 Q2139.87 1486.25 2136.79 1481.67 Q2133.74 1477.06 2133.74 1468.33 Q2133.74 1459.58 2136.79 1455 Q2139.87 1450.39 2145.68 1450.39 Z" fill="#000000" fill-rule="nonzero" fill-opacity="1" /><path clip-path="url(#clip850)" d="M2265.59 1466.44 Q2262.44 1466.44 2260.59 1468.59 Q2258.76 1470.74 2258.76 1474.49 Q2258.76 1478.22 2260.59 1480.39 Q2262.44 1482.55 2265.59 1482.55 Q2268.74 1482.55 2270.57 1480.39 Q2272.42 1478.22 2272.42 1474.49 Q2272.42 1470.74 2270.57 1468.59 Q2268.74 1466.44 2265.59 1466.44 M2274.87 1451.78 L2274.87 1456.04 Q2273.12 1455.21 2271.31 1454.77 Q2269.53 1454.33 2267.77 1454.33 Q2263.14 1454.33 2260.69 1457.45 Q2258.25 1460.58 2257.91 1466.9 Q2259.27 1464.89 2261.33 1463.82 Q2263.39 1462.73 2265.87 1462.73 Q2271.08 1462.73 2274.09 1465.9 Q2277.12 1469.05 2277.12 1474.49 Q2277.12 1479.82 2273.97 1483.03 Q2270.82 1486.25 2265.59 1486.25 Q2259.6 1486.25 2256.43 1481.67 Q2253.25 1477.06 2253.25 1468.33 Q2253.25 1460.14 2257.14 1455.28 Q2261.03 1450.39 2267.58 1450.39 Q2269.34 1450.39 2271.12 1450.74 Q2272.93 1451.09 2274.87 1451.78 Z" fill="#000000" fill-rule="nonzero" fill-opacity="1" /><path clip-path="url(#clip850)" d="M2295.18 1454.1 Q2291.56 1454.1 2289.74 1457.66 Q2287.93 1461.2 2287.93 1468.33 Q2287.93 1475.44 2289.74 1479.01 Q2291.56 1482.55 2295.18 1482.55 Q2298.81 1482.55 2300.62 1479.01 Q2302.44 1475.44 2302.44 1468.33 Q2302.44 1461.2 2300.62 1457.66 Q2298.81 1454.1 2295.18 1454.1 M2295.18 1450.39 Q2300.99 1450.39 2304.04 1455 Q2307.12 1459.58 2307.12 1468.33 Q2307.12 1477.06 2304.04 1481.67 Q2300.99 1486.25 2295.18 1486.25 Q2289.37 1486.25 2286.29 1481.67 Q2283.23 1477.06 2283.23 1468.33 Q2283.23 1459.58 2286.29 1455 Q2289.37 1450.39 2295.18 1450.39 Z" fill="#000000" fill-rule="nonzero" fill-opacity="1" /><path clip-path="url(#clip850)" d="M1677.43 1522.08 L1677.43 1528.35 Q1673.77 1526.6 1670.52 1525.74 Q1667.27 1524.88 1664.25 1524.88 Q1659 1524.88 1656.13 1526.92 Q1653.3 1528.96 1653.3 1532.71 Q1653.3 1535.87 1655.18 1537.49 Q1657.09 1539.08 1662.37 1540.07 L1666.26 1540.86 Q1673.45 1542.23 1676.85 1545.7 Q1680.29 1549.14 1680.29 1554.93 Q1680.29 1561.84 1675.64 1565.4 Q1671.03 1568.97 1662.09 1568.97 Q1658.71 1568.97 1654.89 1568.2 Q1651.1 1567.44 1647.03 1565.94 L1647.03 1559.32 Q1650.95 1561.52 1654.7 1562.63 Q1658.46 1563.75 1662.09 1563.75 Q1667.59 1563.75 1670.58 1561.58 Q1673.58 1559.42 1673.58 1555.41 Q1673.58 1551.91 1671.41 1549.93 Q1669.28 1547.96 1664.38 1546.97 L1660.46 1546.21 Q1653.27 1544.78 1650.05 1541.72 Q1646.84 1538.67 1646.84 1533.22 Q1646.84 1526.92 1651.26 1523.29 Q1655.72 1519.66 1663.52 1519.66 Q1666.86 1519.66 1670.33 1520.27 Q1673.8 1520.87 1677.43 1522.08 Z" fill="#000000" fill-rule="nonzero" fill-opacity="1" /><path clip-path="url(#clip850)" d="M1690.32 1520.52 L1699.9 1520.52 L1712.02 1552.86 L1724.21 1520.52 L1733.8 1520.52 L1733.8 1568.04 L1727.52 1568.04 L1727.52 1526.32 L1715.27 1558.91 L1708.81 1558.91 L1696.56 1526.32 L1696.56 1568.04 L1690.32 1568.04 L1690.32 1520.52 Z" fill="#000000" fill-rule="nonzero" fill-opacity="1" /><path clip-path="url(#clip850)" d="M1782.14 1524.18 L1782.14 1530.96 Q1778.9 1527.94 1775.2 1526.44 Q1771.54 1524.95 1767.41 1524.95 Q1759.26 1524.95 1754.93 1529.95 Q1750.6 1534.91 1750.6 1544.33 Q1750.6 1553.72 1754.93 1558.72 Q1759.26 1563.68 1767.41 1563.68 Q1771.54 1563.68 1775.2 1562.19 Q1778.9 1560.69 1782.14 1557.67 L1782.14 1564.38 Q1778.77 1566.68 1774.98 1567.82 Q1771.23 1568.97 1767.02 1568.97 Q1756.23 1568.97 1750.03 1562.38 Q1743.82 1555.76 1743.82 1544.33 Q1743.82 1532.87 1750.03 1526.28 Q1756.23 1519.66 1767.02 1519.66 Q1771.29 1519.66 1775.04 1520.81 Q1778.83 1521.92 1782.14 1524.18 Z" fill="#000000" fill-rule="nonzero" fill-opacity="1" /><path clip-path="url(#clip850)" d="M1812.79 1520.52 L1819.22 1520.52 L1819.22 1568.04 L1812.79 1568.04 L1812.79 1520.52 Z" fill="#000000" fill-rule="nonzero" fill-opacity="1" /><path clip-path="url(#clip850)" d="M1837.56 1522.27 L1837.56 1532.4 L1849.62 1532.4 L1849.62 1536.95 L1837.56 1536.95 L1837.56 1556.3 Q1837.56 1560.66 1838.73 1561.9 Q1839.94 1563.14 1843.6 1563.14 L1849.62 1563.14 L1849.62 1568.04 L1843.6 1568.04 Q1836.82 1568.04 1834.25 1565.53 Q1831.67 1562.98 1831.67 1556.3 L1831.67 1536.95 L1827.37 1536.95 L1827.37 1532.4 L1831.67 1532.4 L1831.67 1522.27 L1837.56 1522.27 Z" fill="#000000" fill-rule="nonzero" fill-opacity="1" /><path clip-path="url(#clip850)" d="M1887.81 1548.76 L1887.81 1551.62 L1860.89 1551.62 Q1861.27 1557.67 1864.51 1560.85 Q1867.79 1564 1873.62 1564 Q1876.99 1564 1880.14 1563.17 Q1883.33 1562.35 1886.44 1560.69 L1886.44 1566.23 Q1883.29 1567.57 1879.98 1568.27 Q1876.67 1568.97 1873.27 1568.97 Q1864.74 1568.97 1859.74 1564 Q1854.78 1559.04 1854.78 1550.57 Q1854.78 1541.82 1859.49 1536.69 Q1864.23 1531.54 1872.25 1531.54 Q1879.44 1531.54 1883.61 1536.18 Q1887.81 1540.8 1887.81 1548.76 M1881.96 1547.04 Q1881.89 1542.23 1879.25 1539.37 Q1876.64 1536.5 1872.31 1536.5 Q1867.41 1536.5 1864.45 1539.27 Q1861.52 1542.04 1861.08 1547.07 L1881.96 1547.04 Z" fill="#000000" fill-rule="nonzero" fill-opacity="1" /><path clip-path="url(#clip850)" d="M1918.08 1537.87 Q1917.1 1537.3 1915.92 1537.04 Q1914.77 1536.76 1913.37 1536.76 Q1908.41 1536.76 1905.73 1540 Q1903.09 1543.22 1903.09 1549.27 L1903.09 1568.04 L1897.2 1568.04 L1897.2 1532.4 L1903.09 1532.4 L1903.09 1537.93 Q1904.94 1534.69 1907.9 1533.13 Q1910.86 1531.54 1915.09 1531.54 Q1915.7 1531.54 1916.43 1531.63 Q1917.16 1531.7 1918.05 1531.85 L1918.08 1537.87 Z" fill="#000000" fill-rule="nonzero" fill-opacity="1" /><path clip-path="url(#clip850)" d="M1940.43 1550.12 Q1933.33 1550.12 1930.59 1551.75 Q1927.85 1553.37 1927.85 1557.29 Q1927.85 1560.4 1929.89 1562.25 Q1931.96 1564.07 1935.49 1564.07 Q1940.36 1564.07 1943.29 1560.63 Q1946.25 1557.16 1946.25 1551.43 L1946.25 1550.12 L1940.43 1550.12 M1952.11 1547.71 L1952.11 1568.04 L1946.25 1568.04 L1946.25 1562.63 Q1944.25 1565.88 1941.25 1567.44 Q1938.26 1568.97 1933.93 1568.97 Q1928.46 1568.97 1925.21 1565.91 Q1922 1562.82 1922 1557.67 Q1922 1551.65 1926.01 1548.6 Q1930.05 1545.54 1938.04 1545.54 L1946.25 1545.54 L1946.25 1544.97 Q1946.25 1540.93 1943.58 1538.73 Q1940.94 1536.5 1936.13 1536.5 Q1933.07 1536.5 1930.18 1537.23 Q1927.28 1537.97 1924.61 1539.43 L1924.61 1534.02 Q1927.82 1532.78 1930.85 1532.17 Q1933.87 1531.54 1936.73 1531.54 Q1944.47 1531.54 1948.29 1535.55 Q1952.11 1539.56 1952.11 1547.71 Z" fill="#000000" fill-rule="nonzero" fill-opacity="1" /><path clip-path="url(#clip850)" d="M1969.96 1522.27 L1969.96 1532.4 L1982.03 1532.4 L1982.03 1536.95 L1969.96 1536.95 L1969.96 1556.3 Q1969.96 1560.66 1971.14 1561.9 Q1972.35 1563.14 1976.01 1563.14 L1982.03 1563.14 L1982.03 1568.04 L1976.01 1568.04 Q1969.23 1568.04 1966.65 1565.53 Q1964.07 1562.98 1964.07 1556.3 L1964.07 1536.95 L1959.78 1536.95 L1959.78 1532.4 L1964.07 1532.4 L1964.07 1522.27 L1969.96 1522.27 Z" fill="#000000" fill-rule="nonzero" fill-opacity="1" /><path clip-path="url(#clip850)" d="M1989.73 1532.4 L1995.58 1532.4 L1995.58 1568.04 L1989.73 1568.04 L1989.73 1532.4 M1989.73 1518.52 L1995.58 1518.52 L1995.58 1525.93 L1989.73 1525.93 L1989.73 1518.52 Z" fill="#000000" fill-rule="nonzero" fill-opacity="1" /><path clip-path="url(#clip850)" d="M2021.65 1536.5 Q2016.94 1536.5 2014.2 1540.19 Q2011.47 1543.85 2011.47 1550.25 Q2011.47 1556.65 2014.17 1560.34 Q2016.91 1564 2021.65 1564 Q2026.33 1564 2029.07 1560.31 Q2031.81 1556.62 2031.81 1550.25 Q2031.81 1543.92 2029.07 1540.23 Q2026.33 1536.5 2021.65 1536.5 M2021.65 1531.54 Q2029.29 1531.54 2033.65 1536.5 Q2038.01 1541.47 2038.01 1550.25 Q2038.01 1559 2033.65 1564 Q2029.29 1568.97 2021.65 1568.97 Q2013.98 1568.97 2009.62 1564 Q2005.29 1559 2005.29 1550.25 Q2005.29 1541.47 2009.62 1536.5 Q2013.98 1531.54 2021.65 1531.54 Z" fill="#000000" fill-rule="nonzero" fill-opacity="1" /><path clip-path="url(#clip850)" d="M2077.35 1546.53 L2077.35 1568.04 L2071.5 1568.04 L2071.5 1546.72 Q2071.5 1541.66 2069.52 1539.14 Q2067.55 1536.63 2063.6 1536.63 Q2058.86 1536.63 2056.12 1539.65 Q2053.39 1542.68 2053.39 1547.9 L2053.39 1568.04 L2047.5 1568.04 L2047.5 1532.4 L2053.39 1532.4 L2053.39 1537.93 Q2055.49 1534.72 2058.32 1533.13 Q2061.18 1531.54 2064.91 1531.54 Q2071.05 1531.54 2074.2 1535.36 Q2077.35 1539.14 2077.35 1546.53 Z" fill="#000000" fill-rule="nonzero" fill-opacity="1" /><polyline clip-path="url(#clip850)" style="stroke:#000000; stroke-linecap:round; stroke-linejoin:round; stroke-width:4; stroke-opacity:1; fill:none" points="1371.44,1423.18 1371.44,47.2441 "/>
<polyline clip-path="url(#clip850)" style="stroke:#000000; stroke-linecap:round; stroke-linejoin:round; stroke-width:4; stroke-opacity:1; fill:none" points="1371.44,1221.98 1390.33,1221.98 "/>
<polyline clip-path="url(#clip850)" style="stroke:#000000; stroke-linecap:round; stroke-linejoin:round; stroke-width:4; stroke-opacity:1; fill:none" points="1371.44,897.469 1390.33,897.469 "/>
<polyline clip-path="url(#clip850)" style="stroke:#000000; stroke-linecap:round; stroke-linejoin:round; stroke-width:4; stroke-opacity:1; fill:none" points="1371.44,572.955 1390.33,572.955 "/>
<polyline clip-path="url(#clip850)" style="stroke:#000000; stroke-linecap:round; stroke-linejoin:round; stroke-width:4; stroke-opacity:1; fill:none" points="1371.44,248.442 1390.33,248.442 "/>
<path clip-path="url(#clip850)" d="M1279.86 1207.78 Q1276.25 1207.78 1274.42 1211.35 Q1272.61 1214.89 1272.61 1222.02 Q1272.61 1229.12 1274.42 1232.69 Q1276.25 1236.23 1279.86 1236.23 Q1283.49 1236.23 1285.3 1232.69 Q1287.13 1229.12 1287.13 1222.02 Q1287.13 1214.89 1285.3 1211.35 Q1283.49 1207.78 1279.86 1207.78 M1279.86 1204.08 Q1285.67 1204.08 1288.72 1208.68 Q1291.8 1213.27 1291.8 1222.02 Q1291.8 1230.74 1288.72 1235.35 Q1285.67 1239.93 1279.86 1239.93 Q1274.05 1239.93 1270.97 1235.35 Q1267.91 1230.74 1267.91 1222.02 Q1267.91 1213.27 1270.97 1208.68 Q1274.05 1204.08 1279.86 1204.08 Z" fill="#000000" fill-rule="nonzero" fill-opacity="1" /><path clip-path="url(#clip850)" d="M1300.02 1233.38 L1304.9 1233.38 L1304.9 1239.26 L1300.02 1239.26 L1300.02 1233.38 Z" fill="#000000" fill-rule="nonzero" fill-opacity="1" /><path clip-path="url(#clip850)" d="M1319.12 1235.33 L1335.44 1235.33 L1335.44 1239.26 L1313.49 1239.26 L1313.49 1235.33 Q1316.15 1232.57 1320.74 1227.94 Q1325.34 1223.29 1326.52 1221.95 Q1328.77 1219.42 1329.65 1217.69 Q1330.55 1215.93 1330.55 1214.24 Q1330.55 1211.48 1328.61 1209.75 Q1326.69 1208.01 1323.58 1208.01 Q1321.39 1208.01 1318.93 1208.78 Q1316.5 1209.54 1313.72 1211.09 L1313.72 1206.37 Q1316.55 1205.23 1319 1204.66 Q1321.45 1204.08 1323.49 1204.08 Q1328.86 1204.08 1332.06 1206.76 Q1335.25 1209.45 1335.25 1213.94 Q1335.25 1216.07 1334.44 1217.99 Q1333.65 1219.89 1331.55 1222.48 Q1330.97 1223.15 1327.87 1226.37 Q1324.76 1229.56 1319.12 1235.33 Z" fill="#000000" fill-rule="nonzero" fill-opacity="1" /><path clip-path="url(#clip850)" d="M1277.77 883.267 Q1274.16 883.267 1272.33 886.832 Q1270.53 890.374 1270.53 897.503 Q1270.53 904.61 1272.33 908.175 Q1274.16 911.716 1277.77 911.716 Q1281.41 911.716 1283.21 908.175 Q1285.04 904.61 1285.04 897.503 Q1285.04 890.374 1283.21 886.832 Q1281.41 883.267 1277.77 883.267 M1277.77 879.564 Q1283.58 879.564 1286.64 884.17 Q1289.72 888.753 1289.72 897.503 Q1289.72 906.23 1286.64 910.837 Q1283.58 915.42 1277.77 915.42 Q1271.96 915.42 1268.89 910.837 Q1265.83 906.23 1265.83 897.503 Q1265.83 888.753 1268.89 884.17 Q1271.96 879.564 1277.77 879.564 Z" fill="#000000" fill-rule="nonzero" fill-opacity="1" /><path clip-path="url(#clip850)" d="M1297.94 908.869 L1302.82 908.869 L1302.82 914.749 L1297.94 914.749 L1297.94 908.869 Z" fill="#000000" fill-rule="nonzero" fill-opacity="1" /><path clip-path="url(#clip850)" d="M1325.85 884.263 L1314.05 902.712 L1325.85 902.712 L1325.85 884.263 M1324.63 880.189 L1330.51 880.189 L1330.51 902.712 L1335.44 902.712 L1335.44 906.6 L1330.51 906.6 L1330.51 914.749 L1325.85 914.749 L1325.85 906.6 L1310.25 906.6 L1310.25 902.087 L1324.63 880.189 Z" fill="#000000" fill-rule="nonzero" fill-opacity="1" /><path clip-path="url(#clip850)" d="M1278.1 558.754 Q1274.49 558.754 1272.66 562.319 Q1270.85 565.861 1270.85 572.99 Q1270.85 580.097 1272.66 583.661 Q1274.49 587.203 1278.1 587.203 Q1281.73 587.203 1283.54 583.661 Q1285.37 580.097 1285.37 572.99 Q1285.37 565.861 1283.54 562.319 Q1281.73 558.754 1278.1 558.754 M1278.1 555.05 Q1283.91 555.05 1286.96 559.657 Q1290.04 564.24 1290.04 572.99 Q1290.04 581.717 1286.96 586.323 Q1283.91 590.907 1278.1 590.907 Q1272.29 590.907 1269.21 586.323 Q1266.15 581.717 1266.15 572.99 Q1266.15 564.24 1269.21 559.657 Q1272.29 555.05 1278.1 555.05 Z" fill="#000000" fill-rule="nonzero" fill-opacity="1" /><path clip-path="url(#clip850)" d="M1298.26 584.356 L1303.14 584.356 L1303.14 590.235 L1298.26 590.235 L1298.26 584.356 Z" fill="#000000" fill-rule="nonzero" fill-opacity="1" /><path clip-path="url(#clip850)" d="M1323.91 571.092 Q1320.76 571.092 1318.91 573.245 Q1317.08 575.398 1317.08 579.147 Q1317.08 582.874 1318.91 585.05 Q1320.76 587.203 1323.91 587.203 Q1327.06 587.203 1328.89 585.05 Q1330.74 582.874 1330.74 579.147 Q1330.74 575.398 1328.89 573.245 Q1327.06 571.092 1323.91 571.092 M1333.19 556.439 L1333.19 560.699 Q1331.43 559.865 1329.63 559.425 Q1327.84 558.986 1326.08 558.986 Q1321.45 558.986 1319 562.111 Q1316.57 565.236 1316.22 571.555 Q1317.59 569.541 1319.65 568.476 Q1321.71 567.388 1324.19 567.388 Q1329.39 567.388 1332.4 570.56 Q1335.44 573.708 1335.44 579.147 Q1335.44 584.472 1332.29 587.689 Q1329.14 590.907 1323.91 590.907 Q1317.91 590.907 1314.74 586.323 Q1311.57 581.717 1311.57 572.99 Q1311.57 564.796 1315.46 559.935 Q1319.35 555.05 1325.9 555.05 Q1327.66 555.05 1329.44 555.398 Q1331.25 555.745 1333.19 556.439 Z" fill="#000000" fill-rule="nonzero" fill-opacity="1" /><path clip-path="url(#clip850)" d="M1278.35 234.241 Q1274.74 234.241 1272.91 237.806 Q1271.11 241.347 1271.11 248.477 Q1271.11 255.583 1272.91 259.148 Q1274.74 262.69 1278.35 262.69 Q1281.99 262.69 1283.79 259.148 Q1285.62 255.583 1285.62 248.477 Q1285.62 241.347 1283.79 237.806 Q1281.99 234.241 1278.35 234.241 M1278.35 230.537 Q1284.16 230.537 1287.22 235.144 Q1290.3 239.727 1290.3 248.477 Q1290.3 257.204 1287.22 261.81 Q1284.16 266.394 1278.35 266.394 Q1272.54 266.394 1269.46 261.81 Q1266.41 257.204 1266.41 248.477 Q1266.41 239.727 1269.46 235.144 Q1272.54 230.537 1278.35 230.537 Z" fill="#000000" fill-rule="nonzero" fill-opacity="1" /><path clip-path="url(#clip850)" d="M1298.52 259.843 L1303.4 259.843 L1303.4 265.722 L1298.52 265.722 L1298.52 259.843 Z" fill="#000000" fill-rule="nonzero" fill-opacity="1" /><path clip-path="url(#clip850)" d="M1323.58 249.31 Q1320.25 249.31 1318.33 251.093 Q1316.43 252.875 1316.43 256 Q1316.43 259.125 1318.33 260.907 Q1320.25 262.69 1323.58 262.69 Q1326.92 262.69 1328.84 260.907 Q1330.76 259.102 1330.76 256 Q1330.76 252.875 1328.84 251.093 Q1326.94 249.31 1323.58 249.31 M1318.91 247.32 Q1315.9 246.579 1314.21 244.519 Q1312.54 242.458 1312.54 239.496 Q1312.54 235.352 1315.48 232.945 Q1318.45 230.537 1323.58 230.537 Q1328.75 230.537 1331.69 232.945 Q1334.63 235.352 1334.63 239.496 Q1334.63 242.458 1332.94 244.519 Q1331.27 246.579 1328.28 247.32 Q1331.66 248.107 1333.54 250.398 Q1335.44 252.69 1335.44 256 Q1335.44 261.023 1332.36 263.708 Q1329.3 266.394 1323.58 266.394 Q1317.87 266.394 1314.79 263.708 Q1311.73 261.023 1311.73 256 Q1311.73 252.69 1313.63 250.398 Q1315.53 248.107 1318.91 247.32 M1317.2 239.935 Q1317.2 242.621 1318.86 244.125 Q1320.55 245.63 1323.58 245.63 Q1326.59 245.63 1328.28 244.125 Q1330 242.621 1330 239.935 Q1330 237.25 1328.28 235.746 Q1326.59 234.241 1323.58 234.241 Q1320.55 234.241 1318.86 235.746 Q1317.2 237.25 1317.2 239.935 Z" fill="#000000" fill-rule="nonzero" fill-opacity="1" /><polyline clip-path="url(#clip853)" style="stroke:#009af9; stroke-linecap:round; stroke-linejoin:round; stroke-width:4; stroke-opacity:1; fill:none" points="1399.21,1384.24 1414.14,259.259 1429.07,86.1857 1444,1384.24 1458.94,86.1857 1473.87,1211.16 1488.8,86.1857 1503.73,1384.24 1518.66,86.1857 1533.6,1384.24 1548.53,1384.24 1563.46,1384.24 1578.39,951.554 1593.32,865.017 1608.25,345.796 1623.19,259.259 1638.12,86.1857 1653.05,1384.24 1667.98,172.723 1682.91,1384.24 1697.85,1384.24 1712.78,605.407 1727.71,1384.24 1742.64,1211.16 1757.57,86.1857 1772.51,778.48 1787.44,86.1857 1802.37,1384.24 1817.3,86.1857 1832.23,1384.24 1847.16,1038.09 1862.1,86.1857 1877.03,1211.16 1891.96,86.1857 1906.89,172.723 1921.82,432.333 1936.76,86.1857 1951.69,1384.24 1966.62,432.333 1981.55,172.723 1996.48,345.796 2011.41,86.1857 2026.35,1384.24 2041.28,1384.24 2056.21,1384.24 2071.14,1384.24 2086.07,1384.24 2101.01,1384.24 2115.94,1211.16 2130.87,1384.24 2145.8,1384.24 2160.73,1384.24 2175.66,1384.24 2190.6,1384.24 2205.53,1384.24 2220.46,1384.24 2235.39,1384.24 2250.32,172.723 2265.26,1384.24 2280.19,86.1857 2295.12,1384.24 2310.05,86.1857 2324.98,345.796 "/>
<path clip-path="url(#clip850)" d="M1826.73 196.789 L2320.05 196.789 L2320.05 93.1086 L1826.73 93.1086  Z" fill="#ffffff" fill-rule="evenodd" fill-opacity="1"/>
<polyline clip-path="url(#clip850)" style="stroke:#000000; stroke-linecap:round; stroke-linejoin:round; stroke-width:4; stroke-opacity:1; fill:none" points="1826.73,196.789 2320.05,196.789 2320.05,93.1086 1826.73,93.1086 1826.73,196.789 "/>
<polyline clip-path="url(#clip850)" style="stroke:#009af9; stroke-linecap:round; stroke-linejoin:round; stroke-width:4; stroke-opacity:1; fill:none" points="1837.63,144.949 1903.06,144.949 "/>
<path clip-path="url(#clip850)" d="M1929.14 140.284 Q1928.43 139.868 1927.57 139.682 Q1926.74 139.474 1925.72 139.474 Q1922.11 139.474 1920.16 141.835 Q1918.24 144.173 1918.24 148.571 L1918.24 162.229 L1913.96 162.229 L1913.96 136.303 L1918.24 136.303 L1918.24 140.331 Q1919.58 137.969 1921.74 136.835 Q1923.89 135.678 1926.97 135.678 Q1927.41 135.678 1927.94 135.747 Q1928.47 135.794 1929.12 135.909 L1929.14 140.284 Z" fill="#000000" fill-rule="nonzero" fill-opacity="1" /><path clip-path="url(#clip850)" d="M1954.75 148.201 L1954.75 150.284 L1935.16 150.284 Q1935.44 154.682 1937.8 156.997 Q1940.19 159.289 1944.42 159.289 Q1946.88 159.289 1949.17 158.687 Q1951.48 158.085 1953.75 156.881 L1953.75 160.909 Q1951.46 161.881 1949.05 162.391 Q1946.64 162.9 1944.17 162.9 Q1937.96 162.9 1934.33 159.289 Q1930.72 155.678 1930.72 149.52 Q1930.72 143.155 1934.14 139.428 Q1937.59 135.678 1943.43 135.678 Q1948.66 135.678 1951.69 139.057 Q1954.75 142.414 1954.75 148.201 M1950.49 146.951 Q1950.44 143.456 1948.52 141.372 Q1946.62 139.289 1943.47 139.289 Q1939.91 139.289 1937.75 141.303 Q1935.63 143.317 1935.3 146.974 L1950.49 146.951 Z" fill="#000000" fill-rule="nonzero" fill-opacity="1" /><path clip-path="url(#clip850)" d="M1974.86 126.21 L1974.86 129.752 L1970.79 129.752 Q1968.5 129.752 1967.59 130.678 Q1966.71 131.604 1966.71 134.011 L1966.71 136.303 L1973.73 136.303 L1973.73 139.613 L1966.71 139.613 L1966.71 162.229 L1962.43 162.229 L1962.43 139.613 L1958.36 139.613 L1958.36 136.303 L1962.43 136.303 L1962.43 134.497 Q1962.43 130.169 1964.44 128.201 Q1966.46 126.21 1970.83 126.21 L1974.86 126.21 Z" fill="#000000" fill-rule="nonzero" fill-opacity="1" /><path clip-path="url(#clip850)" d="M1993.45 140.284 Q1992.73 139.868 1991.87 139.682 Q1991.04 139.474 1990.02 139.474 Q1986.41 139.474 1984.47 141.835 Q1982.55 144.173 1982.55 148.571 L1982.55 162.229 L1978.26 162.229 L1978.26 136.303 L1982.55 136.303 L1982.55 140.331 Q1983.89 137.969 1986.04 136.835 Q1988.19 135.678 1991.27 135.678 Q1991.71 135.678 1992.25 135.747 Q1992.78 135.794 1993.43 135.909 L1993.45 140.284 Z" fill="#000000" fill-rule="nonzero" fill-opacity="1" /><path clip-path="url(#clip850)" d="M2019.05 148.201 L2019.05 150.284 L1999.47 150.284 Q1999.75 154.682 2002.11 156.997 Q2004.49 159.289 2008.73 159.289 Q2011.18 159.289 2013.47 158.687 Q2015.79 158.085 2018.06 156.881 L2018.06 160.909 Q2015.76 161.881 2013.36 162.391 Q2010.95 162.9 2008.47 162.9 Q2002.27 162.9 1998.63 159.289 Q1995.02 155.678 1995.02 149.52 Q1995.02 143.155 1998.45 139.428 Q2001.9 135.678 2007.73 135.678 Q2012.96 135.678 2016 139.057 Q2019.05 142.414 2019.05 148.201 M2014.79 146.951 Q2014.75 143.456 2012.82 141.372 Q2010.93 139.289 2007.78 139.289 Q2004.21 139.289 2002.06 141.303 Q1999.93 143.317 1999.61 146.974 L2014.79 146.951 Z" fill="#000000" fill-rule="nonzero" fill-opacity="1" /><path clip-path="url(#clip850)" d="M2042.57 137.067 L2042.57 141.094 Q2040.76 140.169 2038.82 139.706 Q2036.87 139.243 2034.79 139.243 Q2031.62 139.243 2030.02 140.215 Q2028.45 141.187 2028.45 143.131 Q2028.45 144.613 2029.58 145.469 Q2030.72 146.303 2034.14 147.067 L2035.6 147.391 Q2040.14 148.363 2042.04 150.145 Q2043.96 151.905 2043.96 155.076 Q2043.96 158.687 2041.09 160.793 Q2038.24 162.9 2033.24 162.9 Q2031.16 162.9 2028.89 162.483 Q2026.64 162.09 2024.14 161.28 L2024.14 156.881 Q2026.5 158.108 2028.8 158.733 Q2031.09 159.335 2033.33 159.335 Q2036.34 159.335 2037.96 158.317 Q2039.58 157.275 2039.58 155.4 Q2039.58 153.664 2038.4 152.738 Q2037.25 151.812 2033.29 150.956 L2031.81 150.608 Q2027.85 149.775 2026.09 148.062 Q2024.33 146.326 2024.33 143.317 Q2024.33 139.659 2026.92 137.669 Q2029.51 135.678 2034.28 135.678 Q2036.64 135.678 2038.73 136.025 Q2040.81 136.372 2042.57 137.067 Z" fill="#000000" fill-rule="nonzero" fill-opacity="1" /><path clip-path="url(#clip850)" d="M2072.29 146.581 L2072.29 162.229 L2068.03 162.229 L2068.03 146.719 Q2068.03 143.039 2066.6 141.21 Q2065.16 139.382 2062.29 139.382 Q2058.84 139.382 2056.85 141.581 Q2054.86 143.78 2054.86 147.576 L2054.86 162.229 L2050.58 162.229 L2050.58 126.21 L2054.86 126.21 L2054.86 140.331 Q2056.39 137.993 2058.45 136.835 Q2060.53 135.678 2063.24 135.678 Q2067.71 135.678 2070 138.456 Q2072.29 141.21 2072.29 146.581 Z" fill="#000000" fill-rule="nonzero" fill-opacity="1" /><path clip-path="url(#clip850)" d="M2100.97 141.28 Q2102.57 138.409 2104.79 137.044 Q2107.01 135.678 2110.02 135.678 Q2114.07 135.678 2116.27 138.525 Q2118.47 141.349 2118.47 146.581 L2118.47 162.229 L2114.19 162.229 L2114.19 146.719 Q2114.19 142.993 2112.87 141.187 Q2111.55 139.382 2108.84 139.382 Q2105.53 139.382 2103.61 141.581 Q2101.69 143.78 2101.69 147.576 L2101.69 162.229 L2097.41 162.229 L2097.41 146.719 Q2097.41 142.969 2096.09 141.187 Q2094.77 139.382 2092.01 139.382 Q2088.75 139.382 2086.83 141.604 Q2084.91 143.803 2084.91 147.576 L2084.91 162.229 L2080.62 162.229 L2080.62 136.303 L2084.91 136.303 L2084.91 140.331 Q2086.37 137.946 2088.4 136.812 Q2090.44 135.678 2093.24 135.678 Q2096.06 135.678 2098.03 137.113 Q2100.02 138.548 2100.97 141.28 Z" fill="#000000" fill-rule="nonzero" fill-opacity="1" /><path clip-path="url(#clip850)" d="M2149.14 148.201 L2149.14 150.284 L2129.56 150.284 Q2129.84 154.682 2132.2 156.997 Q2134.58 159.289 2138.82 159.289 Q2141.27 159.289 2143.56 158.687 Q2145.88 158.085 2148.15 156.881 L2148.15 160.909 Q2145.86 161.881 2143.45 162.391 Q2141.04 162.9 2138.56 162.9 Q2132.36 162.9 2128.73 159.289 Q2125.11 155.678 2125.11 149.52 Q2125.11 143.155 2128.54 139.428 Q2131.99 135.678 2137.82 135.678 Q2143.05 135.678 2146.09 139.057 Q2149.14 142.414 2149.14 148.201 M2144.88 146.951 Q2144.84 143.456 2142.92 141.372 Q2141.02 139.289 2137.87 139.289 Q2134.3 139.289 2132.15 141.303 Q2130.02 143.317 2129.7 146.974 L2144.88 146.951 Z" fill="#000000" fill-rule="nonzero" fill-opacity="1" /><path clip-path="url(#clip850)" d="M2177.68 146.581 L2177.68 162.229 L2173.42 162.229 L2173.42 146.719 Q2173.42 143.039 2171.99 141.21 Q2170.55 139.382 2167.68 139.382 Q2164.24 139.382 2162.24 141.581 Q2160.25 143.78 2160.25 147.576 L2160.25 162.229 L2155.97 162.229 L2155.97 136.303 L2160.25 136.303 L2160.25 140.331 Q2161.78 137.993 2163.84 136.835 Q2165.92 135.678 2168.63 135.678 Q2173.1 135.678 2175.39 138.456 Q2177.68 141.21 2177.68 146.581 Z" fill="#000000" fill-rule="nonzero" fill-opacity="1" /><path clip-path="url(#clip850)" d="M2190.39 128.942 L2190.39 136.303 L2199.17 136.303 L2199.17 139.613 L2190.39 139.613 L2190.39 153.687 Q2190.39 156.858 2191.25 157.761 Q2192.13 158.664 2194.79 158.664 L2199.17 158.664 L2199.17 162.229 L2194.79 162.229 Q2189.86 162.229 2187.98 160.4 Q2186.11 158.548 2186.11 153.687 L2186.11 139.613 L2182.98 139.613 L2182.98 136.303 L2186.11 136.303 L2186.11 128.942 L2190.39 128.942 Z" fill="#000000" fill-rule="nonzero" fill-opacity="1" /><path clip-path="url(#clip850)" d="M2234.86 140.284 Q2234.14 139.868 2233.29 139.682 Q2232.45 139.474 2231.43 139.474 Q2227.82 139.474 2225.88 141.835 Q2223.96 144.173 2223.96 148.571 L2223.96 162.229 L2219.67 162.229 L2219.67 136.303 L2223.96 136.303 L2223.96 140.331 Q2225.3 137.969 2227.45 136.835 Q2229.61 135.678 2232.68 135.678 Q2233.12 135.678 2233.66 135.747 Q2234.19 135.794 2234.84 135.909 L2234.86 140.284 Z" fill="#000000" fill-rule="nonzero" fill-opacity="1" /><path clip-path="url(#clip850)" d="M2251.11 149.196 Q2245.95 149.196 2243.96 150.377 Q2241.97 151.557 2241.97 154.405 Q2241.97 156.673 2243.45 158.016 Q2244.95 159.335 2247.52 159.335 Q2251.06 159.335 2253.19 156.835 Q2255.35 154.312 2255.35 150.145 L2255.35 149.196 L2251.11 149.196 M2259.6 147.437 L2259.6 162.229 L2255.35 162.229 L2255.35 158.293 Q2253.89 160.655 2251.71 161.789 Q2249.54 162.9 2246.39 162.9 Q2242.41 162.9 2240.04 160.678 Q2237.71 158.432 2237.71 154.682 Q2237.71 150.307 2240.62 148.085 Q2243.56 145.863 2249.37 145.863 L2255.35 145.863 L2255.35 145.446 Q2255.35 142.507 2253.4 140.909 Q2251.48 139.289 2247.98 139.289 Q2245.76 139.289 2243.66 139.821 Q2241.55 140.354 2239.61 141.419 L2239.61 137.483 Q2241.94 136.581 2244.14 136.141 Q2246.34 135.678 2248.42 135.678 Q2254.05 135.678 2256.83 138.594 Q2259.6 141.511 2259.6 147.437 Z" fill="#000000" fill-rule="nonzero" fill-opacity="1" /><path clip-path="url(#clip850)" d="M2272.59 128.942 L2272.59 136.303 L2281.36 136.303 L2281.36 139.613 L2272.59 139.613 L2272.59 153.687 Q2272.59 156.858 2273.45 157.761 Q2274.33 158.664 2276.99 158.664 L2281.36 158.664 L2281.36 162.229 L2276.99 162.229 Q2272.06 162.229 2270.18 160.4 Q2268.31 158.548 2268.31 153.687 L2268.31 139.613 L2265.18 139.613 L2265.18 136.303 L2268.31 136.303 L2268.31 128.942 L2272.59 128.942 Z" fill="#000000" fill-rule="nonzero" fill-opacity="1" /><path clip-path="url(#clip850)" d="M2309.14 148.201 L2309.14 150.284 L2289.56 150.284 Q2289.84 154.682 2292.2 156.997 Q2294.58 159.289 2298.82 159.289 Q2301.27 159.289 2303.56 158.687 Q2305.88 158.085 2308.15 156.881 L2308.15 160.909 Q2305.85 161.881 2303.45 162.391 Q2301.04 162.9 2298.56 162.9 Q2292.36 162.9 2288.73 159.289 Q2285.11 155.678 2285.11 149.52 Q2285.11 143.155 2288.54 139.428 Q2291.99 135.678 2297.82 135.678 Q2303.05 135.678 2306.09 139.057 Q2309.14 142.414 2309.14 148.201 M2304.88 146.951 Q2304.84 143.456 2302.91 141.372 Q2301.02 139.289 2297.87 139.289 Q2294.3 139.289 2292.15 141.303 Q2290.02 143.317 2289.7 146.974 L2304.88 146.951 Z" fill="#000000" fill-rule="nonzero" fill-opacity="1" /></svg>
