<?xml version="1.0" encoding="utf-8"?>
<svg xmlns="http://www.w3.org/2000/svg" xmlns:xlink="http://www.w3.org/1999/xlink" width="600" height="400" viewBox="0 0 2400 1600">
<defs>
  <clipPath id="clip880">
    <rect x="0" y="0" width="2400" height="1600"/>
  </clipPath>
</defs>
<path clip-path="url(#clip880)" d="M0 1600 L2400 1600 L2400 0 L0 0  Z" fill="#ffffff" fill-rule="evenodd" fill-opacity="1"/>
<defs>
  <clipPath id="clip881">
    <rect x="480" y="0" width="1681" height="1600"/>
  </clipPath>
</defs>
<path clip-path="url(#clip880)" d="M112.177 1486.45 L2352.76 1486.45 L2352.76 47.2441 L112.177 47.2441  Z" fill="#ffffff" fill-rule="evenodd" fill-opacity="1"/>
<defs>
  <clipPath id="clip882">
    <rect x="112" y="47" width="2242" height="1440"/>
  </clipPath>
</defs>
<polyline clip-path="url(#clip882)" style="stroke:#000000; stroke-linecap:round; stroke-linejoin:round; stroke-width:2; stroke-opacity:0.1; fill:none" points="235.413,1486.45 235.413,47.2441 "/>
<polyline clip-path="url(#clip882)" style="stroke:#000000; stroke-linecap:round; stroke-linejoin:round; stroke-width:2; stroke-opacity:0.1; fill:none" points="733.94,1486.45 733.94,47.2441 "/>
<polyline clip-path="url(#clip882)" style="stroke:#000000; stroke-linecap:round; stroke-linejoin:round; stroke-width:2; stroke-opacity:0.1; fill:none" points="1232.47,1486.45 1232.47,47.2441 "/>
<polyline clip-path="url(#clip882)" style="stroke:#000000; stroke-linecap:round; stroke-linejoin:round; stroke-width:2; stroke-opacity:0.1; fill:none" points="1730.99,1486.45 1730.99,47.2441 "/>
<polyline clip-path="url(#clip882)" style="stroke:#000000; stroke-linecap:round; stroke-linejoin:round; stroke-width:2; stroke-opacity:0.1; fill:none" points="2229.52,1486.45 2229.52,47.2441 "/>
<polyline clip-path="url(#clip882)" style="stroke:#000000; stroke-linecap:round; stroke-linejoin:round; stroke-width:2; stroke-opacity:0.1; fill:none" points="112.177,1486.45 2352.76,1486.45 "/>
<polyline clip-path="url(#clip882)" style="stroke:#000000; stroke-linecap:round; stroke-linejoin:round; stroke-width:2; stroke-opacity:0.1; fill:none" points="112.177,1278.01 2352.76,1278.01 "/>
<polyline clip-path="url(#clip882)" style="stroke:#000000; stroke-linecap:round; stroke-linejoin:round; stroke-width:2; stroke-opacity:0.1; fill:none" points="112.177,1069.58 2352.76,1069.58 "/>
<polyline clip-path="url(#clip882)" style="stroke:#000000; stroke-linecap:round; stroke-linejoin:round; stroke-width:2; stroke-opacity:0.1; fill:none" points="112.177,861.139 2352.76,861.139 "/>
<polyline clip-path="url(#clip882)" style="stroke:#000000; stroke-linecap:round; stroke-linejoin:round; stroke-width:2; stroke-opacity:0.1; fill:none" points="112.177,652.702 2352.76,652.702 "/>
<polyline clip-path="url(#clip882)" style="stroke:#000000; stroke-linecap:round; stroke-linejoin:round; stroke-width:2; stroke-opacity:0.1; fill:none" points="112.177,444.266 2352.76,444.266 "/>
<polyline clip-path="url(#clip882)" style="stroke:#000000; stroke-linecap:round; stroke-linejoin:round; stroke-width:2; stroke-opacity:0.1; fill:none" points="112.177,235.829 2352.76,235.829 "/>
<polyline clip-path="url(#clip880)" style="stroke:#000000; stroke-linecap:round; stroke-linejoin:round; stroke-width:4; stroke-opacity:1; fill:none" points="112.177,1486.45 2352.76,1486.45 "/>
<polyline clip-path="url(#clip880)" style="stroke:#000000; stroke-linecap:round; stroke-linejoin:round; stroke-width:4; stroke-opacity:1; fill:none" points="235.413,1486.45 235.413,1467.55 "/>
<polyline clip-path="url(#clip880)" style="stroke:#000000; stroke-linecap:round; stroke-linejoin:round; stroke-width:4; stroke-opacity:1; fill:none" points="733.94,1486.45 733.94,1467.55 "/>
<polyline clip-path="url(#clip880)" style="stroke:#000000; stroke-linecap:round; stroke-linejoin:round; stroke-width:4; stroke-opacity:1; fill:none" points="1232.47,1486.45 1232.47,1467.55 "/>
<polyline clip-path="url(#clip880)" style="stroke:#000000; stroke-linecap:round; stroke-linejoin:round; stroke-width:4; stroke-opacity:1; fill:none" points="1730.99,1486.45 1730.99,1467.55 "/>
<polyline clip-path="url(#clip880)" style="stroke:#000000; stroke-linecap:round; stroke-linejoin:round; stroke-width:4; stroke-opacity:1; fill:none" points="2229.52,1486.45 2229.52,1467.55 "/>
<path clip-path="url(#clip880)" d="M197.716 1517.37 Q194.105 1517.37 192.277 1520.93 Q190.471 1524.47 190.471 1531.6 Q190.471 1538.71 192.277 1542.27 Q194.105 1545.82 197.716 1545.82 Q201.351 1545.82 203.156 1542.27 Q204.985 1538.71 204.985 1531.6 Q204.985 1524.47 203.156 1520.93 Q201.351 1517.37 197.716 1517.37 M197.716 1513.66 Q203.527 1513.66 206.582 1518.27 Q209.661 1522.85 209.661 1531.6 Q209.661 1540.33 206.582 1544.94 Q203.527 1549.52 197.716 1549.52 Q191.906 1549.52 188.828 1544.94 Q185.772 1540.33 185.772 1531.6 Q185.772 1522.85 188.828 1518.27 Q191.906 1513.66 197.716 1513.66 Z" fill="#000000" fill-rule="nonzero" fill-opacity="1" /><path clip-path="url(#clip880)" d="M217.878 1542.97 L222.763 1542.97 L222.763 1548.85 L217.878 1548.85 L217.878 1542.97 Z" fill="#000000" fill-rule="nonzero" fill-opacity="1" /><path clip-path="url(#clip880)" d="M242.948 1517.37 Q239.337 1517.37 237.508 1520.93 Q235.702 1524.47 235.702 1531.6 Q235.702 1538.71 237.508 1542.27 Q239.337 1545.82 242.948 1545.82 Q246.582 1545.82 248.387 1542.27 Q250.216 1538.71 250.216 1531.6 Q250.216 1524.47 248.387 1520.93 Q246.582 1517.37 242.948 1517.37 M242.948 1513.66 Q248.758 1513.66 251.813 1518.27 Q254.892 1522.85 254.892 1531.6 Q254.892 1540.33 251.813 1544.94 Q248.758 1549.52 242.948 1549.52 Q237.138 1549.52 234.059 1544.94 Q231.003 1540.33 231.003 1531.6 Q231.003 1522.85 234.059 1518.27 Q237.138 1513.66 242.948 1513.66 Z" fill="#000000" fill-rule="nonzero" fill-opacity="1" /><path clip-path="url(#clip880)" d="M273.11 1517.37 Q269.498 1517.37 267.67 1520.93 Q265.864 1524.47 265.864 1531.6 Q265.864 1538.71 267.67 1542.27 Q269.498 1545.82 273.11 1545.82 Q276.744 1545.82 278.549 1542.27 Q280.378 1538.71 280.378 1531.6 Q280.378 1524.47 278.549 1520.93 Q276.744 1517.37 273.11 1517.37 M273.11 1513.66 Q278.92 1513.66 281.975 1518.27 Q285.054 1522.85 285.054 1531.6 Q285.054 1540.33 281.975 1544.94 Q278.92 1549.52 273.11 1549.52 Q267.299 1549.52 264.221 1544.94 Q261.165 1540.33 261.165 1531.6 Q261.165 1522.85 264.221 1518.27 Q267.299 1513.66 273.11 1513.66 Z" fill="#000000" fill-rule="nonzero" fill-opacity="1" /><path clip-path="url(#clip880)" d="M696.741 1517.37 Q693.13 1517.37 691.301 1520.93 Q689.496 1524.47 689.496 1531.6 Q689.496 1538.71 691.301 1542.27 Q693.13 1545.82 696.741 1545.82 Q700.375 1545.82 702.181 1542.27 Q704.009 1538.71 704.009 1531.6 Q704.009 1524.47 702.181 1520.93 Q700.375 1517.37 696.741 1517.37 M696.741 1513.66 Q702.551 1513.66 705.607 1518.27 Q708.685 1522.85 708.685 1531.6 Q708.685 1540.33 705.607 1544.94 Q702.551 1549.52 696.741 1549.52 Q690.931 1549.52 687.852 1544.94 Q684.797 1540.33 684.797 1531.6 Q684.797 1522.85 687.852 1518.27 Q690.931 1513.66 696.741 1513.66 Z" fill="#000000" fill-rule="nonzero" fill-opacity="1" /><path clip-path="url(#clip880)" d="M716.903 1542.97 L721.787 1542.97 L721.787 1548.85 L716.903 1548.85 L716.903 1542.97 Z" fill="#000000" fill-rule="nonzero" fill-opacity="1" /><path clip-path="url(#clip880)" d="M736 1544.91 L752.319 1544.91 L752.319 1548.85 L730.375 1548.85 L730.375 1544.91 Q733.037 1542.16 737.62 1537.53 Q742.227 1532.88 743.407 1531.53 Q745.653 1529.01 746.532 1527.27 Q747.435 1525.51 747.435 1523.82 Q747.435 1521.07 745.491 1519.33 Q743.569 1517.6 740.468 1517.6 Q738.268 1517.6 735.815 1518.36 Q733.384 1519.13 730.606 1520.68 L730.606 1515.95 Q733.431 1514.82 735.884 1514.24 Q738.338 1513.66 740.375 1513.66 Q745.745 1513.66 748.94 1516.35 Q752.134 1519.03 752.134 1523.52 Q752.134 1525.65 751.324 1527.57 Q750.537 1529.47 748.43 1532.07 Q747.852 1532.74 744.75 1535.95 Q741.648 1539.15 736 1544.91 Z" fill="#000000" fill-rule="nonzero" fill-opacity="1" /><path clip-path="url(#clip880)" d="M762.18 1514.29 L780.537 1514.29 L780.537 1518.22 L766.463 1518.22 L766.463 1526.7 Q767.481 1526.35 768.5 1526.19 Q769.518 1526 770.537 1526 Q776.324 1526 779.703 1529.17 Q783.083 1532.34 783.083 1537.76 Q783.083 1543.34 779.611 1546.44 Q776.139 1549.52 769.819 1549.52 Q767.643 1549.52 765.375 1549.15 Q763.129 1548.78 760.722 1548.04 L760.722 1543.34 Q762.805 1544.47 765.028 1545.03 Q767.25 1545.58 769.727 1545.58 Q773.731 1545.58 776.069 1543.48 Q778.407 1541.37 778.407 1537.76 Q778.407 1534.15 776.069 1532.04 Q773.731 1529.94 769.727 1529.94 Q767.852 1529.94 765.977 1530.35 Q764.125 1530.77 762.18 1531.65 L762.18 1514.29 Z" fill="#000000" fill-rule="nonzero" fill-opacity="1" /><path clip-path="url(#clip880)" d="M1194.77 1517.37 Q1191.16 1517.37 1189.33 1520.93 Q1187.52 1524.47 1187.52 1531.6 Q1187.52 1538.71 1189.33 1542.27 Q1191.16 1545.82 1194.77 1545.82 Q1198.4 1545.82 1200.21 1542.27 Q1202.04 1538.71 1202.04 1531.6 Q1202.04 1524.47 1200.21 1520.93 Q1198.4 1517.37 1194.77 1517.37 M1194.77 1513.66 Q1200.58 1513.66 1203.64 1518.27 Q1206.71 1522.85 1206.71 1531.6 Q1206.71 1540.33 1203.64 1544.94 Q1200.58 1549.52 1194.77 1549.52 Q1188.96 1549.52 1185.88 1544.94 Q1182.83 1540.33 1182.83 1531.6 Q1182.83 1522.85 1185.88 1518.27 Q1188.96 1513.66 1194.77 1513.66 Z" fill="#000000" fill-rule="nonzero" fill-opacity="1" /><path clip-path="url(#clip880)" d="M1214.93 1542.97 L1219.82 1542.97 L1219.82 1548.85 L1214.93 1548.85 L1214.93 1542.97 Z" fill="#000000" fill-rule="nonzero" fill-opacity="1" /><path clip-path="url(#clip880)" d="M1230.05 1514.29 L1248.4 1514.29 L1248.4 1518.22 L1234.33 1518.22 L1234.33 1526.7 Q1235.35 1526.35 1236.37 1526.19 Q1237.39 1526 1238.4 1526 Q1244.19 1526 1247.57 1529.17 Q1250.95 1532.34 1250.95 1537.76 Q1250.95 1543.34 1247.48 1546.44 Q1244.01 1549.52 1237.69 1549.52 Q1235.51 1549.52 1233.24 1549.15 Q1231 1548.78 1228.59 1548.04 L1228.59 1543.34 Q1230.67 1544.47 1232.89 1545.03 Q1235.12 1545.58 1237.59 1545.58 Q1241.6 1545.58 1243.94 1543.48 Q1246.27 1541.37 1246.27 1537.76 Q1246.27 1534.15 1243.94 1532.04 Q1241.6 1529.94 1237.59 1529.94 Q1235.72 1529.94 1233.84 1530.35 Q1231.99 1530.77 1230.05 1531.65 L1230.05 1514.29 Z" fill="#000000" fill-rule="nonzero" fill-opacity="1" /><path clip-path="url(#clip880)" d="M1270.16 1517.37 Q1266.55 1517.37 1264.72 1520.93 Q1262.92 1524.47 1262.92 1531.6 Q1262.92 1538.71 1264.72 1542.27 Q1266.55 1545.82 1270.16 1545.82 Q1273.8 1545.82 1275.6 1542.27 Q1277.43 1538.71 1277.43 1531.6 Q1277.43 1524.47 1275.6 1520.93 Q1273.8 1517.37 1270.16 1517.37 M1270.16 1513.66 Q1275.97 1513.66 1279.03 1518.27 Q1282.11 1522.85 1282.11 1531.6 Q1282.11 1540.33 1279.03 1544.94 Q1275.97 1549.52 1270.16 1549.52 Q1264.35 1549.52 1261.27 1544.94 Q1258.22 1540.33 1258.22 1531.6 Q1258.22 1522.85 1261.27 1518.27 Q1264.35 1513.66 1270.16 1513.66 Z" fill="#000000" fill-rule="nonzero" fill-opacity="1" /><path clip-path="url(#clip880)" d="M1693.79 1517.37 Q1690.18 1517.37 1688.35 1520.93 Q1686.55 1524.47 1686.55 1531.6 Q1686.55 1538.71 1688.35 1542.27 Q1690.18 1545.82 1693.79 1545.82 Q1697.43 1545.82 1699.23 1542.27 Q1701.06 1538.71 1701.06 1531.6 Q1701.06 1524.47 1699.23 1520.93 Q1697.43 1517.37 1693.79 1517.37 M1693.79 1513.66 Q1699.6 1513.66 1702.66 1518.27 Q1705.74 1522.85 1705.74 1531.6 Q1705.74 1540.33 1702.66 1544.94 Q1699.6 1549.52 1693.79 1549.52 Q1687.98 1549.52 1684.91 1544.94 Q1681.85 1540.33 1681.85 1531.6 Q1681.85 1522.85 1684.91 1518.27 Q1687.98 1513.66 1693.79 1513.66 Z" fill="#000000" fill-rule="nonzero" fill-opacity="1" /><path clip-path="url(#clip880)" d="M1713.96 1542.97 L1718.84 1542.97 L1718.84 1548.85 L1713.96 1548.85 L1713.96 1542.97 Z" fill="#000000" fill-rule="nonzero" fill-opacity="1" /><path clip-path="url(#clip880)" d="M1727.85 1514.29 L1750.07 1514.29 L1750.07 1516.28 L1737.52 1548.85 L1732.64 1548.85 L1744.44 1518.22 L1727.85 1518.22 L1727.85 1514.29 Z" fill="#000000" fill-rule="nonzero" fill-opacity="1" /><path clip-path="url(#clip880)" d="M1759.23 1514.29 L1777.59 1514.29 L1777.59 1518.22 L1763.52 1518.22 L1763.52 1526.7 Q1764.53 1526.35 1765.55 1526.19 Q1766.57 1526 1767.59 1526 Q1773.38 1526 1776.76 1529.17 Q1780.14 1532.34 1780.14 1537.76 Q1780.14 1543.34 1776.66 1546.44 Q1773.19 1549.52 1766.87 1549.52 Q1764.7 1549.52 1762.43 1549.15 Q1760.18 1548.78 1757.78 1548.04 L1757.78 1543.34 Q1759.86 1544.47 1762.08 1545.03 Q1764.3 1545.58 1766.78 1545.58 Q1770.78 1545.58 1773.12 1543.48 Q1775.46 1541.37 1775.46 1537.76 Q1775.46 1534.15 1773.12 1532.04 Q1770.78 1529.94 1766.78 1529.94 Q1764.91 1529.94 1763.03 1530.35 Q1761.18 1530.77 1759.23 1531.65 L1759.23 1514.29 Z" fill="#000000" fill-rule="nonzero" fill-opacity="1" /><path clip-path="url(#clip880)" d="M2181.59 1544.91 L2189.23 1544.91 L2189.23 1518.55 L2180.92 1520.21 L2180.92 1515.95 L2189.18 1514.29 L2193.86 1514.29 L2193.86 1544.91 L2201.5 1544.91 L2201.5 1548.85 L2181.59 1548.85 L2181.59 1544.91 Z" fill="#000000" fill-rule="nonzero" fill-opacity="1" /><path clip-path="url(#clip880)" d="M2210.94 1542.97 L2215.83 1542.97 L2215.83 1548.85 L2210.94 1548.85 L2210.94 1542.97 Z" fill="#000000" fill-rule="nonzero" fill-opacity="1" /><path clip-path="url(#clip880)" d="M2236.01 1517.37 Q2232.4 1517.37 2230.57 1520.93 Q2228.77 1524.47 2228.77 1531.6 Q2228.77 1538.71 2230.57 1542.27 Q2232.4 1545.82 2236.01 1545.82 Q2239.65 1545.82 2241.45 1542.27 Q2243.28 1538.71 2243.28 1531.6 Q2243.28 1524.47 2241.45 1520.93 Q2239.65 1517.37 2236.01 1517.37 M2236.01 1513.66 Q2241.82 1513.66 2244.88 1518.27 Q2247.96 1522.85 2247.96 1531.6 Q2247.96 1540.33 2244.88 1544.94 Q2241.82 1549.52 2236.01 1549.52 Q2230.2 1549.52 2227.12 1544.94 Q2224.07 1540.33 2224.07 1531.6 Q2224.07 1522.85 2227.12 1518.27 Q2230.2 1513.66 2236.01 1513.66 Z" fill="#000000" fill-rule="nonzero" fill-opacity="1" /><path clip-path="url(#clip880)" d="M2266.17 1517.37 Q2262.56 1517.37 2260.74 1520.93 Q2258.93 1524.47 2258.93 1531.6 Q2258.93 1538.71 2260.74 1542.27 Q2262.56 1545.82 2266.17 1545.82 Q2269.81 1545.82 2271.61 1542.27 Q2273.44 1538.71 2273.44 1531.6 Q2273.44 1524.47 2271.61 1520.93 Q2269.81 1517.37 2266.17 1517.37 M2266.17 1513.66 Q2271.99 1513.66 2275.04 1518.27 Q2278.12 1522.85 2278.12 1531.6 Q2278.12 1540.33 2275.04 1544.94 Q2271.99 1549.52 2266.17 1549.52 Q2260.36 1549.52 2257.29 1544.94 Q2254.23 1540.33 2254.23 1531.6 Q2254.23 1522.85 2257.29 1518.27 Q2260.36 1513.66 2266.17 1513.66 Z" fill="#000000" fill-rule="nonzero" fill-opacity="1" /><polyline clip-path="url(#clip880)" style="stroke:#000000; stroke-linecap:round; stroke-linejoin:round; stroke-width:4; stroke-opacity:1; fill:none" points="112.177,1486.45 112.177,47.2441 "/>
<polyline clip-path="url(#clip880)" style="stroke:#000000; stroke-linecap:round; stroke-linejoin:round; stroke-width:4; stroke-opacity:1; fill:none" points="112.177,1486.45 131.075,1486.45 "/>
<polyline clip-path="url(#clip880)" style="stroke:#000000; stroke-linecap:round; stroke-linejoin:round; stroke-width:4; stroke-opacity:1; fill:none" points="112.177,1278.01 131.075,1278.01 "/>
<polyline clip-path="url(#clip880)" style="stroke:#000000; stroke-linecap:round; stroke-linejoin:round; stroke-width:4; stroke-opacity:1; fill:none" points="112.177,1069.58 131.075,1069.58 "/>
<polyline clip-path="url(#clip880)" style="stroke:#000000; stroke-linecap:round; stroke-linejoin:round; stroke-width:4; stroke-opacity:1; fill:none" points="112.177,861.139 131.075,861.139 "/>
<polyline clip-path="url(#clip880)" style="stroke:#000000; stroke-linecap:round; stroke-linejoin:round; stroke-width:4; stroke-opacity:1; fill:none" points="112.177,652.702 131.075,652.702 "/>
<polyline clip-path="url(#clip880)" style="stroke:#000000; stroke-linecap:round; stroke-linejoin:round; stroke-width:4; stroke-opacity:1; fill:none" points="112.177,444.266 131.075,444.266 "/>
<polyline clip-path="url(#clip880)" style="stroke:#000000; stroke-linecap:round; stroke-linejoin:round; stroke-width:4; stroke-opacity:1; fill:none" points="112.177,235.829 131.075,235.829 "/>
<path clip-path="url(#clip880)" d="M64.2328 1472.25 Q60.6217 1472.25 58.793 1475.81 Q56.9875 1479.35 56.9875 1486.48 Q56.9875 1493.59 58.793 1497.15 Q60.6217 1500.7 64.2328 1500.7 Q67.867 1500.7 69.6726 1497.15 Q71.5013 1493.59 71.5013 1486.48 Q71.5013 1479.35 69.6726 1475.81 Q67.867 1472.25 64.2328 1472.25 M64.2328 1468.54 Q70.0429 1468.54 73.0985 1473.15 Q76.1772 1477.73 76.1772 1486.48 Q76.1772 1495.21 73.0985 1499.82 Q70.0429 1504.4 64.2328 1504.4 Q58.4226 1504.4 55.344 1499.82 Q52.2884 1495.21 52.2884 1486.48 Q52.2884 1477.73 55.344 1473.15 Q58.4226 1468.54 64.2328 1468.54 Z" fill="#000000" fill-rule="nonzero" fill-opacity="1" /><path clip-path="url(#clip880)" d="M56.2699 1291.36 L63.9087 1291.36 L63.9087 1264.99 L55.5986 1266.66 L55.5986 1262.4 L63.8624 1260.73 L68.5383 1260.73 L68.5383 1291.36 L76.1772 1291.36 L76.1772 1295.29 L56.2699 1295.29 L56.2699 1291.36 Z" fill="#000000" fill-rule="nonzero" fill-opacity="1" /><path clip-path="url(#clip880)" d="M59.8578 1082.92 L76.1772 1082.92 L76.1772 1086.86 L54.2328 1086.86 L54.2328 1082.92 Q56.8949 1080.17 61.4782 1075.54 Q66.0846 1070.88 67.2652 1069.54 Q69.5105 1067.02 70.3902 1065.28 Q71.2929 1063.52 71.2929 1061.83 Q71.2929 1059.08 69.3485 1057.34 Q67.4272 1055.61 64.3254 1055.61 Q62.1263 1055.61 59.6726 1056.37 Q57.2421 1057.13 54.4643 1058.68 L54.4643 1053.96 Q57.2884 1052.83 59.7421 1052.25 Q62.1958 1051.67 64.2328 1051.67 Q69.6031 1051.67 72.7976 1054.36 Q75.992 1057.04 75.992 1061.53 Q75.992 1063.66 75.1818 1065.58 Q74.3948 1067.48 72.2883 1070.07 Q71.7096 1070.74 68.6078 1073.96 Q65.5059 1077.16 59.8578 1082.92 Z" fill="#000000" fill-rule="nonzero" fill-opacity="1" /><path clip-path="url(#clip880)" d="M69.0476 859.784 Q72.404 860.502 74.279 862.771 Q76.1772 865.039 76.1772 868.372 Q76.1772 873.488 72.6587 876.289 Q69.1402 879.09 62.6587 879.09 Q60.4828 879.09 58.168 878.65 Q55.8764 878.233 53.4227 877.377 L53.4227 872.863 Q55.3671 873.997 57.6819 874.576 Q59.9967 875.155 62.5198 875.155 Q66.918 875.155 69.2096 873.419 Q71.5244 871.683 71.5244 868.372 Q71.5244 865.317 69.3717 863.604 Q67.242 861.868 63.4226 861.868 L59.3949 861.868 L59.3949 858.025 L63.6078 858.025 Q67.0569 858.025 68.8855 856.66 Q70.7142 855.271 70.7142 852.678 Q70.7142 850.016 68.8161 848.604 Q66.9411 847.169 63.4226 847.169 Q61.5013 847.169 59.3023 847.585 Q57.1032 848.002 54.4643 848.882 L54.4643 844.715 Q57.1264 843.974 59.4412 843.604 Q61.7791 843.234 63.8393 843.234 Q69.1633 843.234 72.2652 845.664 Q75.367 848.072 75.367 852.192 Q75.367 855.062 73.7235 857.053 Q72.08 859.021 69.0476 859.784 Z" fill="#000000" fill-rule="nonzero" fill-opacity="1" /><path clip-path="url(#clip880)" d="M66.5939 639.496 L54.7884 657.945 L66.5939 657.945 L66.5939 639.496 M65.367 635.422 L71.2466 635.422 L71.2466 657.945 L76.1772 657.945 L76.1772 661.834 L71.2466 661.834 L71.2466 669.982 L66.5939 669.982 L66.5939 661.834 L50.9921 661.834 L50.9921 657.32 L65.367 635.422 Z" fill="#000000" fill-rule="nonzero" fill-opacity="1" /><path clip-path="url(#clip880)" d="M55.2745 426.986 L73.6309 426.986 L73.6309 430.921 L59.5569 430.921 L59.5569 439.393 Q60.5754 439.046 61.5939 438.884 Q62.6124 438.699 63.6309 438.699 Q69.418 438.699 72.7976 441.87 Q76.1772 445.041 76.1772 450.458 Q76.1772 456.037 72.705 459.138 Q69.2328 462.217 62.9134 462.217 Q60.7374 462.217 58.4689 461.847 Q56.2236 461.476 53.8162 460.736 L53.8162 456.037 Q55.8995 457.171 58.1217 457.726 Q60.3439 458.282 62.8208 458.282 Q66.8254 458.282 69.1633 456.175 Q71.5013 454.069 71.5013 450.458 Q71.5013 446.847 69.1633 444.74 Q66.8254 442.634 62.8208 442.634 Q60.9458 442.634 59.0708 443.051 Q57.2189 443.467 55.2745 444.347 L55.2745 426.986 Z" fill="#000000" fill-rule="nonzero" fill-opacity="1" /><path clip-path="url(#clip880)" d="M64.6495 233.966 Q61.5013 233.966 59.6495 236.119 Q57.8208 238.272 57.8208 242.022 Q57.8208 245.748 59.6495 247.924 Q61.5013 250.077 64.6495 250.077 Q67.7976 250.077 69.6263 247.924 Q71.4781 245.748 71.4781 242.022 Q71.4781 238.272 69.6263 236.119 Q67.7976 233.966 64.6495 233.966 M73.9318 219.313 L73.9318 223.573 Q72.1726 222.739 70.367 222.299 Q68.5846 221.86 66.8254 221.86 Q62.1958 221.86 59.7421 224.985 Q57.3115 228.11 56.9643 234.429 Q58.33 232.415 60.3902 231.35 Q62.4504 230.262 64.9272 230.262 Q70.1355 230.262 73.1448 233.434 Q76.1772 236.582 76.1772 242.022 Q76.1772 247.346 73.029 250.563 Q69.8809 253.781 64.6495 253.781 Q58.6541 253.781 55.4828 249.197 Q52.3116 244.591 52.3116 235.864 Q52.3116 227.67 56.2004 222.809 Q60.0893 217.924 66.6402 217.924 Q68.3994 217.924 70.1818 218.272 Q71.9874 218.619 73.9318 219.313 Z" fill="#000000" fill-rule="nonzero" fill-opacity="1" /><path clip-path="url(#clip882)" d="M235.413 1486.45 L235.413 1486.45 L368.353 1486.45 L368.353 1486.45 L235.413 1486.45 L235.413 1486.45  Z" fill="#009af9" fill-rule="evenodd" fill-opacity="1"/>
<polyline clip-path="url(#clip882)" style="stroke:#000000; stroke-linecap:round; stroke-linejoin:round; stroke-width:4; stroke-opacity:1; fill:none" points="235.413,1486.45 235.413,1486.45 368.353,1486.45 235.413,1486.45 "/>
<path clip-path="url(#clip882)" d="M368.353 47.2441 L368.353 1486.45 L501.294 1486.45 L501.294 47.2441 L368.353 47.2441 L368.353 47.2441  Z" fill="#009af9" fill-rule="evenodd" fill-opacity="1"/>
<polyline clip-path="url(#clip882)" style="stroke:#000000; stroke-linecap:round; stroke-linejoin:round; stroke-width:4; stroke-opacity:1; fill:none" points="368.353,47.2441 368.353,1486.45 501.294,1486.45 501.294,47.2441 368.353,47.2441 "/>
<path clip-path="url(#clip882)" d="M501.294 1486.45 L501.294 1486.45 L634.234 1486.45 L634.234 1486.45 L501.294 1486.45 L501.294 1486.45  Z" fill="#009af9" fill-rule="evenodd" fill-opacity="1"/>
<polyline clip-path="url(#clip882)" style="stroke:#000000; stroke-linecap:round; stroke-linejoin:round; stroke-width:4; stroke-opacity:1; fill:none" points="501.294,1486.45 501.294,1486.45 634.234,1486.45 501.294,1486.45 "/>
<path clip-path="url(#clip882)" d="M634.234 1287.94 L634.234 1486.45 L767.175 1486.45 L767.175 1287.94 L634.234 1287.94 L634.234 1287.94  Z" fill="#009af9" fill-rule="evenodd" fill-opacity="1"/>
<polyline clip-path="url(#clip882)" style="stroke:#000000; stroke-linecap:round; stroke-linejoin:round; stroke-width:4; stroke-opacity:1; fill:none" points="634.234,1287.94 634.234,1486.45 767.175,1486.45 767.175,1287.94 634.234,1287.94 "/>
<path clip-path="url(#clip882)" d="M767.175 1436.82 L767.175 1486.45 L900.115 1486.45 L900.115 1436.82 L767.175 1436.82 L767.175 1436.82  Z" fill="#009af9" fill-rule="evenodd" fill-opacity="1"/>
<polyline clip-path="url(#clip882)" style="stroke:#000000; stroke-linecap:round; stroke-linejoin:round; stroke-width:4; stroke-opacity:1; fill:none" points="767.175,1436.82 767.175,1486.45 900.115,1486.45 900.115,1436.82 767.175,1436.82 "/>
<path clip-path="url(#clip882)" d="M900.115 1436.82 L900.115 1486.45 L1033.06 1486.45 L1033.06 1436.82 L900.115 1436.82 L900.115 1436.82  Z" fill="#009af9" fill-rule="evenodd" fill-opacity="1"/>
<polyline clip-path="url(#clip882)" style="stroke:#000000; stroke-linecap:round; stroke-linejoin:round; stroke-width:4; stroke-opacity:1; fill:none" points="900.115,1436.82 900.115,1486.45 1033.06,1486.45 1033.06,1436.82 900.115,1436.82 "/>
<path clip-path="url(#clip882)" d="M1033.06 1436.82 L1033.06 1486.45 L1166 1486.45 L1166 1436.82 L1033.06 1436.82 L1033.06 1436.82  Z" fill="#009af9" fill-rule="evenodd" fill-opacity="1"/>
<polyline clip-path="url(#clip882)" style="stroke:#000000; stroke-linecap:round; stroke-linejoin:round; stroke-width:4; stroke-opacity:1; fill:none" points="1033.06,1436.82 1033.06,1486.45 1166,1486.45 1166,1436.82 1033.06,1436.82 "/>
<path clip-path="url(#clip882)" d="M1166 1436.82 L1166 1486.45 L1298.94 1486.45 L1298.94 1436.82 L1166 1436.82 L1166 1436.82  Z" fill="#009af9" fill-rule="evenodd" fill-opacity="1"/>
<polyline clip-path="url(#clip882)" style="stroke:#000000; stroke-linecap:round; stroke-linejoin:round; stroke-width:4; stroke-opacity:1; fill:none" points="1166,1436.82 1166,1486.45 1298.94,1486.45 1298.94,1436.82 1166,1436.82 "/>
<path clip-path="url(#clip882)" d="M1298.94 1436.82 L1298.94 1486.45 L1431.88 1486.45 L1431.88 1436.82 L1298.94 1436.82 L1298.94 1436.82  Z" fill="#009af9" fill-rule="evenodd" fill-opacity="1"/>
<polyline clip-path="url(#clip882)" style="stroke:#000000; stroke-linecap:round; stroke-linejoin:round; stroke-width:4; stroke-opacity:1; fill:none" points="1298.94,1436.82 1298.94,1486.45 1431.88,1486.45 1431.88,1436.82 1298.94,1436.82 "/>
<path clip-path="url(#clip882)" d="M1431.88 1486.45 L1431.88 1486.45 L1564.82 1486.45 L1564.82 1486.45 L1431.88 1486.45 L1431.88 1486.45  Z" fill="#009af9" fill-rule="evenodd" fill-opacity="1"/>
<polyline clip-path="url(#clip882)" style="stroke:#000000; stroke-linecap:round; stroke-linejoin:round; stroke-width:4; stroke-opacity:1; fill:none" points="1431.88,1486.45 1431.88,1486.45 1564.82,1486.45 1431.88,1486.45 "/>
<path clip-path="url(#clip882)" d="M1564.82 1387.19 L1564.82 1486.45 L1697.76 1486.45 L1697.76 1387.19 L1564.82 1387.19 L1564.82 1387.19  Z" fill="#009af9" fill-rule="evenodd" fill-opacity="1"/>
<polyline clip-path="url(#clip882)" style="stroke:#000000; stroke-linecap:round; stroke-linejoin:round; stroke-width:4; stroke-opacity:1; fill:none" points="1564.82,1387.19 1564.82,1486.45 1697.76,1486.45 1697.76,1387.19 1564.82,1387.19 "/>
<path clip-path="url(#clip882)" d="M1697.76 1238.31 L1697.76 1486.45 L1830.7 1486.45 L1830.7 1238.31 L1697.76 1238.31 L1697.76 1238.31  Z" fill="#009af9" fill-rule="evenodd" fill-opacity="1"/>
<polyline clip-path="url(#clip882)" style="stroke:#000000; stroke-linecap:round; stroke-linejoin:round; stroke-width:4; stroke-opacity:1; fill:none" points="1697.76,1238.31 1697.76,1486.45 1830.7,1486.45 1830.7,1238.31 1697.76,1238.31 "/>
<path clip-path="url(#clip882)" d="M1830.7 1287.94 L1830.7 1486.45 L1963.64 1486.45 L1963.64 1287.94 L1830.7 1287.94 L1830.7 1287.94  Z" fill="#009af9" fill-rule="evenodd" fill-opacity="1"/>
<polyline clip-path="url(#clip882)" style="stroke:#000000; stroke-linecap:round; stroke-linejoin:round; stroke-width:4; stroke-opacity:1; fill:none" points="1830.7,1287.94 1830.7,1486.45 1963.64,1486.45 1963.64,1287.94 1830.7,1287.94 "/>
<path clip-path="url(#clip882)" d="M1963.64 791.66 L1963.64 1486.45 L2096.58 1486.45 L2096.58 791.66 L1963.64 791.66 L1963.64 791.66  Z" fill="#009af9" fill-rule="evenodd" fill-opacity="1"/>
<polyline clip-path="url(#clip882)" style="stroke:#000000; stroke-linecap:round; stroke-linejoin:round; stroke-width:4; stroke-opacity:1; fill:none" points="1963.64,791.66 1963.64,1486.45 2096.58,1486.45 2096.58,791.66 1963.64,791.66 "/>
<path clip-path="url(#clip882)" d="M2096.58 1486.45 L2096.58 1486.45 L2229.52 1486.45 L2229.52 1486.45 L2096.58 1486.45 L2096.58 1486.45  Z" fill="#009af9" fill-rule="evenodd" fill-opacity="1"/>
<polyline clip-path="url(#clip882)" style="stroke:#000000; stroke-linecap:round; stroke-linejoin:round; stroke-width:4; stroke-opacity:1; fill:none" points="2096.58,1486.45 2096.58,1486.45 2229.52,1486.45 2096.58,1486.45 "/>
<circle clip-path="url(#clip882)" style="fill:#009af9; stroke:none; fill-opacity:0" cx="301.883" cy="1486.45" r="2"/>
<circle clip-path="url(#clip882)" style="fill:#009af9; stroke:none; fill-opacity:0" cx="434.824" cy="47.2441" r="2"/>
<circle clip-path="url(#clip882)" style="fill:#009af9; stroke:none; fill-opacity:0" cx="567.764" cy="1486.45" r="2"/>
<circle clip-path="url(#clip882)" style="fill:#009af9; stroke:none; fill-opacity:0" cx="700.705" cy="1287.94" r="2"/>
<circle clip-path="url(#clip882)" style="fill:#009af9; stroke:none; fill-opacity:0" cx="833.645" cy="1436.82" r="2"/>
<circle clip-path="url(#clip882)" style="fill:#009af9; stroke:none; fill-opacity:0" cx="966.586" cy="1436.82" r="2"/>
<circle clip-path="url(#clip882)" style="fill:#009af9; stroke:none; fill-opacity:0" cx="1099.53" cy="1436.82" r="2"/>
<circle clip-path="url(#clip882)" style="fill:#009af9; stroke:none; fill-opacity:0" cx="1232.47" cy="1436.82" r="2"/>
<circle clip-path="url(#clip882)" style="fill:#009af9; stroke:none; fill-opacity:0" cx="1365.41" cy="1436.82" r="2"/>
<circle clip-path="url(#clip882)" style="fill:#009af9; stroke:none; fill-opacity:0" cx="1498.35" cy="1486.45" r="2"/>
<circle clip-path="url(#clip882)" style="fill:#009af9; stroke:none; fill-opacity:0" cx="1631.29" cy="1387.19" r="2"/>
<circle clip-path="url(#clip882)" style="fill:#009af9; stroke:none; fill-opacity:0" cx="1764.23" cy="1238.31" r="2"/>
<circle clip-path="url(#clip882)" style="fill:#009af9; stroke:none; fill-opacity:0" cx="1897.17" cy="1287.94" r="2"/>
<circle clip-path="url(#clip882)" style="fill:#009af9; stroke:none; fill-opacity:0" cx="2030.11" cy="791.66" r="2"/>
<circle clip-path="url(#clip882)" style="fill:#009af9; stroke:none; fill-opacity:0" cx="2163.05" cy="1486.45" r="2"/>
<path clip-path="url(#clip880)" d="M2001.58 198.898 L2278.07 198.898 L2278.07 95.2176 L2001.58 95.2176  Z" fill="#ffffff" fill-rule="evenodd" fill-opacity="1"/>
<polyline clip-path="url(#clip880)" style="stroke:#000000; stroke-linecap:round; stroke-linejoin:round; stroke-width:4; stroke-opacity:1; fill:none" points="2001.58,198.898 2278.07,198.898 2278.07,95.2176 2001.58,95.2176 2001.58,198.898 "/>
<path clip-path="url(#clip880)" d="M2026.48 167.794 L2175.85 167.794 L2175.85 126.322 L2026.48 126.322 L2026.48 167.794  Z" fill="#009af9" fill-rule="evenodd" fill-opacity="1"/>
<polyline clip-path="url(#clip880)" style="stroke:#000000; stroke-linecap:round; stroke-linejoin:round; stroke-width:4; stroke-opacity:1; fill:none" points="2026.48,167.794 2175.85,167.794 2175.85,126.322 2026.48,126.322 2026.48,167.794 "/>
<path clip-path="url(#clip880)" d="M2214.59 166.745 Q2212.78 171.375 2211.07 172.787 Q2209.36 174.199 2206.49 174.199 L2203.08 174.199 L2203.08 170.634 L2205.58 170.634 Q2207.34 170.634 2208.31 169.8 Q2209.29 168.967 2210.47 165.865 L2211.23 163.921 L2200.74 138.412 L2205.26 138.412 L2213.36 158.689 L2221.46 138.412 L2225.98 138.412 L2214.59 166.745 Z" fill="#000000" fill-rule="nonzero" fill-opacity="1" /><path clip-path="url(#clip880)" d="M2233.27 160.402 L2240.91 160.402 L2240.91 134.037 L2232.6 135.703 L2232.6 131.444 L2240.86 129.778 L2245.54 129.778 L2245.54 160.402 L2253.17 160.402 L2253.17 164.338 L2233.27 164.338 L2233.27 160.402 Z" fill="#000000" fill-rule="nonzero" fill-opacity="1" /></svg>
