<?xml version="1.0" encoding="utf-8"?>
<svg xmlns="http://www.w3.org/2000/svg" xmlns:xlink="http://www.w3.org/1999/xlink" width="600" height="400" viewBox="0 0 2400 1600">
<defs>
  <clipPath id="clip760">
    <rect x="0" y="0" width="2400" height="1600"/>
  </clipPath>
</defs>
<path clip-path="url(#clip760)" d="M0 1600 L2400 1600 L2400 0 L0 0  Z" fill="#ffffff" fill-rule="evenodd" fill-opacity="1"/>
<defs>
  <clipPath id="clip761">
    <rect x="480" y="0" width="1681" height="1600"/>
  </clipPath>
</defs>
<path clip-path="url(#clip760)" d="M279.704 1423.18 L2352.76 1423.18 L2352.76 47.2441 L279.704 47.2441  Z" fill="#ffffff" fill-rule="evenodd" fill-opacity="1"/>
<defs>
  <clipPath id="clip762">
    <rect x="279" y="47" width="2074" height="1377"/>
  </clipPath>
</defs>
<polyline clip-path="url(#clip762)" style="stroke:#000000; stroke-linecap:round; stroke-linejoin:round; stroke-width:2; stroke-opacity:0.1; fill:none" points="306.831,1423.18 306.831,47.2441 "/>
<polyline clip-path="url(#clip762)" style="stroke:#000000; stroke-linecap:round; stroke-linejoin:round; stroke-width:2; stroke-opacity:0.1; fill:none" points="622.268,1423.18 622.268,47.2441 "/>
<polyline clip-path="url(#clip762)" style="stroke:#000000; stroke-linecap:round; stroke-linejoin:round; stroke-width:2; stroke-opacity:0.1; fill:none" points="937.706,1423.18 937.706,47.2441 "/>
<polyline clip-path="url(#clip762)" style="stroke:#000000; stroke-linecap:round; stroke-linejoin:round; stroke-width:2; stroke-opacity:0.1; fill:none" points="1253.14,1423.18 1253.14,47.2441 "/>
<polyline clip-path="url(#clip762)" style="stroke:#000000; stroke-linecap:round; stroke-linejoin:round; stroke-width:2; stroke-opacity:0.1; fill:none" points="1568.58,1423.18 1568.58,47.2441 "/>
<polyline clip-path="url(#clip762)" style="stroke:#000000; stroke-linecap:round; stroke-linejoin:round; stroke-width:2; stroke-opacity:0.1; fill:none" points="1884.02,1423.18 1884.02,47.2441 "/>
<polyline clip-path="url(#clip762)" style="stroke:#000000; stroke-linecap:round; stroke-linejoin:round; stroke-width:2; stroke-opacity:0.1; fill:none" points="2199.45,1423.18 2199.45,47.2441 "/>
<polyline clip-path="url(#clip762)" style="stroke:#000000; stroke-linecap:round; stroke-linejoin:round; stroke-width:2; stroke-opacity:0.1; fill:none" points="279.704,1421.32 2352.76,1421.32 "/>
<polyline clip-path="url(#clip762)" style="stroke:#000000; stroke-linecap:round; stroke-linejoin:round; stroke-width:2; stroke-opacity:0.1; fill:none" points="279.704,1106.13 2352.76,1106.13 "/>
<polyline clip-path="url(#clip762)" style="stroke:#000000; stroke-linecap:round; stroke-linejoin:round; stroke-width:2; stroke-opacity:0.1; fill:none" points="279.704,790.938 2352.76,790.938 "/>
<polyline clip-path="url(#clip762)" style="stroke:#000000; stroke-linecap:round; stroke-linejoin:round; stroke-width:2; stroke-opacity:0.1; fill:none" points="279.704,475.746 2352.76,475.746 "/>
<polyline clip-path="url(#clip762)" style="stroke:#000000; stroke-linecap:round; stroke-linejoin:round; stroke-width:2; stroke-opacity:0.1; fill:none" points="279.704,160.554 2352.76,160.554 "/>
<polyline clip-path="url(#clip760)" style="stroke:#000000; stroke-linecap:round; stroke-linejoin:round; stroke-width:4; stroke-opacity:1; fill:none" points="279.704,1423.18 2352.76,1423.18 "/>
<polyline clip-path="url(#clip760)" style="stroke:#000000; stroke-linecap:round; stroke-linejoin:round; stroke-width:4; stroke-opacity:1; fill:none" points="306.831,1423.18 306.831,1404.28 "/>
<polyline clip-path="url(#clip760)" style="stroke:#000000; stroke-linecap:round; stroke-linejoin:round; stroke-width:4; stroke-opacity:1; fill:none" points="622.268,1423.18 622.268,1404.28 "/>
<polyline clip-path="url(#clip760)" style="stroke:#000000; stroke-linecap:round; stroke-linejoin:round; stroke-width:4; stroke-opacity:1; fill:none" points="937.706,1423.18 937.706,1404.28 "/>
<polyline clip-path="url(#clip760)" style="stroke:#000000; stroke-linecap:round; stroke-linejoin:round; stroke-width:4; stroke-opacity:1; fill:none" points="1253.14,1423.18 1253.14,1404.28 "/>
<polyline clip-path="url(#clip760)" style="stroke:#000000; stroke-linecap:round; stroke-linejoin:round; stroke-width:4; stroke-opacity:1; fill:none" points="1568.58,1423.18 1568.58,1404.28 "/>
<polyline clip-path="url(#clip760)" style="stroke:#000000; stroke-linecap:round; stroke-linejoin:round; stroke-width:4; stroke-opacity:1; fill:none" points="1884.02,1423.18 1884.02,1404.28 "/>
<polyline clip-path="url(#clip760)" style="stroke:#000000; stroke-linecap:round; stroke-linejoin:round; stroke-width:4; stroke-opacity:1; fill:none" points="2199.45,1423.18 2199.45,1404.28 "/>
<path clip-path="url(#clip760)" d="M306.831 1454.1 Q303.22 1454.1 301.392 1457.66 Q299.586 1461.2 299.586 1468.33 Q299.586 1475.44 301.392 1479.01 Q303.22 1482.55 306.831 1482.55 Q310.466 1482.55 312.271 1479.01 Q314.1 1475.44 314.1 1468.33 Q314.1 1461.2 312.271 1457.66 Q310.466 1454.1 306.831 1454.1 M306.831 1450.39 Q312.642 1450.39 315.697 1455 Q318.776 1459.58 318.776 1468.33 Q318.776 1477.06 315.697 1481.67 Q312.642 1486.25 306.831 1486.25 Q301.021 1486.25 297.943 1481.67 Q294.887 1477.06 294.887 1468.33 Q294.887 1459.58 297.943 1455 Q301.021 1450.39 306.831 1450.39 Z" fill="#000000" fill-rule="nonzero" fill-opacity="1" /><path clip-path="url(#clip760)" d="M596.956 1481.64 L604.595 1481.64 L604.595 1455.28 L596.285 1456.95 L596.285 1452.69 L604.549 1451.02 L609.225 1451.02 L609.225 1481.64 L616.863 1481.64 L616.863 1485.58 L596.956 1485.58 L596.956 1481.64 Z" fill="#000000" fill-rule="nonzero" fill-opacity="1" /><path clip-path="url(#clip760)" d="M636.308 1454.1 Q632.697 1454.1 630.868 1457.66 Q629.062 1461.2 629.062 1468.33 Q629.062 1475.44 630.868 1479.01 Q632.697 1482.55 636.308 1482.55 Q639.942 1482.55 641.748 1479.01 Q643.576 1475.44 643.576 1468.33 Q643.576 1461.2 641.748 1457.66 Q639.942 1454.1 636.308 1454.1 M636.308 1450.39 Q642.118 1450.39 645.173 1455 Q648.252 1459.58 648.252 1468.33 Q648.252 1477.06 645.173 1481.67 Q642.118 1486.25 636.308 1486.25 Q630.498 1486.25 627.419 1481.67 Q624.363 1477.06 624.363 1468.33 Q624.363 1459.58 627.419 1455 Q630.498 1450.39 636.308 1450.39 Z" fill="#000000" fill-rule="nonzero" fill-opacity="1" /><path clip-path="url(#clip760)" d="M916.479 1481.64 L932.798 1481.64 L932.798 1485.58 L910.854 1485.58 L910.854 1481.64 Q913.516 1478.89 918.099 1474.26 Q922.706 1469.61 923.886 1468.27 Q926.131 1465.74 927.011 1464.01 Q927.914 1462.25 927.914 1460.56 Q927.914 1457.8 925.969 1456.07 Q924.048 1454.33 920.946 1454.33 Q918.747 1454.33 916.294 1455.09 Q913.863 1455.86 911.085 1457.41 L911.085 1452.69 Q913.909 1451.55 916.363 1450.97 Q918.817 1450.39 920.854 1450.39 Q926.224 1450.39 929.419 1453.08 Q932.613 1455.77 932.613 1460.26 Q932.613 1462.39 931.803 1464.31 Q931.016 1466.2 928.909 1468.8 Q928.331 1469.47 925.229 1472.69 Q922.127 1475.88 916.479 1481.64 Z" fill="#000000" fill-rule="nonzero" fill-opacity="1" /><path clip-path="url(#clip760)" d="M952.613 1454.1 Q949.002 1454.1 947.173 1457.66 Q945.367 1461.2 945.367 1468.33 Q945.367 1475.44 947.173 1479.01 Q949.002 1482.55 952.613 1482.55 Q956.247 1482.55 958.053 1479.01 Q959.881 1475.44 959.881 1468.33 Q959.881 1461.2 958.053 1457.66 Q956.247 1454.1 952.613 1454.1 M952.613 1450.39 Q958.423 1450.39 961.479 1455 Q964.557 1459.58 964.557 1468.33 Q964.557 1477.06 961.479 1481.67 Q958.423 1486.25 952.613 1486.25 Q946.803 1486.25 943.724 1481.67 Q940.668 1477.06 940.668 1468.33 Q940.668 1459.58 943.724 1455 Q946.803 1450.39 952.613 1450.39 Z" fill="#000000" fill-rule="nonzero" fill-opacity="1" /><path clip-path="url(#clip760)" d="M1241.99 1466.95 Q1245.34 1467.66 1247.22 1469.93 Q1249.11 1472.2 1249.11 1475.53 Q1249.11 1480.65 1245.6 1483.45 Q1242.08 1486.25 1235.6 1486.25 Q1233.42 1486.25 1231.11 1485.81 Q1228.81 1485.39 1226.36 1484.54 L1226.36 1480.02 Q1228.3 1481.16 1230.62 1481.74 Q1232.93 1482.32 1235.46 1482.32 Q1239.86 1482.32 1242.15 1480.58 Q1244.46 1478.84 1244.46 1475.53 Q1244.46 1472.48 1242.31 1470.77 Q1240.18 1469.03 1236.36 1469.03 L1232.33 1469.03 L1232.33 1465.19 L1236.55 1465.19 Q1239.99 1465.19 1241.82 1463.82 Q1243.65 1462.43 1243.65 1459.84 Q1243.65 1457.18 1241.75 1455.77 Q1239.88 1454.33 1236.36 1454.33 Q1234.44 1454.33 1232.24 1454.75 Q1230.04 1455.16 1227.4 1456.04 L1227.4 1451.88 Q1230.06 1451.14 1232.38 1450.77 Q1234.72 1450.39 1236.78 1450.39 Q1242.1 1450.39 1245.2 1452.83 Q1248.3 1455.23 1248.3 1459.35 Q1248.3 1462.22 1246.66 1464.21 Q1245.02 1466.18 1241.99 1466.95 Z" fill="#000000" fill-rule="nonzero" fill-opacity="1" /><path clip-path="url(#clip760)" d="M1267.98 1454.1 Q1264.37 1454.1 1262.54 1457.66 Q1260.74 1461.2 1260.74 1468.33 Q1260.74 1475.44 1262.54 1479.01 Q1264.37 1482.55 1267.98 1482.55 Q1271.61 1482.55 1273.42 1479.01 Q1275.25 1475.44 1275.25 1468.33 Q1275.25 1461.2 1273.42 1457.66 Q1271.61 1454.1 1267.98 1454.1 M1267.98 1450.39 Q1273.79 1450.39 1276.85 1455 Q1279.92 1459.58 1279.92 1468.33 Q1279.92 1477.06 1276.85 1481.67 Q1273.79 1486.25 1267.98 1486.25 Q1262.17 1486.25 1259.09 1481.67 Q1256.04 1477.06 1256.04 1468.33 Q1256.04 1459.58 1259.09 1455 Q1262.17 1450.39 1267.98 1450.39 Z" fill="#000000" fill-rule="nonzero" fill-opacity="1" /><path clip-path="url(#clip760)" d="M1556.75 1455.09 L1544.95 1473.54 L1556.75 1473.54 L1556.75 1455.09 M1555.52 1451.02 L1561.4 1451.02 L1561.4 1473.54 L1566.33 1473.54 L1566.33 1477.43 L1561.4 1477.43 L1561.4 1485.58 L1556.75 1485.58 L1556.75 1477.43 L1541.15 1477.43 L1541.15 1472.92 L1555.52 1451.02 Z" fill="#000000" fill-rule="nonzero" fill-opacity="1" /><path clip-path="url(#clip760)" d="M1584.07 1454.1 Q1580.45 1454.1 1578.63 1457.66 Q1576.82 1461.2 1576.82 1468.33 Q1576.82 1475.44 1578.63 1479.01 Q1580.45 1482.55 1584.07 1482.55 Q1587.7 1482.55 1589.51 1479.01 Q1591.33 1475.44 1591.33 1468.33 Q1591.33 1461.2 1589.51 1457.66 Q1587.7 1454.1 1584.07 1454.1 M1584.07 1450.39 Q1589.88 1450.39 1592.93 1455 Q1596.01 1459.58 1596.01 1468.33 Q1596.01 1477.06 1592.93 1481.67 Q1589.88 1486.25 1584.07 1486.25 Q1578.26 1486.25 1575.18 1481.67 Q1572.12 1477.06 1572.12 1468.33 Q1572.12 1459.58 1575.18 1455 Q1578.26 1450.39 1584.07 1450.39 Z" fill="#000000" fill-rule="nonzero" fill-opacity="1" /><path clip-path="url(#clip760)" d="M1858.72 1451.02 L1877.07 1451.02 L1877.07 1454.96 L1863 1454.96 L1863 1463.43 Q1864.02 1463.08 1865.04 1462.92 Q1866.05 1462.73 1867.07 1462.73 Q1872.86 1462.73 1876.24 1465.9 Q1879.62 1469.08 1879.62 1474.49 Q1879.62 1480.07 1876.15 1483.17 Q1872.67 1486.25 1866.35 1486.25 Q1864.18 1486.25 1861.91 1485.88 Q1859.66 1485.51 1857.26 1484.77 L1857.26 1480.07 Q1859.34 1481.2 1861.56 1481.76 Q1863.79 1482.32 1866.26 1482.32 Q1870.27 1482.32 1872.6 1480.21 Q1874.94 1478.1 1874.94 1474.49 Q1874.94 1470.88 1872.6 1468.77 Q1870.27 1466.67 1866.26 1466.67 Q1864.39 1466.67 1862.51 1467.08 Q1860.66 1467.5 1858.72 1468.38 L1858.72 1451.02 Z" fill="#000000" fill-rule="nonzero" fill-opacity="1" /><path clip-path="url(#clip760)" d="M1898.83 1454.1 Q1895.22 1454.1 1893.39 1457.66 Q1891.59 1461.2 1891.59 1468.33 Q1891.59 1475.44 1893.39 1479.01 Q1895.22 1482.55 1898.83 1482.55 Q1902.47 1482.55 1904.27 1479.01 Q1906.1 1475.44 1906.1 1468.33 Q1906.1 1461.2 1904.27 1457.66 Q1902.47 1454.1 1898.83 1454.1 M1898.83 1450.39 Q1904.64 1450.39 1907.7 1455 Q1910.78 1459.58 1910.78 1468.33 Q1910.78 1477.06 1907.7 1481.67 Q1904.64 1486.25 1898.83 1486.25 Q1893.02 1486.25 1889.94 1481.67 Q1886.89 1477.06 1886.89 1468.33 Q1886.89 1459.58 1889.94 1455 Q1893.02 1450.39 1898.83 1450.39 Z" fill="#000000" fill-rule="nonzero" fill-opacity="1" /><path clip-path="url(#clip760)" d="M2184.86 1466.44 Q2181.71 1466.44 2179.86 1468.59 Q2178.03 1470.74 2178.03 1474.49 Q2178.03 1478.22 2179.86 1480.39 Q2181.71 1482.55 2184.86 1482.55 Q2188.01 1482.55 2189.84 1480.39 Q2191.69 1478.22 2191.69 1474.49 Q2191.69 1470.74 2189.84 1468.59 Q2188.01 1466.44 2184.86 1466.44 M2194.14 1451.78 L2194.14 1456.04 Q2192.38 1455.21 2190.58 1454.77 Q2188.79 1454.33 2187.03 1454.33 Q2182.41 1454.33 2179.95 1457.45 Q2177.52 1460.58 2177.17 1466.9 Q2178.54 1464.89 2180.6 1463.82 Q2182.66 1462.73 2185.14 1462.73 Q2190.34 1462.73 2193.35 1465.9 Q2196.39 1469.05 2196.39 1474.49 Q2196.39 1479.82 2193.24 1483.03 Q2190.09 1486.25 2184.86 1486.25 Q2178.86 1486.25 2175.69 1481.67 Q2172.52 1477.06 2172.52 1468.33 Q2172.52 1460.14 2176.41 1455.28 Q2180.3 1450.39 2186.85 1450.39 Q2188.61 1450.39 2190.39 1450.74 Q2192.2 1451.09 2194.14 1451.78 Z" fill="#000000" fill-rule="nonzero" fill-opacity="1" /><path clip-path="url(#clip760)" d="M2214.44 1454.1 Q2210.83 1454.1 2209 1457.66 Q2207.2 1461.2 2207.2 1468.33 Q2207.2 1475.44 2209 1479.01 Q2210.83 1482.55 2214.44 1482.55 Q2218.08 1482.55 2219.88 1479.01 Q2221.71 1475.44 2221.71 1468.33 Q2221.71 1461.2 2219.88 1457.66 Q2218.08 1454.1 2214.44 1454.1 M2214.44 1450.39 Q2220.25 1450.39 2223.31 1455 Q2226.39 1459.58 2226.39 1468.33 Q2226.39 1477.06 2223.31 1481.67 Q2220.25 1486.25 2214.44 1486.25 Q2208.63 1486.25 2205.55 1481.67 Q2202.5 1477.06 2202.5 1468.33 Q2202.5 1459.58 2205.55 1455 Q2208.63 1450.39 2214.44 1450.39 Z" fill="#000000" fill-rule="nonzero" fill-opacity="1" /><path clip-path="url(#clip760)" d="M1131.56 1522.08 L1131.56 1528.35 Q1127.9 1526.6 1124.65 1525.74 Q1121.41 1524.88 1118.38 1524.88 Q1113.13 1524.88 1110.27 1526.92 Q1107.43 1528.96 1107.43 1532.71 Q1107.43 1535.87 1109.31 1537.49 Q1111.22 1539.08 1116.51 1540.07 L1120.39 1540.86 Q1127.58 1542.23 1130.99 1545.7 Q1134.43 1549.14 1134.43 1554.93 Q1134.43 1561.84 1129.78 1565.4 Q1125.16 1568.97 1116.22 1568.97 Q1112.85 1568.97 1109.03 1568.2 Q1105.24 1567.44 1101.16 1565.94 L1101.16 1559.32 Q1105.08 1561.52 1108.84 1562.63 Q1112.59 1563.75 1116.22 1563.75 Q1121.73 1563.75 1124.72 1561.58 Q1127.71 1559.42 1127.71 1555.41 Q1127.71 1551.91 1125.55 1549.93 Q1123.41 1547.96 1118.51 1546.97 L1114.6 1546.21 Q1107.4 1544.78 1104.19 1541.72 Q1100.97 1538.67 1100.97 1533.22 Q1100.97 1526.92 1105.4 1523.29 Q1109.85 1519.66 1117.65 1519.66 Q1120.99 1519.66 1124.46 1520.27 Q1127.93 1520.87 1131.56 1522.08 Z" fill="#000000" fill-rule="nonzero" fill-opacity="1" /><path clip-path="url(#clip760)" d="M1144.45 1520.52 L1154.03 1520.52 L1166.16 1552.86 L1178.35 1520.52 L1187.93 1520.52 L1187.93 1568.04 L1181.66 1568.04 L1181.66 1526.32 L1169.4 1558.91 L1162.94 1558.91 L1150.69 1526.32 L1150.69 1568.04 L1144.45 1568.04 L1144.45 1520.52 Z" fill="#000000" fill-rule="nonzero" fill-opacity="1" /><path clip-path="url(#clip760)" d="M1236.28 1524.18 L1236.28 1530.96 Q1233.03 1527.94 1229.34 1526.44 Q1225.68 1524.95 1221.54 1524.95 Q1213.39 1524.95 1209.06 1529.95 Q1204.73 1534.91 1204.73 1544.33 Q1204.73 1553.72 1209.06 1558.72 Q1213.39 1563.68 1221.54 1563.68 Q1225.68 1563.68 1229.34 1562.19 Q1233.03 1560.69 1236.28 1557.67 L1236.28 1564.38 Q1232.9 1566.68 1229.12 1567.82 Q1225.36 1568.97 1221.16 1568.97 Q1210.37 1568.97 1204.16 1562.38 Q1197.96 1555.76 1197.96 1544.33 Q1197.96 1532.87 1204.16 1526.28 Q1210.37 1519.66 1221.16 1519.66 Q1225.42 1519.66 1229.18 1520.81 Q1232.97 1521.92 1236.28 1524.18 Z" fill="#000000" fill-rule="nonzero" fill-opacity="1" /><path clip-path="url(#clip760)" d="M1266.93 1520.52 L1273.36 1520.52 L1273.36 1568.04 L1266.93 1568.04 L1266.93 1520.52 Z" fill="#000000" fill-rule="nonzero" fill-opacity="1" /><path clip-path="url(#clip760)" d="M1291.69 1522.27 L1291.69 1532.4 L1303.75 1532.4 L1303.75 1536.95 L1291.69 1536.95 L1291.69 1556.3 Q1291.69 1560.66 1292.87 1561.9 Q1294.08 1563.14 1297.74 1563.14 L1303.75 1563.14 L1303.75 1568.04 L1297.74 1568.04 Q1290.96 1568.04 1288.38 1565.53 Q1285.8 1562.98 1285.8 1556.3 L1285.8 1536.95 L1281.5 1536.95 L1281.5 1532.4 L1285.8 1532.4 L1285.8 1522.27 L1291.69 1522.27 Z" fill="#000000" fill-rule="nonzero" fill-opacity="1" /><path clip-path="url(#clip760)" d="M1341.95 1548.76 L1341.95 1551.62 L1315.02 1551.62 Q1315.4 1557.67 1318.65 1560.85 Q1321.93 1564 1327.75 1564 Q1331.13 1564 1334.28 1563.17 Q1337.46 1562.35 1340.58 1560.69 L1340.58 1566.23 Q1337.43 1567.57 1334.12 1568.27 Q1330.81 1568.97 1327.4 1568.97 Q1318.87 1568.97 1313.87 1564 Q1308.91 1559.04 1308.91 1550.57 Q1308.91 1541.82 1313.62 1536.69 Q1318.36 1531.54 1326.38 1531.54 Q1333.58 1531.54 1337.75 1536.18 Q1341.95 1540.8 1341.95 1548.76 M1336.09 1547.04 Q1336.03 1542.23 1333.39 1539.37 Q1330.78 1536.5 1326.45 1536.5 Q1321.55 1536.5 1318.59 1539.27 Q1315.66 1542.04 1315.21 1547.07 L1336.09 1547.04 Z" fill="#000000" fill-rule="nonzero" fill-opacity="1" /><path clip-path="url(#clip760)" d="M1372.22 1537.87 Q1371.23 1537.3 1370.05 1537.04 Q1368.91 1536.76 1367.51 1536.76 Q1362.54 1536.76 1359.87 1540 Q1357.23 1543.22 1357.23 1549.27 L1357.23 1568.04 L1351.34 1568.04 L1351.34 1532.4 L1357.23 1532.4 L1357.23 1537.93 Q1359.07 1534.69 1362.03 1533.13 Q1364.99 1531.54 1369.22 1531.54 Q1369.83 1531.54 1370.56 1531.63 Q1371.29 1531.7 1372.18 1531.85 L1372.22 1537.87 Z" fill="#000000" fill-rule="nonzero" fill-opacity="1" /><path clip-path="url(#clip760)" d="M1394.56 1550.12 Q1387.46 1550.12 1384.72 1551.75 Q1381.99 1553.37 1381.99 1557.29 Q1381.99 1560.4 1384.02 1562.25 Q1386.09 1564.07 1389.63 1564.07 Q1394.5 1564.07 1397.42 1560.63 Q1400.38 1557.16 1400.38 1551.43 L1400.38 1550.12 L1394.56 1550.12 M1406.24 1547.71 L1406.24 1568.04 L1400.38 1568.04 L1400.38 1562.63 Q1398.38 1565.88 1395.39 1567.44 Q1392.4 1568.97 1388.07 1568.97 Q1382.59 1568.97 1379.35 1565.91 Q1376.13 1562.82 1376.13 1557.67 Q1376.13 1551.65 1380.14 1548.6 Q1384.18 1545.54 1392.17 1545.54 L1400.38 1545.54 L1400.38 1544.97 Q1400.38 1540.93 1397.71 1538.73 Q1395.07 1536.5 1390.26 1536.5 Q1387.21 1536.5 1384.31 1537.23 Q1381.41 1537.97 1378.74 1539.43 L1378.74 1534.02 Q1381.96 1532.78 1384.98 1532.17 Q1388 1531.54 1390.87 1531.54 Q1398.6 1531.54 1402.42 1535.55 Q1406.24 1539.56 1406.24 1547.71 Z" fill="#000000" fill-rule="nonzero" fill-opacity="1" /><path clip-path="url(#clip760)" d="M1424.1 1522.27 L1424.1 1532.4 L1436.16 1532.4 L1436.16 1536.95 L1424.1 1536.95 L1424.1 1556.3 Q1424.1 1560.66 1425.27 1561.9 Q1426.48 1563.14 1430.14 1563.14 L1436.16 1563.14 L1436.16 1568.04 L1430.14 1568.04 Q1423.36 1568.04 1420.79 1565.53 Q1418.21 1562.98 1418.21 1556.3 L1418.21 1536.95 L1413.91 1536.95 L1413.91 1532.4 L1418.21 1532.4 L1418.21 1522.27 L1424.1 1522.27 Z" fill="#000000" fill-rule="nonzero" fill-opacity="1" /><path clip-path="url(#clip760)" d="M1443.86 1532.4 L1449.72 1532.4 L1449.72 1568.04 L1443.86 1568.04 L1443.86 1532.4 M1443.86 1518.52 L1449.72 1518.52 L1449.72 1525.93 L1443.86 1525.93 L1443.86 1518.52 Z" fill="#000000" fill-rule="nonzero" fill-opacity="1" /><path clip-path="url(#clip760)" d="M1475.79 1536.5 Q1471.08 1536.5 1468.34 1540.19 Q1465.6 1543.85 1465.6 1550.25 Q1465.6 1556.65 1468.31 1560.34 Q1471.04 1564 1475.79 1564 Q1480.47 1564 1483.2 1560.31 Q1485.94 1556.62 1485.94 1550.25 Q1485.94 1543.92 1483.2 1540.23 Q1480.47 1536.5 1475.79 1536.5 M1475.79 1531.54 Q1483.43 1531.54 1487.79 1536.5 Q1492.15 1541.47 1492.15 1550.25 Q1492.15 1559 1487.79 1564 Q1483.43 1568.97 1475.79 1568.97 Q1468.12 1568.97 1463.76 1564 Q1459.43 1559 1459.43 1550.25 Q1459.43 1541.47 1463.76 1536.5 Q1468.12 1531.54 1475.79 1531.54 Z" fill="#000000" fill-rule="nonzero" fill-opacity="1" /><path clip-path="url(#clip760)" d="M1531.49 1546.53 L1531.49 1568.04 L1525.63 1568.04 L1525.63 1546.72 Q1525.63 1541.66 1523.66 1539.14 Q1521.68 1536.63 1517.74 1536.63 Q1512.99 1536.63 1510.26 1539.65 Q1507.52 1542.68 1507.52 1547.9 L1507.52 1568.04 L1501.63 1568.04 L1501.63 1532.4 L1507.52 1532.4 L1507.52 1537.93 Q1509.62 1534.72 1512.45 1533.13 Q1515.32 1531.54 1519.04 1531.54 Q1525.18 1531.54 1528.34 1535.36 Q1531.49 1539.14 1531.49 1546.53 Z" fill="#000000" fill-rule="nonzero" fill-opacity="1" /><polyline clip-path="url(#clip760)" style="stroke:#000000; stroke-linecap:round; stroke-linejoin:round; stroke-width:4; stroke-opacity:1; fill:none" points="279.704,1423.18 279.704,47.2441 "/>
<polyline clip-path="url(#clip760)" style="stroke:#000000; stroke-linecap:round; stroke-linejoin:round; stroke-width:4; stroke-opacity:1; fill:none" points="279.704,1421.32 298.602,1421.32 "/>
<polyline clip-path="url(#clip760)" style="stroke:#000000; stroke-linecap:round; stroke-linejoin:round; stroke-width:4; stroke-opacity:1; fill:none" points="279.704,1106.13 298.602,1106.13 "/>
<polyline clip-path="url(#clip760)" style="stroke:#000000; stroke-linecap:round; stroke-linejoin:round; stroke-width:4; stroke-opacity:1; fill:none" points="279.704,790.938 298.602,790.938 "/>
<polyline clip-path="url(#clip760)" style="stroke:#000000; stroke-linecap:round; stroke-linejoin:round; stroke-width:4; stroke-opacity:1; fill:none" points="279.704,475.746 298.602,475.746 "/>
<polyline clip-path="url(#clip760)" style="stroke:#000000; stroke-linecap:round; stroke-linejoin:round; stroke-width:4; stroke-opacity:1; fill:none" points="279.704,160.554 298.602,160.554 "/>
<path clip-path="url(#clip760)" d="M126.205 1407.12 Q122.593 1407.12 120.765 1410.69 Q118.959 1414.23 118.959 1421.36 Q118.959 1428.46 120.765 1432.03 Q122.593 1435.57 126.205 1435.57 Q129.839 1435.57 131.644 1432.03 Q133.473 1428.46 133.473 1421.36 Q133.473 1414.23 131.644 1410.69 Q129.839 1407.12 126.205 1407.12 M126.205 1403.42 Q132.015 1403.42 135.07 1408.02 Q138.149 1412.61 138.149 1421.36 Q138.149 1430.08 135.07 1434.69 Q132.015 1439.27 126.205 1439.27 Q120.394 1439.27 117.316 1434.69 Q114.26 1430.08 114.26 1421.36 Q114.26 1412.61 117.316 1408.02 Q120.394 1403.42 126.205 1403.42 Z" fill="#000000" fill-rule="nonzero" fill-opacity="1" /><path clip-path="url(#clip760)" d="M146.366 1432.72 L151.251 1432.72 L151.251 1438.6 L146.366 1438.6 L146.366 1432.72 Z" fill="#000000" fill-rule="nonzero" fill-opacity="1" /><path clip-path="url(#clip760)" d="M171.436 1407.12 Q167.825 1407.12 165.996 1410.69 Q164.19 1414.23 164.19 1421.36 Q164.19 1428.46 165.996 1432.03 Q167.825 1435.57 171.436 1435.57 Q175.07 1435.57 176.876 1432.03 Q178.704 1428.46 178.704 1421.36 Q178.704 1414.23 176.876 1410.69 Q175.07 1407.12 171.436 1407.12 M171.436 1403.42 Q177.246 1403.42 180.301 1408.02 Q183.38 1412.61 183.38 1421.36 Q183.38 1430.08 180.301 1434.69 Q177.246 1439.27 171.436 1439.27 Q165.626 1439.27 162.547 1434.69 Q159.491 1430.08 159.491 1421.36 Q159.491 1412.61 162.547 1408.02 Q165.626 1403.42 171.436 1403.42 Z" fill="#000000" fill-rule="nonzero" fill-opacity="1" /><path clip-path="url(#clip760)" d="M201.598 1407.12 Q197.987 1407.12 196.158 1410.69 Q194.352 1414.23 194.352 1421.36 Q194.352 1428.46 196.158 1432.03 Q197.987 1435.57 201.598 1435.57 Q205.232 1435.57 207.037 1432.03 Q208.866 1428.46 208.866 1421.36 Q208.866 1414.23 207.037 1410.69 Q205.232 1407.12 201.598 1407.12 M201.598 1403.42 Q207.408 1403.42 210.463 1408.02 Q213.542 1412.61 213.542 1421.36 Q213.542 1430.08 210.463 1434.69 Q207.408 1439.27 201.598 1439.27 Q195.787 1439.27 192.709 1434.69 Q189.653 1430.08 189.653 1421.36 Q189.653 1412.61 192.709 1408.02 Q195.787 1403.42 201.598 1403.42 Z" fill="#000000" fill-rule="nonzero" fill-opacity="1" /><path clip-path="url(#clip760)" d="M231.76 1407.12 Q228.148 1407.12 226.32 1410.69 Q224.514 1414.23 224.514 1421.36 Q224.514 1428.46 226.32 1432.03 Q228.148 1435.57 231.76 1435.57 Q235.394 1435.57 237.199 1432.03 Q239.028 1428.46 239.028 1421.36 Q239.028 1414.23 237.199 1410.69 Q235.394 1407.12 231.76 1407.12 M231.76 1403.42 Q237.57 1403.42 240.625 1408.02 Q243.704 1412.61 243.704 1421.36 Q243.704 1430.08 240.625 1434.69 Q237.57 1439.27 231.76 1439.27 Q225.949 1439.27 222.871 1434.69 Q219.815 1430.08 219.815 1421.36 Q219.815 1412.61 222.871 1408.02 Q225.949 1403.42 231.76 1403.42 Z" fill="#000000" fill-rule="nonzero" fill-opacity="1" /><path clip-path="url(#clip760)" d="M127.2 1091.93 Q123.589 1091.93 121.76 1095.49 Q119.955 1099.04 119.955 1106.17 Q119.955 1113.27 121.76 1116.84 Q123.589 1120.38 127.2 1120.38 Q130.834 1120.38 132.64 1116.84 Q134.468 1113.27 134.468 1106.17 Q134.468 1099.04 132.64 1095.49 Q130.834 1091.93 127.2 1091.93 M127.2 1088.23 Q133.01 1088.23 136.066 1092.83 Q139.144 1097.42 139.144 1106.17 Q139.144 1114.89 136.066 1119.5 Q133.01 1124.08 127.2 1124.08 Q121.39 1124.08 118.311 1119.5 Q115.256 1114.89 115.256 1106.17 Q115.256 1097.42 118.311 1092.83 Q121.39 1088.23 127.2 1088.23 Z" fill="#000000" fill-rule="nonzero" fill-opacity="1" /><path clip-path="url(#clip760)" d="M147.362 1117.53 L152.246 1117.53 L152.246 1123.41 L147.362 1123.41 L147.362 1117.53 Z" fill="#000000" fill-rule="nonzero" fill-opacity="1" /><path clip-path="url(#clip760)" d="M172.431 1091.93 Q168.82 1091.93 166.991 1095.49 Q165.186 1099.04 165.186 1106.17 Q165.186 1113.27 166.991 1116.84 Q168.82 1120.38 172.431 1120.38 Q176.065 1120.38 177.871 1116.84 Q179.7 1113.27 179.7 1106.17 Q179.7 1099.04 177.871 1095.49 Q176.065 1091.93 172.431 1091.93 M172.431 1088.23 Q178.241 1088.23 181.297 1092.83 Q184.376 1097.42 184.376 1106.17 Q184.376 1114.89 181.297 1119.5 Q178.241 1124.08 172.431 1124.08 Q166.621 1124.08 163.542 1119.5 Q160.487 1114.89 160.487 1106.17 Q160.487 1097.42 163.542 1092.83 Q166.621 1088.23 172.431 1088.23 Z" fill="#000000" fill-rule="nonzero" fill-opacity="1" /><path clip-path="url(#clip760)" d="M196.621 1119.48 L212.94 1119.48 L212.94 1123.41 L190.996 1123.41 L190.996 1119.48 Q193.658 1116.72 198.241 1112.09 Q202.848 1107.44 204.028 1106.1 Q206.274 1103.57 207.153 1101.84 Q208.056 1100.08 208.056 1098.39 Q208.056 1095.63 206.112 1093.9 Q204.19 1092.16 201.088 1092.16 Q198.889 1092.16 196.436 1092.92 Q194.005 1093.69 191.227 1095.24 L191.227 1090.52 Q194.051 1089.38 196.505 1088.8 Q198.959 1088.23 200.996 1088.23 Q206.366 1088.23 209.561 1090.91 Q212.755 1093.6 212.755 1098.09 Q212.755 1100.22 211.945 1102.14 Q211.158 1104.04 209.051 1106.63 Q208.473 1107.3 205.371 1110.52 Q202.269 1113.71 196.621 1119.48 Z" fill="#000000" fill-rule="nonzero" fill-opacity="1" /><path clip-path="url(#clip760)" d="M222.801 1088.85 L241.158 1088.85 L241.158 1092.79 L227.084 1092.79 L227.084 1101.26 Q228.102 1100.91 229.121 1100.75 Q230.139 1100.56 231.158 1100.56 Q236.945 1100.56 240.324 1103.73 Q243.704 1106.91 243.704 1112.32 Q243.704 1117.9 240.232 1121 Q236.76 1124.08 230.44 1124.08 Q228.264 1124.08 225.996 1123.71 Q223.75 1123.34 221.343 1122.6 L221.343 1117.9 Q223.426 1119.04 225.648 1119.59 Q227.871 1120.15 230.347 1120.15 Q234.352 1120.15 236.69 1118.04 Q239.028 1115.93 239.028 1112.32 Q239.028 1108.71 236.69 1106.61 Q234.352 1104.5 230.347 1104.5 Q228.473 1104.5 226.598 1104.92 Q224.746 1105.33 222.801 1106.21 L222.801 1088.85 Z" fill="#000000" fill-rule="nonzero" fill-opacity="1" /><path clip-path="url(#clip760)" d="M126.205 776.737 Q122.593 776.737 120.765 780.302 Q118.959 783.843 118.959 790.973 Q118.959 798.079 120.765 801.644 Q122.593 805.186 126.205 805.186 Q129.839 805.186 131.644 801.644 Q133.473 798.079 133.473 790.973 Q133.473 783.843 131.644 780.302 Q129.839 776.737 126.205 776.737 M126.205 773.033 Q132.015 773.033 135.07 777.64 Q138.149 782.223 138.149 790.973 Q138.149 799.7 135.07 804.306 Q132.015 808.89 126.205 808.89 Q120.394 808.89 117.316 804.306 Q114.26 799.7 114.26 790.973 Q114.26 782.223 117.316 777.64 Q120.394 773.033 126.205 773.033 Z" fill="#000000" fill-rule="nonzero" fill-opacity="1" /><path clip-path="url(#clip760)" d="M146.366 802.339 L151.251 802.339 L151.251 808.218 L146.366 808.218 L146.366 802.339 Z" fill="#000000" fill-rule="nonzero" fill-opacity="1" /><path clip-path="url(#clip760)" d="M171.436 776.737 Q167.825 776.737 165.996 780.302 Q164.19 783.843 164.19 790.973 Q164.19 798.079 165.996 801.644 Q167.825 805.186 171.436 805.186 Q175.07 805.186 176.876 801.644 Q178.704 798.079 178.704 790.973 Q178.704 783.843 176.876 780.302 Q175.07 776.737 171.436 776.737 M171.436 773.033 Q177.246 773.033 180.301 777.64 Q183.38 782.223 183.38 790.973 Q183.38 799.7 180.301 804.306 Q177.246 808.89 171.436 808.89 Q165.626 808.89 162.547 804.306 Q159.491 799.7 159.491 790.973 Q159.491 782.223 162.547 777.64 Q165.626 773.033 171.436 773.033 Z" fill="#000000" fill-rule="nonzero" fill-opacity="1" /><path clip-path="url(#clip760)" d="M191.644 773.658 L210 773.658 L210 777.593 L195.926 777.593 L195.926 786.066 Q196.945 785.718 197.963 785.556 Q198.982 785.371 200 785.371 Q205.787 785.371 209.167 788.542 Q212.547 791.714 212.547 797.13 Q212.547 802.709 209.074 805.811 Q205.602 808.89 199.283 808.89 Q197.107 808.89 194.838 808.519 Q192.593 808.149 190.186 807.408 L190.186 802.709 Q192.269 803.843 194.491 804.399 Q196.713 804.954 199.19 804.954 Q203.195 804.954 205.533 802.848 Q207.871 800.742 207.871 797.13 Q207.871 793.519 205.533 791.413 Q203.195 789.306 199.19 789.306 Q197.315 789.306 195.44 789.723 Q193.588 790.14 191.644 791.019 L191.644 773.658 Z" fill="#000000" fill-rule="nonzero" fill-opacity="1" /><path clip-path="url(#clip760)" d="M231.76 776.737 Q228.148 776.737 226.32 780.302 Q224.514 783.843 224.514 790.973 Q224.514 798.079 226.32 801.644 Q228.148 805.186 231.76 805.186 Q235.394 805.186 237.199 801.644 Q239.028 798.079 239.028 790.973 Q239.028 783.843 237.199 780.302 Q235.394 776.737 231.76 776.737 M231.76 773.033 Q237.57 773.033 240.625 777.64 Q243.704 782.223 243.704 790.973 Q243.704 799.7 240.625 804.306 Q237.57 808.89 231.76 808.89 Q225.949 808.89 222.871 804.306 Q219.815 799.7 219.815 790.973 Q219.815 782.223 222.871 777.64 Q225.949 773.033 231.76 773.033 Z" fill="#000000" fill-rule="nonzero" fill-opacity="1" /><path clip-path="url(#clip760)" d="M127.2 461.545 Q123.589 461.545 121.76 465.11 Q119.955 468.651 119.955 475.781 Q119.955 482.887 121.76 486.452 Q123.589 489.994 127.2 489.994 Q130.834 489.994 132.64 486.452 Q134.468 482.887 134.468 475.781 Q134.468 468.651 132.64 465.11 Q130.834 461.545 127.2 461.545 M127.2 457.841 Q133.01 457.841 136.066 462.448 Q139.144 467.031 139.144 475.781 Q139.144 484.508 136.066 489.114 Q133.01 493.697 127.2 493.697 Q121.39 493.697 118.311 489.114 Q115.256 484.508 115.256 475.781 Q115.256 467.031 118.311 462.448 Q121.39 457.841 127.2 457.841 Z" fill="#000000" fill-rule="nonzero" fill-opacity="1" /><path clip-path="url(#clip760)" d="M147.362 487.147 L152.246 487.147 L152.246 493.026 L147.362 493.026 L147.362 487.147 Z" fill="#000000" fill-rule="nonzero" fill-opacity="1" /><path clip-path="url(#clip760)" d="M172.431 461.545 Q168.82 461.545 166.991 465.11 Q165.186 468.651 165.186 475.781 Q165.186 482.887 166.991 486.452 Q168.82 489.994 172.431 489.994 Q176.065 489.994 177.871 486.452 Q179.7 482.887 179.7 475.781 Q179.7 468.651 177.871 465.11 Q176.065 461.545 172.431 461.545 M172.431 457.841 Q178.241 457.841 181.297 462.448 Q184.376 467.031 184.376 475.781 Q184.376 484.508 181.297 489.114 Q178.241 493.697 172.431 493.697 Q166.621 493.697 163.542 489.114 Q160.487 484.508 160.487 475.781 Q160.487 467.031 163.542 462.448 Q166.621 457.841 172.431 457.841 Z" fill="#000000" fill-rule="nonzero" fill-opacity="1" /><path clip-path="url(#clip760)" d="M191.413 458.466 L213.635 458.466 L213.635 460.457 L201.088 493.026 L196.204 493.026 L208.01 462.401 L191.413 462.401 L191.413 458.466 Z" fill="#000000" fill-rule="nonzero" fill-opacity="1" /><path clip-path="url(#clip760)" d="M222.801 458.466 L241.158 458.466 L241.158 462.401 L227.084 462.401 L227.084 470.873 Q228.102 470.526 229.121 470.364 Q230.139 470.179 231.158 470.179 Q236.945 470.179 240.324 473.35 Q243.704 476.522 243.704 481.938 Q243.704 487.517 240.232 490.619 Q236.76 493.697 230.44 493.697 Q228.264 493.697 225.996 493.327 Q223.75 492.957 221.343 492.216 L221.343 487.517 Q223.426 488.651 225.648 489.207 Q227.871 489.762 230.347 489.762 Q234.352 489.762 236.69 487.656 Q239.028 485.549 239.028 481.938 Q239.028 478.327 236.69 476.221 Q234.352 474.114 230.347 474.114 Q228.473 474.114 226.598 474.531 Q224.746 474.948 222.801 475.827 L222.801 458.466 Z" fill="#000000" fill-rule="nonzero" fill-opacity="1" /><path clip-path="url(#clip760)" d="M126.205 146.353 Q122.593 146.353 120.765 149.917 Q118.959 153.459 118.959 160.589 Q118.959 167.695 120.765 171.26 Q122.593 174.802 126.205 174.802 Q129.839 174.802 131.644 171.26 Q133.473 167.695 133.473 160.589 Q133.473 153.459 131.644 149.917 Q129.839 146.353 126.205 146.353 M126.205 142.649 Q132.015 142.649 135.07 147.255 Q138.149 151.839 138.149 160.589 Q138.149 169.315 135.07 173.922 Q132.015 178.505 126.205 178.505 Q120.394 178.505 117.316 173.922 Q114.26 169.315 114.26 160.589 Q114.26 151.839 117.316 147.255 Q120.394 142.649 126.205 142.649 Z" fill="#000000" fill-rule="nonzero" fill-opacity="1" /><path clip-path="url(#clip760)" d="M146.366 171.954 L151.251 171.954 L151.251 177.834 L146.366 177.834 L146.366 171.954 Z" fill="#000000" fill-rule="nonzero" fill-opacity="1" /><path clip-path="url(#clip760)" d="M162.246 173.899 L169.885 173.899 L169.885 147.533 L161.575 149.2 L161.575 144.941 L169.839 143.274 L174.514 143.274 L174.514 173.899 L182.153 173.899 L182.153 177.834 L162.246 177.834 L162.246 173.899 Z" fill="#000000" fill-rule="nonzero" fill-opacity="1" /><path clip-path="url(#clip760)" d="M201.598 146.353 Q197.987 146.353 196.158 149.917 Q194.352 153.459 194.352 160.589 Q194.352 167.695 196.158 171.26 Q197.987 174.802 201.598 174.802 Q205.232 174.802 207.037 171.26 Q208.866 167.695 208.866 160.589 Q208.866 153.459 207.037 149.917 Q205.232 146.353 201.598 146.353 M201.598 142.649 Q207.408 142.649 210.463 147.255 Q213.542 151.839 213.542 160.589 Q213.542 169.315 210.463 173.922 Q207.408 178.505 201.598 178.505 Q195.787 178.505 192.709 173.922 Q189.653 169.315 189.653 160.589 Q189.653 151.839 192.709 147.255 Q195.787 142.649 201.598 142.649 Z" fill="#000000" fill-rule="nonzero" fill-opacity="1" /><path clip-path="url(#clip760)" d="M231.76 146.353 Q228.148 146.353 226.32 149.917 Q224.514 153.459 224.514 160.589 Q224.514 167.695 226.32 171.26 Q228.148 174.802 231.76 174.802 Q235.394 174.802 237.199 171.26 Q239.028 167.695 239.028 160.589 Q239.028 153.459 237.199 149.917 Q235.394 146.353 231.76 146.353 M231.76 142.649 Q237.57 142.649 240.625 147.255 Q243.704 151.839 243.704 160.589 Q243.704 169.315 240.625 173.922 Q237.57 178.505 231.76 178.505 Q225.949 178.505 222.871 173.922 Q219.815 169.315 219.815 160.589 Q219.815 151.839 222.871 147.255 Q225.949 142.649 231.76 142.649 Z" fill="#000000" fill-rule="nonzero" fill-opacity="1" /><path clip-path="url(#clip760)" d="M18.0438 868.128 L24.314 868.128 Q22.5634 871.788 21.704 875.035 Q20.8447 878.281 20.8447 881.305 Q20.8447 886.557 22.8817 889.421 Q24.9187 892.254 28.6745 892.254 Q31.8255 892.254 33.4488 890.376 Q35.0402 888.466 36.0269 883.183 L36.8226 879.3 Q38.1912 872.106 41.6605 868.701 Q45.098 865.263 50.8908 865.263 Q57.7976 865.263 61.3624 869.91 Q64.9272 874.525 64.9272 883.469 Q64.9272 886.843 64.1633 890.663 Q63.3994 894.45 61.9035 898.524 L55.2831 898.524 Q57.4793 894.609 58.5933 890.853 Q59.7073 887.098 59.7073 883.469 Q59.7073 877.963 57.543 874.971 Q55.3786 871.979 51.3682 871.979 Q47.8671 871.979 45.8937 874.144 Q43.9204 876.276 42.9337 881.178 L42.1698 885.093 Q40.7375 892.286 37.682 895.5 Q34.6264 898.715 29.1837 898.715 Q22.8817 898.715 19.2532 894.291 Q15.6248 889.835 15.6248 882.037 Q15.6248 878.695 16.2295 875.226 Q16.8343 871.756 18.0438 868.128 Z" fill="#000000" fill-rule="nonzero" fill-opacity="1" /><path clip-path="url(#clip760)" d="M18.2347 849.699 L28.3562 849.699 L28.3562 837.636 L32.9077 837.636 L32.9077 849.699 L52.2594 849.699 Q56.6199 849.699 57.8613 848.522 Q59.1026 847.312 59.1026 843.652 L59.1026 837.636 L64.0042 837.636 L64.0042 843.652 Q64.0042 850.431 61.4897 853.009 Q58.9434 855.587 52.2594 855.587 L32.9077 855.587 L32.9077 859.884 L28.3562 859.884 L28.3562 855.587 L18.2347 855.587 L18.2347 849.699 Z" fill="#000000" fill-rule="nonzero" fill-opacity="1" /><path clip-path="url(#clip760)" d="M44.7161 799.442 L47.5806 799.442 L47.5806 826.369 Q53.6281 825.987 56.8109 822.74 Q59.9619 819.462 59.9619 813.637 Q59.9619 810.264 59.1344 807.113 Q58.3069 803.93 56.6518 800.811 L62.1899 800.811 Q63.5267 803.962 64.227 807.272 Q64.9272 810.582 64.9272 813.988 Q64.9272 822.518 59.9619 827.515 Q54.9967 832.48 46.5303 832.48 Q37.7774 832.48 32.6531 827.769 Q27.4968 823.027 27.4968 815.006 Q27.4968 807.813 32.1438 803.643 Q36.7589 799.442 44.7161 799.442 M42.9973 805.298 Q38.1912 805.362 35.3266 808.004 Q32.4621 810.614 32.4621 814.942 Q32.4621 819.844 35.2312 822.804 Q38.0002 825.732 43.0292 826.178 L42.9973 805.298 Z" fill="#000000" fill-rule="nonzero" fill-opacity="1" /><path clip-path="url(#clip760)" d="M58.657 784.164 L77.5631 784.164 L77.5631 790.053 L28.3562 790.053 L28.3562 784.164 L33.7671 784.164 Q30.5842 782.318 29.0564 779.517 Q27.4968 776.685 27.4968 772.77 Q27.4968 766.277 32.6531 762.234 Q37.8093 758.16 46.212 758.16 Q54.6147 758.16 59.771 762.234 Q64.9272 766.277 64.9272 772.77 Q64.9272 776.685 63.3994 779.517 Q61.8398 782.318 58.657 784.164 M46.212 764.24 Q39.7508 764.24 36.0905 766.913 Q32.3984 769.555 32.3984 774.202 Q32.3984 778.849 36.0905 781.522 Q39.7508 784.164 46.212 784.164 Q52.6732 784.164 56.3653 781.522 Q60.0256 778.849 60.0256 774.202 Q60.0256 769.555 56.3653 766.913 Q52.6732 764.24 46.212 764.24 Z" fill="#000000" fill-rule="nonzero" fill-opacity="1" /><path clip-path="url(#clip760)" d="M29.4065 725.727 L34.9447 725.727 Q33.6716 728.21 33.035 730.883 Q32.3984 733.557 32.3984 736.421 Q32.3984 740.782 33.7352 742.978 Q35.072 745.142 37.7456 745.142 Q39.7826 745.142 40.9603 743.583 Q42.1061 742.023 43.1565 737.313 L43.6021 735.307 Q44.9389 729.069 47.3897 726.459 Q49.8086 723.817 54.1691 723.817 Q59.1344 723.817 62.0308 727.764 Q64.9272 731.679 64.9272 738.554 Q64.9272 741.419 64.3543 744.538 Q63.8132 747.625 62.6992 751.063 L56.6518 751.063 Q58.3387 747.816 59.198 744.665 Q60.0256 741.514 60.0256 738.427 Q60.0256 734.289 58.6251 732.061 Q57.1929 729.833 54.6147 729.833 Q52.2276 729.833 50.9545 731.456 Q49.6813 733.048 48.5037 738.49 L48.0262 740.527 Q46.8804 745.97 44.5251 748.389 Q42.138 750.808 38.0002 750.808 Q32.9713 750.808 30.2341 747.243 Q27.4968 743.678 27.4968 737.122 Q27.4968 733.875 27.9743 731.011 Q28.4517 728.146 29.4065 725.727 Z" fill="#000000" fill-rule="nonzero" fill-opacity="1" /><path clip-path="url(#clip760)" d="M28.3562 714.492 L28.3562 708.635 L64.0042 708.635 L64.0042 714.492 L28.3562 714.492 M14.479 714.492 L14.479 708.635 L21.895 708.635 L21.895 714.492 L14.479 714.492 Z" fill="#000000" fill-rule="nonzero" fill-opacity="1" /><path clip-path="url(#clip760)" d="M28.3562 698.927 L28.3562 671.109 L33.7034 671.109 L59.3254 693.135 L59.3254 671.109 L64.0042 671.109 L64.0042 699.723 L58.657 699.723 L33.035 677.698 L33.035 698.927 L28.3562 698.927 Z" fill="#000000" fill-rule="nonzero" fill-opacity="1" /><path clip-path="url(#clip760)" d="M44.7161 631.674 L47.5806 631.674 L47.5806 658.601 Q53.6281 658.219 56.8109 654.972 Q59.9619 651.694 59.9619 645.869 Q59.9619 642.495 59.1344 639.344 Q58.3069 636.162 56.6518 633.042 L62.1899 633.042 Q63.5267 636.193 64.227 639.504 Q64.9272 642.814 64.9272 646.219 Q64.9272 654.749 59.9619 659.747 Q54.9967 664.712 46.5303 664.712 Q37.7774 664.712 32.6531 660.001 Q27.4968 655.259 27.4968 647.238 Q27.4968 640.045 32.1438 635.875 Q36.7589 631.674 44.7161 631.674 M42.9973 637.53 Q38.1912 637.594 35.3266 640.236 Q32.4621 642.846 32.4621 647.174 Q32.4621 652.076 35.2312 655.036 Q38.0002 657.964 43.0292 658.41 L42.9973 637.53 Z" fill="#000000" fill-rule="nonzero" fill-opacity="1" /><path clip-path="url(#clip760)" d="M42.4881 571.709 L64.0042 571.709 L64.0042 577.565 L42.679 577.565 Q37.6183 577.565 35.1038 579.539 Q32.5894 581.512 32.5894 585.459 Q32.5894 590.201 35.6131 592.938 Q38.6368 595.676 43.8567 595.676 L64.0042 595.676 L64.0042 601.564 L14.479 601.564 L14.479 595.676 L33.8944 595.676 Q30.6797 593.575 29.0883 590.742 Q27.4968 587.878 27.4968 584.154 Q27.4968 578.011 31.3163 574.86 Q35.1038 571.709 42.4881 571.709 Z" fill="#000000" fill-rule="nonzero" fill-opacity="1" /><polyline clip-path="url(#clip762)" style="stroke:#009af9; stroke-linecap:round; stroke-linejoin:round; stroke-width:4; stroke-opacity:1; fill:none" points="338.375,86.1857 369.919,117.335 401.463,170.519 433.006,177.47 464.55,234.832 496.094,285.644 527.637,318.304 559.181,363.291 590.725,344.038 622.268,334.28 653.812,375.018 685.356,423.27 716.9,481.086 748.443,489.526 779.987,516.323 811.531,572.371 843.074,584.667 874.618,601.367 906.162,660.673 937.706,682.548 969.249,714.186 1000.79,778.749 1032.34,784.517 1063.88,821.407 1095.42,821.407 1126.97,821.407 1158.51,835.403 1190.06,875.463 1221.6,914.944 1253.14,944.278 1284.69,981.82 1316.23,1009.04 1347.77,1024.49 1379.32,1026.7 1410.86,1053.68 1442.4,1059 1473.95,1077.63 1505.49,1087.51 1537.04,1117.19 1568.58,1152.55 1600.12,1179.48 1631.67,1207.6 1663.21,1209.52 1694.75,1216.32 1726.3,1229.02 1757.84,1240.93 1789.39,1259 1820.93,1274.45 1852.47,1282 1884.02,1291.52 1915.56,1302.56 1947.1,1309.91 1978.65,1324.29 2010.19,1336.05 2041.74,1342.76 2073.28,1356.34 2104.82,1361.86 2136.37,1365.54 2167.91,1367.82 2199.45,1370.92 2231,1375.2 2262.54,1378.36 2294.08,1384.24 "/>
<path clip-path="url(#clip760)" d="M2023.92 196.789 L2283.65 196.789 L2283.65 93.1086 L2023.92 93.1086  Z" fill="#ffffff" fill-rule="evenodd" fill-opacity="1"/>
<polyline clip-path="url(#clip760)" style="stroke:#000000; stroke-linecap:round; stroke-linejoin:round; stroke-width:4; stroke-opacity:1; fill:none" points="2023.92,196.789 2283.65,196.789 2283.65,93.1086 2023.92,93.1086 2023.92,196.789 "/>
<polyline clip-path="url(#clip760)" style="stroke:#009af9; stroke-linecap:round; stroke-linejoin:round; stroke-width:4; stroke-opacity:1; fill:none" points="2046.95,144.949 2185.16,144.949 "/>
<path clip-path="url(#clip760)" d="M2222.03 164.636 Q2220.23 169.266 2218.51 170.678 Q2216.8 172.09 2213.93 172.09 L2210.53 172.09 L2210.53 168.525 L2213.03 168.525 Q2214.79 168.525 2215.76 167.692 Q2216.73 166.858 2217.91 163.756 L2218.68 161.812 L2208.19 136.303 L2212.7 136.303 L2220.81 156.581 L2228.91 136.303 L2233.42 136.303 L2222.03 164.636 Z" fill="#000000" fill-rule="nonzero" fill-opacity="1" /><path clip-path="url(#clip760)" d="M2240.71 158.293 L2248.35 158.293 L2248.35 131.928 L2240.04 133.595 L2240.04 129.335 L2248.31 127.669 L2252.98 127.669 L2252.98 158.293 L2260.62 158.293 L2260.62 162.229 L2240.71 162.229 L2240.71 158.293 Z" fill="#000000" fill-rule="nonzero" fill-opacity="1" /></svg>
